<svg xmlns="http://www.w3.org/2000/svg" width="4188.154" height="1740.666" viewBox="0 0 4188.154 1740.666"><g transform="translate(0 0)"><path d="M148.8,395.243l-96.029-6.4,32.01,144.045,108.832-44.813Z" transform="translate(151.411 1115.647)" fill="#ffb9b9"/><path d="M753.726,482.412,529.659,264.744,401.616,363.977,148.739,668.07l28.81,44.813L484.842,504.818,692.907,776.9l198.461-99.229Z" transform="translate(426.757 759.595)" fill="#2f2e41"/><path d="M753.726,482.412,529.659,264.744,401.616,363.977,148.739,668.07l28.81,44.813L484.842,504.818,692.907,776.9l198.461-99.229Z" transform="translate(426.757 759.595)" opacity="0.1"/><path d="M684.545,690.167l-28.809,22.407L422.064,632.549l-54.417-22.406L258.813,632.549s0-89.627,102.432-86.427L466.877,571.73l124.839,9.6Z" transform="translate(515.147 695.883)" fill="#ffb9b9"/><path d="M1197,675.809l-70.423,44.813h-83.226L656.035,576.576,89.461,679.009,73.454,557.369,592.016,330.1l454.542,150.445Z" transform="translate(210.751 947.118)" fill="#2f2e41"/><path d="M360.054,726.63l-48.015,9.6-10.463-12.207a64.68,64.68,0,0,1-8.743-71.019h0L427.275,476.952s38.412-86.427,99.231-51.216-51.216,92.829-51.216,92.829L408.069,624.2l6.4,54.417Z" transform="translate(593.16 326.517)" fill="#ffb9b9"/><circle cx="124.838" cy="124.838" r="124.838" transform="translate(1132.471 595.407)" fill="#ffb9b9"/><path d="M369.258,458.678l57.62,137.642L564.52,538.7s-44.814-108.833-44.814-112.035S369.258,458.678,369.258,458.678Z" transform="translate(832.032 352.797)" fill="#ffb9b9"/><path d="M944.119,799.755A717.244,717.244,0,0,1,908.944,1021.6l-9.351,28.759-44.814,204.863-48.015,12.8-35.211-44.813L701.131,1172l-51.216-83.226L606,1015.6l-13.7-22.855L544.283,752.67,361.824,650.239l-60.819-9.6,12.8-35.211L368.226,531.8l54.417-6.4,16-12.8,12.8,6.4,51.216-28.81,16,6.4,93.6,8.707,56.85-11.908,81.753-43.884,33.482,5.474,115.236,96.03A716.659,716.659,0,0,1,944.119,799.755Z" transform="translate(636.203 418.915)" fill="#575a89"/><path d="M292.441,766.375S321.111,717.783,309,712.11s-63.538-28.289-63.538-28.289l-75.418-24.994S61.221,497.092,58.832,637.739,138.07,812.2,138.07,812.2s72.8,156.672,114.039,131.689,82.5-109.792,82.5-109.792S260.246,794.116,292.441,766.375Z" transform="translate(-58.781 794.083)" fill="#2f2e41"/><path d="M662.892,421.7,541.253,501.725,359.7,665.422,346,642.567,307.582,450.509h9.6l99.233-182.455Z" transform="translate(882.504 769.092)" opacity="0.1"/><path d="M490,263.09,390.768,445.545H355.559l-22.406,64.019-51.216,12.807L419.578,672.816,614.835,496.761l121.639-80.026Z" transform="translate(808.921 754.849)" fill="#575a89"/><path d="M390.785,459.836l-13.526,5.2a18.882,18.882,0,0,1-4.827-26.542l-25-1.17a188.745,188.745,0,0,1,281.773-22.712c1.138-3.92,13.543,3.706,18.608,11.438,1.7-6.378,13.334,24.453,17.448,46.246,1.905-7.256,9.228,4.458,2.812,15.7,4.065-.594,5.9,9.806,2.754,15.6,4.447-2.089,3.7,10.326-1.124,18.623,6.346-.564-50.05,86.962-72.883,138.114-6.63-30.464-14.085-62.543-35.464-85.235-3.634-3.857-7.614-7.371-11.586-10.877l-21.488-18.968c-24.987-22.056-47.717-49.277-81-57.521-22.875-5.665-37.339-6.944-24.873-32.721-11.263,4.7-21.781,11.69-33.146,16.055C389.419,467.47,391.009,463.442,390.785,459.836Z" transform="translate(769.422 167.586)" fill="#2f2e41"/><circle cx="22.407" cy="22.407" r="22.407" transform="translate(1297.32 712.243)" fill="#ffb9b9"/><rect width="108.337" height="108.337" transform="translate(690.41 231.028)" fill="#61961f"/><path d="M379.772,394.322H248.22V262.77H379.772ZM253.94,388.6H374.052V268.489H253.939Z" transform="translate(484.753 -116.862)" fill="#3f3d56"/><rect width="108.337" height="108.337" transform="translate(284.939 565.875) rotate(74.063)" fill="#61961f"/><path d="M160.028,538.464l-36.121-126.5,126.5-36.121,36.121,126.5ZM130.978,415.9l32.98,115.5,115.5-32.98-32.98-115.5Z" transform="translate(128.079 207.575)" fill="#3f3d56"/><rect width="108.337" height="108.337" transform="matrix(-0.683, 0.731, -0.731, -0.683, 361.737, 105.706)" fill="#61961f"/><path d="M112.781,348.335,202.6,252.223l96.113,89.823-89.824,96.112Zm90.1-88.028-82.013,87.755,87.755,82.013,82.013-87.754Z" transform="translate(96.155 -147.125)" fill="#3f3d56"/><path d="M2969.994,245.808H1963.363V225.06h-456.45v20.748H496.124A68.092,68.092,0,0,0,428.032,313.9V1692.3a68.092,68.092,0,0,0,68.093,68.093H2969.994a68.092,68.092,0,0,0,68.091-68.092V313.9A68.091,68.091,0,0,0,2970,245.808Z" transform="translate(1000.662 -225.06)" fill="#3f3d56"/><rect width="2427.483" height="1369.35" transform="translate(1519.984 141.084)" fill="#61961f"/><circle cx="24.897" cy="24.897" r="24.897" transform="translate(2706.752 53.943)" fill="#61961f"/><path d="M2126.11,1405.814H392.845V36.464Z" transform="translate(1127.139 104.621)" opacity="0.1"/><circle cx="233.337" cy="233.337" r="233.337" transform="translate(1666.475 941.292)" fill="#f2f2f2"/><path d="M778.451,1004.438c-160.3,0-290.249-129.949-290.248-290.25S618.152,423.94,778.452,423.94,1068.7,553.89,1068.7,714.19C1068.519,874.416,938.676,1004.258,778.451,1004.438Zm0-576.7c-158.205,0-286.456,128.25-286.456,286.454s128.25,286.456,286.454,286.456S1064.9,872.395,1064.9,714.19C1064.727,556.06,936.581,427.914,778.451,427.735Z" transform="translate(1173.304 345.563)" fill="#3f3d56"/><rect width="226.754" height="47.381" transform="translate(3298.049 879.585)" fill="#3f3d56"/><rect width="775.022" height="20.306" transform="translate(3023.915 510.687)" fill="#3f3d56"/><rect width="775.022" height="20.306" transform="translate(3023.915 574.989)" fill="#3f3d56"/><rect width="775.022" height="20.306" transform="translate(3023.915 639.294)" fill="#3f3d56"/><rect width="775.022" height="20.306" transform="translate(3023.915 703.596)" fill="#3f3d56"/><rect width="775.022" height="20.306" transform="translate(3023.915 767.902)" fill="#3f3d56"/><rect width="94.763" height="94.763" transform="translate(3704.173 168.865)" fill="#f2f2f2"/><path d="M1137.329,389.9H1022.26V274.826h115.069Zm-110.065-5h105.063V279.829H1027.264Z" transform="translate(2705.606 -82.272)" fill="#3f3d56"/><path d="M3183.2,624.168H2946.289V607.1a3.386,3.386,0,0,0-3.385-3.384h-81.226a3.384,3.384,0,0,0-3.384,3.384v17.069h-50.8V607.1a3.384,3.384,0,0,0-3.385-3.384h-81.225a3.384,3.384,0,0,0-3.384,3.384v17.069h-50.747V607.1a3.384,3.384,0,0,0-3.384-3.384h-81.227a3.383,3.383,0,0,0-3.384,3.384v17.069H2530V607.1a3.384,3.384,0,0,0-3.384-3.384h-81.227A3.384,3.384,0,0,0,2442,607.1v17.069h-50.764V607.1a3.385,3.385,0,0,0-3.385-3.384h-81.226a3.384,3.384,0,0,0-3.384,3.384v17.069h-50.767V607.1a3.383,3.383,0,0,0-3.384-3.384h-81.227a3.385,3.385,0,0,0-3.385,3.384v17.069h-50.765V607.1a3.383,3.383,0,0,0-3.384-3.384H1474.07a3.384,3.384,0,0,0-3.384,3.384v17.069h-50.765V607.1a3.384,3.384,0,0,0-3.384-3.384H1335.31a3.384,3.384,0,0,0-3.384,3.384v17.069h-50.765V607.1a3.384,3.384,0,0,0-3.384-3.384H1196.55a3.383,3.383,0,0,0-3.384,3.384v17.069H1142.4V607.1a3.384,3.384,0,0,0-3.385-3.384H1057.79a3.384,3.384,0,0,0-3.385,3.384v17.069h-50.764V607.1a3.384,3.384,0,0,0-3.385-3.384H919.03a3.384,3.384,0,0,0-3.384,3.384v17.069H864.881V607.1a3.384,3.384,0,0,0-3.385-3.384H780.27a3.384,3.384,0,0,0-3.384,3.384v17.069H726.12V607.1a3.384,3.384,0,0,0-3.384-3.384H641.511a3.384,3.384,0,0,0-3.385,3.384v17.069H482.444a81.225,81.225,0,0,0-81.225,81.226v36.728a81.225,81.225,0,0,0,81.225,81.225H3183.2a81.226,81.226,0,0,0,81.225-81.225V705.394A81.226,81.226,0,0,0,3183.2,624.168Z" transform="translate(923.734 861.366)" fill="#3f3d56"/></g></svg>