<svg xmlns="http://www.w3.org/2000/svg" width="390" height="323.485" viewBox="0 0 390 323.485"><circle cx="8.177" cy="8.177" r="8.177" transform="translate(65.095 4.631)" fill="#f1f1f1"/><circle cx="5.158" cy="5.158" r="5.158" transform="translate(105.799 25.385)" fill="#f1f1f1"/><circle cx="3.684" cy="3.684" r="3.684" transform="translate(142.188 42.376)" fill="#f1f1f1"/><circle cx="8.177" cy="8.177" r="8.177" transform="translate(311 4.631)" fill="#f1f1f1"/><circle cx="5.158" cy="5.158" r="5.158" transform="translate(276.333 25.385)" fill="#f1f1f1"/><circle cx="3.684" cy="3.684" r="3.684" transform="translate(242.894 42.376)" fill="#f1f1f1"/><ellipse cx="43.781" cy="4.988" rx="43.781" ry="4.988" transform="translate(156.206 285.301)" fill="#f1f1f1"/><path d="M427.412,331.82l-295.9-1.994,2.986-202.78L430.4,131.4Z" transform="translate(-71.675 -69.223)" fill="#f1f1f1"/><line x2="387.935" transform="translate(1.032 321.878)" fill="none" stroke="#3f3d56" stroke-miterlimit="10" stroke-width="2"/><line x2="387.935" transform="translate(1.032 1)" fill="none" stroke="#3f3d56" stroke-miterlimit="10" stroke-width="2"/><path d="M684.709,2.447,539.446,61.111v200.2l145.263,61.458Z" transform="translate(-295.709 -0.795)" fill="#3f3d56" stroke="#3f3d56" stroke-miterlimit="10" stroke-width="2"/><line x2="104.291" y2="24.211" transform="translate(255.842 217.685)" fill="none" stroke="#fff" stroke-miterlimit="10" stroke-width="2"/><line x2="104.291" y2="15.83" transform="translate(255.842 201.855)" fill="none" stroke="#fff" stroke-miterlimit="10" stroke-width="2"/><line x2="104.291" y2="11.174" transform="translate(255.842 185.094)" fill="none" stroke="#fff" stroke-miterlimit="10" stroke-width="2"/><path d="M666.629,283.285V307.5l-83.806-5.587V283.285Z" transform="translate(-319.532 -155.028)" fill="#61961f"/><path d="M666.629,283.285V307.5l-83.806-5.587v-.931l81.943,4.656V283.285Z" transform="translate(-319.532 -155.028)" opacity="0.2"/><path d="M1,2.447,146.263,61.111v200.2L1,322.771Z" transform="translate(0 -0.795)" fill="#3f3d56" stroke="#3f3d56" stroke-miterlimit="10" stroke-width="2"/><line x1="104.291" y2="24.211" transform="translate(29.866 217.685)" fill="none" stroke="#fff" stroke-miterlimit="10" stroke-width="2"/><line x1="104.291" y2="15.83" transform="translate(29.866 201.855)" fill="none" stroke="#fff" stroke-miterlimit="10" stroke-width="2"/><line x1="104.291" y2="11.174" transform="translate(29.866 185.094)" fill="none" stroke="#fff" stroke-miterlimit="10" stroke-width="2"/><path d="M93.95,283.285V307.5l83.806-5.587V283.285Z" transform="translate(-51.047 -155.028)" fill="#61961f"/><path d="M93.95,283.285V307.5l83.806-5.587v-.931l-81.944,4.656V283.285Z" transform="translate(-51.047 -155.028)" opacity="0.2"/><line x2="72.855" y2="0.896" transform="translate(159.797 76.525)" fill="none" stroke="#3f3d56" stroke-miterlimit="10" stroke-width="2"/><path d="M355,167.811l.623-.653-3.219-3.066,3.294-2.987-.607-.668-4.01,3.638Z" transform="translate(-192.261 -87.562)" fill="#3f3d56"/><path d="M507.393,169.636l-.607-.668,3.293-2.986-3.219-3.067.623-.652L511.4,166Z" transform="translate(-277.773 -88.564)" fill="#3f3d56"/><circle cx="6.096" cy="6.096" r="6.096" transform="translate(190.129 70.877)" fill="#3f3d56"/><path d="M583.145,692.069s-1.663,7.2-1.108,9.975a65.4,65.4,0,0,1,.554,8.867h1.663v-6.65s4.434,2.217,5.542,5.542,12.746,2.217,13.3,1.108-5.542-3.325-5.542-3.325l-4.988-14.963Z" transform="translate(-395.073 -421.454)" fill="#2f2e41"/><path d="M576.028,536.346s2.771,9.975,2.771,13.855-2.217,53.757,0,53.757,11.084,1.108,11.638-1.108-1.108-22.722,0-24.939,8.867-49.323,8.313-49.878S578.8,525.816,576.028,536.346Z" transform="translate(-391.835 -331.125)" fill="#2f2e41"/><path d="M570.657,523.408s-4.988,13.3-.554,13.3,7.2-3.879,10.53-2.771,13.3-12.746,13.3-12.746Z" transform="translate(-387.572 -327.61)" fill="#3f3d56"/><circle cx="8.867" cy="8.867" r="8.867" transform="translate(195 122.368)" fill="#ffb9b9"/><path d="M613.3,388.7s-3.879,12.746-2.771,14.409-10.53-.554-10.53-.554,3.879-10.53,3.325-12.746S613.3,388.7,613.3,388.7Z" transform="translate(-405 -254.695)" fill="#ffb9b9"/><path d="M587.229,407.194s-4.988-1.663-6.65,0-7.759,41.01-11.638,44.89-6.65,9.421-3.325,9.975,30.481,3.879,31.589,2.217.831-18.011.277-21.891S592.771,407.748,587.229,407.194Z" transform="translate(-385.302 -264.597)" fill="#61961f"/><path d="M436.869,434.1l2.217,5.542,4.988-3.88-.554-3.879Z" transform="translate(-239.375 -236.635)" fill="#ffb9b9"/><path d="M587.324,425.24s-.277-6.927-3.6,1.94-10.53,20.505-4.434,29.372,6.265,12.736,9.144,12.469,11.915,3.048,11.915,1.94-10.53-18.289-10.53-18.289a10.2,10.2,0,0,1,2.771-8.867C596.468,439.926,594.528,426.9,587.324,425.24Z" transform="translate(-392.324 -273.5)" opacity="0.1"/><path d="M588.226,412.957s-6.1-1.108-9.421,7.759-10.53,20.505-4.434,29.372,9.2,17.714,12.084,17.447,8.976-1.929,8.976-3.038-10.53-18.288-10.53-18.288a10.2,10.2,0,0,1,2.771-8.867C591.551,433.462,595.43,414.62,588.226,412.957Z" transform="translate(-389.624 -268.144)" fill="#61961f"/><path d="M580.088,353.348c-4.56-.644-9.056,2.245-11.577,6.1s-3.435,8.517-4.1,13.074a15.626,15.626,0,0,1-.938,4.024c-1.1,2.531-3.6,4.443-4,7.174-.257,1.727.387,3.442.723,5.156a18.9,18.9,0,0,1-2.858,13.292c-1.084,1.765-2.663,3.547-4.733,3.611l4.338.672a7.572,7.572,0,0,1-3.59,3.668,21.978,21.978,0,0,0,19.224-20.931c.063-1.57-.013-3.255.84-4.575a8.872,8.872,0,0,1,3.2-2.467c4.021-2.377,7.381-6.318,7.918-10.958a39.538,39.538,0,0,0-.156-6.119c-.085-2.148,3.522-3.6,4.008-5.654C589.116,356.288,582.957,353.754,580.088,353.348Z" transform="translate(-378.969 -235.382)" fill="#2f2e41"/></svg>