<svg xmlns="http://www.w3.org/2000/svg" width="388" height="341.839" viewBox="0 0 388 341.839"><g transform="translate(0 0)"><path d="M103.455,146.494H27V96.205H97.277Z" transform="translate(-15.961 -56.871)" fill="#efefef"/><circle cx="6.95" cy="6.95" r="6.95" transform="translate(50.902 47.855)" fill="#3f3d56"/><path d="M314.45,90.2c.659-.748,1.341-1.492,2.029-2.212l.72.687c-.679.71-1.352,1.445-2,2.182Z" transform="translate(-237.198 -65.08)" fill="#3f3d56"/><path d="M330.181,50.62c1.52-1.349,3.114-2.649,4.738-3.866l.6.8c-1.6,1.2-3.175,2.483-4.674,3.814Zm9.779-7.325c1.72-1.078,3.507-2.1,5.311-3.029l.457.884c-1.78.919-3.543,1.925-5.239,2.988Zm10.855-5.608c1.871-.778,3.8-1.489,5.736-2.113l.306.947c-1.909.616-3.813,1.317-5.66,2.085ZM362.669,34.9l-.228-.968c1.979-.466,4-.854,6-1.156l.148.984C366.614,34.059,364.622,34.442,362.669,34.9Zm11.917-1.792-.066-.992c2.025-.136,4.081-.188,6.111-.156l-.016.995c-2-.032-4.03.02-6.029.154Zm12.049.193.1-.989c2.021.2,4.059.489,6.057.857l-.18.978c-1.972-.363-3.982-.648-5.975-.846Zm37.272,131.036c1.588-1.217,3.147-2.516,4.632-3.862l.668.737c-1.505,1.365-3.085,2.682-4.695,3.915ZM398.494,35.485l.26-.96c1.959.531,3.92,1.151,5.831,1.842l-.338.935C402.362,36.621,400.426,36.009,398.494,35.485Zm34.342,120.76c1.367-1.462,2.691-3,3.935-4.571l.78.617c-1.26,1.592-2.6,3.151-3.988,4.633ZM409.831,39.586l.414-.9c1.846.845,3.68,1.777,5.451,2.77l-.486.867C413.462,41.34,411.653,40.42,409.831,39.586ZM440.318,146.8c1.111-1.667,2.166-3.4,3.136-5.153l.87.482c-.983,1.775-2.053,3.533-3.178,5.223ZM420.345,45.483l.556-.824c1.683,1.134,3.34,2.353,4.925,3.621l-.621.776C423.64,47.8,422.006,46.6,420.345,45.483Zm25.813,90.767c.824-1.826,1.582-3.709,2.253-5.6l.937.333c-.68,1.913-1.449,3.821-2.284,5.672ZM429.753,53.015l.683-.723c1.476,1.4,2.911,2.868,4.264,4.377l-.74.664C432.624,55.844,431.209,54.391,429.753,53.015ZM450.2,124.892c.514-1.939.953-3.921,1.3-5.89l.979.175c-.356,2-.8,4-1.322,5.97ZM437.8,61.984l.793-.6c1.225,1.618,2.4,3.306,3.484,5.018l-.84.533C440.16,65.245,439,63.579,437.8,61.984Zm14.52,51.039c.187-1.994.293-4.021.314-6.025l.994.011c-.021,2.031-.129,4.086-.318,6.107Zm-8.068-40.867.881-.461c.94,1.8,1.818,3.656,2.609,5.528l-.916.387c-.78-1.847-1.646-3.681-2.573-5.453Zm8.2,28.813c-.144-1.994-.375-4.01-.684-5.992l.983-.153c.314,2.01.547,4.053.693,6.074Zm-3.506-17.712.945-.311c.633,1.925,1.2,3.91,1.671,5.88l-.967.233c-.468-1.946-1.024-3.9-1.649-5.8Z" transform="translate(-246.497 -31.952)" fill="#3f3d56"/><path d="M541.012,365.878c.849-.5,1.7-1.016,2.527-1.547l.536.837c-.84.538-1.7,1.065-2.562,1.568Z" transform="translate(-371.129 -228.437)" fill="#3f3d56"/><path d="M27,140.818l15.237-15.237,13.791,13.791,26.166-26.166,21.465,21.874v21.465H27Z" transform="translate(-15.961 -66.921)" fill="#61961f"/><path d="M762.5,555.158v98.533H889.244V555.158Zm110.193,26.35h-9.816v-9.816h9.816Z" transform="translate(-502.062 -341.245)" fill="#3f3d56"/><rect width="8.177" height="10.63" transform="translate(55.195 175.072)" fill="#3f3d56"/><rect width="8.177" height="10.63" transform="translate(185.668 239.565) rotate(45)" fill="#3f3d56"/><rect width="8.177" height="10.63" transform="translate(161.546 53.946) rotate(45)" fill="#3f3d56"/><path d="M782.2,717.748c-.453.888-.929,1.778-1.416,2.646l-.868-.487c.481-.857.951-1.735,1.4-2.611Z" transform="translate(-512.358 -437.093)" fill="#3f3d56"/><path d="M577.982,611.1c-1.137,1.684-2.358,3.339-3.629,4.921l-.775-.623c1.254-1.561,2.458-3.194,3.58-4.855Zm-7.654,9.524c-1.4,1.471-2.876,2.9-4.392,4.254l-.662-.742c1.5-1.333,2.953-2.744,4.333-4.2Zm-9.122,8.128c-1.619,1.219-3.312,2.386-5.031,3.472l-.531-.841c1.7-1.071,3.367-2.223,4.964-3.425Zm-10.791,5.642.461.881c-1.8.943-3.661,1.821-5.526,2.61l-.388-.916C546.8,636.191,548.638,635.325,550.416,634.395Zm-11.1,4.7.311.945c-1.928.634-3.907,1.2-5.88,1.669l-.232-.967c1.947-.466,3.9-1.02,5.8-1.646ZM527.6,641.9l.151.983c-2.007.307-4.053.534-6.08.674l-.068-.992c2-.138,4.018-.362,6-.665ZM458.949,524.222c-1.236,1.573-2.423,3.219-3.527,4.892l-.83-.548c1.119-1.7,2.322-3.364,3.576-4.958Zm56.619,118.5-.014.994c-2.029-.028-4.083-.141-6.106-.336l.1-.99C511.54,642.588,513.567,642.7,515.568,642.727ZM452.31,534.281c-.961,1.756-1.862,3.575-2.676,5.405l-.909-.4c.826-1.855,1.738-3.7,2.713-5.478Zm51.258,107.29-.176.979c-2-.36-4.006-.807-5.968-1.33l.256-.961c1.936.515,3.917.956,5.889,1.312Zm-56.158-96.278c-.662,1.891-1.254,3.833-1.758,5.771l-.962-.251c.512-1.964,1.111-3.932,1.782-5.848Zm44.509,93.178-.333.937c-1.912-.681-3.82-1.45-5.67-2.285l.409-.906C488.15,637.04,490.032,637.8,491.918,638.47Zm-47.547-81.512c-.344,1.974-.611,3.986-.793,5.98l-.991-.09c.184-2.022.454-4.061.8-6.061Zm36.564,76.553-.482.87c-1.776-.985-3.532-2.055-5.218-3.181l.552-.827C477.451,631.483,479.183,632.539,480.935,633.51Zm-37.656-64.547c-.016,2.006.051,4.035.2,6.03l-.992.074c-.151-2.022-.218-4.078-.2-6.112Zm27.638,57.857-.619.779c-1.589-1.263-3.143-2.607-4.621-4l.681-.725c1.457,1.37,2.991,2.7,4.558,3.942Zm-26.742-45.834c.314,1.978.715,3.967,1.192,5.914l-.966.237c-.484-1.973-.89-3.99-1.208-5.995Zm17.965,37.583-.739.665c-1.357-1.506-2.669-3.09-3.9-4.707l.791-.6C459.507,615.521,460.8,617.083,462.14,618.569Zm-15.094-25.875c.635,1.9,1.359,3.791,2.151,5.635l-.914.393c-.8-1.869-1.537-3.79-2.18-5.711Zm7.8,16.286-.838.535c-1.091-1.708-2.13-3.49-3.079-5.281l.879-.466C452.74,605.538,453.764,607.3,454.841,608.981Z" transform="translate(-312.765 -322.594)" fill="#3f3d56"/><path d="M493.775,507.544c-.7.691-1.393,1.407-2.064,2.126l-.728-.678c.68-.729,1.384-1.454,2.092-2.155Z" transform="translate(-341.555 -312.68)" fill="#3f3d56"/><path d="M1020.848,416.923c-.094-.153-2.306-3.847-3.073-11.518-.7-7.038-.251-18.9,5.9-35.447,11.655-31.347-2.686-56.639-2.832-56.891l.708-.41a62.778,62.778,0,0,1,5.923,16.781,73.209,73.209,0,0,1-3.032,40.806c-11.635,31.293-2.985,46.107-2.9,46.254Z" transform="translate(-652.82 -197.89)" fill="#3f3d56"/><circle cx="5.315" cy="5.315" r="5.315" transform="translate(358.154 102.706)" fill="#61961f"/><circle cx="5.315" cy="5.315" r="5.315" transform="translate(374.917 122.33)" fill="#3f3d56"/><circle cx="5.315" cy="5.315" r="5.315" transform="translate(363.469 135.414)" fill="#61961f"/><circle cx="5.315" cy="5.315" r="5.315" transform="translate(377.37 146.453)" fill="#61961f"/><circle cx="5.315" cy="5.315" r="5.315" transform="translate(359.38 163.624)" fill="#3f3d56"/><path d="M1032.271,535.054s-5.315-13.083,10.63-22.9Z" transform="translate(-661.033 -315.825)" fill="#3f3d56"/><path d="M986.943,547.632s-2.419-13.913-21.141-13.794Z" transform="translate(-622.243 -328.641)" fill="#3f3d56"/><path d="M596.889,756.566a4.906,4.906,0,1,1,4.906-4.906A4.906,4.906,0,0,1,596.889,756.566Zm0-8.995a4.089,4.089,0,1,0,4.088,4.088,4.089,4.089,0,0,0-4.088-4.088Z" transform="translate(-401.261 -454.506)" fill="#2f2e41"/><path d="M724.141,115.374H716.07V107.3h8.071Zm-7.45-.621h6.83v-6.83h-6.83Z" transform="translate(-474.615 -76.496)" fill="#3f3d56"/><path d="M189.5,661.63l-5.505-5.9,5.9-5.505,5.505,5.9Zm-4.628-5.872,4.658,4.994,4.994-4.658-4.658-4.994Z" transform="translate(-160.076 -397.442)" fill="#2f2e41"/><path d="M390.58,429.95H244.286V370.9H365.974Z" transform="translate(-144.409 -219.254)" fill="#efefef"/><path d="M490.874,443.591H326.017V371.115H460.978l.114.277Zm-163.963-.9H489.538L460.379,372.01H326.912Z" transform="translate(-244.035 -232.448)" fill="#3f3d56"/><rect width="72.923" height="6.711" transform="translate(124.035 161.036)" fill="#61961f"/><rect width="72.923" height="6.711" transform="translate(124.035 174.905)" fill="#61961f"/><rect width="72.923" height="6.711" transform="translate(124.035 188.774)" fill="#61961f"/><path d="M247.923,167.569H125.5V93.158h95.139l.1.268Zm-121.606-.818H246.752L220.068,93.976h-93.75Z" transform="translate(-125.5 -68.134)" fill="#3f3d56"/><path d="M228.773,168.806H151.5V111.158h77.273Zm-76.455-.818h75.638V111.976H152.318Z" transform="translate(-140.87 -78.775)" fill="#3f3d56"/><circle cx="7.359" cy="7.359" r="7.359" transform="translate(114.478 91.667)" fill="#61961f"/><circle cx="7.359" cy="7.359" r="7.359" transform="translate(237.952 203.692)" fill="#61961f"/><circle cx="12.383" cy="12.383" r="12.383" transform="translate(285.702 85.635)" fill="#a0616a"/><path d="M829.66,284.716s4.128,9.288-1.548,12.9,9.287,18.575,9.287,18.575l16.511-17.543s-8.772-5.676-7.224-14.963Z" transform="translate(-540.088 -180.763)" fill="#a0616a"/><path d="M740.491,382.121l-3.612,20.639s-6.192,12.383-6.192,23.219-1.032,12.9-1.032,12.9-10.32,20.639-3.1,21.671,10.32-21.155,10.32-21.155,9.8-24.251,9.8-31.991l6.708-17.027Z" transform="translate(-479.299 -238.954)" fill="#a0616a"/><path d="M928.687,384.645l1.032,18.059s3.612,9.288,1.032,25.8l-2.064,16s4.644,18.059,0,18.575-10.32-11.352-7.224-18.059v-5.676s-3.1-24.251-2.064-28.379l-3.612-19.607Z" transform="translate(-592.677 -240.446)" fill="#a0616a"/><path d="M657.776,697.795l5.16,13.415,11.351-2.064L667.063,694.7Z" transform="translate(-388.843 -410.67)" fill="#a0616a"/><path d="M775.429,728.773l-1.548,19.607h12.9l-.516-17.027Z" transform="translate(-457.479 -430.813)" fill="#a0616a"/><path d="M756.564,470.618l-1.548,7.74s-3.1,2.58-3.1,5.16a5.225,5.225,0,0,1-1.032,3.612s-.516,0-1.032,1.032a6.384,6.384,0,0,1-1.032,1.548s-30.443,30.959-23.735,46.438S744.7,583.1,744.7,583.1s14.963-4.644,14.963-8.256l-14.447-40.762,28.894-29.927,23.219,31.475s-4.644,55.21-1.548,55.726,20.123,4.128,20.639,2.58,3.1-70.173,2.064-72.753-16-33.539-16-33.539,2.58-3.1,1.032-4.128-4.128-10.836-4.128-10.836S759.144,465.974,756.564,470.618Z" transform="translate(-479.376 -290.301)" fill="#2f2e41"/><path d="M815.957,321.413,805.556,315s-6.111.223-7.659,1.771-10.836,5.676-10.836,5.676,2.064,61.917,6.192,59.853,1.032-3.612,4.128-2.064,39.73,2.064,40.246,2.064,1.032-1.032,1.032-1.032l2.064-31.475,6.708-26.315-19.859-9.137Z" transform="translate(-516.581 -198.885)" fill="#d0cde1"/><path d="M774.951,332.9h-4.128s-5.676,1.548-8.256,9.8-3.612,11.867-2.58,12.9,14.963,8.772,14.963,8.772Z" transform="translate(-500.343 -209.858)" fill="#d0cde1"/><path d="M911.827,335.426l7.224.516s9.288,21.671,6.708,22.7-17.543,8.772-17.543,7.224S911.827,335.426,911.827,335.426Z" transform="translate(-588.201 -211.35)" fill="#d0cde1"/><path d="M765.979,748.391l-4.207-1.548-9.724,12.9s-18.059,12.9-1.548,12.383c0,0,12.9-2.064,13.931-5.676,0,0,14.963-4.128,14.963-6.708s-3.439-9.457-4.557-9.631S769.075,752,765.979,748.391Z" transform="translate(-490.855 -454.559)" fill="#2f2e41"/><path d="M908.477,794.717s-12.544-.2-12.464.156-3.532,8.616-3.016,11.711,5.16,7.224,4.128,9.288,3.1,8.256,11.351,8.772,7.224-8.772,7.224-8.772l-4.128-9.8Z" transform="translate(-579.175 -482.825)" fill="#2f2e41"/><path d="M826.537,232.059a23.427,23.427,0,0,1-1.937,1.482,18.419,18.419,0,0,0-2.335,2.32l-.8.894a4.1,4.1,0,0,0-1.372,2.649c.011.378.127.745.172,1.121.181,1.49-.73,3.129.02,4.429.217.376.552.67.791,1.032a2.413,2.413,0,0,1,.381,1.572,1.929,1.929,0,0,0,1.72-1.455,14.654,14.654,0,0,0,.342-2.39,2.565,2.565,0,0,1,1.193-2c1.545-.757,3.32,1.211,4.969.721,1.152-.343,1.759-1.77,2.937-2.01a4.183,4.183,0,0,1,2.438.684c.783.355,1.839.519,2.393-.139.367-.436.406-1.134.892-1.43.583-.355,1.313.139,1.754.66s.929,1.157,1.611,1.138c.9-.025,1.6-1.23,2.457-.944.969.323.524,1.874,1.112,2.71.5.706,1.539.665,2.395.548a.858.858,0,0,0,.893-1.145l-.358-4.741a2.29,2.29,0,0,0-.21-.946c-.249-.451-.764-.679-1.115-1.057-.737-.794-.7-2.185-1.618-2.762-.476-.3-1.1-.291-1.571-.6-.606-.391-.8-1.174-1.226-1.757a3.743,3.743,0,0,0-2.693-1.326c-1.026-.106-2.061.022-3.091-.012-2.1-.068-4.19-.658-6.3-.313C828.552,229.3,827.781,230.86,826.537,232.059Z" transform="translate(-536.044 -148.373)" fill="#2f2e41"/></g></svg>