<svg xmlns="http://www.w3.org/2000/svg" width="389" height="232.239" viewBox="0 0 389 232.239"><g transform="translate(0 0)"><path d="M278.631,584.7l-.44-.165c-.1-.036-9.723-3.725-14.233-12.088s-2.3-18.433-2.279-18.533l.1-.459.44.165c.1.036,9.723,3.725,14.233,12.088s2.3,18.433,2.279,18.533Zm-13.951-12.642c3.813,7.071,11.42,10.7,13.347,11.523.366-2.066,1.516-10.42-2.294-17.484s-11.419-10.693-13.347-11.523C262.021,556.645,260.871,565,264.681,572.062Z" transform="translate(-184.33 -401.403)" fill="#3f3d56"/><path d="M245.164,593.277c8.1,4.876,11.225,14.56,11.225,14.56s-10.018,1.779-18.122-3.1-11.225-14.56-11.225-14.56S237.06,588.4,245.164,593.277Z" transform="translate(-162.09 -425.163)" fill="#d0cde1"/><rect width="246.769" height="0.695" transform="translate(0 183.262)" fill="#3f3d56"/><rect width="246.769" height="0.695" transform="translate(142.231 231.544)" fill="#3f3d56"/><path d="M526.327,381.345l17.507-26.035-17.471,28.835.036,2.93q-1.917.015-3.8-.064l.868-37.657-.024-.29.032-.056.083-3.558L504.39,317.614l19.15,25.172.068.752.656-28.452L507.7,286.228l16.607,23.861-.173-58.944v-.2l.006.193,1.1,46.456,15.092-18.87L525.292,301.6l.329,25.449,13.888-24.838L525.672,330.79l.183,14.151,20.2-34.6-20.135,39.535Z" transform="translate(-343.1 -203.97)" fill="#3f3d56"/><path d="M85.827,381.845l17.507-26.035L85.863,384.646l.037,2.93q-1.917.015-3.8-.064l.868-37.657-.024-.291.032-.056.083-3.558L63.89,318.114l19.15,25.173.068.752.656-28.452L67.2,286.727l16.607,23.861-.173-58.944v-.2l.006.193,1.1,46.456,15.092-18.87L84.792,302.1l.329,25.449,13.888-24.837L85.172,331.29l.183,14.151,20.2-34.6L85.417,350.377Z" transform="translate(-55.609 -204.296)" fill="#3f3d56"/><path d="M358.166,296.5h-.729V276.532a11.559,11.559,0,0,0-11.559-11.559H303.564A11.559,11.559,0,0,0,292,276.532V386.1a11.559,11.559,0,0,0,11.559,11.559h42.314a11.559,11.559,0,0,0,11.56-11.56v-75.38h.729Z" transform="translate(-204.487 -213.123)" fill="#3f3d56"/><path d="M351.686,401.728H309.168a8.99,8.99,0,0,1-8.978-8.981V283.337a8.988,8.988,0,0,1,8.978-8.978h5.677l-.2.479a3.707,3.707,0,0,0-.277,1.416,3.758,3.758,0,0,0,3.754,3.754h24.241a3.758,3.758,0,0,0,3.753-3.754,3.715,3.715,0,0,0-.277-1.416l-.2-.479h6.041a8.989,8.989,0,0,1,8.979,8.978V392.746A8.99,8.99,0,0,1,351.686,401.728ZM309.168,275.054a8.293,8.293,0,0,0-8.284,8.284V392.746a8.3,8.3,0,0,0,8.284,8.287h42.518a8.3,8.3,0,0,0,8.284-8.287V283.337a8.293,8.293,0,0,0-8.284-8.284h-5.037a4.451,4.451,0,0,1-4.284,5.649H318.124a4.451,4.451,0,0,1-4.284-5.649Z" transform="translate(-209.829 -219.249)" fill="#d0cde1"/><rect width="35.922" height="1.335" transform="translate(108.332 129.224)" fill="#d0cde1"/><rect width="35.922" height="1.335" transform="translate(108.332 133.451)" fill="#d0cde1"/><rect width="35.922" height="1.335" transform="translate(108.332 137.678)" fill="#d0cde1"/><rect width="8.139" height="8.139" transform="translate(96.941 130.049)" fill="#d0cde1"/><rect width="35.922" height="1.335" transform="translate(108.332 146.939)" fill="#d0cde1"/><rect width="35.922" height="1.335" transform="translate(108.332 151.166)" fill="#d0cde1"/><rect width="35.922" height="1.335" transform="translate(108.332 155.393)" fill="#d0cde1"/><rect width="8.139" height="8.139" transform="translate(96.941 147.764)" fill="#d0cde1"/><path d="M392.045,386.979c-1.778,6.571-7.867,10.641-7.867,10.641s-3.207-6.585-1.429-13.156,7.867-10.641,7.867-10.641S393.823,380.407,392.045,386.979Z" transform="translate(-263.362 -284.164)" fill="#d0cde1"/><path d="M362.953,386.979c1.778,6.571,7.867,10.641,7.867,10.641s3.207-6.585,1.429-13.156-7.867-10.641-7.867-10.641S361.176,380.407,362.953,386.979Z" transform="translate(-250.442 -284.164)" fill="#d0cde1"/><path d="M348.576,397.96c4.878,4.749,5.474,12.048,5.474,12.048s-7.313-.4-12.191-5.148-5.474-12.048-5.474-12.048S343.7,393.211,348.576,397.96Z" transform="translate(-233.452 -296.557)" fill="#61961f"/><path d="M392.715,397.96c-4.878,4.749-5.474,12.048-5.474,12.048s7.313-.4,12.191-5.148,5.474-12.048,5.474-12.048S397.593,393.211,392.715,397.96Z" transform="translate(-266.643 -296.557)" fill="#61961f"/><rect width="10.738" height="10.366" transform="matrix(0.933, -0.361, 0.361, 0.933, 39.06, 64.119)" fill="#61961f"/><path d="M159.681,295.663l-10.542,4.077L145.2,289.563l10.542-4.077Zm-10.211,3.364,9.488-3.669-3.542-9.159-9.488,3.669Z" transform="translate(-108.678 -226.511)" fill="#3f3d56"/><rect width="10.738" height="10.366" transform="matrix(0.933, -0.361, 0.361, 0.933, 76.482, 5.144)" fill="#61961f"/><path d="M267.416,125.878l-10.542,4.077-3.936-10.177L263.48,115.7ZM257.2,129.242l9.488-3.669-3.542-9.159-9.488,3.669Z" transform="translate(-178.991 -115.701)" fill="#3f3d56"/><path d="M857.966,569.275c-5.3,0-9.952,5.538-12.516,13.808-.181.58-.351,1.177-.51,1.782a51.608,51.608,0,0,0-1.6,12.974c0,15.751,6.558,28.564,14.622,28.564s14.622-12.813,14.622-28.564S866.03,569.275,857.966,569.275Zm0,56.675c-7.812,0-14.169-12.611-14.169-28.111a51.319,51.319,0,0,1,1.616-13.026q.224-.854.481-1.673c2.5-8.041,6.973-13.412,12.072-13.412,7.812,0,14.169,12.611,14.169,28.111s-6.356,28.111-14.169,28.111Z" transform="translate(-564.317 -411.725)" fill="#3f3d56"/><path d="M886.186,636.993c-2.8,0-4.987-7.254-4.987-16.515s2.191-16.515,4.987-16.515,4.987,7.254,4.987,16.515S888.983,636.993,886.186,636.993Zm0-32.577c-2.458,0-4.534,7.355-4.534,16.062s2.076,16.062,4.534,16.062,4.534-7.355,4.534-16.062-2.076-16.062-4.534-16.062Z" transform="translate(-589.023 -434.364)" fill="#3f3d56"/><ellipse cx="1.927" cy="3.793" rx="1.927" ry="3.793" transform="translate(295.802 182.321)" fill="#cfcce0"/><path d="M845.065,387.442l31.058-.113v12.235l-31.058,1.253Z" transform="translate(-551.53 -252.789)" fill="#3f3d56"/><path d="M767.853,460.249l-.452-.025,1.372-24.925h28.1v.453H769.2Z" transform="translate(-500.842 -284.097)" fill="#3f3d56"/><path d="M738.752,617.3l-15.869-2.72.094-.444,15.869,2.72Z" transform="translate(-471.788 -400.817)" fill="#3f3d56"/><rect width="0.454" height="19.335" transform="translate(270.166 222.156) rotate(-85.292)" fill="#3f3d56"/><path d="M853.663,619.421q-.255.819-.481,1.673l-.474.052-14.745,1.639-33.778-3.4,35.139-1.814,13.894,1.793Z" transform="translate(-538.761 -443.245)" fill="#3f3d56"/><path d="M894.079,387.075s-4.91-1.754-8.066,5.261a138.33,138.33,0,0,1-8.066,14.73l2.806.7s.7-4.91,2.455-5.611l-.7,6.313s21.043,7.365,30.512-.7l-.351-2.455s1.4.351,1.4,2.455l1.052-1.052a18.848,18.848,0,0,0-4.208-4.91c-2.072-1.842-2.784-5.345-3.028-7.535a9.118,9.118,0,0,0-2.1-4.966C903.688,386.872,899.866,384.288,894.079,387.075Z" transform="translate(-586.901 -292.025)" fill="#2f2e41"/><path d="M839.945,348.24l-2.04-21.31s-4.081-11.562,2.04-10.655,2.494,9.748,2.494,9.748l3.4,22.217Z" transform="translate(-559.898 -246.573)" fill="#a0616a"/><path d="M756.287,571.377l-2.267,7.708,4.307,3.627,3.174-9.748Z" transform="translate(-492.109 -372.908)" fill="#a0616a"/><path d="M846.591,703.4l-2.267,8.161,7.935,4.987s.227-9.295,1.36-11.108Z" transform="translate(-564.958 -499.258)" fill="#a0616a"/><path d="M825.671,574.251l-1.133,2.267s-12.922-5.894-16.322,2.267-10.882,34.005-10.882,34.005l6.574,2.72,12.015-27.431,27.431-.68,1.133-15.189Z" transform="translate(-534.289 -413.641)" fill="#2f2e41"/><path d="M867.97,575.975s-18.589-3.854-19.95,5.441.68,26.977.907,27.431-.907,8.841-.907,8.841l8.161,1.133s5.214-24.71,2.947-31.058l15.339-.949a10.535,10.535,0,0,0,9.925-9.806c.116-2.027-.391-3.867-2.14-4.887-5.441-3.174-15.416-3.174-15.416-3.174Z" transform="translate(-567.067 -411.512)" fill="#2f2e41"/><path d="M773.986,704.416s-1.587-3.4-3.854-1.814-7.481,4.987-7.481,4.987-8.066,2.84-.907,4.761c6.368,1.708,7.935,1.36,7.935,1.36s5.214.907,5.894.453,1.133-7.708,1.133-7.708S773.533,705.776,773.986,704.416Z" transform="translate(-509.128 -498.465)" fill="#2f2e41"/><path d="M823.967,724.8s-2.267-3.174-3.854-1.814-7.255,5.214-7.255,5.214-9.521,2.72-1.133,5.214,17.683,2.04,17.909,1.133-.453-7.481-.453-7.481S824.421,726.845,823.967,724.8Z" transform="translate(-541.427 -511.826)" fill="#2f2e41"/><circle cx="8.161" cy="8.161" r="8.161" transform="translate(301.583 101.214)" fill="#a0616a"/><path d="M897.611,441.028s-.453,9.295-2.72,9.975-8.615,8.161-5.668,10.428,19.95.68,19.95.68l-1.587-11.788s-3.627-2.494-.68-6.8Z" transform="translate(-593.761 -328.025)" fill="#a0616a"/><path d="M886.234,467.518l-1.587-7.481L879.433,458l-4.307,9.975s-4.874,32.305-3.514,32.758a6.131,6.131,0,0,0,2.38.34s7.254-2.267,9.521-1.133,14.055,2.04,14.055,2.04,8.161-4.307,7.708-8.161,0-25.391,0-25.391l-1.02-9.635-8.945,1.4Z" transform="translate(-582.61 -339.1)" fill="#cfcce0"/><path d="M819.4,304.241l-.227-1.36-6.348-7.708L809.2,282.251l-8.842,3.4,6.348,15.642,9.068,11.562Z" transform="translate(-522.352 -184.211)" fill="#cfcce0"/><path d="M900.254,411.649s2.806-3.858,5.261-4.559,2.806-4.209,2.806-4.209,6.313,7.014,10.171,7.365.351-8.417.351-8.417l-7.014-1.754-6.663.7-5.261,3.507Z" transform="translate(-601.231 -301.298)" fill="#2f2e41"/><path d="M894.268,450.276l-.22-9.3h-21.1l-.674,24.943-.453-.012.686-25.385h21.977l.007.219.227,9.521Z" transform="translate(-568.994 -287.504)" fill="#3f3d56"/><path d="M934.28,399.522h-.454v-17.3l7.318,2.124-.127.435-6.738-1.956Z" transform="translate(-609.459 -249.454)" fill="#3f3d56"/><path d="M953.907,582.98c-5.3,0-9.952,5.538-12.516,13.808-.181.58-.351,1.177-.51,1.782a51.619,51.619,0,0,0-1.6,12.974c0,15.751,6.558,28.564,14.622,28.564s14.622-12.813,14.622-28.564S961.972,582.98,953.907,582.98Zm0,56.675c-7.812,0-14.169-12.611-14.169-28.111a51.316,51.316,0,0,1,1.616-13.026q.224-.854.481-1.673c2.5-8.041,6.973-13.412,12.072-13.412,7.812,0,14.169,12.611,14.169,28.111S961.718,639.655,953.907,639.655Z" transform="translate(-626.933 -420.67)" fill="#3f3d56"/><path d="M982.127,650.7c-2.8,0-4.987-7.255-4.987-16.515s2.191-16.515,4.987-16.515,4.987,7.254,4.987,16.515S984.924,650.7,982.127,650.7Zm0-32.577c-2.458,0-4.534,7.355-4.534,16.062s2.076,16.062,4.534,16.062,4.534-7.355,4.534-16.062-2.076-16.062-4.534-16.062Z" transform="translate(-651.639 -443.309)" fill="#3f3d56"/><ellipse cx="1.927" cy="3.793" rx="1.927" ry="3.793" transform="translate(329.128 187.081)" fill="#cfcce0"/><path d="M944.269,381.129l4.761,1.814-.907,2.494-3.854-1.587Z" transform="translate(-616.275 -248.743)" fill="#3f3d56"/><path d="M890.1,437.257v3.627h13.507V437.5Z" transform="translate(-580.921 -285.375)" fill="#3f3d56"/><path d="M790.242,432.036v3.627h13.507v-3.386Z" transform="translate(-515.75 -281.967)" fill="#3f3d56"/><path d="M882.642,513.444h-.11v-3.019a1.747,1.747,0,0,0-1.747-1.747h-6.4a1.747,1.747,0,0,0-1.747,1.747v16.561a1.747,1.747,0,0,0,1.747,1.747h6.4a1.747,1.747,0,0,0,1.747-1.747V515.593h.11Z" transform="translate(-583.439 -372.177)" fill="#3f3d56"/><circle cx="1.07" cy="1.07" r="1.07" transform="translate(293.133 140.576)" fill="#d0cde1"/><path d="M905.173,540.983l-21.4-.4s-11.952,2.736-10.353-3.242,9.969-1.366,9.969-1.366l22.46-.845Z" transform="translate(-583.848 -388.882)" fill="#a0616a"/><path d="M938.419,461.418l2.04-1.587s3.4-1.814,4.081,4.534,5.667,27.431.68,27.658-17.683.453-17.683.453l1.36-7.028,10.428-.68Z" transform="translate(-619.267 -340.14)" fill="#cfcce0"/><path d="M900.754,377.213l-.68,12.922-9.975,2.04,9.068-3.627Z" transform="translate(-580.921 -246.187)" opacity="0.15"/><rect width="10.738" height="10.366" transform="translate(180.86 18.9) rotate(77.218)" fill="#61961f"/><path d="M536.7,176.779l-2.5-11.023,10.641-2.414,2.5,11.023Zm-1.844-10.592,2.251,9.92,9.577-2.173-2.251-9.92Z" transform="translate(-362.553 -146.794)" fill="#3f3d56"/><path d="M843.362,282.361V255.022h79.891V275.24h-72.77Zm.695-26.644v24.967l6.139-6.139h72.362V255.717Z" transform="translate(-564.33 -206.629)" fill="#3f3d56"/><rect width="44.554" height="3.612" transform="translate(297.049 53.481)" fill="#61961f"/><rect width="44.554" height="3.612" transform="translate(297.049 58.9)" fill="#61961f"/></g></svg>