<svg xmlns="http://www.w3.org/2000/svg" width="112.461" height="90" viewBox="0 0 112.461 90"><path d="M153.553,44.505l3.691,5.134Q144.73,55.576,137.35,63.195t-7.38,14.359q0,4.812,9.144,9.3,8.983,4.492,12.835,9.787A21.778,21.778,0,0,1,155.8,109.8a24.394,24.394,0,0,1-6.819,17.647,23.951,23.951,0,0,1-35.615-1.845q-7.14-8.9-7.139-23.02a54.906,54.906,0,0,1,5.615-24.467A59.212,59.212,0,0,1,128.366,57.9,78.993,78.993,0,0,1,153.553,44.505Zm61.445,0,3.69,5.134q-12.514,5.937-19.893,13.556t-7.38,14.359q0,4.812,9.144,9.3,8.982,4.492,12.834,9.787a21.778,21.778,0,0,1,3.85,13.153,24.393,24.393,0,0,1-6.818,17.647,23.951,23.951,0,0,1-35.615-1.845q-7.141-8.9-7.14-23.02a54.893,54.893,0,0,1,5.616-24.467A59.2,59.2,0,0,1,189.811,57.9,78.968,78.968,0,0,1,215,44.505Z" transform="translate(-106.227 -44.505)" fill="#61961f"/></svg>