<svg xmlns="http://www.w3.org/2000/svg" width="140.65" height="70.9" viewBox="0 0 140.65 70.9"><g transform="translate(-267.41 -936.028)"><path d="M277.4,1002.021l-2.346,4.845h-.978l-1.667-3.484-1.685,3.484h-.978l-2.337-4.845h1.22l1.657,3.614,1.723-3.614h.856l1.686,3.641,1.7-3.641Z" fill="#e8e6e6"/><path d="M278.426,1002.021h4.432v.7H279.6v1.34h3.063v.694H279.6v1.422h3.258v.694h-4.432Z" fill="#e8e6e6"/><path d="M289.026,1004.791a1.017,1.017,0,0,1,.313.755,1.078,1.078,0,0,1-.6.97,3.339,3.339,0,0,1-1.672.35h-3.007v-4.845h2.915a3.249,3.249,0,0,1,1.61.337,1.032,1.032,0,0,1,.587.929.92.92,0,0,1-.275.663,1.605,1.605,0,0,1-.758.412A1.755,1.755,0,0,1,289.026,1004.791Zm-3.794-.728h1.545q1.248,0,1.248-.681a.549.549,0,0,0-.306-.51,2.019,2.019,0,0,0-.942-.17h-1.545Zm2.659,1.953a.574.574,0,0,0,.3-.537.6.6,0,0,0-.3-.552,1.968,1.968,0,0,0-.954-.177h-1.705v1.436h1.705A2.041,2.041,0,0,0,287.891,1006.016Z" fill="#e8e6e6"/><path d="M293.222,1002.021h2.439a4.339,4.339,0,0,1,2.528.633,2.227,2.227,0,0,1,0,3.575,4.315,4.315,0,0,1-2.528.637h-2.439Zm2.365,4.13q2.291,0,2.291-1.714t-2.291-1.7h-1.164v3.416Z" fill="#e8e6e6"/><path d="M300.41,1002.021h4.433v.7h-3.259v1.34h3.063v.694h-3.063v1.422h3.259v.694H300.41Z" fill="#e8e6e6"/><path d="M306.766,1006.777a3.793,3.793,0,0,1-1.132-.428l.41-.64a4,4,0,0,0,1.01.392,4.931,4.931,0,0,0,1.15.126,2.572,2.572,0,0,0,1.066-.177.548.548,0,0,0,.377-.5c0-.182-.117-.321-.349-.418a5.568,5.568,0,0,0-1.15-.277,5.854,5.854,0,0,1-1.816-.509.989.989,0,0,1-.567-.912,1.071,1.071,0,0,1,.316-.762,2.115,2.115,0,0,1,.9-.525,4.326,4.326,0,0,1,1.346-.19,5.59,5.59,0,0,1,1.326.153,3.157,3.157,0,0,1,1.03.425l-.4.64a3.8,3.8,0,0,0-1.955-.517,2.236,2.236,0,0,0-1.015.193.59.59,0,0,0-.373.528.473.473,0,0,0,.331.435,4.856,4.856,0,0,0,1.131.28,10.377,10.377,0,0,1,1.351.309,2.106,2.106,0,0,1,.8.429.867.867,0,0,1,.279.656,1.049,1.049,0,0,1-.317.759,2.076,2.076,0,0,1-.912.5,5.012,5.012,0,0,1-1.407.177A6.422,6.422,0,0,1,306.766,1006.777Z" fill="#e8e6e6"/><path d="M312.04,1002.021h1.2v4.845h-1.2Z" fill="#e8e6e6"/><path d="M320.3,1004.246v2.327a5.693,5.693,0,0,1-1.1.259,8.877,8.877,0,0,1-1.313.1,4.8,4.8,0,0,1-1.779-.3,2.511,2.511,0,0,1-1.154-.857,2.229,2.229,0,0,1-.4-1.334,2.2,2.2,0,0,1,.4-1.32,2.524,2.524,0,0,1,1.141-.857,4.6,4.6,0,0,1,1.736-.3,5.524,5.524,0,0,1,1.309.149,3.284,3.284,0,0,1,1.019.422l-.409.64a3.75,3.75,0,0,0-.913-.381,3.906,3.906,0,0,0-.978-.115,2.327,2.327,0,0,0-1.55.449,1.629,1.629,0,0,0-.526,1.313,1.655,1.655,0,0,0,.54,1.344,2.457,2.457,0,0,0,1.611.452,6.424,6.424,0,0,0,1.285-.129v-1.225h-1.434v-.633Z" fill="#e8e6e6"/><path d="M327.33,1002.021v4.845h-.893l-3.577-3.4v3.4h-1.117v-4.845h.895l3.566,3.389v-3.389Z" fill="#e8e6e6"/><path d="M328.866,1002.021H333.3v.7H330.04v1.34H333.1v.694H330.04v1.422H333.3v.694h-4.433Z" fill="#e8e6e6"/><path d="M339.957,1006.866H338.69l-.847-1.612a.619.619,0,0,0-.344-.314,1.755,1.755,0,0,0-.6-.088h-1.2v2.014H334.5v-4.845h2.84a3.314,3.314,0,0,1,1.714.361,1.148,1.148,0,0,1,.587,1.034,1.1,1.1,0,0,1-.35.82,2.022,2.022,0,0,1-.991.48,1.077,1.077,0,0,1,.846.6Zm-2.784-2.694a2.129,2.129,0,0,0,1.006-.184.6.6,0,0,0,.325-.558.589.589,0,0,0-.321-.548,2.153,2.153,0,0,0-1.01-.18h-1.5v1.47Z" fill="#e8e6e6"/><path d="M348.141,1005.206H346.26v1.374h-.82v-1.374h-1.88v-.6h1.88v-1.375h.82v1.375h1.881Z" fill="#e8e6e6"/><path d="M352.1,1002.021h2.439a4.339,4.339,0,0,1,2.528.633,2.227,2.227,0,0,1,0,3.575,4.315,4.315,0,0,1-2.528.637H352.1Zm2.365,4.13q2.291,0,2.291-1.714t-2.291-1.7H353.3v3.416Z" fill="#e8e6e6"/><path d="M359.287,1002.021h4.433v.7h-3.259v1.34h3.063v.694h-3.063v1.422h3.259v.694h-4.433Z" fill="#e8e6e6"/><path d="M371,1002.021l-2.952,4.845h-.978l-2.952-4.845h1.248l2.207,3.743,2.207-3.743Z" fill="#e8e6e6"/><path d="M371.727,1002.021h4.432v.7H372.9v1.34h3.064v.694H372.9v1.422h3.259v.694h-4.432Z" fill="#e8e6e6"/><path d="M377.36,1002.021h1.2v4.124h3.1v.721h-4.3Z" fill="#e8e6e6"/><path d="M383.576,1006.625a2.453,2.453,0,0,1-1.1-.864,2.46,2.46,0,0,1-.005-2.641,2.4,2.4,0,0,1,1.093-.86,4.86,4.86,0,0,1,3.362,0,2.375,2.375,0,0,1,1.09.86,2.487,2.487,0,0,1-.005,2.641,2.432,2.432,0,0,1-1.089.864,4.776,4.776,0,0,1-3.348,0Zm3.106-.861a1.7,1.7,0,0,0,.511-1.327,1.682,1.682,0,0,0-.511-1.317,2.478,2.478,0,0,0-2.869,0,1.676,1.676,0,0,0-.512,1.32,1.7,1.7,0,0,0,.512,1.327,2.454,2.454,0,0,0,2.869,0Z" fill="#e8e6e6"/><path d="M389.717,1002.021H392.6a3.1,3.1,0,0,1,1.666.378,1.19,1.19,0,0,1,0,2.065,3.084,3.084,0,0,1-1.662.382h-1.677v2.02h-1.2Zm2.738,2.144a1.9,1.9,0,0,0,.944-.187.592.592,0,0,0,.322-.541.6.6,0,0,0-.317-.548,1.9,1.9,0,0,0-.949-.187h-1.537v1.463Z" fill="#e8e6e6"/><path d="M396.012,1002.021h4.432v.7h-3.258v1.34h3.063v.694h-3.063v1.422h3.258v.694h-4.432Z" fill="#e8e6e6"/><path d="M407.1,1006.866h-1.267l-.848-1.612a.618.618,0,0,0-.343-.314,1.766,1.766,0,0,0-.606-.088h-1.2v2.014h-1.192v-4.845h2.839a3.311,3.311,0,0,1,1.714.361,1.146,1.146,0,0,1,.587,1.034,1.1,1.1,0,0,1-.349.82,2.03,2.03,0,0,1-.992.48,1.079,1.079,0,0,1,.847.6Zm-2.785-2.694a2.129,2.129,0,0,0,1.006-.184.6.6,0,0,0,.325-.558.587.587,0,0,0-.321-.548,2.153,2.153,0,0,0-1.01-.18h-1.5v1.47Z" fill="#e8e6e6"/></g><g transform="translate(-267.41 -936.028)"><path d="M281.824,996.448h-3.072c-.185,0-.388-.137-.607-.413a7.583,7.583,0,0,1-.689-1.051q-.357-.637-.741-1.411t-.784-1.488a12.436,12.436,0,0,0-.811-1.276,2.651,2.651,0,0,0-.815-.784h-.684q-.384,0-.746,0l-.656-.009c-.2,0-.336-.008-.421-.015v5.155l2.08.241v1.055h-6.3v-1.055l1.792-.25V983.152l-1.664-.259v-1.056h2.9q.438,0,.837-.024l.8-.048.806-.048c.269-.016.555-.024.852-.024a12.873,12.873,0,0,1,2.726.245,5.038,5.038,0,0,1,1.8.724,2.794,2.794,0,0,1,1,1.2,4.194,4.194,0,0,1,.309,1.671,4.113,4.113,0,0,1-.212,1.3,4.395,4.395,0,0,1-.614,1.19,4.2,4.2,0,0,1-.987.97,4.492,4.492,0,0,1-1.322.638,3.027,3.027,0,0,1,.847.73,12.57,12.57,0,0,1,.806,1.079q.395.591.757,1.215t.7,1.157a7.856,7.856,0,0,0,.651.893,1.207,1.207,0,0,0,.6.427l.864.26ZM271.8,988.864c.1.013.256.021.469.025s.441,0,.682,0l.7-.01c.224,0,.4-.005.528-.005a2.945,2.945,0,0,0,2.166-.782,3.232,3.232,0,0,0,.789-2.386,3.874,3.874,0,0,0-.16-1.123,2.108,2.108,0,0,0-.56-.917,2.759,2.759,0,0,0-1.083-.614,5.572,5.572,0,0,0-1.727-.226q-.417,0-.71.014c-.2.01-.361.021-.5.034s-.249.025-.341.038-.178.023-.256.029Z" fill="#e8e6e6"/><path d="M282.936,996.448v-.739l1.351-.182v-8.386l-1.351-.181v-.739h4.4v.739l-1.336.181v8.386l1.336.209v.712Z" fill="#e8e6e6"/><path d="M299.167,996.448h-2.151q-.193,0-.425-.289a5.33,5.33,0,0,1-.482-.735c-.167-.3-.339-.628-.519-.988s-.362-.708-.549-1.042a9.127,9.127,0,0,0-.567-.894,1.856,1.856,0,0,0-.572-.548h-.477c-.18,0-.354,0-.523,0l-.46-.007c-.136,0-.234-.005-.295-.009v3.608l1.457.168v.739h-4.413v-.739l1.254-.175v-8.393l-1.165-.181v-.739h2.032q.306,0,.585-.018c.187-.011.374-.021.561-.033s.374-.023.563-.033.389-.018.6-.018a9.058,9.058,0,0,1,1.907.172,3.5,3.5,0,0,1,1.262.507,1.955,1.955,0,0,1,.7.841,2.927,2.927,0,0,1,.217,1.169,2.872,2.872,0,0,1-.149.91,3.042,3.042,0,0,1-.43.834,2.984,2.984,0,0,1-.69.678,3.132,3.132,0,0,1-.926.447,2.129,2.129,0,0,1,.594.511,8.993,8.993,0,0,1,.563.755q.277.415.53.851c.169.291.333.56.493.81a5.577,5.577,0,0,0,.456.625.844.844,0,0,0,.418.3l.6.182Zm-7.02-5.308c.071.008.18.014.33.016s.308,0,.477,0l.489-.007.369,0a2.062,2.062,0,0,0,1.517-.547,2.263,2.263,0,0,0,.552-1.67,2.71,2.71,0,0,0-.111-.786,1.5,1.5,0,0,0-.393-.642,1.954,1.954,0,0,0-.758-.431,3.922,3.922,0,0,0-1.209-.158c-.194,0-.36,0-.5.011s-.253.015-.347.023-.174.018-.239.027-.125.015-.18.02Z" fill="#e8e6e6"/><path d="M301.763,996.448v-.739l1.919-.188v-8.495l-2.464.068-.553,2.721h-1.082l.246-3.594H309.3l.186,3.594H308.4l-.5-2.721-2.456-.068v8.495l2.069.188v.739Z" fill="#e8e6e6"/><path d="M309.72,996.448l-.007-.739.963-.188,3.786-9.388h1.694l3.689,9.394.956.182v.739h-4.047v-.739l1.217-.188-.7-1.956h-4.45l-.7,1.956,1.262.188v.739Zm5.01-8.184-1.6,4.448h3.822l-1.59-4.448-.313-1.089Z" fill="#e8e6e6"/><path d="M331.812,996.448H329.6a.7.7,0,0,1-.448-.285,5.972,5.972,0,0,1-.56-.736q-.3-.45-.631-1.012c-.222-.374-.446-.744-.676-1.111s-.455-.715-.68-1.042a5.353,5.353,0,0,0-.641-.793l-1.479,1.546v2.512l1.4.209v.712h-4.368v-.739l1.254-.188v-8.38l-1.224-.181v-.739h4.129v.739l-1.2.181v4.7l4.293-4.7-1.217-.187-.007-.739h3.756v.739l-1.127.181-3.2,3.286a5.124,5.124,0,0,1,.765.756q.408.482.821,1.042t.819,1.142c.268.388.517.74.746,1.059s.433.58.612.786.317.313.411.322l.657.175Z" fill="#e8e6e6"/><path d="M339.487,996.448v-1.055l1.92-.26,1.664-11.981-2.272-.259v-1.056h5.8l3.456,9.792.394,1.767.384-1.767,3.3-9.792h5.7v1.056l-2.282.269,1.76,11.961,1.93.27v1.055h-6.251v-1.055l1.835-.26-1.013-8.669-.491-3.782-.671,2.4-3.9,11.52h-1.174l-3.881-10.291-1.174-3.582-.3,3.726-.949,8.678,2.048.26v1.055Z" fill="#e8e6e6"/><path d="M361.3,996.448l-.007-.739.963-.188,3.786-9.388h1.694l3.689,9.394.956.182v.739h-4.047v-.739l1.217-.188-.7-1.956H364.4l-.7,1.956,1.262.188v.739Zm5.011-8.184-1.6,4.448h3.822l-1.59-4.448-.313-1.089Z" fill="#e8e6e6"/><path d="M373.089,996.448v-.739l1.247-.182v-8.386l-1.247-.181v-.739h2.89l5.1,6.626.739,1.243v-6.949l-1.351-.181v-.739h3.756v.739l-1.262.187v9.3h-1.1l-5.211-6.726-1.165-1.794v7.6l1.38.182v.739Z" fill="#e8e6e6"/><path d="M385.542,996.448v-.739l1.247-.182v-8.386l-1.247-.181v-.739h2.89l5.1,6.626.74,1.243v-6.949l-1.352-.181v-.739h3.756v.739l-1.262.187v9.3h-1.1l-5.212-6.726-1.165-1.794v7.6l1.381.182v.739Z" fill="#e8e6e6"/><path d="M396.979,996.448l-.007-.739.963-.188,3.786-9.388h1.694l3.689,9.394.956.182v.739h-4.047v-.739l1.216-.188-.7-1.956h-4.449l-.7,1.956,1.262.188v.739Zm5.01-8.184-1.6,4.448h3.822l-1.59-4.448-.313-1.089Z" fill="#e8e6e6"/></g><g transform="translate(-267.41 -936.028)"><path d="M346.254,951.239a1.579,1.579,0,0,1-.159,1.356l-4.975,7.861-.341.539-2.223-3.239-.085-.123.341-.541,3.752-5.93,2.375-3.752Z" fill="#79ad2c"/><path d="M344.939,947.409l-17.986-3.838a.37.37,0,0,0-.427.482l1.233,3.6a.37.37,0,0,0,.269.241l14.528,3.269Z" fill="#79ad2c"/><path d="M342.556,951.161l-2.157-.485,4.54-3.267Z" fill="#69a71b"/><path d="M347.849,972.039H344.7a.265.265,0,0,1-.215-.112l-6.364-9.018a4.105,4.105,0,0,1-.116-4.564l.451-.713.086.123,2.222,3.239,7.3,10.633A.263.263,0,0,1,347.849,972.039Z" fill="#79ad2c"/><path d="M340.388,972.039h-3.144a.262.262,0,0,1-.214-.112l-5.523-7.825-.087-.123-2.136-3.026a.526.526,0,0,1-.015-.585l1.3-2.062a.526.526,0,0,1,.878-.016l1.857,2.7.085.125,7.211,10.508A.263.263,0,0,1,340.388,972.039Z" fill="#79ad2c"/><path d="M340.769,960.994l-1.941,2.911,2.688-1.822Z" fill="#69a71b"/><path d="M338.813,963.909l1.969-2.915-2.308-3.362a5.247,5.247,0,0,0-1.07,2.522,3.939,3.939,0,0,0,.481,2.4Z" fill="#89b439"/><path d="M327.727,978.644a1,1,0,0,1-1.053.929h-3.681a5.814,5.814,0,0,1-4-1.393,4.506,4.506,0,0,1-1.578-3.531V961.33a.443.443,0,0,0-.168-.341l-4.162-3.411a.633.633,0,0,1-.24-.487h0a.882.882,0,0,1,.339-.683l4.061-3.309a.442.442,0,0,0,.17-.341V940.952a4.506,4.506,0,0,1,1.578-3.531,5.819,5.819,0,0,1,4-1.393h3.681a1,1,0,0,1,1.053.929v1.02a1,1,0,0,1-1.1.928l-.167-.007q-.912-.036-1.4-.036-3.836,0-3.836,2.5v11.145a3.423,3.423,0,0,1-1.333,2.642q-1.122.758-2.225,1.53a.431.431,0,0,0,0,.729q1.1.761,2.222,1.536a3.4,3.4,0,0,1,1.333,2.618v12.705q0,2.473,3.836,2.474.489,0,1.4-.036l.167-.006a1,1,0,0,1,1.1.928Z" fill="#79ad2c"/><path d="M361.66,957.578l-4.161,3.411a.443.443,0,0,0-.168.341v13.319a4.5,4.5,0,0,1-1.592,3.519,5.8,5.8,0,0,1-3.985,1.4h-3.681a1,1,0,0,1-1.052-.929v-1.019a1,1,0,0,1,1.1-.928l.168.006q.91.036,1.4.036,3.862,0,3.862-2.474V961.56a3.4,3.4,0,0,1,1.333-2.618q1.1-.776,2.2-1.536a.432.432,0,0,0,0-.73q-1.1-.773-2.2-1.529a3.426,3.426,0,0,1-1.333-2.642V941.36q0-2.5-3.862-2.5-.491,0-1.4.036l-.168.007a1,1,0,0,1-1.1-.928v-1.02a1,1,0,0,1,1.052-.929h3.681a5.8,5.8,0,0,1,3.985,1.4,4.5,4.5,0,0,1,1.592,3.519v11.806a.441.441,0,0,0,.169.341l4.062,3.309a.882.882,0,0,1,.339.683h0A.631.631,0,0,1,361.66,957.578Z" fill="#79ad2c"/></g></svg>