<svg xmlns="http://www.w3.org/2000/svg" width="175.587" height="39.14" viewBox="0 0 175.587 39.14"><g transform="translate(-249.498 -1064.294)"><path d="M311.621,1082.782H308.86c-.167,0-.348-.124-.547-.371a6.979,6.979,0,0,1-.618-.944q-.321-.575-.666-1.269t-.7-1.338a11.3,11.3,0,0,0-.728-1.147,2.37,2.37,0,0,0-.734-.7h-.614q-.343,0-.671-.005l-.59-.008c-.175,0-.3-.008-.378-.014v4.634l1.87.216v.949h-5.667v-.949l1.611-.225v-10.777l-1.495-.232v-.95h2.607q.393,0,.753-.021l.719-.044.723-.043c.244-.014.5-.021.768-.021a11.67,11.67,0,0,1,2.449.219,4.523,4.523,0,0,1,1.62.653,2.509,2.509,0,0,1,.9,1.078,3.78,3.78,0,0,1,.278,1.5,3.693,3.693,0,0,1-.191,1.169,3.933,3.933,0,0,1-.552,1.069,3.789,3.789,0,0,1-.887.872,4.029,4.029,0,0,1-1.188.573,2.781,2.781,0,0,1,.762.657,10.963,10.963,0,0,1,.723.97q.355.531.681,1.092t.633,1.04a7.3,7.3,0,0,0,.585.8,1.075,1.075,0,0,0,.537.384l.776.233Zm-9.012-6.816c.089.011.23.018.422.021s.4,0,.614,0l.627-.008c.2,0,.36-.005.475-.005a2.647,2.647,0,0,0,1.946-.7,2.9,2.9,0,0,0,.709-2.144,3.5,3.5,0,0,0-.143-1.01,1.911,1.911,0,0,0-.5-.824,2.514,2.514,0,0,0-.974-.553,5.036,5.036,0,0,0-1.553-.2q-.373,0-.637.013c-.176.009-.324.018-.446.03s-.224.023-.307.034-.159.021-.23.027Z" fill="#e8e6e6"/><path d="M312.62,1082.782v-.664l1.215-.163v-7.538l-1.215-.163v-.665h3.96v.665l-1.2.163v7.538l1.2.187v.64Z" fill="#e8e6e6"/><path d="M327.209,1082.782h-1.933c-.117,0-.244-.087-.382-.26a4.676,4.676,0,0,1-.433-.661q-.225-.4-.467-.887t-.493-.937a7.844,7.844,0,0,0-.511-.8,1.676,1.676,0,0,0-.512-.492h-.43c-.161,0-.318,0-.47,0l-.413-.006c-.123,0-.211,0-.265-.008v3.243l1.309.151v.664h-3.967v-.664l1.128-.157v-7.544l-1.047-.163v-.665h1.825c.184,0,.36-.005.527-.015l.5-.03c.168-.01.337-.021.507-.03s.348-.016.537-.016a8.186,8.186,0,0,1,1.714.154,3.175,3.175,0,0,1,1.134.456,1.764,1.764,0,0,1,.627.755,2.644,2.644,0,0,1,.2,1.051,2.557,2.557,0,0,1-.135.819,2.747,2.747,0,0,1-.386.749,2.67,2.67,0,0,1-.621.61,2.808,2.808,0,0,1-.832.4,1.911,1.911,0,0,1,.534.459,7.993,7.993,0,0,1,.507.679q.248.372.476.764c.152.262.3.5.443.728a4.945,4.945,0,0,0,.409.562.757.757,0,0,0,.376.269l.544.163Zm-6.309-4.771c.063.008.162.012.3.014s.278,0,.43,0l.439-.005.332,0a1.848,1.848,0,0,0,1.363-.493,2.032,2.032,0,0,0,.5-1.5,2.4,2.4,0,0,0-.1-.707,1.329,1.329,0,0,0-.352-.577,1.739,1.739,0,0,0-.682-.385,3.5,3.5,0,0,0-1.087-.143c-.175,0-.323,0-.446.01s-.227.012-.312.02-.157.017-.214.025-.113.013-.162.017Z" fill="#e8e6e6"/><path d="M329.543,1082.782v-.664l1.725-.17v-7.635l-2.215.061-.5,2.446h-.973l.222-3.231h8.509l.168,3.231h-.973l-.449-2.446-2.208-.061v7.635l1.858.17v.664Z" fill="#e8e6e6"/><path d="M336.7,1082.782l-.007-.664.867-.17,3.4-8.437h1.523l3.316,8.444.858.163v.664h-3.636v-.664l1.093-.17-.631-1.757h-4l-.63,1.757,1.133.17v.664Zm4.5-7.357-1.435,4H343.2l-1.429-4-.282-.979Z" fill="#e8e6e6"/><path d="M356.552,1082.782h-1.987a.631.631,0,0,1-.4-.257,5.489,5.489,0,0,1-.5-.661c-.179-.269-.368-.573-.566-.909s-.4-.669-.608-1-.409-.642-.611-.935a4.835,4.835,0,0,0-.577-.713l-1.328,1.388v2.26l1.261.187v.64H347.3v-.664l1.128-.17v-7.531l-1.1-.163v-.665h3.711v.665l-1.073.163v4.228l3.858-4.222-1.094-.169-.006-.665H356.1v.665l-1.014.163-2.879,2.953a4.58,4.58,0,0,1,.687.68c.245.288.491.6.739.936s.493.678.735,1.027.465.666.671.951.39.521.551.707.284.282.369.29l.59.157Z" fill="#e8e6e6"/><path d="M363.45,1082.782v-.949l1.726-.233,1.5-10.769-2.043-.232v-.95h5.216l3.106,8.8.356,1.588.344-1.588,2.963-8.8h5.119v.95l-2.051.241,1.582,10.752,1.735.241v.949h-5.618v-.949l1.649-.233-.911-7.791-.441-3.4-.6,2.157-3.509,10.355h-1.054l-3.49-9.25-1.055-3.219-.269,3.349-.853,7.8,1.841.233v.949Z" fill="#e8e6e6"/><path d="M383.059,1082.782l-.007-.664.866-.17,3.4-8.437h1.524l3.315,8.444.859.163v.664h-3.637v-.664l1.094-.17-.631-1.757h-4l-.631,1.757,1.134.17v.664Zm4.5-7.357-1.436,4h3.436l-1.43-4-.281-.979Z" fill="#e8e6e6"/><path d="M393.653,1082.782v-.664l1.121-.163v-7.538l-1.121-.163v-.665h2.6l4.584,5.956.664,1.117v-6.245l-1.215-.163v-.665h3.376v.665l-1.134.169v8.359h-.993l-4.684-6.046-1.047-1.613v6.832l1.241.163v.664Z" fill="#e8e6e6"/><path d="M404.846,1082.782v-.664l1.121-.163v-7.538l-1.121-.163v-.665h2.6l4.584,5.956.664,1.117v-6.245l-1.214-.163v-.665h3.376v.665l-1.134.169v8.359h-.993l-4.685-6.046-1.047-1.613v6.832l1.241.163v.664Z" fill="#e8e6e6"/><path d="M415.126,1082.782l-.007-.664.866-.17,3.4-8.437h1.523l3.316,8.444.858.163v.664h-3.637v-.664l1.094-.17-.631-1.757h-4l-.631,1.757,1.134.17v.664Zm4.5-7.357-1.436,4h3.436l-1.43-4-.281-.979Z" fill="#e8e6e6"/></g><g transform="translate(-249.498 -1064.294)"><path d="M307.652,1090.825l-2.11,4.358h-.88l-1.5-3.134-1.516,3.134h-.879l-2.1-4.358h1.1l1.491,3.25,1.549-3.25h.77l1.516,3.275,1.524-3.275Z" fill="#e8e6e6"/><path d="M308.573,1090.825h3.987v.624h-2.931v1.206h2.755v.624h-2.755v1.28h2.931v.624h-3.987Z" fill="#e8e6e6"/><path d="M318.107,1093.316a.912.912,0,0,1,.282.679.971.971,0,0,1-.54.872,3,3,0,0,1-1.5.316h-2.7v-4.358h2.622a2.918,2.918,0,0,1,1.448.3.927.927,0,0,1,.527.836.829.829,0,0,1-.247.6,1.458,1.458,0,0,1-.681.37A1.578,1.578,0,0,1,318.107,1093.316Zm-3.412-.655h1.39q1.124,0,1.123-.612a.5.5,0,0,0-.276-.459,1.816,1.816,0,0,0-.847-.152H314.7Zm2.391,1.757a.515.515,0,0,0,.272-.483.535.535,0,0,0-.272-.5,1.769,1.769,0,0,0-.858-.159H314.7v1.291h1.533A1.83,1.83,0,0,0,317.086,1094.418Z" fill="#e8e6e6"/><path d="M321.88,1090.825h2.194a3.9,3.9,0,0,1,2.274.57,2,2,0,0,1,0,3.215,3.884,3.884,0,0,1-2.274.573H321.88Zm2.128,3.715q2.06,0,2.059-1.542t-2.059-1.53h-1.047v3.072Z" fill="#e8e6e6"/><path d="M328.345,1090.825h3.986v.624H329.4v1.206h2.755v.624H329.4v1.28h2.931v.624h-3.986Z" fill="#e8e6e6"/><path d="M334.062,1095.1a3.447,3.447,0,0,1-1.018-.386l.368-.575a3.625,3.625,0,0,0,.909.351,4.466,4.466,0,0,0,1.034.113,2.3,2.3,0,0,0,.959-.159.493.493,0,0,0,.339-.447c0-.163-.1-.288-.314-.376a5.005,5.005,0,0,0-1.034-.248,5.317,5.317,0,0,1-1.633-.459.89.89,0,0,1-.511-.82.968.968,0,0,1,.284-.685,1.929,1.929,0,0,1,.809-.472,3.9,3.9,0,0,1,1.21-.17,5.018,5.018,0,0,1,1.193.137,2.843,2.843,0,0,1,.926.382l-.36.575a3.435,3.435,0,0,0-1.759-.465,2,2,0,0,0-.913.175.529.529,0,0,0-.335.474.422.422,0,0,0,.3.391,4.4,4.4,0,0,0,1.017.251,9.112,9.112,0,0,1,1.214.28,1.884,1.884,0,0,1,.721.384.781.781,0,0,1,.251.591.944.944,0,0,1-.285.683,1.866,1.866,0,0,1-.821.449,4.43,4.43,0,0,1-1.264.159A5.948,5.948,0,0,1,334.062,1095.1Z" fill="#e8e6e6"/><path d="M338.8,1090.825h1.081v4.358H338.8Z" fill="#e8e6e6"/><path d="M346.233,1092.826v2.094a5.214,5.214,0,0,1-.988.232,8.047,8.047,0,0,1-1.181.085,4.333,4.333,0,0,1-1.6-.268,2.267,2.267,0,0,1-1.038-.772,2.152,2.152,0,0,1,0-2.386,2.274,2.274,0,0,1,1.025-.772,4.166,4.166,0,0,1,1.563-.268,4.955,4.955,0,0,1,1.176.133,2.9,2.9,0,0,1,.917.38l-.369.575a3.35,3.35,0,0,0-.82-.342,3.484,3.484,0,0,0-.88-.1,2.1,2.1,0,0,0-1.393.4,1.467,1.467,0,0,0-.474,1.182,1.487,1.487,0,0,0,.485,1.208,2.21,2.21,0,0,0,1.449.407,5.741,5.741,0,0,0,1.157-.116v-1.1h-1.29v-.57Z" fill="#e8e6e6"/><path d="M352.557,1090.825v4.358h-.8l-3.217-3.054v3.054h-1.005v-4.358h.8l3.207,3.048v-3.048Z" fill="#e8e6e6"/><path d="M353.938,1090.825h3.987v.624h-2.931v1.206h2.755v.624h-2.755v1.28h2.931v.624h-3.987Z" fill="#e8e6e6"/><path d="M363.913,1095.183h-1.14l-.761-1.451a.564.564,0,0,0-.31-.282,1.563,1.563,0,0,0-.545-.079h-1.08v1.812h-1.072v-4.358h2.555a2.988,2.988,0,0,1,1.541.324,1.034,1.034,0,0,1,.527.931.987.987,0,0,1-.314.737,1.822,1.822,0,0,1-.892.432.971.971,0,0,1,.763.538Zm-2.5-2.424a1.907,1.907,0,0,0,.9-.165.54.54,0,0,0,.293-.5.527.527,0,0,0-.289-.492,1.919,1.919,0,0,0-.908-.162h-1.348v1.321Z" fill="#e8e6e6"/><path d="M371.273,1093.689h-1.691v1.237h-.737v-1.237h-1.692v-.544h1.692v-1.237h.737v1.237h1.691Z" fill="#e8e6e6"/><path d="M374.833,1090.825h2.194a3.9,3.9,0,0,1,2.274.57,2,2,0,0,1,0,3.215,3.884,3.884,0,0,1-2.274.573h-2.194Zm2.128,3.715q2.06,0,2.06-1.542t-2.06-1.53h-1.047v3.072Z" fill="#e8e6e6"/><path d="M381.3,1090.825h3.986v.624h-2.93v1.206h2.754v.624h-2.754v1.28h2.93v.624H381.3Z" fill="#e8e6e6"/><path d="M391.833,1090.825l-2.654,4.358h-.88l-2.654-4.358h1.122l1.984,3.366,1.985-3.366Z" fill="#e8e6e6"/><path d="M392.486,1090.825h3.987v.624h-2.931v1.206H396.3v.624h-2.755v1.28h2.931v.624h-3.987Z" fill="#e8e6e6"/><path d="M397.553,1090.825h1.081v3.709h2.788v.649h-3.869Z" fill="#e8e6e6"/><path d="M403.144,1094.966a2.226,2.226,0,0,1-.989-.778,2.216,2.216,0,0,1,0-2.375,2.176,2.176,0,0,1,.984-.774,4.4,4.4,0,0,1,3.023,0,2.152,2.152,0,0,1,.981.774,2.085,2.085,0,0,1,.339,1.185,2.062,2.062,0,0,1-.344,1.19,2.2,2.2,0,0,1-.98.778,4.313,4.313,0,0,1-3.01,0Zm2.793-.775a1.767,1.767,0,0,0,0-2.378,2.226,2.226,0,0,0-2.58,0A1.5,1.5,0,0,0,402.9,1093a1.525,1.525,0,0,0,.461,1.193,2.208,2.208,0,0,0,2.58,0Z" fill="#e8e6e6"/><path d="M408.666,1090.825h2.588a2.789,2.789,0,0,1,1.5.34,1.07,1.07,0,0,1,0,1.857,2.773,2.773,0,0,1-1.495.343h-1.507v1.818h-1.081Zm2.463,1.928a1.722,1.722,0,0,0,.85-.168.534.534,0,0,0,.289-.487.54.54,0,0,0-.286-.493,1.714,1.714,0,0,0-.853-.167h-1.382v1.315Z" fill="#e8e6e6"/><path d="M414.327,1090.825h3.986v.624h-2.93v1.206h2.755v.624h-2.755v1.28h2.93v.624h-3.986Z" fill="#e8e6e6"/><path d="M424.3,1095.183h-1.14l-.762-1.451a.563.563,0,0,0-.309-.282,1.564,1.564,0,0,0-.545-.079h-1.08v1.812h-1.072v-4.358h2.554a2.983,2.983,0,0,1,1.541.324,1.033,1.033,0,0,1,.528.931.988.988,0,0,1-.314.737,1.827,1.827,0,0,1-.892.432.968.968,0,0,1,.762.538Zm-2.5-2.424a1.907,1.907,0,0,0,.9-.165.542.542,0,0,0,.293-.5.529.529,0,0,0-.289-.492,1.919,1.919,0,0,0-.908-.162H420.45v1.321Z" fill="#e8e6e6"/></g><g transform="translate(-249.498 -1064.294)"><path d="M279.526,1077.966a1.421,1.421,0,0,1-.143,1.219l-4.472,7.065-.307.485-2-2.911-.077-.111.306-.486,3.373-5.33,2.135-3.373Z" fill="#79ad2c"/><path d="M278.344,1074.523l-16.166-3.449a.332.332,0,0,0-.384.433l1.108,3.234a.334.334,0,0,0,.242.217L276.2,1077.9Z" fill="#79ad2c"/><path d="M276.2,1077.9l-1.939-.436,4.081-2.937Z" fill="#69a71b"/><path d="M280.959,1096.661h-2.825a.235.235,0,0,1-.193-.1l-5.721-8.1a3.691,3.691,0,0,1-.1-4.1l.406-.641.076.111,2,2.911,6.558,9.557A.236.236,0,0,1,280.959,1096.661Z" fill="#79ad2c"/><path d="M274.253,1096.661h-2.825a.235.235,0,0,1-.193-.1l-4.964-7.033-.079-.111-1.919-2.72a.471.471,0,0,1-.014-.525l1.173-1.854a.473.473,0,0,1,.79-.015l1.668,2.431.077.113,6.481,9.444A.236.236,0,0,1,274.253,1096.661Z" fill="#79ad2c"/><path d="M274.6,1086.734l-1.745,2.617,2.416-1.637Z" fill="#69a71b"/><path d="M272.838,1089.354l1.769-2.62-2.074-3.022a4.71,4.71,0,0,0-.961,2.267,3.536,3.536,0,0,0,.431,2.159Z" fill="#89b439"/><path d="M262.873,1102.6a.9.9,0,0,1-.946.836h-3.309a5.232,5.232,0,0,1-3.594-1.252,4.052,4.052,0,0,1-1.418-3.174v-11.972a.4.4,0,0,0-.151-.306l-3.741-3.067a.568.568,0,0,1-.216-.437h0a.793.793,0,0,1,.3-.614l3.651-2.974a.4.4,0,0,0,.152-.307V1068.72a4.051,4.051,0,0,1,1.418-3.174,5.232,5.232,0,0,1,3.594-1.252h3.309a.9.9,0,0,1,.946.835v.916a.9.9,0,0,1-.987.835l-.15-.006q-.82-.033-1.259-.033-3.448,0-3.448,2.246V1079.1a3.076,3.076,0,0,1-1.2,2.375q-1.008.681-2,1.376a.388.388,0,0,0,0,.655q.99.682,2,1.38a3.059,3.059,0,0,1,1.2,2.353v11.421q0,2.223,3.448,2.223.439,0,1.259-.032l.15-.006a.9.9,0,0,1,.987.834Z" fill="#79ad2c"/><path d="M293.374,1083.663l-3.741,3.067a.4.4,0,0,0-.151.306v11.972a4.046,4.046,0,0,1-1.43,3.163,5.216,5.216,0,0,1-3.582,1.263h-3.309a.9.9,0,0,1-.946-.836v-.916a.9.9,0,0,1,.987-.834l.15.006q.819.031,1.259.032,3.473,0,3.472-2.223v-11.421a3.062,3.062,0,0,1,1.2-2.353q.987-.7,1.974-1.38a.389.389,0,0,0,0-.656q-.988-.695-1.976-1.375a3.08,3.08,0,0,1-1.2-2.375v-10.016q0-2.246-3.472-2.246-.439,0-1.259.033l-.15.006a.9.9,0,0,1-.987-.835v-.916a.9.9,0,0,1,.946-.835h3.309a5.215,5.215,0,0,1,3.582,1.263,4.045,4.045,0,0,1,1.43,3.163v10.611a.4.4,0,0,0,.152.307l3.651,2.974a.793.793,0,0,1,.3.614h0A.569.569,0,0,1,293.374,1083.663Z" fill="#79ad2c"/></g></svg>