<svg xmlns="http://www.w3.org/2000/svg" width="2666.741" height="2128.526" viewBox="0 0 2666.741 2128.526"><path d="M1352.279,1904.411c-603.453-45.924-1323.1-513.5-1286.461-994.948S799.44-20.174,1402.893,25.749s950.821,945.668,914.183,1427.115S1955.73,1950.334,1352.279,1904.411Z" transform="translate(4.164 -22.5)" fill="#f2f2f2"/><ellipse cx="1259.689" cy="77.175" rx="1259.689" ry="77.175" transform="translate(147.364 1804.89)" fill="#3f3d56"/><ellipse cx="1072.976" cy="51.035" rx="1072.976" ry="51.035" transform="translate(334.076 1829.785)" opacity="0.1"/><ellipse cx="528.258" cy="46.056" rx="528.258" ry="46.056" transform="translate(0 2036.414)" fill="#3f3d56"/><ellipse cx="449.958" cy="30.456" rx="449.958" ry="30.456" transform="translate(78.3 2051.271)" opacity="0.1"/><rect width="1872.107" height="1468.807" transform="translate(488.426 403.3)" fill="#3f3d56"/><path d="M880.223,271.836H418.377a5.6,5.6,0,0,1,0-11.21H880.223a5.6,5.6,0,0,1,0,11.21Z" transform="translate(522.956 332.19)" fill="#f2f2f2"/><path d="M1241.588,296.6h-726.4a5.6,5.6,0,1,1,0-11.21h726.4a5.6,5.6,0,1,1,0,11.21Z" transform="translate(667.156 369.079)" fill="#f2f2f2"/><path d="M881.125,321.368H419.278a5.6,5.6,0,1,1,0-11.21H881.125a5.6,5.6,0,1,1,0,11.21Z" transform="translate(524.296 405.968)" fill="#f2f2f2"/><path d="M1083.3,321.818H621.455a5.6,5.6,0,0,1,0-11.21H1083.3a5.6,5.6,0,1,1,0,11.21Z" transform="translate(825.441 406.638)" fill="#f2f2f2"/><path d="M881.575,346.133H419.728a5.6,5.6,0,0,1,0-11.21H881.575a5.6,5.6,0,0,1,0,11.21Z" transform="translate(524.966 442.855)" fill="#f2f2f2"/><path d="M882.023,370.9H420.178a5.6,5.6,0,0,1,0-11.21H882.023a5.6,5.6,0,1,1,0,11.21Z" transform="translate(525.638 479.745)" fill="#f2f2f2"/><path d="M769.043,272.286H636.766a5.6,5.6,0,0,1,0-11.21H769.042a5.6,5.6,0,0,1,0,11.21Z" transform="translate(848.245 332.86)" fill="#f2f2f2"/><path d="M769.043,346.133H636.766a5.6,5.6,0,0,1,0-11.21H769.042a5.6,5.6,0,0,1,0,11.21Z" transform="translate(848.245 442.855)" fill="#f2f2f2"/><path d="M769.043,370.449H636.765a5.6,5.6,0,1,1,0-11.21H769.042a5.6,5.6,0,1,1,0,11.21Z" transform="translate(848.246 479.074)" fill="#f2f2f2"/><path d="M858.2,370.449H725.922a5.6,5.6,0,0,1,0-11.21H858.2a5.6,5.6,0,1,1,0,11.21Z" transform="translate(981.045 479.074)" fill="#f2f2f2"/><path d="M550.2,296.6H417.927a5.6,5.6,0,1,1,0-11.21H550.2a5.6,5.6,0,1,1,0,11.21Z" transform="translate(522.284 369.079)" fill="#f2f2f2"/><path d="M880.448,636.568H418.6a5.6,5.6,0,0,1,0-11.21H880.448a5.6,5.6,0,1,1,0,11.209Z" transform="translate(523.291 875.46)" fill="#f2f2f2"/><path d="M879.549,686.1H417.7a5.6,5.6,0,0,1,0-11.21H879.549a5.6,5.6,0,0,1,0,11.21Z" transform="translate(521.948 949.236)" fill="#f2f2f2"/><path d="M880,710.865H418.151a5.6,5.6,0,0,1,0-11.21H880a5.6,5.6,0,0,1,0,11.21Z" transform="translate(522.619 986.125)" fill="#f2f2f2"/><path d="M762.061,686.549H629.786a5.6,5.6,0,0,1,0-11.21H762.063a5.6,5.6,0,1,1,0,11.21Z" transform="translate(837.85 949.906)" fill="#f2f2f2"/><path d="M762.061,710.865H629.786a5.6,5.6,0,0,1,0-11.21H762.063a5.6,5.6,0,1,1,0,11.21Z" transform="translate(837.85 986.125)" fill="#f2f2f2"/><path d="M851.22,686.549H718.942a5.6,5.6,0,0,1,0-11.21H851.219a5.6,5.6,0,0,1,0,11.21Z" transform="translate(970.648 949.906)" fill="#f2f2f2"/><path d="M1241.813,661.333h-726.4a5.605,5.605,0,0,1,0-11.21h726.4a5.605,5.605,0,0,1,0,11.21Z" transform="translate(667.491 912.347)" fill="#f2f2f2"/><path d="M550.428,661.333H418.151a5.605,5.605,0,0,1,0-11.21H550.428a5.605,5.605,0,1,1,0,11.21Z" transform="translate(522.619 912.347)" fill="#f2f2f2"/><path d="M1241.813,736.081h-726.4a5.6,5.6,0,1,1,0-11.209h726.4a5.6,5.6,0,1,1,0,11.209Z" transform="translate(667.491 1023.684)" fill="#f2f2f2"/><path d="M550.428,736.081H418.151a5.6,5.6,0,1,1,0-11.209H550.428a5.6,5.6,0,1,1,0,11.209Z" transform="translate(522.619 1023.684)" fill="#f2f2f2"/><path d="M626.373,401.13,447.014,578.246,626.373,755.362l40.355-40.355L531.09,579.366,667.848,442.605Z" transform="translate(665.829 597.485)" fill="#61961f"/><path d="M650.142,401.13,829.5,578.246,650.142,755.362l-40.355-40.355L745.428,579.366,608.667,442.605Z" transform="translate(906.612 597.485)" fill="#61961f"/><circle cx="22.406" cy="22.406" r="22.406" transform="translate(515.81 418.237)" fill="#61961f"/><circle cx="22.406" cy="22.406" r="22.406" transform="translate(575.558 418.237)" fill="#61961f"/><circle cx="22.406" cy="22.406" r="22.406" transform="translate(635.306 418.237)" fill="#61961f"/><rect width="1872.107" height="7.469" transform="translate(488.426 477.985)" opacity="0.1"/><path d="M202.815,782.337a107.386,107.386,0,0,1-20.359,8.72c-12.644,3.454-26.158,2.187-38.929,5.135-5.229,1.208-10.92,3.732-12.583,8.834-1.22,3.743.107,7.784,1.378,11.51,14.112,41.375,22.617,85.306,45.123,122.783A185.835,185.835,0,0,0,212.28,981.61c5.116,4.611,10.914,9.122,17.764,9.846a18.044,18.044,0,0,0,18.349-25.349c-2.018-4.483-5.769-7.957-8.188-12.237a46.7,46.7,0,0,1-4.53-17.4c-2.224-17.7-4.365-36.191,1.766-52.939,4.112-11.233,11.656-20.81,17.94-30.989s11.506-21.837,10.107-33.717c-.954-8.107-4.909-15.527-9.087-22.541s-12.459-25.912-20.869-28.257C226.8,765.59,210.428,778.436,202.815,782.337Z" transform="translate(102.452 1087.507)" fill="#2f2e41"/><path d="M262.087,860.447a34.9,34.9,0,0,1-1.651,11.813c-2.633,6.952-9.164,11.716-12.538,18.34-4.693,9.212-2.566,20.348.543,30.209,1.949,6.182,4.506,12.614,9.74,16.438A32.09,32.09,0,0,0,273,941.994c44.9,6.215,90.513,2.649,135.824,3.951,8.259.237,17,.526,24.211-3.51S444.7,928.254,439.8,921.6c-4.4-5.971-13.108-5.916-20.519-6.268a84.422,84.422,0,0,1-52.063-21.447,37.618,37.618,0,0,1-7.3-8.406,51.6,51.6,0,0,1-3.82-8.757,390.381,390.381,0,0,0-22.613-50.085c-2.437-4.518-5.2-9.224-9.724-11.641a25.68,25.68,0,0,0-10.554-2.3c-11.293-.732-40.537-4.575-49.27,4.207C255.865,825.017,262.266,850.14,262.087,860.447Z" transform="translate(273.298 1152.317)" fill="#2f2e41"/><circle cx="72.133" cy="72.133" r="72.133" transform="translate(532.744 865.712)" fill="#fbbebe"/><path d="M266.966,443.164c-4.291,11.486-11.568,22.274-22.158,28.455l99.766,20.351a105.688,105.688,0,0,1-1.4-44.485,25.642,25.642,0,0,0,.6-10.976c-1.876-7.238-10.024-10.722-17.314-12.384-18.208-4.151-34.311-6.377-51.231-14.418C270.055,418.561,270.78,432.955,266.966,443.164Z" transform="translate(272.773 554.245)" fill="#fbbebe"/><path d="M298.542,427.878a78.017,78.017,0,0,1,68,1.777c12.79,6.74,23.381,16.915,33.786,26.953,9.591,9.253,19.823,19.847,20.5,33.157.33,6.448-1.682,12.754-2.7,19.129a64.144,64.144,0,0,0,34.305,65.9c7.926,13.2,9.561,29.2,9.683,44.6.46,58.344-17.947,117.407-4.806,174.254,3.085,13.346,7.871,26.274,10.536,39.711,3.452,17.4,3.282,35.3,5.088,52.951a237.166,237.166,0,0,0,12.729,56c-4.342,6.905-13.377,9.553-21.515,8.994s-15.747-4.091-23.008-7.806c-35.16-17.993-67.364-41.718-103.78-57.009-24.093-10.116-49.759-16.418-73.132-28.1s-45.109-30.227-52.256-55.362c-3.09-10.868-3.28-22.319-3.449-33.616-.71-47.584-1.37-95.687,8.987-142.135,9.134-40.961,26.741-80.147,30.582-121.938,1.25-13.6,1.277-28.166,8.877-39.517C267.715,449.769,290.912,445.614,298.542,427.878Z" transform="translate(218.206 570.978)" fill="#2f2e41"/><path d="M310.248,465.46c4.25-5.544,12.448-6.3,19.239-4.66s13.052,5.14,19.909,6.469a11.64,11.64,0,0,0,9.319-1.309,13.552,13.552,0,0,0,4.022-8.888,169.7,169.7,0,0,0,1.67-43.269,12.814,12.814,0,0,1,.4-6.068c1.7-4.092,6.878-5.065,11.109-6.378a33.149,33.149,0,0,0,22.438-33.939,13.5,13.5,0,0,0-4.124-9.312c-2.926-2.384-7.021-2.531-10.795-2.561q-29.085-.234-58.171.014c-7.177.061-14.714.238-20.935,3.816-4.6,2.646-8.02,6.9-12.15,10.236-10.77,8.691-25.338,10.459-38.441,14.914a38.112,38.112,0,0,0-16.848,10.047c-4.358,4.979-6.453,12.381-3.716,18.4a65.393,65.393,0,0,0,4.7,7.229c7.729,12.358,2.584,28.388,3.738,42.918C243.044,481.268,269.9,510.7,288.1,515,317.5,521.927,300.517,477.372,310.248,465.46Z" transform="translate(253.604 473.404)" fill="#2f2e41"/><path d="M255.382,794.862c1.855,13.248,4.234,26.542,3.6,39.9-.888,18.655-7.616,36.63-8.859,55.265-.929,13.918,1.22,27.987-.713,41.8-1.238,8.846-4.122,17.373-5.908,26.125a108.031,108.031,0,0,0,17.359,82.814,13.559,13.559,0,0,0,5.037,4.882,14.223,14.223,0,0,0,6.244.826,448.017,448.017,0,0,0,62.661-5.695,6.008,6.008,0,0,0,4.024-1.775,5.636,5.636,0,0,0,.874-2.375c3.843-19.756-4.921-39.566-7.15-59.569-2.38-21.359,2.745-42.763,7.832-63.644a282.685,282.685,0,0,1,8.632-30.441c2.459-6.715,5.428-13.246,7.56-20.072a153.017,153.017,0,0,0,5.482-32.868q2.22-26.328,2.352-52.775a221.453,221.453,0,0,0-4.145-49.815c-4.675-20.757-14.249-40.033-23.74-59.077a37.413,37.413,0,0,0-13.986,6.647,312.2,312.2,0,0,1-38.214,21.113c-8.879,4.124-26.194,7.053-31.829,15.647-5.557,8.476-1.972,25.769-1.547,35.117Q252.037,770.966,255.382,794.862Z" transform="translate(267.749 939.533)" fill="#2f2e41"/><path d="M255.382,794.862c1.855,13.248,4.234,26.542,3.6,39.9-.888,18.655-7.616,36.63-8.859,55.265-.929,13.918,1.22,27.987-.713,41.8-1.238,8.846-4.122,17.373-5.908,26.125a108.031,108.031,0,0,0,17.359,82.814,13.559,13.559,0,0,0,5.037,4.882,14.223,14.223,0,0,0,6.244.826,448.017,448.017,0,0,0,62.661-5.695,6.008,6.008,0,0,0,4.024-1.775,5.636,5.636,0,0,0,.874-2.375c3.843-19.756-4.921-39.566-7.15-59.569-2.38-21.359,2.745-42.763,7.832-63.644a282.685,282.685,0,0,1,8.632-30.441c2.459-6.715,5.428-13.246,7.56-20.072a153.017,153.017,0,0,0,5.482-32.868q2.22-26.328,2.352-52.775a221.453,221.453,0,0,0-4.145-49.815c-4.675-20.757-14.249-40.033-23.74-59.077a37.413,37.413,0,0,0-13.986,6.647,312.2,312.2,0,0,1-38.214,21.113c-8.879,4.124-26.194,7.053-31.829,15.647-5.557,8.476-1.972,25.769-1.547,35.117Q252.037,770.966,255.382,794.862Z" transform="translate(267.749 939.533)" opacity="0.1"/><path d="M264.533,605.518c-9.579,25.79,4.5,53.658,16.734,78.3,30.138,60.709,51.066,125.49,71.883,189.992,1.559,4.832,3.117,10.1,1.379,14.873a19.476,19.476,0,0,1-7.025,8.332c-14.353,10.9-32.629,14.785-49.727,20.488A224.5,224.5,0,0,0,250.62,939.61c-12.39,7.678-24,16.54-35.58,25.387L178.166,993.16A24.646,24.646,0,0,0,172,999.126c-3.557,5.58-2.1,12.864-.329,19.239a327.176,327.176,0,0,0,18.054,49.272,17.2,17.2,0,0,0,6.547,8.581c5.756,3.093,12.8-1.008,17.19-5.843s8.2-10.852,14.392-12.927,13,.438,19.462-.47c10.453-1.467,17.392-11.1,24.927-18.488,30.783-30.2,82.179-28.01,116.042-54.712A147.368,147.368,0,0,1,403.8,971.66c5.724-3.384,12.217-5.241,18.156-8.232,18.065-9.1,29.423-27.9,35.506-47.194s7.819-39.652,12.191-59.4c2.26-10.209,5.235-20.309,6.241-30.717a164.553,164.553,0,0,0-.63-29.043L463.046,645.923c-.995-12.307-1.991-24.627-3.923-36.822-36.289,1.3-72.551,2.757-108.86,3.187C321.371,612.628,291.947,614.649,264.533,605.518Z" transform="translate(161.074 845.907)" fill="#2f2e41"/><path d="M204.6,655.191c4.923,7.917,16.9,7.753,25.155,3.413s14.66-11.632,22.93-15.936c11.113-5.783,24.263-5.565,36.785-5.211,19.825.56,39.894,1.156,58.969,6.589,19.729,5.62,38.935,16.439,59.335,14.281,3.55-.376,7.431-1.394,9.363-4.4a13.8,13.8,0,0,0,1.543-7.06l.667-17.822a16.093,16.093,0,0,0-1.419-9.025,15.145,15.145,0,0,0-6.761-5.177c-29.036-14.056-62.149-16.673-94.39-17.778q-24.583-.842-49.186-.693c-13.919.085-30.628-1.929-44.161,1.79C205.27,603.158,195.389,640.373,204.6,655.191Z" transform="translate(207.666 831.593)" fill="#2f2e41"/><path d="M389.34,447.859c-38.045-.337-72.522-25.449-110.563-26.061a28.664,28.664,0,0,0-13.425,2.316c-5.3,2.67-8.786,7.833-12.813,12.194C241.29,448.49,225,454.994,213.446,466.883c-10.835,11.148-16.861,27.757-12.583,42.7S221.285,536,236.41,532.4a91.616,91.616,0,0,1,35.694-48.5A181.449,181.449,0,0,1,300,469.264c17.1-7.747,36.217-15.641,54.067-9.834a76.283,76.283,0,0,1,18.445,10.059l29.759,19.991C398.8,475.8,395.683,460.461,389.34,447.859Z" transform="translate(205.251 572.155)" fill="#61961f"/><path d="M244.224,500.655c-5.052,6.3,2.226,15.434,1.112,23.434-.74,5.315-5.114,9.374-6.936,14.422-1.887,5.229-.886,11.021-1.6,16.534a70.936,70.936,0,0,1-3.174,11.774,211.54,211.54,0,0,0-6.688,34.917l-6.659,49.729a188.429,188.429,0,0,0-2.106,22.6,67.487,67.487,0,0,1-1.126,16.9c-1.475,5.435-4.74,10.189-6.936,15.374s-3.215,11.457-.247,16.242c-9.937,8.276-12.891,24.531-5.943,35.438a19.675,19.675,0,0,1,3.062,5.64,14.49,14.49,0,0,1-1.349,8.316L198.9,789.911c-1.724,4.592-2.269,11.584,2.523,12.632a42.338,42.338,0,0,0-9.09,14.356,17.093,17.093,0,0,0,2.421,16.2,20.633,20.633,0,0,1,4.218,5.119,13.624,13.624,0,0,1-.488,8.074,29.641,29.641,0,0,0,3.667,23.236,20.841,20.841,0,0,0,20.958,8.983c13.469-3.038,25.573-7.834,39.154-5.342,29.242,5.366,58.577,10.754,86.9,19.8,32.324,10.32,63.622,25.454,97.4,28.63a9.456,9.456,0,0,0,6.514-1.013,9.784,9.784,0,0,0,3.012-6.193l10.441-48.955a503.806,503.806,0,0,0,9.6-54.838c1.189-11.9,1.527-23.873,1.865-35.83l2.691-95.177a95.1,95.1,0,0,0-5.477-41.375L459.731,588.8c-8.833-28.2-29.1-53.2-36.311-81.859-4.566-18.136-7.939-37.6-20.185-51.734-17.457-20.152-47.661-23.287-74.1-19.822-11.943,1.565-23.988,4.266-34.318,10.46-11.945,7.162-20.745,18.444-29.259,29.466C258.546,484.4,251.4,491.7,244.224,500.655Z" transform="translate(193.054 590.679)" fill="#61961f"/><path d="M238.823,610.261c2.178,9.392,6.752,18.052,9.552,27.277,4.691,15.457,4.293,32.1,8.975,47.563,1.965,6.489,4.813,12.719,6.223,19.35,3.288,15.461-1.513,31.457-7.477,46.1s-13.228,29.072-15.164,44.76c-1.364,11.05.6,23.526,9.112,30.7,8.842,7.444,21.691,6.94,33.207,5.95a34.89,34.89,0,0,0,12.052-2.51c8.807-4.166,12.516-14.588,14.575-24.111,6.9-31.913,4.928-64.991,2.923-97.581l-5.243-85.226c-1.009-16.408-2.091-33.155-7.147-48.91-1.839-5.73-5.045-17.311-10.28-20.971-5.185-3.624-19.99-3.785-26.41-4.087C233.605,547.145,233.944,589.182,238.823,610.261Z" transform="translate(260.182 761.015)" fill="#fbbebe"/><path d="M286.823,448c-6.151-3.221-13.9-1.832-19.846,1.754a61.159,61.159,0,0,0-14.867,14.435c-13.291,16.224-27.361,34.84-25.39,55.72.739,7.829,3.737,15.238,5.769,22.834,8.911,33.309-.943,68.536.188,103,.653,19.913,4.986,39.5,9.3,58.95.881,3.969,2.291,8.564,6.131,9.9,2.885,1,6-.287,8.855-1.372a70.629,70.629,0,0,1,64.636,8.148c7.132-3.806,4.46-15.84,2.861-23.764-4.751-23.545,1.7-47.834,9.531-70.541s17.2-45.385,18.5-69.369c1.47-27.176-7.54-53.7-16.431-79.423-1.941-5.615-4.061-11.5-8.56-15.381a34.025,34.025,0,0,0-12.953-5.917C305.108,454.187,295.546,452.573,286.823,448Z" transform="translate(245.552 608.598)" fill="#2f2e41"/></svg>