<svg xmlns="http://www.w3.org/2000/svg" xmlns:xlink="http://www.w3.org/1999/xlink" width="389" height="300.821" viewBox="0 0 389 300.821"><defs><linearGradient id="a" x1="-0.572" y1="1" x2="-0.572" gradientUnits="objectBoundingBox"><stop offset="0" stop-color="gray" stop-opacity="0.251"/><stop offset="0.54" stop-color="gray" stop-opacity="0.122"/><stop offset="1" stop-color="gray" stop-opacity="0.102"/></linearGradient><linearGradient id="b" x1="9.832" y1="1" x2="9.832" y2="0" xlink:href="#a"/></defs><g transform="translate(-0.026)"><ellipse cx="140.449" cy="17.179" rx="140.449" ry="17.179" transform="translate(0.703 255.665)" fill="#61961f" opacity="0.1"/><rect width="381.107" height="207.858" rx="7.65" transform="translate(7.919 0)" fill="#e8eaf2"/><path d="M497.527,63.172v9.979H116.42V63.172a2.952,2.952,0,0,1,2.956-2.952h375.2a2.948,2.948,0,0,1,2.952,2.952Z" transform="translate(-108.505 -60.22)" fill="#65617d"/><circle cx="2.516" cy="2.516" r="2.516" transform="translate(11.284 3.951)" fill="#fa5959" opacity="0.8"/><circle cx="2.516" cy="2.516" r="2.516" transform="translate(18.063 3.951)" fill="#fed253" opacity="0.8"/><circle cx="2.516" cy="2.516" r="2.516" transform="translate(24.847 3.951)" fill="#8ccf4d" opacity="0.8"/><rect width="185.408" height="86.094" rx="7.65" transform="translate(24.847 26.363)" fill="#61961f" opacity="0.2"/><rect width="185.408" height="5.908" rx="1.89" transform="translate(24.847 138.709)" fill="#fff"/><rect width="185.408" height="5.908" rx="1.89" transform="translate(24.847 151.18)" fill="#fff"/><rect width="185.408" height="5.908" rx="1.89" transform="translate(24.847 163.648)" fill="#fff"/><rect width="185.408" height="5.908" rx="1.89" transform="translate(24.847 176.12)" fill="#fff"/><rect width="185.408" height="5.908" rx="1.89" transform="translate(24.847 188.588)" fill="#fff"/><rect width="135.853" height="168.132" rx="7.65" transform="translate(231.799 26.363)" fill="#fff"/><rect width="24.503" height="5.908" rx="1.89" transform="translate(239.347 45.735)" fill="#61961f" opacity="0.2"/><rect width="121.853" height="5.908" rx="1.89" transform="translate(239.347 56.89)" fill="#e8eaf2"/><rect width="121.853" height="5.908" rx="1.89" transform="translate(239.347 68.05)" fill="#e8eaf2"/><rect width="24.503" height="5.908" rx="1.89" transform="translate(239.347 90.362)" fill="#61961f" opacity="0.2"/><rect width="121.853" height="5.908" rx="1.89" transform="translate(239.347 101.521)" fill="#e8eaf2"/><rect width="121.853" height="5.908" rx="1.89" transform="translate(239.347 112.677)" fill="#e8eaf2"/><rect width="24.503" height="5.908" rx="1.89" transform="translate(239.347 134.993)" fill="#61961f" opacity="0.2"/><rect width="121.853" height="5.908" rx="1.89" transform="translate(239.347 146.148)" fill="#e8eaf2"/><rect width="121.853" height="5.908" rx="1.89" transform="translate(239.347 157.304)" fill="#e8eaf2"/><rect width="24.503" height="5.908" rx="1.89" transform="translate(334.949 179.62)" fill="#61961f"/><rect width="24.503" height="5.908" rx="1.89" transform="translate(185.752 118.585)" fill="#61961f"/><path d="M600.843,362.859a6.2,6.2,0,0,0,1.293,1.308c.324.266.652.536,1,.772l.3.2a.384.384,0,0,0-.031.054.771.771,0,0,0-.089.482,1.027,1.027,0,0,0,.386.494,5.1,5.1,0,0,1,1.543,2.809c.12.625-.3,1.293-.274,1.929a5.564,5.564,0,0,0,.49,1.8,9.642,9.642,0,0,0,2.138,3.7,11.938,11.938,0,0,0,2.4,5.908,19.167,19.167,0,0,0,4.04,3.542,7.665,7.665,0,0,0,1.5.938,8.1,8.1,0,0,0,1.478.386,76.221,76.221,0,0,0,12.969,1.49q.185,3.89.158,7.787a3.275,3.275,0,0,1-.177,1.258,5.706,5.706,0,0,1-.772,1.053,7.236,7.236,0,0,0-.965,4.781,44.161,44.161,0,0,0,.675,5.788c.452,2.446.039,5.151.907,7.478.343.918.687,1.841,1.026,2.759a2.408,2.408,0,0,1,.2.814,3.418,3.418,0,0,1-.695,1.644,4.731,4.731,0,0,0-.6,2.5.506.506,0,0,0,.073.282c.112.15.34.139.529.108a23.008,23.008,0,0,1,2.315-.212,4.681,4.681,0,0,0-.386.548,8.457,8.457,0,0,0-.49,1.007,9.575,9.575,0,0,0-.652,1.8,2.049,2.049,0,0,0-.066.274c-.042.185-.081.386-.112.56a18.616,18.616,0,0,0-.2,3.311,35.246,35.246,0,0,1-.413,4.851,8,8,0,0,0,.417,3.677,8.75,8.75,0,0,0,.5,2.755,16.856,16.856,0,0,0,.336,2.906q1.787,10.075,3.813,20.116c.12.579.235,1.158.386,1.729a14.07,14.07,0,0,0,2.582,5.105,23.241,23.241,0,0,1,2.7,4.318c-.077.363-.158.729-.247,1.092a75.849,75.849,0,0,0-2.111,9.647,13.261,13.261,0,0,1-.695,3.859,6.22,6.22,0,0,0-.7,1.864,2.065,2.065,0,0,0,.286,1.208l-.255.208-.143.116a9.21,9.21,0,0,1-3.5,1.254,3.789,3.789,0,0,0-2.879,2.149,1.645,1.645,0,0,0-.058.228,3.041,3.041,0,0,0,1.389,2.925,7.786,7.786,0,0,0,3.473,1.061,10.981,10.981,0,0,1,3.546.814,24.271,24.271,0,0,0,2.74,1.574l.181.05c-.228.135-.452.266-.687.386a10.322,10.322,0,0,1-3.307,1.053c-1.158.158-2.554.235-3.153,1.25a2.236,2.236,0,0,0,.571,2.636,5.393,5.393,0,0,0,2.632,1.158,47.215,47.215,0,0,0,6.56.814l2.138.166c2.088.158,4.179.32,6.278.328a43.1,43.1,0,0,0,7.718-.671.66.66,0,0,0,.706-.772,37.825,37.825,0,0,0-.949-7.787c-.178-.772-1.223.282-1.806.942-.081-.386-.166-.772-.266-1.131l.459-.216a1.686,1.686,0,0,0,.841-.7,1.74,1.74,0,0,0,.089-.81,11.41,11.41,0,0,0-.988-4.9A10.285,10.285,0,0,0,657,495.085a90.568,90.568,0,0,0-1.929-15.736,21.45,21.45,0,0,0-2.848-7.532c-.193-.278-.386-.556-.606-.837a68.043,68.043,0,0,0-.918-7.559,1.93,1.93,0,0,1,0-1.007,3.225,3.225,0,0,1,.556-.772c.918-1.185.544-2.867.436-4.364a21.12,21.12,0,0,1,.861-6.375l1.864-7.752a12.228,12.228,0,0,1,.656-2.149,20.921,20.921,0,0,1,1.679-2.7,15.25,15.25,0,0,0,2.338-9.211c.355.127.706.255,1.054.386.262-2.165-.652-4.631,0-6.656a8.532,8.532,0,0,0,2.639-3.145c.513-1.158.656-2.431,1.192-3.566a10.985,10.985,0,0,0,.9-1.929,13.634,13.634,0,0,0-.054-3.168c.035-2.315,1.706-4.449,1.347-6.726-.174-1.08-.8-2.088-.772-3.183a5.405,5.405,0,0,1,.444-1.721c1.273-3.361,2.52-6.946,1.872-10.477a11.785,11.785,0,0,1-.409-2.724c.054-1.053.552-2.076.386-3.122a2.424,2.424,0,0,0-.467-1.092,13.228,13.228,0,0,0,1.158-2.211,3.186,3.186,0,0,0,.3-1.416,2.5,2.5,0,0,0-1-1.682,10.19,10.19,0,0,0-1.736-1,1.544,1.544,0,0,1-.505-.363,4.056,4.056,0,0,1-.285-.544c-.34-.59-1.081-.772-1.659-1.131-2.1-1.285-1.9-4.592-3.7-6.282a3.6,3.6,0,0,0-4.5-.239,1.065,1.065,0,0,1-.633.313,1.212,1.212,0,0,1-.614-.328,2.485,2.485,0,0,0-1.516-.421,14.447,14.447,0,0,1-.424-4.029h.162a2.162,2.162,0,0,0,.629-.073,3.324,3.324,0,0,0,1.825-2.111,16.8,16.8,0,0,0,.81-2.315c.019-.077.035-.151.054-.228,1.767,1.243,3.82,2.543,4.314,2.269.9-.5-4.052-4.025-4.052-4.025h0a4.088,4.088,0,0,0,1.053-2.277,12.376,12.376,0,0,0,.039-4.982,5.89,5.89,0,0,0-2.844-3.932,6.724,6.724,0,0,1-1.929-1.092h0a1.368,1.368,0,0,1-.189-.255h0a1.5,1.5,0,0,1-.073-.135,1.675,1.675,0,0,0-.208-.405c-.27-.316-.772-.22-1.158-.17H650.2c-1.47.031-2.894-.791-4.38-.791-1.628,0-3.018.945-4.449,1.594-.289.131-.563.251-.822.386a3.638,3.638,0,0,0-2.057,1.875,2.875,2.875,0,0,0-.6,1.158,3.174,3.174,0,0,0-.077.594,9.859,9.859,0,0,0,4.434,16.543c.035.1.073.193.1.293a8.424,8.424,0,0,1,.428,2.751v.2a7.466,7.466,0,0,0-2.126.864,4.121,4.121,0,0,0-1.8,2.2c-.019.073-.039.143-.054.208a5.568,5.568,0,0,0-1.621-.278,1.736,1.736,0,0,0-1.393.417,1.344,1.344,0,0,0-.262.536c-.189.174-.224.479-.359.71-.413.725-1.49.486-2.315.687-.88.216-1.574,1.042-2.477,1.046a4.518,4.518,0,0,0-1.042-.039c-.339.085-.606.552-.347.772a1.1,1.1,0,0,0-1.042.5c-.251.324-.413.71-.691,1.015a1.05,1.05,0,0,0-1.073-.417,3.859,3.859,0,0,0-1.135.448,1.686,1.686,0,0,1-.5.174,2.03,2.03,0,0,1-.61-.054,4.878,4.878,0,0,0-2.856.386c-.772.386-1.544-.313-2.408-.367a1.32,1.32,0,0,1-.88-.274,1.687,1.687,0,0,1-.332-.695,3.45,3.45,0,0,0-2.524-2.234,2.94,2.94,0,0,0-1.725-3.623,3.141,3.141,0,0,0-1.08-2.732,4.429,4.429,0,0,1-.54-.424,2.57,2.57,0,0,1-.5-.926q-.386-1.011-.772-2.026c-.336-.069-.6-.208-.922-.262v-.208a6.726,6.726,0,0,0-.347-2.037,11.357,11.357,0,0,0-1.636-2.971,8.717,8.717,0,0,0-2.628-2.643,10.513,10.513,0,0,0-1.119-.517l-1.972-.814a.987.987,0,0,0-.359-.093c-.533,0-.629.818-.328,1.258.6.884,1.953,1.131,2.335,2.134a1.52,1.52,0,0,0-1.408,1.1.772.772,0,0,1-.189.44c-.174.143-.448.062-.644.17-.351.185-.2.71-.235,1.107a5.142,5.142,0,0,1-.359,1A2.13,2.13,0,0,0,600.843,362.859Zm47.27,138.249-.046-.61c.042.108.081.22.123.328q.521,1.366,1.158,2.7l-.073-.035a3.243,3.243,0,0,0-.942-.27c-.085,0-.174-.019-.262-.023a7.333,7.333,0,0,0,.042-2.091Z" transform="translate(-405.745 -233.334)" fill="url(#a)"/><path d="M706.2,395.293c-.039,1.439-.525,2.836-.6,4.272,4.245.212,8.424-1.844,12.618-1.215a5.928,5.928,0,0,1-2.169-3.473,14.383,14.383,0,0,1-.413-5.337,2.5,2.5,0,0,1,.05-.3,7.594,7.594,0,0,0,.452-2.254c-.143-.733-.833-.587-1.455-.544a53.616,53.616,0,0,0-5.657.729c-.49.085-5.24,1.27-5.31,1.158a22.469,22.469,0,0,1,2.057,4.245A8.353,8.353,0,0,1,706.2,395.293Z" transform="translate(-469.171 -260.536)" fill="#ee8e9e"/><path d="M600.855,383.693A6.109,6.109,0,0,0,602.148,385c.324.262.652.533,1,.772a4.3,4.3,0,0,0,2.122.861c1.007.069,3.153-.525,3.782-1.389a2.516,2.516,0,0,0,.359-1.447,6.649,6.649,0,0,0-.347-2.026,11.289,11.289,0,0,0-1.636-2.96,8.708,8.708,0,0,0-2.628-2.628,9.776,9.776,0,0,0-1.119-.513l-1.972-.818a.986.986,0,0,0-.359-.093c-.533,0-.629.814-.328,1.25.6.88,1.953,1.127,2.335,2.126a1.505,1.505,0,0,0-1.409,1.092.772.772,0,0,1-.189.44c-.174.139-.448.062-.645.166-.351.185-.2.71-.235,1.1a5.3,5.3,0,0,1-.359,1A2.1,2.1,0,0,0,600.855,383.693Z" transform="translate(-405.757 -253.385)" fill="#ee8e9e"/><path d="M739,761.289a1.508,1.508,0,0,0-1.316-.2,48.957,48.957,0,0,1-7.417.583c-.309-1.513.59-2.987.88-4.5a4.05,4.05,0,0,1,.293-1.158,2.647,2.647,0,0,1,1.875-1.131c1.331-.282,3.415-.772,4.16.567C738.368,757.083,738.654,759.472,739,761.289Z" transform="translate(-485.443 -486.627)" fill="#65617d"/><path d="M680.452,745.631a7.83,7.83,0,0,0,3.473,1.057,11.179,11.179,0,0,1,3.546.807,23.628,23.628,0,0,0,2.74,1.567,5.692,5.692,0,0,0,2.848.046,4.23,4.23,0,0,0,2.925-1.59,4.889,4.889,0,0,0,.409-2.971c-.089-1.158-.17-2.315-.255-3.446a1.668,1.668,0,0,0-.216-.833c-.81-1.185-2.786.494-3.859.494a7.415,7.415,0,0,1-4.681-2.022,1.5,1.5,0,0,0-.363-.274c-.479-.212-.953.181-1.378.529l-.143.116a9.134,9.134,0,0,1-3.5,1.246,3.784,3.784,0,0,0-2.879,2.138,1.686,1.686,0,0,0-.058.232A3.011,3.011,0,0,0,680.452,745.631Z" transform="translate(-454.009 -476.707)" fill="#3f3d56"/><path d="M680.452,745.631a7.83,7.83,0,0,0,3.473,1.057,11.179,11.179,0,0,1,3.546.807,23.628,23.628,0,0,0,2.74,1.567,5.692,5.692,0,0,0,2.848.046,4.23,4.23,0,0,0,2.925-1.59,4.889,4.889,0,0,0,.409-2.971c-.089-1.158-.17-2.315-.255-3.446a1.668,1.668,0,0,0-.216-.833c-.81-1.185-2.786.494-3.859.494a7.415,7.415,0,0,1-4.681-2.022,1.5,1.5,0,0,0-.363-.274c-.479-.212-.953.181-1.378.529l-.143.116a9.134,9.134,0,0,1-3.5,1.246,3.784,3.784,0,0,0-2.879,2.138,1.686,1.686,0,0,0-.058.232A3.011,3.011,0,0,0,680.452,745.631Z" transform="translate(-454.009 -476.707)" opacity="0.05"/><path d="M680.28,746.016a7.83,7.83,0,0,0,3.473,1.057,11.18,11.18,0,0,1,3.546.806,23.618,23.618,0,0,0,2.74,1.567,5.692,5.692,0,0,0,2.848.046,4.7,4.7,0,0,0,2.925-1.976,4.888,4.888,0,0,0,.409-2.971c-.089-1.158-.17-2.315-.255-3.446a1.667,1.667,0,0,0-.216-.833c-.81-1.185-2.786.494-3.859.494a7.415,7.415,0,0,1-4.681-2.022,1.5,1.5,0,0,0-.363-.274c-.478-.212-.953.181-1.378.529a9.993,9.993,0,0,0,1.158,2.431,5.074,5.074,0,0,0,3.689,2.315,12.028,12.028,0,0,1,2.242.1c.725.193,1.4.934,1.158,1.636s-1.138.837-1.868.876a8.283,8.283,0,0,1-3.041-.216c-.594-.2-1.158-.525-1.713-.772-2.458-1.015-5.557-.448-7.583-2.165a4.336,4.336,0,0,0-.621-.475C678.358,743.836,679.338,745.376,680.28,746.016Z" transform="translate(-453.837 -476.707)" fill="#e8eaf2"/><path d="M680.28,746.016a7.83,7.83,0,0,0,3.473,1.057,11.18,11.18,0,0,1,3.546.806,23.618,23.618,0,0,0,2.74,1.567,5.692,5.692,0,0,0,2.848.046,4.7,4.7,0,0,0,2.925-1.976,4.888,4.888,0,0,0,.409-2.971c-.089-1.158-.17-2.315-.255-3.446a1.667,1.667,0,0,0-.216-.833c-.81-1.185-2.786.494-3.859.494a7.415,7.415,0,0,1-4.681-2.022,1.5,1.5,0,0,0-.363-.274c-.478-.212-.953.181-1.378.529a9.993,9.993,0,0,0,1.158,2.431,5.074,5.074,0,0,0,3.689,2.315,12.028,12.028,0,0,1,2.242.1c.725.193,1.4.934,1.158,1.636s-1.138.837-1.868.876a8.283,8.283,0,0,1-3.041-.216c-.594-.2-1.158-.525-1.713-.772-2.458-1.015-5.557-.448-7.583-2.165a4.336,4.336,0,0,0-.621-.475C678.358,743.836,679.338,745.376,680.28,746.016Z" transform="translate(-453.837 -476.707)" opacity="0.05"/><path d="M707.067,556.427a15.088,15.088,0,0,1-2.072,11.136,20.757,20.757,0,0,0-1.679,2.7,12.119,12.119,0,0,0-.656,2.138L700.8,580.12a20.9,20.9,0,0,0-.86,6.34c.108,1.49.482,3.164-.436,4.341a3.286,3.286,0,0,0-.556.772,1.93,1.93,0,0,0,0,1c.942,5.6,1.64,11.453-.062,16.871-1.544,4.912-1.632,10.353-2.944,15.327a3.422,3.422,0,0,1-.814,1.7,2.7,2.7,0,0,1-1.223.579,9.031,9.031,0,0,1-5.788-.915c-1.266-.587-2.632-1.617-2.524-3.01a6.19,6.19,0,0,1,.7-1.852,13.034,13.034,0,0,0,.695-3.832,78.216,78.216,0,0,1,2.111-9.581,22.925,22.925,0,0,0,.633-9.72,84.808,84.808,0,0,0-6.255-19.24,2.316,2.316,0,0,0-.571-.86,6.013,6.013,0,0,1-.826-.579,2.421,2.421,0,0,1-.386-1.007,10.98,10.98,0,0,0-1.682-2.659c-1.42-2.254-.969-5.14-.915-7.8.05-2.585-.324-5.2.1-7.752s1.887-5.167,4.349-5.966a9.608,9.608,0,0,1,3.816-.181A75.156,75.156,0,0,1,707.067,556.427Z" transform="translate(-453.986 -362.229)" fill="#303d5c"/><path d="M707.067,556.427a15.088,15.088,0,0,1-2.072,11.136,20.757,20.757,0,0,0-1.679,2.7,12.119,12.119,0,0,0-.656,2.138L700.8,580.12a20.9,20.9,0,0,0-.86,6.34c.108,1.49.482,3.164-.436,4.341a3.286,3.286,0,0,0-.556.772,1.93,1.93,0,0,0,0,1c.942,5.6,1.64,11.453-.062,16.871-1.544,4.912-1.632,10.353-2.944,15.327a3.422,3.422,0,0,1-.814,1.7,2.7,2.7,0,0,1-1.223.579,9.031,9.031,0,0,1-5.788-.915c-1.266-.587-2.632-1.617-2.524-3.01a6.19,6.19,0,0,1,.7-1.852,13.034,13.034,0,0,0,.695-3.832,78.216,78.216,0,0,1,2.111-9.581,22.925,22.925,0,0,0,.633-9.72,84.808,84.808,0,0,0-6.255-19.24,2.316,2.316,0,0,0-.571-.86,6.013,6.013,0,0,1-.826-.579,2.421,2.421,0,0,1-.386-1.007,10.98,10.98,0,0,0-1.682-2.659c-1.42-2.254-.969-5.14-.915-7.8.05-2.585-.324-5.2.1-7.752s1.887-5.167,4.349-5.966a9.608,9.608,0,0,1,3.816-.181A75.156,75.156,0,0,1,707.067,556.427Z" transform="translate(-453.986 -362.229)" opacity="0.05"/><path d="M678.758,574.634a16.673,16.673,0,0,0,.34,2.994q1.787,10.033,3.813,20.008c.12.579.235,1.158.386,1.721a13.922,13.922,0,0,0,2.582,5.078c5.618,7,6.1,17.172,9.149,25.619.208.571.413,1.158.633,1.709a42.5,42.5,0,0,0,1.879,4.194,1.211,1.211,0,0,0,.386.5,1.18,1.18,0,0,0,.614.116,17.86,17.86,0,0,0,7.918-1.8,1.678,1.678,0,0,0,.841-.7,1.726,1.726,0,0,0,.089-.806,11.32,11.32,0,0,0-.988-4.881,10.285,10.285,0,0,0-1.929-2.362,89.561,89.561,0,0,0-1.929-15.651,21.257,21.257,0,0,0-2.848-7.494c-1.123-1.636-2.736-3.253-2.539-5.229.089-.868.451-1.949-.255-2.458-.309-.224-.772-.251-.972-.571a1.038,1.038,0,0,1-.135-.49,12.12,12.12,0,0,1,.247-4.052,21.093,21.093,0,0,0,.606-2.643,3.327,3.327,0,0,0-.664-2.551c-.039-1.806,0-3.677-.023-5.479a10.134,10.134,0,0,1,.251-3.056c.139-.471.347-.922.452-1.4.386-1.733-.563-3.809.556-5.182a7.777,7.777,0,0,1,1.8-1.266,6.6,6.6,0,0,0,2.47-3.55,19.559,19.559,0,0,0,.7-4.345,4.492,4.492,0,0,0,0-.938,1.823,1.823,0,0,0-.127-.467,2.9,2.9,0,0,0-2.118-1.289,68.724,68.724,0,0,0-16.168-1.891c-2.014-1.37-3.149-.88-4,.575a14.877,14.877,0,0,0-1.138,2.778c-.386,1.181-.413,7.776-.8,8.96C677.349,569.876,678.777,573.021,678.758,574.634Z" transform="translate(-453.218 -364.205)" fill="#303d5c"/><path d="M753.429,446.514c.147,1.038-.351,2.057-.386,3.087a11.467,11.467,0,0,0,.409,2.7c.648,3.515-.6,7.077-1.872,10.419a5.379,5.379,0,0,0-.444,1.713c-.035,1.092.594,2.091.772,3.168.359,2.265-1.312,4.4-1.347,6.687a12.711,12.711,0,0,1,.054,3.153,11.311,11.311,0,0,1-.9,1.906c-.536,1.127-.679,2.408-1.192,3.546-.922,2.061-2.906,3.4-4.8,4.631a4.867,4.867,0,0,1-2.825-1.748,4.348,4.348,0,0,1-.494-1.544,41.418,41.418,0,0,1-.386-7.123,43.924,43.924,0,0,1,.324-6.128c.386-2.589,1.223-5.082,1.825-7.625.772-3.21,1.158-6.525,2.315-9.6a32.7,32.7,0,0,1,4.36-7.455c.652-.888,1.158-2.157,2.427-1.953A2.647,2.647,0,0,1,753.429,446.514Z" transform="translate(-491.466 -296.105)" fill="#3f3d56"/><path d="M753.429,446.514c.147,1.038-.351,2.057-.386,3.087a11.467,11.467,0,0,0,.409,2.7c.648,3.515-.6,7.077-1.872,10.419a5.379,5.379,0,0,0-.444,1.713c-.035,1.092.594,2.091.772,3.168.359,2.265-1.312,4.4-1.347,6.687a12.711,12.711,0,0,1,.054,3.153,11.311,11.311,0,0,1-.9,1.906c-.536,1.127-.679,2.408-1.192,3.546-.922,2.061-2.906,3.4-4.8,4.631a4.867,4.867,0,0,1-2.825-1.748,4.348,4.348,0,0,1-.494-1.544,41.418,41.418,0,0,1-.386-7.123,43.924,43.924,0,0,1,.324-6.128c.386-2.589,1.223-5.082,1.825-7.625.772-3.21,1.158-6.525,2.315-9.6a32.7,32.7,0,0,1,4.36-7.455c.652-.888,1.158-2.157,2.427-1.953A2.647,2.647,0,0,1,753.429,446.514Z" transform="translate(-491.466 -296.105)" opacity="0.05"/><path d="M703.71,388.3a22.469,22.469,0,0,1,2.057,4.245,9.717,9.717,0,0,0,2.335.282c3.056,0,5.221-1.736,7.015-3.932.154-.706,1.123-1.362,1.015-1.929-.143-.733-.833-.587-1.455-.544a53.6,53.6,0,0,0-5.657.729C708.53,387.243,703.78,388.428,703.71,388.3Z" transform="translate(-469.171 -260.524)" opacity="0.1"/><circle cx="9.79" cy="9.79" r="9.79" transform="translate(229.14 112.457)" fill="#ee8e9e"/><path d="M683,556.592c1.694-.1,3.4-.035,5.1.035a17.418,17.418,0,0,1,3.168.324c1.285.293,2.489.88,3.755,1.246a34.2,34.2,0,0,0,6.278.822,36.163,36.163,0,0,1,4.114.644,1.83,1.83,0,0,0-.127-.467,2.9,2.9,0,0,0-2.118-1.289A68.72,68.72,0,0,0,687,556.017C685,554.648,683.864,555.126,683,556.592Z" transform="translate(-456.453 -364.2)" opacity="0.1"/><path d="M683.215,414.073c.428.494,1,1.038,1.632.88a2.317,2.317,0,0,0,.637-.343,9.6,9.6,0,0,1,3.839-1.1,57.1,57.1,0,0,0,7.914-1.779,8.036,8.036,0,0,1,2.338-.475,5.676,5.676,0,0,1,4.171,2.4c1.042,1.293,1.775,2.805,2.8,4.114.725.934,1.59,1.756,2.269,2.724a11.887,11.887,0,0,1,1.64,8.582,35.6,35.6,0,0,1-2.79,8.489,29.267,29.267,0,0,1-2.277,4.6,11,11,0,0,1-.88,6.819,6.756,6.756,0,0,0-.888,2.026,5.054,5.054,0,0,0,.062,1.486l.5,3.546c.151,1.08.3,2.161.5,3.23.359,1.964.849,4.094-.062,5.869-1.088,2.126.058,4.851-.232,7.224a36.206,36.206,0,0,0-9.539-2.265,34.532,34.532,0,0,1-6.278-.826c-1.266-.386-2.47-.953-3.755-1.246a17.434,17.434,0,0,0-3.168-.324,37.52,37.52,0,0,0-7.031.158c-.189.027-.417.042-.529-.108a.5.5,0,0,1-.073-.278,4.692,4.692,0,0,1,.6-2.493,3.391,3.391,0,0,0,.695-1.636,2.413,2.413,0,0,0-.2-.81l-1.026-2.759c-.868-2.315-.455-5.016-.907-7.44a43.726,43.726,0,0,1-.675-5.757,7.17,7.17,0,0,1,.965-4.758,5.53,5.53,0,0,0,.772-1.046,3.246,3.246,0,0,0,.177-1.25q.035-4.955-.27-9.906c.868-1.544,1.771-3.156,2.643-4.715a20.192,20.192,0,0,0,2.443-5.707c.27-1.351.262-2.736.455-4.1a1.374,1.374,0,0,1,1.736-1.374,6.076,6.076,0,0,1,1.8.343Z" transform="translate(-449.984 -275.8)" fill="#3f3d56"/><path d="M607.43,399.927a4.3,4.3,0,0,0,2.122.861c1.007.069,3.153-.525,3.782-1.389a2.516,2.516,0,0,0,.359-1.447,1.594,1.594,0,0,0-.421-.081,10.754,10.754,0,0,0-3.284.131,3.677,3.677,0,0,0-2.551,1.929S607.434,399.923,607.43,399.927Z" transform="translate(-410.044 -267.535)" opacity="0.1"/><path d="M640.283,421.483a6.731,6.731,0,0,1-2.064,1.929,6.614,6.614,0,0,1-3.214.494,76.616,76.616,0,0,1-13.429-1.478,8.426,8.426,0,0,1-1.478-.386,7.833,7.833,0,0,1-1.5-.934,19.1,19.1,0,0,1-4.04-3.527,11.835,11.835,0,0,1-2.389-5.865,9.6,9.6,0,0,1-2.138-3.681,5.551,5.551,0,0,1-.49-1.79c-.027-.633.386-1.3.274-1.929a5.082,5.082,0,0,0-1.544-2.794,1,1,0,0,1-.386-.49.771.771,0,0,1,.089-.478,3.7,3.7,0,0,1,2.551-1.929,10.9,10.9,0,0,1,3.288-.131,7.591,7.591,0,0,1,1.073.286l.772,2.014a2.553,2.553,0,0,0,.5.922,4.439,4.439,0,0,0,.54.424,3.11,3.11,0,0,1,1.08,2.7,2.917,2.917,0,0,1,1.725,3.6,3.442,3.442,0,0,1,2.524,2.223,1.67,1.67,0,0,0,.332.691,1.339,1.339,0,0,0,.88.274c.864.05,1.621.733,2.408.363a4.878,4.878,0,0,1,2.856-.386,2.315,2.315,0,0,0,.61.054,1.685,1.685,0,0,0,.5-.174,3.972,3.972,0,0,1,1.134-.448,1.057,1.057,0,0,1,1.073.417c.278-.3.44-.687.691-1.011a1.108,1.108,0,0,1,1.042-.5c-.259-.232,0-.695.347-.772a4.745,4.745,0,0,1,1.042.039c.9,0,1.6-.826,2.477-1.042.81-.2,1.887.039,2.315-.683.147-.255.177-.6.428-.772a.8.8,0,0,1,.544-.062,5.155,5.155,0,0,1,1.652.5c.849,3.315.386,6.757-.243,10.122a8.949,8.949,0,0,1-1.837,4.2Z" transform="translate(-410.321 -267.918)" fill="#3f3d56"/><path d="M690.361,487.207l4.218,8.489c-.455-.772-1.416-1.092-2.176-1.594a5.788,5.788,0,0,1-2.08-2.794,17.189,17.189,0,0,1-.795-3.446,3.081,3.081,0,0,1,0-1.783C690.01,486.18,690.165,486.8,690.361,487.207Z" transform="translate(-460.376 -321.749)" opacity="0.1"/><path d="M720.563,505.033a37.143,37.143,0,0,0,3.164,2.466c2.443,1.929,4.187,4.631,5.888,7.243a11.226,11.226,0,0,1,1.2,2.192c-.2.17-.5,0-.694-.181l-3.311-2.909a7.359,7.359,0,0,1-1.1-1.115c-.575-.772-.83-1.74-1.351-2.551a10.031,10.031,0,0,0-2.014-2.053c-.772-.652-4.245-3.6-3.4-4.754C719.56,503.683,720.061,504.535,720.563,505.033Z" transform="translate(-478.446 -332.367)" opacity="0.1"/><path d="M701.613,409.037a9.95,9.95,0,0,1,3.5-1.158,7.333,7.333,0,0,1,2.227-.158c.691.085,1.351.351,2.045.386a9.1,9.1,0,0,0,2.848-.6,3.341,3.341,0,0,1,2.817.212,1.212,1.212,0,0,0,.614.328,1.065,1.065,0,0,0,.633-.313,3.612,3.612,0,0,1,4.5.239c1.794,1.682,1.594,4.97,3.7,6.247.579.351,1.32.536,1.659,1.127a4.015,4.015,0,0,0,.3.563,1.475,1.475,0,0,0,.505.359,9.94,9.94,0,0,1,1.737,1,2.474,2.474,0,0,1,1,1.671,3.158,3.158,0,0,1-.3,1.408,13.213,13.213,0,0,1-12.831,8.2,2.041,2.041,0,0,1-1.343-.421,2.563,2.563,0,0,1-.471-.772c-.992-2.072-2.848-3.6-4.029-5.576-.7-1.177-1.158-2.489-1.883-3.647a17.5,17.5,0,0,0-4.449-4.306,5.122,5.122,0,0,0-3.137-1.4c-1.042.042-1.8.1-1.42-1.181A4.109,4.109,0,0,1,701.613,409.037Z" transform="translate(-466.727 -273.222)" fill="#3f3d56"/><path d="M701.613,409.037a9.95,9.95,0,0,1,3.5-1.158,7.333,7.333,0,0,1,2.227-.158c.691.085,1.351.351,2.045.386a9.1,9.1,0,0,0,2.848-.6,3.341,3.341,0,0,1,2.817.212,1.212,1.212,0,0,0,.614.328,1.065,1.065,0,0,0,.633-.313,3.612,3.612,0,0,1,4.5.239c1.794,1.682,1.594,4.97,3.7,6.247.579.351,1.32.536,1.659,1.127a4.015,4.015,0,0,0,.3.563,1.475,1.475,0,0,0,.505.359,9.94,9.94,0,0,1,1.737,1,2.474,2.474,0,0,1,1,1.671,3.158,3.158,0,0,1-.3,1.408,13.213,13.213,0,0,1-12.831,8.2,2.041,2.041,0,0,1-1.343-.421,2.563,2.563,0,0,1-.471-.772c-.992-2.072-2.848-3.6-4.029-5.576-.7-1.177-1.158-2.489-1.883-3.647a17.5,17.5,0,0,0-4.449-4.306,5.122,5.122,0,0,0-3.137-1.4c-1.042.042-1.8.1-1.42-1.181A4.109,4.109,0,0,1,701.613,409.037Z" transform="translate(-466.727 -273.222)" opacity="0.05"/><path d="M690.141,767.5a5.446,5.446,0,0,0,2.632,1.158,47.209,47.209,0,0,0,6.56.81l2.138.162c2.088.158,4.179.32,6.278.328a43.082,43.082,0,0,0,7.718-.668.652.652,0,0,0,.706-.772,37.388,37.388,0,0,0-.949-7.745c-.243-1.046-2.115,1.3-2.2,1.393a2.146,2.146,0,0,1-1.7.907c-2.153.116-4.565-1.192-6.278-2.358a8.2,8.2,0,0,0-1.158-.722,3.36,3.36,0,0,0-.942-.266,5.641,5.641,0,0,0-3.2.648c-1.285.637-2.416,1.544-3.689,2.211a10.305,10.305,0,0,1-3.307,1.046c-1.158.162-2.555.239-3.153,1.246h0A2.173,2.173,0,0,0,690.141,767.5Z" transform="translate(-460.353 -489.787)" fill="#3f3d56"/><path d="M689.91,767.909a5.446,5.446,0,0,0,2.632,1.158,47.23,47.23,0,0,0,6.56.81l2.138.162c2.088.158,4.179.32,6.278.328a43.093,43.093,0,0,0,7.718-.667.849.849,0,0,0,.614-.293,3.417,3.417,0,0,0,.478-.876,37.974,37.974,0,0,0-1.335-7.745c-.243-1.046-2.115,1.3-2.2,1.393a2.145,2.145,0,0,1-1.7.907c-2.153.116-4.565-1.192-6.278-2.358a8.2,8.2,0,0,0-1.158-.722,3.361,3.361,0,0,0-.942-.266c.278,1.544,2.5,3.419,3.647,3.99,2.315,1.158,5.078.579,7.667.714a1.015,1.015,0,0,1,.544.131c.309.2.328.644.32,1.015-.023.617-.1,1.343-.637,1.659a1.852,1.852,0,0,1-.86.178,121.706,121.706,0,0,1-19.117-.671,10.419,10.419,0,0,1-3.114-.691,7.981,7.981,0,0,1-1.806-1.158C688.525,765.54,689.2,767.249,689.91,767.909Z" transform="translate(-460.122 -489.809)" fill="#e8eaf2"/><path d="M700.407,360.338c.035,1.011-.656,2.975,1.239,2.427,1.127-.324,1.447-1.663,2.879-1.366s1.76,2.064,2.246,3.218a6.174,6.174,0,0,0,4.461,3.6,2.655,2.655,0,0,0,1.231,0,3.3,3.3,0,0,0,1.825-2.1,16.625,16.625,0,0,0,.81-2.315,10.052,10.052,0,0,0,.293-1.69h0a7.389,7.389,0,0,0,0-1.158,9.44,9.44,0,0,0-3.16-5.989,28.071,28.071,0,0,0-5.727-3.859,8.323,8.323,0,0,0-2.111-.938,6.968,6.968,0,0,0-2.23-.093,7.748,7.748,0,0,0-2.836.668,3.98,3.98,0,0,0-1,.7,3.021,3.021,0,0,0-.864,1.447c-.363,1.486.583,2.825,1.354,4A7.01,7.01,0,0,1,700.407,360.338Z" transform="translate(-465.286 -238.199)" fill="#3f3d56"/><path d="M622.66,425.392c.405-1.023,2.1-3.84,1.613-4.812a12.971,12.971,0,0,0-1.3,2.315C622.656,423.682,622.919,424.74,622.66,425.392Z" transform="translate(-419.397 -281.524)" opacity="0.1"/><path d="M698.711,358.793c-.772-1.177-1.721-2.516-1.358-4.005a3.137,3.137,0,0,1,1.1-1.648,2.852,2.852,0,0,0-.282.695c-.363,1.489.586,2.828,1.358,4.005a7.031,7.031,0,0,1,1.582,3.454c.039,1.011-.652,2.979,1.242,2.427,1.127-.324,1.447-1.663,2.879-1.366s1.76,2.061,2.246,3.218a6.174,6.174,0,0,0,4.461,3.6,2.635,2.635,0,0,0,1.227,0,1.794,1.794,0,0,0,.59-.27,2.466,2.466,0,0,1-1.4,1.235,2.635,2.635,0,0,1-1.227,0,6.174,6.174,0,0,1-4.461-3.6c-.486-1.158-.8-2.913-2.246-3.218s-1.752,1.042-2.879,1.366c-1.895.552-1.2-1.416-1.242-2.427A7.144,7.144,0,0,0,698.711,358.793Z" transform="translate(-465.219 -240.108)" opacity="0.1"/><path d="M698.93,354.9a8.853,8.853,0,0,0,.583.826,9.906,9.906,0,0,0,1.339,1.389,11.375,11.375,0,0,0,.9.706,13.955,13.955,0,0,0,1.841,1.1,33.378,33.378,0,0,0,5.846,2.1l3.909,1.138c.482.363,1.358,1.019,2.315,1.694a10.054,10.054,0,0,0,.293-1.69h0a7.375,7.375,0,0,0,0-1.158,9.44,9.44,0,0,0-3.16-5.989,28.067,28.067,0,0,0-5.727-3.859,8.324,8.324,0,0,0-2.111-.938,6.968,6.968,0,0,0-2.23-.093,7.75,7.75,0,0,0-2.836.668,3.983,3.983,0,0,0-1,.7,3.858,3.858,0,0,0-.5,1.061A3.005,3.005,0,0,0,698.93,354.9Z" transform="translate(-465.858 -238.223)" opacity="0.1"/><path d="M698.952,351.217a8.889,8.889,0,0,0,.583.83,9.672,9.672,0,0,0,1.339,1.385,10.591,10.591,0,0,0,.9.71,14.4,14.4,0,0,0,1.841,1.092,33.7,33.7,0,0,0,5.846,2.1l3.909,1.138c1.366,1.03,5.931,4.411,6.7,3.99.9-.5-4.052-4.005-4.052-4.005l-.228.174a3.675,3.675,0,0,0,1.27-2.431,12.248,12.248,0,0,0,.039-4.955,5.862,5.862,0,0,0-2.844-3.913,6.714,6.714,0,0,1-1.929-1.088,1.336,1.336,0,0,1-.189-.251,1.514,1.514,0,0,1-.073-.135,1.677,1.677,0,0,0-.208-.405c-.27-.313-.772-.216-1.158-.166h-.355c-1.47.031-2.894-.772-4.38-.772-1.628,0-3.018.942-4.449,1.586l-.822.386a3.555,3.555,0,0,0-2.246,2.369A2.888,2.888,0,0,0,698.952,351.217Z" transform="translate(-465.88 -234.808)" fill="#303d5c"/><path d="M729.223,346.539a.714.714,0,0,0-.093.332.687.687,0,0,0,.247.525,1.157,1.157,0,0,0,.617.22,3.994,3.994,0,0,0,.482.039,1.308,1.308,0,0,0,.633-.108,1.135,1.135,0,0,0,.112-.073,1.332,1.332,0,0,1-.189-.251c-.035.027-.073.019-.22,0a3.472,3.472,0,0,1-.772-.131,1.007,1.007,0,0,1-.3-.143.926.926,0,0,1-.282-.428Z" transform="translate(-484.782 -236.042)" opacity="0.1"/><path d="M739.911,380.509a1.868,1.868,0,0,1-.679.251,2.176,2.176,0,0,1-1.8-.27" transform="translate(-489.879 -256.904)" opacity="0.1"/><path d="M225.635,380.62c-.648-4.341-4.588-14.463-4.588-14.463h0c-.069-.3-.147-.6-.235-.9-2.8-9.616-6.672-10.469-6.672-10.469l-13.869-2.956a1.1,1.1,0,0,1,.286.274l-.22.035a5.437,5.437,0,0,1-1.216-2.628c-.027-.143-.05-.293-.069-.444a9.755,9.755,0,0,0-.795-14.663c-.143-.112-.289-.224-.444-.328a2.21,2.21,0,0,0,.189-2.628,9.162,9.162,0,0,0-5.912-4.407,10.007,10.007,0,0,0-5.742-.124,20.946,20.946,0,0,0-3,1.393c-1.845.922-3.859,1.648-5.26,3.16a1.544,1.544,0,0,0-.525,1.27,3.431,3.431,0,0,0,.521.922,2.858,2.858,0,0,1,.027,2.315c-.266.772-.668,1.451-.857,2.223a2.32,2.32,0,0,0,.463,2.23,10.026,10.026,0,0,0,.868.614,4.508,4.508,0,0,1,.826.926l1.644,2.219a22.52,22.52,0,0,1,2.053,3.129,15.188,15.188,0,0,0,1.273,2.385,3.472,3.472,0,0,0,.548.571l-.162-.062a2.489,2.489,0,0,0,1.837.706h.085a.5.5,0,0,0,.332-.135v.3c.031,1.069.023,2.2-.05,3.268l-.127-.066a1.107,1.107,0,0,0-1.2.127L172.87,364.659s-2.778,3.8-2.389,10.353l-2.238,9.832s-2.8,8.343-.648,14.3,3.4,9.365,3.4,9.365.864,6.768,2.153,7.332S175,416.7,175,416.7l.259,1.617h0s.085.158.235.424c.942,1.636,4.426,7.409,6.452,6.792a26.2,26.2,0,0,1,.328,4.742l2,13.452s1.4,3.658,1.312,5.576,1.636,4.631,1.636,4.631a8.875,8.875,0,0,0-.861,6.259c.818,3.573,1.852,20.089,1.852,20.089l1.5,4-.042,4.688a4.472,4.472,0,0,1-.926,2.076c-.969,1.053-.9,2.269-3.23,3.7s-3.809,1.98-3.809,3.894a4.99,4.99,0,0,1-.069.772c-.216,1.4-.637,2.153,3.654,2.562a11.291,11.291,0,0,0,8.393-2.809s.745-1.343,4.245-1.883c0,0,1.192-.066,1.258-1.119.023-.363,0-1.061,0-1.825a11.085,11.085,0,0,0-.386-3.249,7.953,7.953,0,0,1-.772-2.107h.969s.907-6.768,0-11.152a17.835,17.835,0,0,1-.085-7.49l-.174-11.576a3.285,3.285,0,0,1-.259-3.535c.945-2.257,0-13.409,0-13.409s.347-4,1.335-4.935.05-5.862,0-6.12l1.763,5.908s.772,11.746,2.412,13.892l.471,5.317s3.357,4.9,2.7,7.536.691,12.171.691,12.171v9.732s-1.509,3.913.6,5.317l.907-.035c-.309.278-.529.7-.876,1.057-.405.417-.633,1.995-.772,3.353-.108,1.158-.143,2.138-.143,2.138a3.542,3.542,0,0,0,2.585,1.543c1.679.1,7.231,4.341,7.231,4.341a68.706,68.706,0,0,0,6.911-.286l.081-.023a1.852,1.852,0,0,0,1.073-.876,2.2,2.2,0,0,0,.259-1.605A4.01,4.01,0,0,0,223.4,497.7c-3.685-1.929-4.245-3.762-4.245-3.762l-2.392-3.6h.343a15.426,15.426,0,0,1,2.408-8.13l-.174-18.97s1.077-6.514-.772-10.033c0,0-.151-3.743,1.084-4.893s-1.644-12.769-1.644-12.769-.59-6.236-1.3-11.928h0c2.906,2.755,5.923-7.17,6.429-8.933h.073l-.035-.127.035-.127h0s-.644-2.315-.174-1.829,1.636-1.277,1.636-1.277-.17-9.493,1.852-14.278S225.635,380.62,225.635,380.62Zm-8.655,6.039v-.027c.3,5.788-.058,18.163-.058,18.163s-.386,1.586-.826,3.454l-.3-11.75h0l-.289-11.067Zm-37.045-3.994s1.462,18.3,0,20.942a13.515,13.515,0,0,0-1.057,3.616c-.482-1.27-1.5-4.245-1.158-5.831.471-2.041-.949-7.405-.949-7.532a12.665,12.665,0,0,1,.907-5.175c1.034-2.2.343-3.126.343-3.126s.864-3.577,1.9-2.883Z" transform="translate(-139.433 -223.778)" fill="url(#b)"/><path d="M197.753,564.324c-1.273,5.6-6.344-2.871-7.5-4.9-.15-.266-.235-.424-.235-.424l.552-2.578,2.906-1.181a8.1,8.1,0,0,1,1.3.845A7.827,7.827,0,0,1,197.753,564.324Z" transform="translate(-153.704 -364.221)" fill="#a1616a"/><path d="M298.706,552.728a.393.393,0,0,1-.031.123l-.042.139c-.494,1.748-3.454,11.6-6.305,8.875-3.126-3-1.605-9.89-1.605-9.89h.019l6.56-.675,1.3,1.339h0Z" transform="translate(-215.32 -361.802)" fill="#a1616a"/><path d="M238.2,602.38l.166,18.8A15.46,15.46,0,0,0,236,629.252l-8.489.336c-2.072-1.393-.59-5.279-.59-5.279v-9.678s-1.312-9.462-.679-12.082-2.659-7.478-2.659-7.478l-.471-5.271c-1.605-2.111-2.365-13.772-2.365-13.772l-1.729-5.862c.046.255.942,5.167,0,6.074s-1.308,4.9-1.308,4.9.93,11.067,0,13.309a3.285,3.285,0,0,0,.251,3.508l.17,11.492a17.966,17.966,0,0,0,.085,7.432c.888,4.345,0,11.071,0,11.071h-9.13l.042-4.688-1.47-3.986s-1.015-16.388-1.818-19.938a8.875,8.875,0,0,1,.845-6.209s-1.69-2.7-1.605-4.607-1.281-5.534-1.281-5.534l-1.964-13.352a25.855,25.855,0,0,0-.988-7.621c-1.158-3.8-2.828-8.786-2.828-8.786l1.906.17,9.628.857s23.4-1.574,24.453-.266a4.314,4.314,0,0,1,.44,1.362c1.05,4.723,2.439,19.51,2.439,19.51s2.832,11.534,1.617,12.672-1.065,4.858-1.065,4.858C239.251,595.916,238.2,602.38,238.2,602.38Z" transform="translate(-158.617 -362.987)" fill="#3f3d56"/><path d="M223.287,751.1c-.066,1.05-1.235,1.111-1.235,1.111-3.423.536-4.152,1.872-4.152,1.872a11.032,11.032,0,0,1-8.239,2.79c-4.21-.409-3.8-1.158-3.585-2.547a4.89,4.89,0,0,0,.069-.772c0-1.9,1.455-2.443,3.739-3.859s2.215-2.632,3.168-3.674a5.806,5.806,0,0,0,1.046-3.087c1.077-1.868,3.8.286,3.8.286.127.664,4.183.571,4.183.571a9.084,9.084,0,0,0,.814,2.281,11.382,11.382,0,0,1,.386,3.226C223.3,750.053,223.31,750.744,223.287,751.1Z" transform="translate(-163.49 -479.022)" fill="#303d5c"/><path d="M223.287,762.424c-.066,1.05-1.235,1.111-1.235,1.111-3.423.536-4.152,1.871-4.152,1.871a11.032,11.032,0,0,1-8.239,2.79c-4.21-.409-3.8-1.158-3.585-2.547,1.879.467,5.479,1.119,7.575-.023,2.917-1.582,5.016-2.7,5.016-2.7l4.631-2.315C223.3,761.374,223.31,762.065,223.287,762.424Z" transform="translate(-163.49 -490.343)" opacity="0.1"/><path d="M289.77,758.588a1.852,1.852,0,0,1-1.053.868l-.081.023a67.1,67.1,0,0,1-6.784.282s-5.449-4.214-7.1-4.31a3.473,3.473,0,0,1-2.535-1.52s.031-.98.139-2.122c.127-1.347.351-2.913.749-3.326.729-.772.887-1.806,2.535-1.158,0,0,2.342-4.125,5.1-.938l2.855,4.33s.536,1.806,4.152,3.739a3.951,3.951,0,0,1,2.273,2.52A2.238,2.238,0,0,1,289.77,758.588Z" transform="translate(-204.185 -480.866)" fill="#303d5c"/><path d="M289.77,769.14c-.324.27-.679.567-1.053.868l-.081.023a67.1,67.1,0,0,1-6.784.282s-5.449-4.214-7.1-4.31a3.473,3.473,0,0,1-2.535-1.52s.031-.98.139-2.122c1.675.505,4.218,1.389,4.9,2.346a20.475,20.475,0,0,0,4.218,3.473s5.916-.567,8.543-.648A2.238,2.238,0,0,1,289.77,769.14Z" transform="translate(-204.185 -491.418)" opacity="0.1"/><path d="M232.889,382.077l-7.791,8.239s-9.442-.7-7.795-3.473c.841-1.42.972-4.4.9-6.981-.069-2.493-.328-4.631-.328-4.631s13.247-6.6,12.232-.428a10.148,10.148,0,0,0-.039,3.512A4.619,4.619,0,0,0,232.889,382.077Z" transform="translate(-170.341 -251.792)" fill="#a1616a"/><path d="M231.3,374.809a10.149,10.149,0,0,0-.039,3.512c-1.767,1.787-4.222,1.393-6.946,1.393-1.8,0-3.728.027-5.175-.826-.069-2.5-.085-3.635-.085-3.635S232.319,368.635,231.3,374.809Z" transform="translate(-171.538 -251.798)" opacity="0.1"/><path d="M226.944,354a9.763,9.763,0,1,1-9.757-9.427A9.763,9.763,0,0,1,226.944,354Z" transform="translate(-164.396 -234.845)" fill="#a1616a"/><path d="M236.8,555.663c-2.427,5.788-18.063,5.9-18.063,5.9v-6.305l-.945-.062c.409,1.806-.575,6.209-.575,6.209-12.348,1.744-15.366-5.29-15.366-5.29l.428-2.408,9.628.857s23.4-1.574,24.453-.266a4.315,4.315,0,0,1,.44,1.362Z" transform="translate(-160.969 -363.282)" opacity="0.1"/><path d="M218.736,463.2v-6.309l-.945-.058c.409,1.8-.575,6.209-.575,6.209-9.3,1.312-13.305-2.35-14.717-4.245a5.882,5.882,0,0,1-.648-1.05l3.77-21.223.888-31.256,1.362-5.48.313-2.632v-.031h.035l.961.413,5.753,2.489,6.537-4.935.093-.073.328-.247.54.436,1.343,1.077,4.31,27.822s7.474,21.428,8.875,30.076c.054.343.1.664.135.965C238,463.052,218.736,463.2,218.736,463.2Z" transform="translate(-160.969 -265.674)" fill="#e1e7ef"/><circle cx="0.556" cy="0.556" r="0.556" transform="translate(54.109 134.421)" fill="#67647e"/><circle cx="0.556" cy="0.556" r="0.556" transform="translate(54.363 139.492)" fill="#67647e"/><circle cx="0.556" cy="0.556" r="0.556" transform="translate(54.919 147.696)" fill="#67647e"/><circle cx="0.556" cy="0.556" r="0.556" transform="translate(55.837 156.536)" fill="#67647e"/><circle cx="0.556" cy="0.556" r="0.556" transform="translate(56.393 164.84)" fill="#67647e"/><circle cx="0.556" cy="0.556" r="0.556" transform="translate(56.949 173.681)" fill="#67647e"/><circle cx="0.556" cy="0.556" r="0.556" transform="translate(56.725 182.425)" fill="#67647e"/><path d="M208.553,443.274s-.621,8.13-1.76,10.5-1.648,9-1.648,9l-2.647-.3a5.881,5.881,0,0,1-.648-1.05l3.77-21.223.888-31.256,1.362-5.48.313-2.632h.039a1.077,1.077,0,0,1,.942,0l.127.066c-.039.108-.077.22-.108.332a50.7,50.7,0,0,0-1.42,9.192s1.482,10.9,1.648,15.972S208.553,443.274,208.553,443.274Z" transform="translate(-160.969 -269.327)" opacity="0.1"/><path d="M194.778,556.085a1.593,1.593,0,0,1-.1.2c-1.026,1.736-3.627,2.836-4.418,3.141-.15-.266-.235-.424-.235-.424l.552-2.578,2.906-1.181A8.1,8.1,0,0,1,194.778,556.085Z" transform="translate(-153.704 -364.221)" opacity="0.1"/><path d="M174.5,449.91l-2.408,1.435-2.2,9.763s-2.747,8.277-.637,14.193,3.338,9.3,3.338,9.3.845,6.718,2.115,7.266,1.817.845,1.817.845l.243,1.613s3.438-1.158,4.658-3.222-.9-7.17-.9-7.17-1.818-4.353-1.354-6.379-.926-7.332-.926-7.478a12.674,12.674,0,0,1,.884-5.136c1.011-2.176.34-3.087.34-3.087l-.633-6.213Z" transform="translate(-140.466 -299.536)" fill="#303d5c"/><path d="M267.988,456.539s-6.379,2.408-8.408.3-1.818-12-1.818-12-1.929-18.248-3.168-21.25-.59-24.631-.59-24.631a13.136,13.136,0,0,0-1.544-3.527.853.853,0,0,0-.151-.127l.243.054.868.189,1.343,1.077,4.31,27.822s7.475,21.428,8.875,30.076Z" transform="translate(-191.958 -265.999)" opacity="0.1"/><path d="M299.282,552.972h-.073c-.8.1-7.891.961-7.918-.517a4.467,4.467,0,0,1,.027-.509l6.56-.675,1.3,1.339h0c.023.085.042.162.062.22Z" transform="translate(-215.896 -361.783)" opacity="0.1"/><path d="M292.472,424.58l4.661,2.431s3.859,10.033,4.5,14.359c0,0,2.875,11.542.888,16.292s-1.814,14.17-1.814,14.17-1.158,1.733-1.609,1.266.174,1.81.174,1.81-7.961,1.057-8-.506,1.821-9.033,1.821-9.033.506-17.789-.212-20.579S292.472,424.58,292.472,424.58Z" transform="translate(-215.889 -283.981)" fill="#303d5c"/><path d="M252.269,473.67s-2.616,6.421-3.473,6.846.166,2.111.166,2.111S253.75,475.951,252.269,473.67Z" transform="translate(-189.59 -314.128)" opacity="0.1"/><path d="M247.783,415.3c.031-.123-3.126,3.087-3.971,3.577S246.9,418.855,247.783,415.3Z" transform="translate(-186.666 -278.282)" opacity="0.1"/><path d="M224.772,472.36s-4.816,3.114-4.183,4.345S224.772,472.36,224.772,472.36Z" transform="translate(-172.442 -313.323)" opacity="0.1"/><path d="M254.18,590.16a25.852,25.852,0,0,0,10.481,3.3Z" transform="translate(-193.106 -385.666)" opacity="0.1"/><path d="M228.67,606.59s3.8,4.789,5.53,4.9S228.67,606.59,228.67,606.59Z" transform="translate(-177.44 -395.756)" opacity="0.1"/><path d="M235.166,655.09c-.17.085-2.157,4.31-4.183,4.438S235.166,655.09,235.166,655.09Z" transform="translate(-178.611 -425.541)" opacity="0.1"/><path d="M288.12,678.871s3.77-.845,4.607,1.86C292.727,680.731,292.473,679.886,288.12,678.871Z" transform="translate(-213.95 -440.069)" opacity="0.1"/><path d="M281.56,718.617s4.561-.93,5.534.34S281.56,718.617,281.56,718.617Z" transform="translate(-209.921 -464.353)" opacity="0.1"/><path d="M240.978,724.72c0,.042-4.631.93-4.465,1.524s4.959.505,5.125-.424a.884.884,0,0,0-.66-1.1Z" transform="translate(-182.254 -468.302)" opacity="0.1"/><path d="M277.61,734.7s7.637-.93,7.154.675S277.61,734.7,277.61,734.7Z" transform="translate(-207.495 -474.269)" opacity="0.1"/><path d="M174,491.41c.042.127,5.016.8,5.7,2.408,0,0-4.9-2.281-5.661-2.281" transform="translate(-143.866 -325.022)" opacity="0.1"/><path d="M186.047,525.24s-4.141,1.308-3.859,3.3S181.783,527.609,186.047,525.24Z" transform="translate(-148.886 -345.798)" opacity="0.1"/><path d="M187.21,548.535s1.509-2.072,2.944-1.69S187.21,548.535,187.21,548.535Z" transform="translate(-151.979 -359.037)" opacity="0.1"/><path d="M223.245,345.789a2.381,2.381,0,0,1-.486.363c-1.2.695-1.544,1.767-2.1,3a6.446,6.446,0,0,1-2.176,2.971c-1.374.83-3.187.525-4.631,1.246a3.608,3.608,0,0,0-1.91,3.535,10.218,10.218,0,0,0,.386,1.617,11.388,11.388,0,0,1,.436,3.515.474.474,0,0,1,0,.1,9.759,9.759,0,1,1,10.457-16.354Z" transform="translate(-164.363 -234.285)" opacity="0.1"/><path d="M215.313,333.836a9.006,9.006,0,0,0-5.788-4.376,9.737,9.737,0,0,0-5.634-.12,20.644,20.644,0,0,0-2.944,1.381c-1.81.915-3.8,1.64-5.163,3.141a1.543,1.543,0,0,0-.513,1.258,3.346,3.346,0,0,0,.509.915,2.888,2.888,0,0,1,.027,2.315c-.259.772-.656,1.439-.841,2.207a2.32,2.32,0,0,0,.455,2.211,10.266,10.266,0,0,0,.849.61,4.41,4.41,0,0,1,.814.918l1.609,2.2a22.639,22.639,0,0,1,2.018,3.106,15.051,15.051,0,0,0,1.25,2.365,2.7,2.7,0,0,0,2.265,1.208.432.432,0,0,0,.355-.17.486.486,0,0,0,.046-.224,11.641,11.641,0,0,0-.436-3.515,9.732,9.732,0,0,1-.409-1.617,3.608,3.608,0,0,1,1.929-3.535c1.435-.722,3.249-.413,4.631-1.242a6.379,6.379,0,0,0,2.176-2.975c.575-1.235.9-2.315,2.1-3S215.907,335.021,215.313,333.836Z" transform="translate(-156.686 -225.269)" fill="#303d5c"/><path d="M236.51,755s1.486,1.9,1.1,2.979S236.51,755,236.51,755Z" transform="translate(-182.255 -486.898)" opacity="0.1"/><path d="M288.85,763.14s.332-2.551,1.663-2.574a4.457,4.457,0,0,1,2.408.251c1.015.39,1.968,1,1.667,1.092s-1.752-1.463-3.23-.671a10.681,10.681,0,0,0-2.508,1.9Z" transform="translate(-214.398 -490.295)" opacity="0.1"/><path d="M218.785,407.012l4.168-2.933s-6.116-3.612-6.846-3.106-1.227,5.074-1.227,5.074Z" transform="translate(-168.971 -269.453)" opacity="0.1"/><path d="M218.73,406.439l4.183-2.994s-6.116-3.612-6.846-3.087-1.227,5.325-1.227,5.325Z" transform="translate(-168.947 -269.073)" fill="#e1e7ef"/><path d="M218.73,406.439l4.183-2.994s-6.116-3.612-6.846-3.087-1.227,5.325-1.227,5.325Z" transform="translate(-168.947 -269.073)" opacity="0.03"/><path d="M194.031,400.2l-.127-.062a1.084,1.084,0,0,0-1.158.124l-12.537,10.172s-2.724,3.77-2.346,10.276l7.363,10.481s.845-3.55,1.86-2.875c0,0,1.435,18.167,0,20.787s-2.072,12.421-2.072,12.421l4.858.548s.509-6.633,1.648-9,1.763-10.492,1.763-10.492,1.026-11.816.857-16.886-1.648-15.968-1.648-15.968S192.916,403.339,194.031,400.2Z" transform="translate(-146.216 -268.902)" fill="#303d5c"/><path d="M243.893,401.734,238.68,399.8s6.637-7.266,7.463-3.234Z" transform="translate(-183.587 -266.031)" opacity="0.1"/><path d="M243.893,401.068l-5.213-1.929s6.637-7.27,7.463-3.238Z" transform="translate(-183.587 -265.62)" fill="#e1e7ef"/><path d="M243.893,401.068l-5.213-1.929s6.637-7.27,7.463-3.238Z" transform="translate(-183.587 -265.62)" opacity="0.03"/><path d="M251.75,395.212a.3.3,0,0,1,.216.042Z" transform="translate(-191.614 -265.942)" opacity="0.1"/><path d="M253.06,393.892l13.826,2.983s3.8.845,6.56,10.392-3.758,21.247-3.758,21.247l-1.439-1.219.722,27.884s-6.382,2.408-8.408.3-1.818-12-1.818-12-1.929-18.252-3.168-21.25-.61-24.631-.61-24.631S253.832,393.726,253.06,393.892Z" transform="translate(-192.418 -265.131)" fill="#303d5c"/><path d="M285.537,439.79c-.2.181-.424,8.617.421,15.049a81.9,81.9,0,0,0,2.4,11.576L287.1,440.685S286.128,439.219,285.537,439.79Z" transform="translate(-212.251 -293.24)" opacity="0.1"/><path d="M281.45,421.12c.336.208,1.814,3.716,1.138,5.152S281.45,421.12,281.45,421.12Z" transform="translate(-209.853 -281.856)" opacity="0.1"/><path d="M227.039,336.5A7.579,7.579,0,0,0,224,333.32,7.243,7.243,0,0,1,226.278,336a2.136,2.136,0,0,1-.741,3.045c-1.161.671-1.544,1.763-2.1,3a6.419,6.419,0,0,1-2.176,2.971c-1.374.83-3.187.525-4.631,1.246a3.6,3.6,0,0,0-1.91,3.535,10.324,10.324,0,0,0,.386,1.617,11.387,11.387,0,0,1,.436,3.515.44.44,0,0,1-.046.224.428.428,0,0,1-.355.17,2.1,2.1,0,0,1-1.042-.193,2.419,2.419,0,0,0,1.8.7.347.347,0,0,0,.386-.386,11.519,11.519,0,0,0-.432-3.515,9.735,9.735,0,0,1-.409-1.617,3.608,3.608,0,0,1,1.91-3.535c1.432-.722,3.245-.413,4.631-1.242a6.353,6.353,0,0,0,2.176-2.975c.579-1.235.9-2.315,2.1-3A2.128,2.128,0,0,0,227.039,336.5Z" transform="translate(-168.492 -227.936)" opacity="0.1"/><ellipse cx="15.821" cy="2.173" rx="15.821" ry="2.173" transform="translate(184.698 296.476)" fill="#61961f" opacity="0.1"/><path d="M609.334,815.758a4.5,4.5,0,0,0,1.482-2.234,1.989,1.989,0,0,0-1.034-2.273c-.949-.363-1.964.293-2.732.961s-1.652,1.42-2.659,1.281a4.04,4.04,0,0,0,1.25-3.786,1.543,1.543,0,0,0-.347-.772c-.525-.563-1.482-.324-2.115.12-2.007,1.412-2.566,4.137-2.574,6.591a12.154,12.154,0,0,1-.039-2.7,2.79,2.79,0,0,0-1.019-2.4,3.087,3.087,0,0,0-1.544-.363,3.211,3.211,0,0,0-2.524.714,2.482,2.482,0,0,0,.1,3.087,10.089,10.089,0,0,0,2.609,2.091,5.758,5.758,0,0,1,1.868,1.779,1.876,1.876,0,0,1,.139.32h5.653A15.865,15.865,0,0,0,609.334,815.758Z" transform="translate(-402.402 -519.819)" fill="#61961f"/><ellipse cx="11.245" cy="1.544" rx="11.245" ry="1.544" transform="translate(0.058 283.962)" fill="#61961f" opacity="0.1"/><path d="M110.324,775.612a4.519,4.519,0,0,0,1.482-2.238,1.986,1.986,0,0,0-1.034-2.273c-.949-.363-1.964.3-2.732.961s-1.652,1.42-2.659,1.281a4.033,4.033,0,0,0,1.25-3.786,1.543,1.543,0,0,0-.347-.772c-.525-.563-1.482-.324-2.111.12-2.007,1.412-2.566,4.137-2.578,6.591a12.152,12.152,0,0,1-.039-2.7,2.79,2.79,0,0,0-1.019-2.4,3.063,3.063,0,0,0-1.544-.363,3.226,3.226,0,0,0-2.524.714,2.482,2.482,0,0,0,.1,3.087,9.966,9.966,0,0,0,2.612,2.091,5.788,5.788,0,0,1,1.864,1.779,1.863,1.863,0,0,1,.139.32h5.653a15.844,15.844,0,0,0,3.484-2.408Z" transform="translate(-95.95 -495.162)" fill="#61961f"/><path d="M821.562,714.6s2.122,2.775-.976,6.946-5.653,7.718-4.631,10.33c0,0,4.673-7.776,8.489-7.884S825.749,719.277,821.562,714.6Z" transform="translate(-537.963 -462.087)" fill="#61961f"/><path d="M821.761,714.6a3.472,3.472,0,0,1,.436.872c3.712,4.36,5.688,8.432,2.119,8.532-3.322.1-7.309,6.039-8.266,7.54a2.756,2.756,0,0,0,.116.343s4.673-7.776,8.489-7.884S825.948,719.277,821.761,714.6Z" transform="translate(-538.162 -462.087)" opacity="0.1"/><path d="M840.29,722.765c0,.976-.112,1.767-.247,1.767s-.243-.791-.243-1.767.135-.517.27-.517S840.29,721.789,840.29,722.765Z" transform="translate(-552.747 -466.718)" fill="#ffd037"/><path d="M841.91,725.718c-.857.467-1.6.749-1.667.629s.575-.59,1.432-1.057.521-.127.587,0S842.766,725.251,841.91,725.718Z" transform="translate(-553.016 -468.506)" fill="#ffd037"/><path d="M794.263,714.6s-2.122,2.775.976,6.946,5.653,7.718,4.631,10.33c0,0-4.677-7.776-8.489-7.884S790.08,719.277,794.263,714.6Z" transform="translate(-521.858 -462.087)" fill="#61961f"/><path d="M794.254,714.6a3.474,3.474,0,0,0-.436.872c-3.712,4.36-5.688,8.432-2.119,8.532,3.322.1,7.309,6.039,8.266,7.54q-.047.174-.112.343s-4.677-7.776-8.489-7.884S790.071,719.277,794.254,714.6Z" transform="translate(-521.849 -462.087)" opacity="0.1"/><path d="M791.62,722.765c0,.976.112,1.767.247,1.767s.243-.791.243-1.767-.135-.517-.27-.517S791.62,721.789,791.62,722.765Z" transform="translate(-523.159 -466.718)" fill="#ffd037"/><path d="M787.289,725.718c.857.467,1.605.749,1.667.629s-.575-.59-1.432-1.057-.521-.127-.587,0S786.432,725.251,787.289,725.718Z" transform="translate(-520.178 -468.506)" fill="#ffd037"/><path d="M793.37,753.355s5.927-.185,7.718-1.455,9.118-2.79,9.562-.772,8.906,10.145,2.215,10.2-15.547-1.042-17.33-2.126S793.37,753.355,793.37,753.355Z" transform="translate(-524.233 -483.918)" fill="#a8a8a8"/><path d="M812.98,765.729c-6.691.054-15.547-1.042-17.33-2.126-1.358-.826-1.9-3.793-2.08-5.163h-.2s.386,4.777,2.161,5.865,10.639,2.18,17.33,2.126c1.929,0,2.6-.7,2.562-1.717C815.153,765.336,814.416,765.718,812.98,765.729Z" transform="translate(-524.233 -489.01)" opacity="0.2"/></g></svg>