<svg width="259" height="197" viewBox="0 0 259 197" fill="none" xmlns="http://www.w3.org/2000/svg">
<path opacity="0.1" d="M129.5 196.029C200.816 196.029 258.629 187.99 258.629 178.074C258.629 168.158 200.816 160.119 129.5 160.119C58.1841 160.119 0.371033 168.158 0.371033 178.074C0.371033 187.99 58.1841 196.029 129.5 196.029Z" fill="#61961F"/>
<path d="M172.173 0H72.068C61.1328 0 52.268 8.86476 52.268 19.8V148.436C52.268 159.371 61.1328 168.236 72.068 168.236H172.173C183.108 168.236 191.973 159.371 191.973 148.436V19.8C191.973 8.86476 183.108 0 172.173 0Z" fill="#464353"/>
<path opacity="0.1" d="M179.922 16.971H64.321V151.265H179.922V16.971Z" fill="#61961F"/>
<path d="M122.121 165.038C124.838 165.038 127.04 162.836 127.04 160.119C127.04 157.402 124.838 155.2 122.121 155.2C119.404 155.2 117.202 157.402 117.202 160.119C117.202 162.836 119.404 165.038 122.121 165.038Z" fill="white"/>
<path d="M122.121 12.175C123.412 12.175 124.458 11.1287 124.458 9.83798C124.458 8.54729 123.412 7.50098 122.121 7.50098C120.83 7.50098 119.784 8.54729 119.784 9.83798C119.784 11.1287 120.83 12.175 122.121 12.175Z" fill="white"/>
<path d="M122.121 7.62198C122.559 7.62198 122.987 7.75182 123.351 7.9951C123.715 8.23838 123.999 8.58416 124.167 8.98872C124.334 9.39327 124.378 9.83843 124.293 10.2679C124.207 10.6974 123.996 11.0919 123.687 11.4015C123.377 11.7111 122.982 11.922 122.553 12.0074C122.123 12.0929 121.678 12.049 121.274 11.8814C120.869 11.7139 120.523 11.4301 120.28 11.066C120.037 10.7019 119.907 10.2739 119.907 9.83598C119.907 9.24879 120.14 8.68565 120.556 8.27045C120.971 7.85524 121.534 7.62198 122.121 7.62198ZM122.121 7.37598C121.635 7.37598 121.159 7.52026 120.754 7.79057C120.35 8.06087 120.035 8.44507 119.848 8.89458C119.662 9.34408 119.613 9.83871 119.708 10.3159C119.803 10.7931 120.038 11.2314 120.382 11.5755C120.726 11.9195 121.164 12.1538 121.641 12.2487C122.118 12.3436 122.613 12.2949 123.062 12.1087C123.512 11.9225 123.896 11.6072 124.166 11.2027C124.437 10.7981 124.581 10.3225 124.581 9.83598C124.581 9.18354 124.322 8.55784 123.861 8.0965C123.399 7.63516 122.774 7.37598 122.121 7.37598Z" fill="white"/>
<path d="M122.121 75.29C123.407 75.2847 124.638 74.7709 125.547 73.8607C126.455 72.9505 126.966 71.7179 126.969 70.432V59.785C126.969 58.4987 126.458 57.2651 125.548 56.3555C124.639 55.446 123.405 54.935 122.119 54.935C120.833 54.935 119.599 55.446 118.69 56.3555C117.78 57.2651 117.269 58.4987 117.269 59.785V70.433C117.272 71.7195 117.784 72.9526 118.693 73.8627C119.602 74.7729 120.835 75.286 122.121 75.29ZM130.688 69.958C130.612 72.1794 129.676 74.2845 128.078 75.8292C126.48 77.3738 124.344 78.2372 122.121 78.2372C119.898 78.2372 117.762 77.3738 116.164 75.8292C114.566 74.2845 113.63 72.1794 113.554 69.958H110.807C110.866 72.6258 111.876 75.1849 113.654 77.1745C115.432 79.164 117.863 80.4533 120.507 80.81V86.61H123.739V80.81C126.378 80.4408 128.8 79.1483 130.576 77.1621C132.352 75.1758 133.366 72.6244 133.439 69.961L130.688 69.958Z" fill="#61961F"/>
<path d="M100.413 113.111C100.364 113.111 100.317 113.093 100.28 113.062L98.032 110.991V113.109H97.525V108.669H98.032V110.787L100.285 108.701C100.321 108.671 100.366 108.656 100.413 108.657C100.441 108.656 100.469 108.661 100.495 108.672C100.521 108.682 100.545 108.698 100.565 108.717C100.585 108.737 100.601 108.761 100.612 108.787C100.622 108.813 100.627 108.841 100.627 108.869V112.888C100.629 112.917 100.624 112.946 100.614 112.973C100.604 113.001 100.589 113.025 100.569 113.046C100.549 113.067 100.524 113.084 100.498 113.095C100.471 113.107 100.442 113.112 100.413 113.112V113.111Z" fill="white"/>
<path d="M100.41 108.79C100.422 108.789 100.434 108.791 100.445 108.795C100.456 108.8 100.467 108.806 100.475 108.814C100.484 108.823 100.491 108.833 100.495 108.844C100.499 108.855 100.501 108.867 100.501 108.879V112.898C100.501 112.91 100.499 112.922 100.495 112.933C100.491 112.945 100.484 112.955 100.475 112.963C100.467 112.972 100.457 112.979 100.445 112.983C100.434 112.987 100.422 112.989 100.41 112.989C100.391 112.988 100.373 112.981 100.358 112.969L98.317 111.092L98.103 110.892L98.319 110.692L100.358 108.803C100.373 108.792 100.391 108.786 100.41 108.786V108.79ZM97.91 108.786V112.997H97.647V108.786H97.91ZM100.41 108.54C100.333 108.539 100.258 108.566 100.199 108.616L98.153 110.516V108.669C98.1528 108.636 98.1395 108.604 98.1161 108.581C98.0927 108.558 98.0611 108.544 98.028 108.544H97.528C97.4949 108.544 97.4631 108.557 97.4396 108.581C97.4162 108.604 97.403 108.636 97.403 108.669V113.109C97.403 113.142 97.4162 113.174 97.4396 113.197C97.4631 113.221 97.4949 113.234 97.528 113.234H98.028C98.0612 113.234 98.093 113.221 98.1164 113.197C98.1399 113.174 98.153 113.142 98.153 113.109V111.279L100.199 113.163C100.258 113.214 100.333 113.242 100.411 113.242C100.455 113.242 100.499 113.234 100.54 113.217C100.582 113.2 100.619 113.176 100.65 113.144C100.682 113.113 100.706 113.076 100.723 113.034C100.74 112.993 100.748 112.949 100.748 112.905V108.879C100.748 108.835 100.74 108.791 100.723 108.75C100.706 108.709 100.682 108.672 100.65 108.641C100.619 108.609 100.581 108.585 100.54 108.568C100.499 108.552 100.455 108.543 100.411 108.544L100.41 108.54Z" fill="white"/>
<path d="M143.826 113.111C143.771 113.111 143.718 113.09 143.678 113.052C143.656 113.033 143.639 113.009 143.628 112.982C143.616 112.955 143.611 112.926 143.612 112.897V108.878C143.612 108.85 143.618 108.822 143.628 108.796C143.639 108.771 143.655 108.747 143.675 108.727C143.695 108.708 143.718 108.692 143.744 108.682C143.77 108.671 143.798 108.666 143.826 108.666C143.875 108.665 143.924 108.683 143.961 108.715L146.226 110.787V108.672H146.718V113.114H146.226V110.982L143.973 113.068C143.953 113.084 143.929 113.097 143.904 113.104C143.879 113.112 143.852 113.114 143.826 113.111Z" fill="white"/>
<path d="M143.829 108.79C143.848 108.789 143.866 108.795 143.881 108.807L145.923 110.684L146.137 110.884L145.923 111.084L143.881 112.973C143.867 112.986 143.848 112.993 143.829 112.993C143.805 112.993 143.782 112.983 143.765 112.966C143.748 112.949 143.738 112.926 143.738 112.902V108.883C143.738 108.871 143.74 108.859 143.745 108.848C143.75 108.838 143.756 108.828 143.765 108.819C143.773 108.811 143.783 108.805 143.794 108.8C143.805 108.796 143.817 108.794 143.829 108.794V108.79ZM146.599 108.794V113.005H146.336V108.794H146.602H146.599ZM143.832 108.548C143.788 108.548 143.744 108.556 143.703 108.573C143.662 108.589 143.625 108.614 143.594 108.645C143.563 108.676 143.538 108.713 143.521 108.753C143.504 108.794 143.495 108.838 143.495 108.882V112.901C143.495 112.945 143.503 112.989 143.52 113.03C143.537 113.071 143.561 113.109 143.593 113.14C143.624 113.172 143.662 113.196 143.703 113.213C143.744 113.23 143.788 113.238 143.832 113.238C143.911 113.238 143.986 113.21 144.046 113.159L146.092 111.265V113.112C146.092 113.145 146.105 113.177 146.129 113.2C146.152 113.224 146.184 113.237 146.217 113.237H146.709C146.726 113.237 146.742 113.234 146.758 113.228C146.773 113.222 146.787 113.213 146.799 113.201C146.811 113.19 146.821 113.176 146.827 113.161C146.834 113.145 146.837 113.129 146.837 113.112V108.672C146.837 108.655 146.834 108.639 146.827 108.623C146.821 108.608 146.811 108.594 146.799 108.583C146.787 108.571 146.773 108.562 146.758 108.556C146.742 108.549 146.726 108.547 146.709 108.547H146.217C146.184 108.547 146.152 108.56 146.129 108.584C146.105 108.607 146.092 108.639 146.092 108.672V110.507L144.046 108.623C143.986 108.571 143.909 108.543 143.829 108.544L143.832 108.548Z" fill="white"/>
<path d="M122.957 113.186C122.857 113.186 122.76 113.146 122.689 113.075C122.618 113.004 122.578 112.907 122.578 112.807V109.135C122.578 109.034 122.618 108.938 122.689 108.867C122.76 108.796 122.857 108.756 122.957 108.756H123.957C124.058 108.756 124.154 108.796 124.225 108.867C124.296 108.938 124.336 109.034 124.336 109.135V112.807C124.336 112.907 124.296 113.004 124.225 113.075C124.154 113.146 124.058 113.186 123.957 113.186H122.957ZM120.286 113.186C120.236 113.186 120.187 113.176 120.141 113.157C120.095 113.138 120.053 113.11 120.018 113.075C119.983 113.04 119.955 112.998 119.936 112.952C119.917 112.906 119.907 112.857 119.907 112.807V109.135C119.907 109.085 119.917 109.036 119.936 108.99C119.955 108.944 119.983 108.902 120.018 108.867C120.053 108.832 120.095 108.804 120.141 108.785C120.187 108.766 120.236 108.756 120.286 108.756H121.286C121.387 108.756 121.483 108.796 121.554 108.867C121.625 108.938 121.665 109.034 121.665 109.135V112.807C121.665 112.907 121.625 113.004 121.554 113.075C121.483 113.146 121.387 113.186 121.286 113.186H120.286Z" fill="white"/>
<path d="M123.954 108.878C124.019 108.878 124.082 108.904 124.128 108.95C124.174 108.996 124.2 109.059 124.2 109.124V112.796C124.2 112.861 124.174 112.924 124.128 112.97C124.082 113.016 124.019 113.042 123.954 113.042H122.954C122.889 113.042 122.826 113.016 122.78 112.97C122.734 112.924 122.708 112.861 122.708 112.796V109.134C122.708 109.069 122.734 109.006 122.78 108.96C122.826 108.914 122.889 108.888 122.954 108.888H123.954V108.878ZM121.283 108.888C121.348 108.888 121.411 108.914 121.457 108.96C121.503 109.006 121.529 109.069 121.529 109.134V112.806C121.529 112.871 121.503 112.934 121.457 112.98C121.411 113.026 121.348 113.052 121.283 113.052H120.283C120.218 113.052 120.155 113.026 120.109 112.98C120.063 112.934 120.037 112.871 120.037 112.806V109.134C120.037 109.069 120.063 109.006 120.109 108.96C120.155 108.914 120.218 108.888 120.283 108.888H121.283ZM123.954 108.642H122.954C122.824 108.642 122.698 108.694 122.606 108.786C122.514 108.878 122.462 109.003 122.462 109.134V112.806C122.462 112.936 122.514 113.062 122.606 113.154C122.698 113.246 122.824 113.298 122.954 113.298H123.954C124.085 113.298 124.21 113.246 124.302 113.154C124.394 113.062 124.446 112.936 124.446 112.806V109.134C124.446 109.069 124.433 109.005 124.409 108.946C124.384 108.886 124.348 108.832 124.302 108.786C124.256 108.74 124.202 108.704 124.142 108.679C124.083 108.655 124.019 108.642 123.954 108.642ZM121.283 108.642H120.283C120.153 108.642 120.027 108.694 119.935 108.786C119.843 108.878 119.791 109.003 119.791 109.134V112.806C119.791 112.936 119.843 113.062 119.935 113.154C120.027 113.246 120.153 113.298 120.283 113.298H121.283C121.414 113.298 121.539 113.246 121.631 113.154C121.723 113.062 121.775 112.936 121.775 112.806V109.134C121.775 109.004 121.724 108.88 121.632 108.787C121.541 108.695 121.417 108.643 121.287 108.642H121.283Z" fill="white"/>
<path opacity="0.5" d="M151.636 102.685H92.606V103.342H151.636V102.685Z" fill="#61961F"/>
<path d="M110.835 104.447C110.551 104.447 110.273 104.363 110.036 104.206C109.8 104.048 109.616 103.824 109.507 103.561C109.398 103.299 109.369 103.01 109.425 102.731C109.48 102.453 109.617 102.197 109.818 101.996C110.019 101.795 110.275 101.658 110.553 101.602C110.832 101.547 111.121 101.576 111.384 101.685C111.646 101.794 111.87 101.978 112.028 102.214C112.186 102.451 112.269 102.729 112.269 103.013C112.269 103.393 112.117 103.758 111.848 104.026C111.58 104.295 111.215 104.446 110.835 104.447Z" fill="white"/>
<path d="M110.834 101.703C111.094 101.703 111.348 101.779 111.564 101.923C111.78 102.067 111.949 102.272 112.049 102.512C112.148 102.752 112.174 103.016 112.124 103.271C112.074 103.526 111.949 103.76 111.765 103.944C111.582 104.128 111.348 104.253 111.093 104.304C110.838 104.354 110.574 104.329 110.334 104.229C110.094 104.13 109.889 103.962 109.744 103.746C109.6 103.53 109.523 103.276 109.523 103.016C109.523 102.668 109.661 102.334 109.907 102.088C110.153 101.842 110.486 101.704 110.834 101.703ZM110.834 101.457C110.474 101.457 110.125 101.581 109.846 101.809C109.567 102.037 109.376 102.355 109.305 102.708C109.235 103.062 109.289 103.429 109.458 103.746C109.628 104.064 109.902 104.314 110.235 104.452C110.567 104.59 110.938 104.609 111.283 104.504C111.627 104.4 111.925 104.18 112.126 103.88C112.326 103.581 112.417 103.221 112.382 102.863C112.347 102.504 112.189 102.169 111.934 101.914C111.643 101.621 111.247 101.455 110.834 101.453V101.457Z" fill="white"/>
<path d="M110.711 102.808H92.729V103.219H110.711V102.808Z" fill="white"/>
<path d="M110.588 102.933V103.098H92.852V102.933H110.588ZM110.834 102.687H92.606V103.344H110.834V102.687Z" fill="white"/>
<path d="M213.072 140.745C203.817 140.745 196.315 151.22 196.315 164.145C196.315 177.07 203.815 187.545 213.072 187.545C222.329 187.545 229.827 177.067 229.827 164.145C229.827 151.223 222.325 140.745 213.072 140.745ZM213.938 184.329C205.802 184.329 199.205 175.155 199.205 163.841C199.205 152.527 205.805 143.355 213.938 143.355C222.071 143.355 228.673 152.527 228.673 163.841C228.673 175.155 222.077 184.329 213.938 184.329Z" fill="#35323E"/>
<path d="M215.094 113.001L213.938 132.648H191.238C189.268 132.629 187.363 133.349 185.898 134.667C184.583 135.868 183.766 137.517 183.608 139.291V168.767H186.496L186.476 166.745H215.096V163.855H186.442L186.196 140.213C186.192 139.915 186.222 139.618 186.287 139.328C186.406 138.719 186.646 138.141 186.991 137.625C187.337 137.11 187.781 136.669 188.299 136.328C188.886 135.994 189.552 135.824 190.227 135.836H215.959L217.405 115.323H226.07V113.001H215.094Z" fill="#464353"/>
<path opacity="0.1" d="M215.094 113.001L213.938 132.648H191.238C189.268 132.629 187.363 133.349 185.898 134.667C184.583 135.868 183.766 137.517 183.608 139.291V168.767H186.496L186.476 166.745H215.096V163.855H186.442L186.196 140.213C186.192 139.915 186.222 139.618 186.287 139.328C186.406 138.719 186.646 138.141 186.991 137.625C187.337 137.11 187.781 136.669 188.299 136.328C188.886 135.994 189.552 135.824 190.227 135.836H215.959L217.405 115.323H226.07V113.001H215.094Z" fill="black"/>
<path d="M215.817 123.555L237.629 122.832L236.473 153.169L184.182 153.747L185.482 141.469L213.94 146.236L215.817 123.555Z" fill="#35323E"/>
<path d="M235.606 163.858H206.716V166.748H235.606V163.858Z" fill="#464353"/>
<path d="M215.96 161.666V153.166H213.654V161.666C213.168 162.103 212.787 162.644 212.537 163.248C212.286 163.851 212.174 164.503 212.208 165.156C212.208 167.311 213.374 169.056 214.808 169.056C216.242 169.056 217.408 167.31 217.408 165.156C217.442 164.503 217.33 163.851 217.08 163.247C216.829 162.643 216.447 162.103 215.96 161.666Z" fill="#464353"/>
<path d="M204.608 168.895C205.086 168.451 205.708 168.194 206.36 168.171C207.012 168.147 207.651 168.359 208.16 168.767C208.16 168.767 211.626 171.079 208.448 180.903C208.448 180.903 206.138 182.347 207.294 177.723C208.45 173.099 207.87 170.211 206.716 170.211C205.562 170.211 204.116 173.391 204.116 173.391L202.092 172.523C202.705 171.172 203.557 169.943 204.608 168.895Z" fill="#464353"/>
<path d="M182.942 168.895C183.419 168.449 184.04 168.191 184.693 168.167C185.345 168.144 185.983 168.357 186.491 168.767C186.491 168.767 189.959 171.079 186.781 180.903C186.781 180.903 184.469 182.347 185.625 177.723C186.781 173.099 186.203 170.211 185.047 170.211C183.891 170.211 182.447 173.391 182.447 173.391L180.425 172.523C181.038 171.172 181.891 169.942 182.942 168.895Z" fill="#464353"/>
<path d="M183.171 188.706C186.761 188.706 189.672 184.825 189.672 180.038C189.672 175.251 186.761 171.37 183.171 171.37C179.581 171.37 176.67 175.251 176.67 180.038C176.67 184.825 179.581 188.706 183.171 188.706Z" fill="#35323E"/>
<path d="M204.838 188.706C208.428 188.706 211.339 184.825 211.339 180.038C211.339 175.251 208.428 171.37 204.838 171.37C201.248 171.37 198.337 175.251 198.337 180.038C198.337 184.825 201.248 188.706 204.838 188.706Z" fill="#35323E"/>
<path d="M166.119 181.869C168.227 183.281 171.424 182.607 171.424 182.607C171.424 182.607 176.255 180.32 177.684 180.32C179.368 180.052 181.013 179.582 182.584 178.92L182.466 177.968L182.112 175.098C184.312 176.82 186.756 176.22 187.958 176.082C189.252 175.949 196.158 171.844 196.813 171.576C197.063 171.425 197.272 171.215 197.421 170.964C197.867 170.286 198.259 169.575 198.594 168.836C198.876 168.623 199.124 168.369 199.332 168.083C199.441 167.695 199.582 167.318 199.755 166.954C200.499 166.848 201.214 166.591 201.855 166.199C201.961 166.112 202.058 166.014 202.143 165.906C202.406 165.567 202.545 165.147 202.534 164.718C202.534 164.718 209.268 157.925 208.385 155.098C207.502 152.271 210.562 152.203 210.562 152.203C210.562 152.203 215.255 150.186 215.909 148.974C216.309 148.236 219.832 146.596 222.481 145.444L222.808 145.304C223.836 147.559 229.058 145.825 230.086 144.871C231.176 143.86 234.371 143.395 234.371 143.395C234.371 143.395 234.509 130.207 235.529 128.527C236.021 127.727 236.129 125.127 236.117 122.609V122.348C237.546 122.07 240.945 121.423 242.517 121.266C243.564 121.077 244.543 120.619 245.36 119.938L245.454 120.056C245.73 120.169 246.028 120.218 246.325 120.199C246.587 120.227 246.852 120.177 247.087 120.056C247.699 119.719 249.943 119.048 250.759 118.711C251.575 118.374 250.624 115.951 250.021 115.482C249.418 115.013 249 114.405 249.34 114.137C249.68 113.869 248.526 113.195 247.84 113.06C246.911 112.761 246.002 112.402 245.12 111.983C245.12 111.983 244.382 110.436 243.152 110.436C242.113 110.277 241.131 109.861 240.294 109.226C240.225 108.687 238.934 108.621 238.934 108.621C238.934 108.621 234.034 104.853 233.218 105.321C232.402 105.789 230.158 104.583 230.158 104.583C230.158 104.583 227.403 104.893 226.758 104.383C226.754 104.217 226.696 104.058 226.593 103.928C226.211 103.28 225.681 102.732 225.046 102.328C225.099 102.007 225.125 101.682 225.125 101.356C225.127 101.215 225.122 101.075 225.11 100.935V100.866L225.21 99.919C225.22 99.606 225.304 99.2999 225.456 99.026C225.572 98.849 225.739 98.709 225.867 98.534C225.898 98.4935 225.926 98.4507 225.951 98.406C225.959 98.3955 225.966 98.3841 225.971 98.372C225.99 98.3396 226.008 98.3063 226.023 98.272L226.038 98.238C226.077 98.1452 226.107 98.0487 226.127 97.95V97.928C226.127 97.921 226.142 97.837 226.147 97.793C226.148 97.7864 226.148 97.7796 226.147 97.773C226.175 97.382 226.123 96.9894 225.995 96.619C225.728 96.0073 225.541 95.3641 225.437 94.705C225.454 94.3766 225.443 94.0474 225.403 93.721C225.241 92.983 224.483 92.516 223.755 92.211C222.91 91.8294 222.128 91.3209 221.436 90.703C220.747 90.172 219.616 90.437 218.75 90.494C216.775 90.6931 214.834 91.142 212.972 91.83C212.241 92.0297 211.555 92.3693 210.953 92.83C210.575 93.1521 210.316 93.5909 210.215 94.077C210.195 94.1889 210.188 94.3025 210.193 94.416C210.192 94.4256 210.192 94.4353 210.193 94.445C210.196 94.4886 210.201 94.532 210.208 94.575C210.207 94.589 210.207 94.603 210.208 94.617C210.217 94.6695 210.231 94.7213 210.247 94.772C210.326 95.018 210.471 95.247 210.554 95.493C210.573 95.5469 210.589 95.6021 210.601 95.658V95.678C210.606 95.7325 210.615 95.7866 210.628 95.84C210.629 96.4728 210.546 97.1029 210.382 97.714C210.367 97.803 210.357 97.894 210.35 97.985C210.323 98.3464 210.357 98.7098 210.45 99.06C210.456 99.1045 210.469 99.1478 210.489 99.188C210.494 99.2073 210.499 99.2263 210.506 99.245C210.513 99.2826 210.528 99.3185 210.548 99.351C210.557 99.3744 210.566 99.3975 210.577 99.42C210.589 99.442 210.604 99.484 210.619 99.513L210.658 99.589L210.707 99.673C210.722 99.7 210.739 99.725 210.756 99.752C210.773 99.779 210.788 99.801 210.805 99.826C210.824 99.8525 210.845 99.8778 210.867 99.902L210.921 99.968L210.992 100.042C211.01 100.062 211.029 100.081 211.049 100.099C211.076 100.126 211.106 100.148 211.133 100.173L211.192 100.22C211.226 100.246 211.261 100.269 211.298 100.291L211.347 100.325C211.404 100.357 211.46 100.386 211.519 100.414C211.91 100.594 212.402 100.66 212.638 100.999C212.693 101.08 212.732 101.171 212.754 101.267V101.395C212.755 101.592 212.767 101.789 212.788 101.985C212.786 102.092 212.792 102.199 212.805 102.305C212.817 102.384 212.839 102.462 212.871 102.536C213.146 103.892 213.873 105.114 214.934 106.002C214.954 106.102 214.976 106.226 215.003 106.364C214.408 106.815 213.743 107.165 213.035 107.4C211.572 108.057 210.236 108.965 209.087 110.083C209.087 110.083 207.938 118.359 207.663 119.368C207.411 120.998 207.246 122.64 207.171 124.287C207.035 125.118 206.807 125.93 206.49 126.71C206.174 128.232 206.375 129.815 207.061 131.21C206.933 131.502 206.768 131.777 206.569 132.027C204.936 133.911 200.039 133.845 198.406 133.845C198.001 133.799 197.591 133.875 197.229 134.063C196.868 134.251 196.57 134.542 196.374 134.9C193.386 135.749 183.702 138.511 182.554 139.015C181.194 139.608 180.446 145.484 180.446 145.484C180.446 145.484 177.588 155.239 177.726 156.523C177.864 157.807 176.745 161.361 176.745 161.361C176.745 161.361 176.745 165.385 176.283 165.661C175.806 165.861 175.875 167.816 175.875 167.816C175.875 167.816 176.224 167.916 176.775 168.062C176.536 169.215 176.167 170.337 175.675 171.407C175.463 171.139 175.257 171.026 175.134 171.341C174.792 172.197 169.691 178.252 168.397 178.252C167.518 178.375 166.707 178.794 166.097 179.438C165.327 180.179 165.014 181.131 166.119 181.869ZM189.519 146.825C193.513 147.111 197.527 146.974 201.492 146.414C201.271 147.227 200.975 148.017 200.609 148.775C199.882 150.48 199.356 152.264 199.042 154.09C199.042 154.897 197.207 161.828 196.661 162.165C196.393 162.394 196.189 162.689 196.071 163.021C195.928 163.355 195.807 163.699 195.709 164.049C195.712 164.214 195.728 164.378 195.756 164.541C195.35 164.915 194.92 165.306 194.526 165.65C193.394 166.268 192.308 166.968 191.277 167.743C190.46 168.481 186.653 169.391 186.653 169.391C185.716 169.801 184.806 170.272 183.93 170.8C182.807 171.348 181.876 172.223 181.259 173.309C181.392 171.809 181.611 169.994 181.751 168.842H181.967C183.873 168.724 183.588 166.904 183.49 166.454C183.475 166.39 183.465 166.354 183.465 166.354C184.825 164.878 187.892 153.84 187.477 152.63C187.334 152.241 187.304 151.82 187.391 151.415C187.478 151.01 187.679 150.638 187.969 150.343C188.252 149.679 188.268 148.932 188.011 148.257C187.667 147.518 189.514 146.825 189.514 146.825H189.519ZM236.281 117.143L235.922 117.232V117.152C235.922 117.152 236.057 117.152 236.286 117.14L236.281 117.143ZM216.511 106.992C216.454 107.058 216.4 107.125 216.341 107.186L216.272 107.26V106.886L216.511 106.992ZM209.695 120.045L209.72 120.424C209.72 120.424 209.683 120.653 209.614 121.049L209.695 120.045ZM240.959 116.284L239.771 116.484C239.941 116.42 240.105 116.351 240.263 116.275C240.383 116.221 240.511 116.187 240.642 116.175C240.793 116.193 240.941 116.226 241.085 116.275C241.045 116.276 241.005 116.28 240.965 116.287L240.959 116.284Z" fill="url(#paint0_linear)"/>
<path d="M200.828 164.861C200.331 165.842 199.897 166.853 199.528 167.889C198.614 168.827 197.633 169.696 196.591 170.489L193.319 168.161L193.651 166.561C193.651 166.561 197.326 163.253 197.586 162.872C197.846 162.491 200.828 164.861 200.828 164.861Z" fill="#EFB7B9"/>
<path d="M182.155 174.434C184.425 176.648 187.096 175.969 188.365 175.834C189.634 175.699 196.41 171.626 197.06 171.36C197.308 171.21 197.514 171.001 197.66 170.752C198.095 170.076 198.478 169.368 198.806 168.634C198.762 168.634 196.541 169.278 195.98 168.634C195.98 168.634 195.045 167.488 194.844 167.488C194.643 167.488 194.829 165.479 194.829 165.479C193.714 166.094 192.645 166.787 191.629 167.555C190.82 168.288 187.089 169.191 187.089 169.191C186.164 169.593 185.267 170.057 184.403 170.578C182.639 171.657 180.864 173.18 182.155 174.434Z" fill="#67647E"/>
<path opacity="0.1" d="M182.155 174.435C184.425 176.649 187.096 175.97 188.365 175.835C189.634 175.7 196.41 171.627 197.06 171.361C197.308 171.211 197.514 171.003 197.66 170.753C196.87 170.283 191.708 173.564 190.26 174.164C188.812 174.764 185.16 174.432 183.09 173.564C182.057 173.131 183.105 171.798 184.411 170.576C182.64 171.658 180.864 173.18 182.155 174.435Z" fill="black"/>
<path d="M182.425 167.488C182.425 167.488 181.473 174.633 181.714 175.568C181.955 176.503 175.747 172.368 175.747 172.368C175.747 172.368 177.921 167.892 177.282 166.868C176.643 165.844 182.425 167.488 182.425 167.488Z" fill="#EFB7B9"/>
<path d="M176.478 167.623C178.431 168.21 180.45 168.546 182.487 168.623C184.359 168.505 184.078 166.7 183.98 166.252C183.965 166.188 183.955 166.152 183.955 166.152C185.291 164.676 188.296 153.734 187.89 152.531C187.748 152.145 187.718 151.726 187.805 151.324C187.892 150.922 188.093 150.553 188.382 150.261C188.667 149.604 188.682 148.861 188.424 148.193C188.089 147.46 189.9 146.793 189.9 146.793C193.821 147.077 197.76 146.94 201.652 146.385C201.434 147.191 201.144 147.976 200.784 148.729C200.071 150.423 199.556 152.193 199.249 154.005C199.249 154.805 197.449 161.681 196.912 162.016C196.647 162.244 196.446 162.537 196.329 162.867C196.189 163.198 196.071 163.538 195.977 163.885C196.177 168.359 201.25 166.623 201.986 166.022C202.09 165.935 202.185 165.838 202.269 165.732C202.528 165.395 202.664 164.979 202.653 164.554C202.653 164.554 209.264 157.81 208.396 155.006C207.528 152.202 210.533 152.133 210.533 152.133C210.533 152.133 215.14 150.133 215.779 148.933C216.179 148.195 219.631 146.572 222.231 145.433C223.862 144.72 225.155 144.203 225.155 144.203L224.07 140.303L223.209 137.243L221.6 136.638L216.464 134.705L207.24 133.436L206.394 133.547L197.434 134.705C197.434 134.705 184.346 138.444 183.011 139.034C181.676 139.624 180.952 145.468 180.952 145.468C180.952 145.468 178.146 155.149 178.281 156.423C178.416 157.697 177.346 161.223 177.346 161.223C177.346 161.223 177.346 165.217 176.891 165.49H176.879C176.414 165.685 176.478 167.623 176.478 167.623Z" fill="#575988"/>
<path opacity="0.1" d="M189.9 146.791C193.821 147.075 197.761 146.938 201.652 146.383C202.052 145.121 207.666 141.648 207.666 141.648C203.061 140.514 189.9 146.791 189.9 146.791Z" fill="black"/>
<path d="M195.978 163.882C196.178 168.356 201.251 166.619 201.987 166.019C202.091 165.932 202.186 165.835 202.27 165.729C200.497 166.381 197.351 166.885 196.33 162.864C196.19 163.195 196.072 163.535 195.978 163.882Z" fill="#444053"/>
<path d="M176.478 167.619C178.431 168.206 180.45 168.542 182.487 168.619C184.359 168.501 184.078 166.696 183.98 166.248C181.597 166.233 179.221 165.973 176.891 165.473H176.879C176.414 165.686 176.478 167.619 176.478 167.619Z" fill="#444053"/>
<path opacity="0.1" d="M195.978 163.882C196.178 168.356 201.251 166.619 201.987 166.019C202.091 165.932 202.186 165.835 202.27 165.729C200.497 166.381 197.351 166.885 196.33 162.864C196.19 163.195 196.072 163.535 195.978 163.882Z" fill="black"/>
<path opacity="0.1" d="M176.478 167.619C178.431 168.206 180.45 168.542 182.487 168.619C184.359 168.501 184.078 166.696 183.98 166.248C181.597 166.233 179.221 165.973 176.891 165.473H176.879C176.414 165.686 176.478 167.619 176.478 167.619Z" fill="black"/>
<path d="M166.932 181.576C169 182.976 172.139 182.314 172.139 182.314C172.139 182.314 176.881 180.044 178.288 180.044C179.941 179.776 181.556 179.306 183.094 178.644L182.981 177.697L182.428 173.169C182.428 173.169 177.228 173.034 177.017 172.569C177.017 172.569 176.082 170.269 175.748 171.12C175.414 171.971 170.406 177.977 169.139 177.977C168.271 178.096 167.471 178.512 166.876 179.155C166.147 179.901 165.847 180.843 166.932 181.576Z" fill="#67647E"/>
<path opacity="0.1" d="M184.892 142.115C184.892 142.115 189.233 144.853 188.038 145.467C186.843 146.081 184.892 142.115 184.892 142.115Z" fill="black"/>
<path opacity="0.1" d="M183.09 147.391C183.09 147.391 186.829 150.94 185.427 151.036C184.025 151.132 183.09 147.391 183.09 147.391Z" fill="black"/>
<path opacity="0.1" d="M179.083 158.676C179.083 158.676 180.983 162.245 180.266 162.857C179.549 163.469 179.083 158.676 179.083 158.676Z" fill="black"/>
<path opacity="0.1" d="M199.982 162.281C199.315 162.948 206.325 160.067 204.724 159.944C203.123 159.821 199.982 162.281 199.982 162.281Z" fill="black"/>
<path d="M214.004 112.204L214.228 112.17C215.059 112.042 218.067 111.57 220.768 110.984C221.427 110.841 222.068 110.691 222.65 110.539C224.719 109.995 226.093 109.41 225.223 108.93C224.189 108.305 223.433 107.31 223.108 106.146C223.078 106.046 223.049 105.954 223.022 105.861C222.877 105.36 222.788 104.845 222.754 104.324C222.754 104.324 215.208 101.653 216.676 104.324C216.97 104.818 217.087 105.398 217.006 105.967C216.925 106.536 216.651 107.061 216.231 107.453C215.765 107.949 215.216 108.36 214.608 108.666L214.004 112.204Z" fill="#EFB7B9"/>
<path opacity="0.1" d="M222.081 110.133C221.287 110.677 220.361 110.996 219.4 111.055C218.439 111.114 217.481 110.911 216.626 110.468C213.876 108.868 210.263 124.623 210.263 124.623L206.524 133.837C206.524 133.837 204.101 135.837 207.114 136.71C210.127 137.583 216.814 135.842 218.514 138.378C219.135 139.206 219.922 139.896 220.824 140.405C221.727 140.913 222.725 141.228 223.755 141.33C224.077 141.33 225.355 131.782 225.355 131.782L225.685 117.959L222.081 110.133Z" fill="black"/>
<path d="M207.252 136.173C210.265 137.041 216.952 135.305 218.652 137.843C219.368 138.873 220.365 139.676 221.525 140.155C222.275 140.492 223.075 140.703 223.894 140.78C223.938 140.78 224.002 140.605 224.074 140.303C224.546 138.37 225.496 131.232 225.496 131.232L225.826 117.412L222.653 110.542L222.23 109.6C221.803 109.883 221.341 110.108 220.855 110.269C220.192 110.515 219.483 110.612 218.778 110.554C218.073 110.496 217.389 110.285 216.775 109.934C215.966 109.462 215.085 110.487 214.242 112.17C212.213 116.221 210.412 124.089 210.412 124.089L206.673 133.303C206.587 133.381 206.505 133.463 206.427 133.549C205.875 134.104 204.879 135.491 207.252 136.173Z" fill="#F3F5F9"/>
<path opacity="0.1" d="M221.612 136.637C221.464 137.803 221.434 138.982 221.523 140.154C221.632 141.82 221.842 143.479 222.15 145.12C222.169 145.222 222.196 145.322 222.231 145.42C223.862 144.707 225.155 144.19 225.155 144.19L224.07 140.299C224.542 138.366 225.492 131.228 225.492 131.228L225.822 117.408L222.649 110.538C224.718 109.994 226.092 109.409 225.222 108.929C224.67 108.589 224.192 108.142 223.814 107.615C223.436 107.088 223.167 106.491 223.022 105.859C222.476 106.616 221.838 107.302 221.122 107.9L221.08 107.934L220.834 110.266L220.76 110.982L220.608 112.458C220.608 112.458 221.346 130.02 221.877 131.021C222.408 132.022 222.143 133.958 221.677 136.228C221.656 136.367 221.634 136.5 221.612 136.637Z" fill="black"/>
<path d="M221.951 135.974C221.484 138.244 221.885 141.983 222.418 144.853C222.951 147.723 228.626 145.853 229.696 144.853C230.766 143.853 233.902 143.377 233.902 143.377C233.902 143.377 234.035 130.29 235.038 128.619C235.513 127.827 235.628 125.242 235.616 122.746C235.616 120.505 235.496 118.336 235.454 117.598C235.456 117.51 235.45 117.422 235.437 117.335C235.437 117.335 239.778 109.991 239.712 109.464C239.646 108.937 238.376 108.864 238.376 108.864C238.376 108.864 233.568 105.125 232.768 105.593C231.968 106.061 229.762 104.855 229.762 104.855C229.762 104.855 226.97 105.172 226.392 104.634C226.358 104.603 226.331 104.565 226.313 104.523C226.296 104.48 226.289 104.434 226.292 104.388C226.358 103.534 223.446 101.709 223.358 101.653C225.818 103.867 221.843 107.261 221.39 107.635L221.348 107.669L220.881 112.202C220.881 112.202 221.619 129.761 222.15 130.762C222.681 131.763 222.419 133.7 221.951 135.974Z" fill="#61961F"/>
<path d="M222.21 117.235C222.395 117.235 222.545 117.085 222.545 116.9C222.545 116.715 222.395 116.565 222.21 116.565C222.025 116.565 221.875 116.715 221.875 116.9C221.875 117.085 222.025 117.235 222.21 117.235Z" fill="#444053"/>
<path opacity="0.1" d="M221.526 107.902L223.553 109.87L226.527 104.909C226.492 104.879 226.465 104.841 226.447 104.798C226.43 104.755 226.423 104.709 226.427 104.663C226.491 103.81 223.581 101.982 223.49 101.928C225.944 104.129 221.981 107.531 221.526 107.902Z" fill="black"/>
<path opacity="0.1" d="M222.876 127.917C223.061 127.917 223.211 127.767 223.211 127.582C223.211 127.397 223.061 127.247 222.876 127.247C222.691 127.247 222.541 127.397 222.541 127.582C222.541 127.767 222.691 127.917 222.876 127.917Z" fill="black"/>
<path d="M222.876 127.784C223.061 127.784 223.211 127.634 223.211 127.449C223.211 127.264 223.061 127.114 222.876 127.114C222.691 127.114 222.541 127.264 222.541 127.449C222.541 127.634 222.691 127.784 222.876 127.784Z" fill="#444053"/>
<path d="M221.39 107.636L223.419 109.604L226.393 104.638C226.359 104.607 226.332 104.569 226.314 104.527C226.297 104.484 226.29 104.438 226.293 104.392C226.359 103.538 223.447 101.713 223.359 101.657C225.807 103.861 221.84 107.262 221.39 107.636Z" fill="#61961F"/>
<path d="M221.02 126.571L222.265 126.599C223.204 126.621 223.982 125.877 224.004 124.938L224.151 118.521C224.172 117.582 223.429 116.804 222.49 116.783L221.244 116.754C220.306 116.733 219.527 117.476 219.506 118.415L219.359 124.832C219.338 125.771 220.081 126.549 221.02 126.571Z" fill="#464353"/>
<path d="M221.868 120.39C222.272 120.39 222.599 120.063 222.599 119.659C222.599 119.255 222.272 118.928 221.868 118.928C221.464 118.928 221.137 119.255 221.137 119.659C221.137 120.063 221.464 120.39 221.868 120.39Z" fill="white"/>
<path opacity="0.1" d="M196.711 135.383C198.381 136.121 209.331 134.183 210.935 133.713C212.539 133.243 214.87 129.64 213.735 127.035C213.422 126.201 213.296 125.308 213.365 124.42C213.434 123.532 213.697 122.67 214.135 121.894C214.135 121.894 216.535 116.753 217.072 115.745C217.609 114.737 218.72 111.827 218.872 111.34C218.878 111.285 218.872 111.229 218.855 111.176C218.838 111.123 218.81 111.074 218.772 111.033C218.145 110.341 217.437 109.727 216.664 109.203C216.192 109.373 216.135 108.025 216.152 107.031C216.152 106.475 216.196 106.031 216.196 106.031C216.196 106.031 215.975 106.257 215.613 106.565C215.48 106.676 215.33 106.799 215.163 106.924C214.534 107.428 213.822 107.817 213.058 108.075C211.621 108.727 210.311 109.628 209.187 110.736L209.854 120.992C209.854 120.992 208.319 130.634 206.715 132.503C205.111 134.372 200.305 134.303 198.704 134.303C198.302 134.26 197.896 134.341 197.54 134.533C197.184 134.726 196.895 135.022 196.711 135.383Z" fill="black"/>
<path d="M196.578 134.972C198.248 135.71 209.198 133.772 210.799 133.302C212.4 132.832 214.734 129.229 213.599 126.624C213.286 125.79 213.16 124.897 213.229 124.009C213.298 123.121 213.561 122.259 213.999 121.483C213.999 121.483 216.404 116.342 216.938 115.334C217.472 114.326 218.586 111.418 218.738 110.929C218.743 110.874 218.737 110.818 218.719 110.765C218.702 110.713 218.675 110.664 218.638 110.622C218.011 109.93 217.303 109.316 216.53 108.792C216.058 108.964 215.999 107.614 216.018 106.62C216.018 106.064 216.062 105.62 216.062 105.62C216.062 105.62 215.841 105.846 215.479 106.154C215.346 106.265 215.194 106.388 215.029 106.513C214.4 107.017 213.688 107.406 212.924 107.664C211.486 108.317 210.175 109.217 209.05 110.325L209.719 120.581C209.719 120.581 208.182 130.223 206.581 132.092C204.98 133.961 200.171 133.905 198.568 133.905C198.167 133.86 197.762 133.938 197.407 134.129C197.052 134.319 196.763 134.613 196.578 134.972Z" fill="#61961F"/>
<path opacity="0.1" d="M214.74 105.895C214.74 105.895 214.802 106.247 214.907 106.788C215.266 108.62 216.137 112.625 216.742 112.47C217.44 112.079 218.046 111.542 218.518 110.896C217.891 110.204 217.183 109.589 216.41 109.066C215.938 109.236 215.879 107.885 215.898 106.894L215.357 106.427L214.74 105.895Z" fill="black"/>
<path d="M214.872 105.622C214.872 105.622 214.936 105.974 215.042 106.515C215.401 108.35 216.257 112.354 216.877 112.199C217.574 111.806 218.178 111.268 218.65 110.622C218.023 109.93 217.315 109.316 216.542 108.792C216.07 108.964 216.011 107.614 216.03 106.62L215.491 106.155L214.872 105.622Z" fill="#61961F"/>
<path d="M210.6 125.299C210.6 125.299 213.938 124.632 214.872 123.164C215.806 121.696 222.172 120.426 221.39 121.964C220.608 123.502 214.872 128.524 214.872 128.524L212.388 132.078L209.065 131.234L207.665 128.514L210.6 125.299Z" fill="#EFB7B9"/>
<path opacity="0.1" d="M218.498 129.099C218.498 129.099 215.266 130.299 214.779 131.899C214.292 133.499 218.498 129.099 218.498 129.099Z" fill="black"/>
<path opacity="0.1" d="M220.483 130.956C220.483 130.956 220.776 132.624 216.722 132.491L220.483 130.956Z" fill="black"/>
<path opacity="0.1" d="M237.968 109.599L239.444 109.466C240.263 110.093 241.225 110.506 242.244 110.666C243.444 110.666 244.182 112.203 244.182 112.203C245.047 112.618 245.94 112.975 246.853 113.271C247.522 113.404 248.653 114.071 248.329 114.338C248.005 114.605 248.395 115.206 248.996 115.674C249.597 116.142 250.533 118.547 249.734 118.874C248.935 119.201 246.728 119.874 246.128 120.21C245.918 120.303 245.69 120.351 245.461 120.351C245.231 120.351 245.003 120.303 244.793 120.21C244.793 120.21 241.256 115.603 239.453 116.471C238.096 117.029 236.645 117.323 235.178 117.339L233.242 113.266L237.968 109.599Z" fill="black"/>
<path d="M207.253 131.568C207.384 131.795 207.563 131.991 207.779 132.14C207.994 132.29 208.239 132.39 208.498 132.434C209.806 132.588 211.131 132.465 212.389 132.075C212.389 132.075 205.662 129.938 212.143 124.743H210.406L209.828 124.524L210.094 123.139L210.473 110.666L209.073 110.331C209.073 110.331 207.946 118.546 207.673 119.547C207.428 121.161 207.27 122.788 207.201 124.419C207.069 125.243 206.845 126.05 206.534 126.825C206.197 128.441 206.453 130.124 207.253 131.568Z" fill="#61961F"/>
<path opacity="0.1" d="M207.518 131.568C207.649 131.795 207.829 131.99 208.044 132.14C208.259 132.289 208.505 132.39 208.763 132.434C210.07 132.587 211.395 132.465 212.652 132.075C212.652 132.075 205.925 129.938 212.406 124.743H210.667L210.089 124.524C209.136 126.206 207.641 129.205 207.518 131.568Z" fill="black"/>
<path d="M207.253 131.568C207.384 131.795 207.563 131.991 207.779 132.14C207.994 132.29 208.239 132.39 208.498 132.434C209.806 132.588 211.131 132.465 212.389 132.075C212.389 132.075 205.662 129.938 212.143 124.743H210.407L209.829 124.524C208.871 126.206 207.374 129.205 207.253 131.568Z" fill="#61961F"/>
<path opacity="0.1" d="M216.23 107.452C217.372 107.973 218.648 108.126 219.881 107.893C221.114 107.659 222.245 107.049 223.117 106.146C223.087 106.046 223.058 105.954 223.031 105.861C222.886 105.36 222.797 104.845 222.763 104.324C222.763 104.324 215.217 101.653 216.685 104.324C216.973 104.82 217.085 105.399 217.002 105.967C216.919 106.535 216.647 107.058 216.23 107.452Z" fill="black"/>
<path d="M212.669 101.653V101.712C212.67 101.907 212.682 102.103 212.703 102.297C212.722 102.48 212.75 102.663 212.787 102.843C213.049 104.153 213.734 105.34 214.738 106.22C215.742 107.101 217.008 107.627 218.341 107.716C219.673 107.806 220.998 107.454 222.11 106.715C223.223 105.976 224.061 104.891 224.495 103.628C224.534 103.512 224.571 103.382 224.603 103.271C224.749 102.744 224.822 102.2 224.822 101.653C224.824 101.514 224.819 101.374 224.807 101.235C224.708 99.6565 223.998 98.1788 222.826 97.1159C221.655 96.0531 220.116 95.4889 218.535 95.5433C216.954 95.5978 215.457 96.2665 214.362 97.4074C213.266 98.5483 212.659 100.071 212.669 101.653Z" fill="#EFB7B9"/>
<path opacity="0.1" d="M212.669 101.712C212.703 101.905 212.714 102.101 212.703 102.297C212.701 102.403 212.707 102.509 212.72 102.614C212.732 102.693 212.754 102.77 212.786 102.843C212.845 102.989 212.935 103.121 213.048 103.231C213.162 103.341 213.297 103.426 213.445 103.48C213.593 103.535 213.751 103.557 213.909 103.547C214.066 103.537 214.22 103.494 214.36 103.421C214.564 103.254 214.727 103.042 214.835 102.801C215.396 101.758 216.178 100.558 217.405 100.536C217.925 100.586 218.436 100.701 218.927 100.878C219.171 100.967 219.433 100.995 219.69 100.96C219.947 100.925 220.192 100.829 220.403 100.678C220.693 100.415 220.831 99.962 221.22 99.869C221.609 99.776 221.958 100.132 222.147 100.484C222.336 100.836 222.467 101.244 222.828 101.424C222.988 101.505 223.177 101.524 223.335 101.613C224.073 102.013 223.729 103.406 224.484 103.63C224.507 103.638 224.531 103.644 224.555 103.647L224.592 103.273C224.661 102.597 224.727 101.918 224.792 101.236C224.693 99.6575 223.983 98.1797 222.811 97.1169C221.64 96.054 220.101 95.4899 218.52 95.5443C216.939 95.5987 215.442 96.2675 214.347 97.4084C213.251 98.5493 212.644 100.072 212.654 101.654L212.669 101.712Z" fill="black"/>
<path d="M223.457 92.586C223.824 92.694 224.161 92.8857 224.441 93.146C224.722 93.4063 224.938 93.728 225.073 94.086C225.112 94.4124 225.123 94.7416 225.107 95.07C225.208 95.7241 225.392 96.3627 225.655 96.97C225.785 97.2745 225.84 97.6054 225.818 97.9355C225.795 98.2657 225.695 98.5859 225.525 98.87C225.4 99.04 225.235 99.177 225.125 99.362C224.977 99.634 224.897 99.9375 224.891 100.247L224.561 103.533C223.712 103.376 224.091 101.907 223.331 101.499C223.174 101.413 222.987 101.388 222.824 101.31C222.462 101.13 222.332 100.717 222.143 100.368C221.954 100.019 221.612 99.66 221.216 99.756C220.82 99.852 220.69 100.302 220.399 100.565C220.187 100.715 219.942 100.811 219.685 100.846C219.429 100.88 219.167 100.853 218.923 100.765C218.434 100.582 217.922 100.468 217.401 100.426C216.171 100.446 215.391 101.656 214.831 102.689C214.723 102.931 214.561 103.144 214.356 103.311C214.198 103.392 214.023 103.435 213.845 103.436C213.667 103.438 213.492 103.397 213.332 103.319C213.173 103.24 213.034 103.125 212.927 102.984C212.82 102.842 212.747 102.677 212.715 102.502C212.658 102.111 212.779 101.673 212.553 101.341C212.327 101.009 211.84 100.941 211.453 100.761C211.004 100.491 210.653 100.085 210.452 99.601C210.251 99.1172 210.21 98.5816 210.336 98.073C210.57 97.3593 210.628 96.5999 210.506 95.859C210.425 95.613 210.282 95.392 210.206 95.146C210.127 94.7919 210.149 94.4226 210.27 94.0806C210.392 93.7386 210.607 93.4378 210.892 93.213C211.48 92.7516 212.154 92.4117 212.874 92.213C214.7 91.5311 216.607 91.0855 218.546 90.887C219.395 90.833 220.514 90.567 221.18 91.096C221.863 91.6997 222.63 92.2015 223.457 92.586Z" fill="#464353"/>
<path opacity="0.1" d="M221.875 111.959C222.06 111.959 222.21 111.809 222.21 111.624C222.21 111.439 222.06 111.289 221.875 111.289C221.69 111.289 221.54 111.439 221.54 111.624C221.54 111.809 221.69 111.959 221.875 111.959Z" fill="black"/>
<path d="M221.875 111.826C222.06 111.826 222.21 111.676 222.21 111.491C222.21 111.306 222.06 111.156 221.875 111.156C221.69 111.156 221.54 111.306 221.54 111.491C221.54 111.676 221.69 111.826 221.875 111.826Z" fill="#444053"/>
<path opacity="0.1" d="M224.013 132.925C224.198 132.925 224.348 132.775 224.348 132.59C224.348 132.405 224.198 132.255 224.013 132.255C223.828 132.255 223.678 132.405 223.678 132.59C223.678 132.775 223.828 132.925 224.013 132.925Z" fill="black"/>
<path d="M224.013 132.792C224.198 132.792 224.348 132.642 224.348 132.457C224.348 132.272 224.198 132.122 224.013 132.122C223.828 132.122 223.678 132.272 223.678 132.457C223.678 132.642 223.828 132.792 224.013 132.792Z" fill="#444053"/>
<path opacity="0.1" d="M222.876 138.466C223.061 138.466 223.211 138.316 223.211 138.131C223.211 137.946 223.061 137.796 222.876 137.796C222.691 137.796 222.541 137.946 222.541 138.131C222.541 138.316 222.691 138.466 222.876 138.466Z" fill="black"/>
<path d="M222.876 138.333C223.061 138.333 223.211 138.183 223.211 137.998C223.211 137.813 223.061 137.663 222.876 137.663C222.691 137.663 222.541 137.813 222.541 137.998C222.541 138.183 222.691 138.333 222.876 138.333Z" fill="#444053"/>
<path opacity="0.1" d="M211.405 116.897C211.405 116.897 210.667 121.885 211.405 122.753C212.143 123.621 211.405 116.897 211.405 116.897Z" fill="black"/>
<path opacity="0.1" d="M233.236 126.157C233.635 127.092 233.84 128.099 233.84 129.116C233.84 130.133 233.635 131.139 233.236 132.075C231.836 134.975 230.966 136.148 231.436 137.998C231.906 139.848 233.236 126.157 233.236 126.157Z" fill="black"/>
<path opacity="0.1" d="M166.933 181.577C169.001 182.977 172.14 182.315 172.14 182.315C172.14 182.315 176.882 180.045 178.289 180.045C179.942 179.777 181.556 179.307 183.095 178.645L182.982 177.698C181.318 177.96 179.68 178.366 178.087 178.911C177.62 179.311 171.879 181.25 171.879 181.25C171.879 181.25 167.968 180.758 166.879 179.15C166.148 179.902 165.848 180.844 166.933 181.577Z" fill="black"/>
<g opacity="0.1">
<path opacity="0.1" d="M225.114 94.524V94.553C225.113 94.5434 225.113 94.5337 225.114 94.524Z" fill="black"/>
<path opacity="0.1" d="M211.461 100.211C211.845 100.388 212.327 100.457 212.561 100.791C212.795 101.125 212.667 101.561 212.723 101.952C212.755 102.127 212.828 102.292 212.935 102.434C213.042 102.575 213.181 102.69 213.34 102.769C213.5 102.847 213.675 102.888 213.853 102.886C214.031 102.885 214.206 102.842 214.364 102.761C214.568 102.593 214.731 102.38 214.839 102.139C215.4 101.096 216.182 99.896 217.409 99.876C217.928 99.9259 218.44 100.04 218.931 100.215C219.175 100.303 219.437 100.331 219.694 100.296C219.951 100.261 220.195 100.165 220.407 100.015C220.697 99.752 220.835 99.297 221.224 99.206C221.613 99.115 221.962 99.469 222.151 99.818C222.34 100.167 222.471 100.578 222.832 100.76C222.994 100.839 223.181 100.86 223.339 100.949C224.089 101.357 223.71 102.826 224.569 102.983C224.677 101.889 224.787 100.794 224.899 99.697C224.905 99.3876 224.985 99.0841 225.133 98.812C225.246 98.637 225.411 98.497 225.533 98.32C225.684 98.1127 225.779 97.8692 225.806 97.614C225.877 98.0439 225.779 98.4844 225.533 98.844C225.408 99.014 225.243 99.151 225.133 99.336C224.985 99.6081 224.905 99.9116 224.899 100.221C224.788 101.316 224.678 102.412 224.569 103.507C223.72 103.35 224.099 101.881 223.339 101.473C223.182 101.387 222.995 101.362 222.832 101.284C222.47 101.104 222.34 100.691 222.151 100.342C221.962 99.993 221.62 99.634 221.224 99.73C220.828 99.826 220.698 100.276 220.407 100.539C220.195 100.689 219.95 100.785 219.693 100.82C219.437 100.855 219.175 100.827 218.931 100.739C218.442 100.556 217.93 100.442 217.409 100.4C216.179 100.42 215.399 101.63 214.839 102.663C214.731 102.905 214.569 103.118 214.364 103.285C214.206 103.366 214.031 103.409 213.853 103.41C213.675 103.412 213.5 103.371 213.34 103.293C213.181 103.214 213.042 103.099 212.935 102.958C212.828 102.816 212.755 102.651 212.723 102.476C212.666 102.085 212.787 101.647 212.561 101.315C212.335 100.983 211.848 100.915 211.461 100.734C211.046 100.495 210.714 100.135 210.509 99.7017C210.304 99.2687 210.237 98.7835 210.315 98.311C210.321 98.7008 210.43 99.0822 210.631 99.4161C210.832 99.7499 211.119 100.024 211.461 100.211Z" fill="black"/>
<path opacity="0.1" d="M210.212 94.598C210.288 94.844 210.433 95.065 210.512 95.311C210.601 95.5946 210.627 95.8943 210.588 96.189C210.575 96.072 210.549 95.9567 210.512 95.845C210.431 95.599 210.286 95.378 210.212 95.132C210.143 94.9052 210.13 94.6651 210.173 94.432C210.178 94.489 210.191 94.545 210.212 94.598Z" fill="black"/>
</g>
<path opacity="0.1" d="M229.829 124.286C231.364 123.949 234.97 122.886 234.97 122.886L235.617 122.756C235.617 120.515 235.497 118.346 235.455 117.608H235.438C234.131 118.015 232.86 118.529 231.638 119.145C230.903 119.679 228.632 119.545 228.632 119.545C226.12 119.866 223.814 121.101 222.156 123.016C219.211 126.288 228.295 124.623 229.829 124.286Z" fill="black"/>
<path d="M244.837 118.326C244.975 118.389 245.094 118.485 245.184 118.607C245.274 118.728 245.332 118.871 245.352 119.021C245.372 119.171 245.354 119.323 245.299 119.464C245.243 119.605 245.153 119.729 245.037 119.826C244.157 120.633 243.074 121.185 241.903 121.42C240.012 121.609 235.459 122.52 235.016 122.62L234.945 122.637C234.569 122.748 231.285 123.709 229.839 124.024C228.304 124.361 219.223 126.031 222.16 122.76C223.809 120.868 226.086 119.637 228.572 119.292C228.611 119.29 228.651 119.29 228.69 119.292C229.032 119.309 230.973 119.376 231.642 118.892C231.99 118.673 232.358 118.49 232.742 118.344C234.194 117.745 235.709 117.309 237.258 117.044L240.396 116.498C240.576 116.467 240.761 116.49 240.927 116.564L244.837 118.326Z" fill="#EFB7B9"/>
<path d="M238.243 109.599L239.719 109.466C240.537 110.094 241.5 110.506 242.519 110.666C243.719 110.666 244.455 112.203 244.455 112.203C245.321 112.618 246.213 112.975 247.126 113.271C247.793 113.404 248.926 114.071 248.602 114.338C248.278 114.605 248.671 115.206 249.271 115.674C249.871 116.142 250.806 118.547 250.009 118.874C249.212 119.201 247.009 119.874 246.409 120.21C246.199 120.303 245.971 120.351 245.742 120.351C245.512 120.351 245.284 120.303 245.074 120.21C245.074 120.21 241.535 115.603 239.732 116.471C238.375 117.029 236.924 117.323 235.457 117.339L233.521 113.266L238.243 109.599Z" fill="#61961F"/>
<path d="M235.028 134.099V151.434H207.294V154.319H234.738V166.742H237.628V134.099H235.028Z" fill="#464353"/>
<path d="M247.74 113.001H236.763L235.61 132.648H212.9C210.931 132.63 209.027 133.35 207.563 134.667C206.247 135.867 205.43 137.517 205.271 139.291V168.767H208.161L207.876 140.214C207.869 139.912 207.898 139.61 207.962 139.314C208.081 138.705 208.32 138.126 208.665 137.611C209.011 137.096 209.456 136.655 209.974 136.314C210.56 135.98 211.226 135.81 211.9 135.822H237.625L239.069 115.309H247.737L247.74 113.001Z" fill="#464353"/>
<path d="M234.734 140.745C225.481 140.745 217.979 151.22 217.979 164.145C217.979 177.07 225.479 187.545 234.734 187.545C243.989 187.545 251.491 177.067 251.491 164.145C251.491 151.223 243.994 140.745 234.734 140.745ZM235.602 184.329C227.463 184.329 220.867 175.155 220.867 163.841C220.867 152.527 227.467 143.355 235.602 143.355C243.737 143.355 250.335 152.527 250.335 163.841C250.335 175.155 243.743 184.329 235.607 184.329H235.602Z" fill="#35323E"/>
<path d="M236.473 168.77C237.909 168.77 239.073 167.023 239.073 164.869C239.073 162.715 237.909 160.968 236.473 160.968C235.037 160.968 233.873 162.715 233.873 164.869C233.873 167.023 235.037 168.77 236.473 168.77Z" fill="#35323E"/>
<path d="M237.051 166.17C237.37 166.17 237.629 165.652 237.629 165.014C237.629 164.376 237.37 163.858 237.051 163.858C236.732 163.858 236.473 164.376 236.473 165.014C236.473 165.652 236.732 166.17 237.051 166.17Z" fill="#464353"/>
<path d="M205.848 159.242V162.42C205.425 162.181 204.948 162.052 204.461 162.046C203.975 162.04 203.495 162.157 203.066 162.386C202.367 162.705 201.746 163.174 201.247 163.759C200.749 164.344 200.385 165.032 200.181 165.773C199.481 168.188 198.122 172.955 196.893 177.444C195.171 183.8 191.974 182.363 191.974 182.363L169.874 183.952L160.491 179.164V176.284H184.182C184.182 176.284 189.669 178.306 191.974 179.169C194.279 180.032 193.418 178.301 196.474 167.402C199.53 156.503 205.848 159.242 205.848 159.242Z" fill="#464353"/>
<path opacity="0.1" d="M191.981 182.347L169.881 183.936L160.491 179.171L183.604 178.883L191.981 182.347Z" fill="black"/>
<path d="M80.8 125.163C80.0208 124.438 79.3434 123.61 78.786 122.703C77.674 121.148 76.099 119.985 74.286 119.38V118.78L74.37 118.765L74.333 118.209H74.373L74.273 116.733L73.793 109.394C73.3157 107.826 73.189 106.173 73.422 104.551C73.6549 102.929 74.2418 101.378 75.141 100.008C78.223 95.502 75.333 91.185 72.435 89.496C72.435 89.496 71.087 82.363 72.243 80.676C70.6757 79.7685 69.0599 78.9473 67.403 78.216C67.376 78.13 67.354 78.039 67.332 77.948C67.3 77.281 67.258 76.617 67.221 75.953C67.2594 75.6079 67.3226 75.266 67.41 74.93C67.447 74.792 67.489 74.65 67.533 74.505C68.9104 73.9786 70.0969 73.0488 70.9372 71.8372C71.7776 70.6255 72.2327 69.1885 72.243 67.714C72.2439 66.8536 72.089 66.0002 71.786 65.195C71.9335 64.9449 72.0459 64.6757 72.12 64.395C72.27 63.5846 72.1066 62.7475 71.663 62.053C70.7616 60.3664 69.3229 59.029 67.575 58.253C65.575 57.439 62.56 57.631 60.475 57.882C59.304 58.022 57.969 58.413 57.546 59.482C57.4343 59.8867 57.3455 60.2973 57.28 60.712C56.842 62.35 54.951 63.112 53.78 64.367C52.8313 65.5405 52.204 66.9407 51.96 68.43C50.9992 72.6106 50.7688 76.9259 51.279 81.185C51.397 82.169 51.555 83.14 51.722 84.117C51.022 85.101 50.384 86.837 50.674 89.858L48.368 100.745L47.406 107.128C47.2763 108.021 47.3664 108.932 47.6686 109.783C47.9707 110.633 48.4758 111.397 49.14 112.008C50.7379 113.699 52.1954 115.517 53.498 117.444C53.0197 118.836 52.7829 120.299 52.798 121.77C52.823 122.439 52.859 123.086 52.906 123.701C53.0032 125.007 53.2509 126.298 53.644 127.548C53.8364 130.333 54.4606 133.071 55.494 135.665L55.878 147.114C55.878 147.114 55.3 157.626 54.156 159.69C53.012 161.754 56.656 179.212 56.656 179.212V181.652L56.041 183.457L55.886 183.341C52.998 186.907 55.886 188.223 55.886 188.223L57.93 188.307C57.823 188.807 57.8859 189.329 58.1086 189.79C58.3314 190.25 58.7014 190.623 59.16 190.85C59.16 190.85 75.524 191.588 78.414 190.85C81.304 190.112 80.532 187.471 78.99 187.65C78.2121 187.677 77.435 187.576 76.69 187.35C76.8926 187.164 77.033 186.92 77.0922 186.651C77.1514 186.383 77.1265 186.102 77.0209 185.848C76.9153 185.594 76.7342 185.379 76.502 185.231C76.2698 185.083 75.9979 185.011 75.723 185.023C74.181 185.21 70.718 183.847 70.718 183.847L70.701 183.869C70.5908 183.827 70.4775 183.793 70.362 183.769C69.0709 183.479 67.7953 183.123 66.54 182.704C65.802 181.122 64.08 176.872 65.31 173.576C65.8567 171.832 66.1062 170.009 66.048 168.182C66.0772 162.379 66.9311 156.609 68.584 151.046L70.894 143.175C70.894 143.175 74.165 133.602 74.36 130.975L74.333 127.143C77.039 128.865 79.191 128.351 80.563 127.543C80.7658 127.426 80.938 127.263 81.0653 127.067C81.1926 126.87 81.2714 126.647 81.2953 126.414C81.3191 126.181 81.2873 125.946 81.2024 125.728C81.1175 125.51 80.982 125.315 80.807 125.16L80.8 125.163ZM55.1 105.24C55.166 104.967 55.221 104.664 55.267 104.347C55.72 104.347 56.175 104.347 56.627 104.332C57.1899 105.475 57.4266 106.752 57.311 108.021C56.278 107.699 54.724 106.909 55.111 105.251L55.1 105.24Z" fill="url(#paint1_linear)"/>
<path d="M56.942 180.713L56.204 182.927L58.612 185.335L66.579 187.187L72.3221 186.631L71.946 184.604C71.8367 184.165 71.6085 183.765 71.2865 183.448C70.9645 183.13 70.5613 182.907 70.121 182.804C67.76 182.248 63.259 180.984 62.312 179.225L56.942 180.713Z" fill="#DB8B8B"/>
<path opacity="0.1" d="M56.942 180.713L56.204 182.927L58.612 185.335L66.579 187.187L72.3221 186.631L71.946 184.604C71.8367 184.165 71.6085 183.765 71.2865 183.448C70.9645 183.13 70.5613 182.907 70.121 182.804C67.76 182.248 63.259 180.984 62.312 179.225L56.942 180.713Z" fill="black"/>
<path d="M70.47 186.085L69.358 184.609L70.47 182.887C70.47 182.887 73.803 184.232 75.286 184.048C76.769 183.864 77.5 186.456 74.73 187.196C71.96 187.936 56.204 187.196 56.204 187.196C56.204 187.196 53.425 185.896 56.204 182.38L58.612 184.232C58.612 184.232 62.688 186.446 64.727 186.084L70.47 186.085Z" fill="#2E3037"/>
<path d="M75.4701 189.248L69.7321 189.792L61.765 187.938L59.3571 185.53L59.557 184.942L59.8321 184.116L60.1031 183.307L65.475 181.831C65.7479 182.275 66.1213 182.648 66.5651 182.921C68.6609 184.097 70.9286 184.936 73.285 185.408C73.361 185.428 73.44 185.45 73.514 185.477C73.8664 185.595 74.187 185.792 74.451 186.053C74.772 186.369 74.9999 186.767 75.11 187.204L75.4701 189.248Z" fill="#DB8B8B"/>
<path opacity="0.1" d="M75.4701 189.252L69.7321 189.796L61.765 187.942L59.3571 185.534L59.557 184.946L61.7711 186.646C61.7711 186.646 65.849 188.86 67.886 188.498H73.622L72.51 187.022L73.51 185.48C73.8624 185.598 74.183 185.795 74.4471 186.056C74.768 186.372 74.9959 186.77 75.106 187.207L75.4701 189.252Z" fill="black"/>
<path d="M73.618 188.68L72.506 187.204L73.618 185.482C73.618 185.482 76.953 186.83 78.434 186.643C79.915 186.456 80.648 189.051 77.878 189.794C75.108 190.537 59.352 189.794 59.352 189.794C59.352 189.794 56.573 188.494 59.352 184.976L61.76 186.831C61.76 186.831 65.838 189.045 67.875 188.683L73.618 188.68Z" fill="#2E3037"/>
<path d="M68.993 81.228C68.993 81.228 60.102 82.155 61.393 78.449C61.7563 77.3987 61.8501 76.274 61.666 75.178C61.4358 73.8192 60.8993 72.5307 60.097 71.41L68.433 72.71C67.933 73.5457 67.5529 74.4475 67.304 75.389C66.9737 76.42 66.9579 77.526 67.2587 78.5659C67.5595 79.6059 68.1633 80.5326 68.993 81.228Z" fill="#DB8B8B"/>
<path d="M53.796 123.466C53.796 123.466 53.98 131.433 55.832 135.324L56.203 146.638C56.203 146.638 55.647 157.013 54.535 159.049C53.423 161.085 56.941 178.305 56.941 178.305V181.257C56.941 181.257 62.869 183.471 64.541 180.886L62.873 158.841L63.611 128.273L53.796 123.466Z" fill="#35323E"/>
<path opacity="0.1" d="M53.793 123.466C53.793 123.466 53.978 131.433 55.83 135.324L56.201 146.638C56.201 146.638 55.645 157.013 54.533 159.049C53.421 161.085 56.941 178.305 56.941 178.305V181.257C56.941 181.257 62.869 183.471 64.541 180.886L62.873 158.841L63.611 128.273L53.793 123.466Z" fill="black"/>
<path d="M50.09 97.901L48.978 100.865L48.053 107.165C47.9277 108.043 48.0136 108.937 48.3038 109.775C48.5939 110.613 49.0798 111.369 49.721 111.981C51.6319 114.123 53.3666 116.415 54.908 118.836L58.418 108.277C58.418 108.277 54.898 107.721 55.454 105.313C55.8054 103.046 55.929 100.75 55.823 98.458L50.09 97.901Z" fill="#61961F"/>
<path opacity="0.1" d="M66.556 182.915C64.178 186.656 60.481 184.536 59.824 184.115L60.095 183.306L65.467 181.83C65.7402 182.272 66.1131 182.643 66.556 182.915Z" fill="black"/>
<path d="M73.9891 130.693C73.8021 133.285 70.6541 142.745 70.6541 142.745L68.44 150.52C66.8472 156.017 66.0253 161.709 65.9981 167.432C66.0545 169.234 65.8153 171.033 65.2901 172.757C63.8141 176.833 66.7661 182.391 66.7661 182.391C64.1741 187.022 59.7271 183.867 59.7271 183.867V180.898C59.7271 180.898 56.2051 164.78 57.1271 161.632C58.0491 158.484 58.4161 149.959 58.4161 149.959V134.584C55.4484 131.625 53.6457 127.696 53.3381 123.516C53.2941 122.908 53.2571 122.271 53.2381 121.61C53.0881 117.429 55.944 112.532 57.06 110.788C57.331 110.367 57.4981 110.129 57.4981 110.129L73.8571 116.617L73.8941 116.632V118.666L73.9891 130.693Z" fill="#35323E"/>
<path opacity="0.1" d="M68.431 72.709C67.931 73.5446 67.5509 74.4465 67.302 75.388C66.3963 75.7318 65.4308 75.8907 64.4626 75.8551C63.4944 75.8195 62.5432 75.5903 61.665 75.181C61.4348 73.8222 60.8982 72.5336 60.096 71.413L68.431 72.709Z" fill="black"/>
<path d="M64.726 75.486C68.7168 75.486 71.952 72.2508 71.952 68.26C71.952 64.2692 68.7168 61.034 64.726 61.034C60.7352 61.034 57.5 64.2692 57.5 68.26C57.5 72.2508 60.7352 75.486 64.726 75.486Z" fill="#DB8B8B"/>
<path opacity="0.1" d="M73.989 118.658H73.913C66.146 120.258 56.393 112.158 56.393 112.158C56.6552 111.717 56.8806 111.256 57.067 110.778C57.338 110.357 57.505 110.119 57.505 110.119L73.864 116.607L73.906 117.256L73.989 118.658Z" fill="black"/>
<path d="M71.945 81.044C71.945 81.044 61.575 74.744 58.245 77.337L53.614 83.267C53.614 83.267 50.65 84.192 51.206 90.119L48.987 100.866L55.657 102.534C56.7922 103.739 57.4838 105.294 57.6179 106.944C57.752 108.593 57.3208 110.24 56.395 111.612C56.395 111.612 66.214 119.763 73.995 118.096L73.439 109.389C72.9806 107.842 72.8595 106.214 73.0837 104.616C73.308 103.018 73.8724 101.487 74.739 100.126C77.703 95.679 74.923 91.419 72.147 89.751C72.137 89.751 70.838 82.711 71.945 81.044Z" fill="#61961F"/>
<path d="M72.506 118.835C72.506 118.835 76.397 119.573 78.249 122.542C78.7838 123.433 79.4367 124.249 80.19 124.965C80.3578 125.12 80.4873 125.311 80.5685 125.525C80.6497 125.738 80.6803 125.967 80.658 126.194C80.6356 126.422 80.5608 126.641 80.4395 126.834C80.3182 127.027 80.1538 127.19 79.959 127.309C78.483 128.192 76.092 128.736 73.072 126.246C67.874 121.986 72.506 118.835 72.506 118.835Z" fill="#DB8B8B"/>
<path opacity="0.1" d="M66.762 84.563C66.762 84.563 63.062 84.192 62.131 93.816C61.2 103.44 59.723 105.674 59.723 105.674C59.723 105.674 58.796 110.674 61.023 113.638C63.25 116.602 67.507 122.901 67.507 122.901C67.507 122.901 72.141 124.201 73.066 119.568L67.323 108.822C67.323 108.822 66.398 105.122 68.623 102.522C70.848 99.922 72.501 82.709 66.762 84.563Z" fill="black"/>
<path d="M67.134 84.007C67.134 84.007 63.4271 83.636 62.5031 93.27C61.5791 102.904 60.095 105.13 60.095 105.13C60.095 105.13 59.168 110.13 61.395 113.094C63.622 116.058 67.879 122.347 67.879 122.347C67.879 122.347 72.51 123.647 73.438 119.014L67.695 108.275C67.695 108.275 66.768 104.575 68.995 101.975C71.222 99.375 72.878 82.155 67.134 84.007Z" fill="#61961F"/>
<path opacity="0.1" d="M70.191 90.953C70.191 90.953 70.56 96.696 68.891 99.847C67.222 102.998 67.223 107.071 68.891 109.294" fill="black"/>
<path opacity="0.1" d="M71.116 83.91C71.116 83.91 69.64 82.434 65.373 82.242C61.106 82.05 59.261 80.766 59.261 80.766" fill="black"/>
<path opacity="0.1" d="M60.813 58.922C59.686 59.062 58.4 59.446 57.994 60.506C57.8825 60.9096 57.8003 61.3206 57.748 61.736C57.327 63.354 55.507 64.107 54.383 65.344C53.4674 66.5094 52.8647 67.8893 52.632 69.353C51.7091 73.4826 51.4887 77.7382 51.98 81.941C52.342 85.013 53.08 88.041 53.286 91.123C53.6399 94.2205 52.9888 97.3497 51.429 100.049C50.5939 101.086 49.8574 102.198 49.229 103.372C50.3845 104.126 51.752 104.487 53.129 104.403C54.723 104.457 56.3167 104.457 57.91 104.403C58.7494 104.437 59.5841 104.263 60.34 103.896C60.8737 103.555 61.3126 103.084 61.616 102.528C62.4547 100.929 62.8354 99.1296 62.716 97.328C62.677 95.528 62.394 93.749 62.359 91.954C62.2651 90.9733 62.4827 89.9879 62.981 89.138C63.44 88.5999 63.9609 88.1179 64.533 87.702C66.518 85.943 67.197 83.125 67.263 80.476C67.329 77.827 66.894 75.176 67.118 72.534C67.204 71.501 67.59 70.259 68.608 70.057C68.9336 70.0473 69.2574 70.0061 69.575 69.934C70.392 69.622 70.313 68.458 70.544 67.634C70.807 66.687 71.614 65.959 71.844 65.002C72.378 62.761 69.525 60.083 67.663 59.302C65.717 58.487 62.817 58.676 60.813 58.922Z" fill="black"/>
<path d="M60.631 58.553C59.504 58.691 58.218 59.077 57.812 60.137C57.7071 60.5421 57.625 60.9527 57.566 61.367C57.145 62.983 55.323 63.738 54.199 64.975C53.2831 66.1402 52.6803 67.5202 52.448 68.984C51.5211 73.1087 51.2943 77.36 51.777 81.56C52.139 84.632 52.877 87.66 53.083 90.744C53.4371 93.8415 52.7861 96.9707 51.226 99.67C50.3904 100.705 49.6538 101.817 49.026 102.99C50.1813 103.744 51.5488 104.107 52.926 104.023C54.52 104.074 56.1137 104.074 57.707 104.023C58.5466 104.059 59.3819 103.885 60.137 103.516C60.6712 103.176 61.1097 102.705 61.411 102.148C62.2497 100.549 62.6304 98.7496 62.511 96.948C62.474 95.148 62.186 93.369 62.154 91.574C62.0605 90.5935 62.2774 89.6085 62.774 88.758C63.2357 88.2217 63.757 87.7399 64.328 87.322C66.31 85.566 66.992 82.745 67.058 80.096C67.124 77.447 66.687 74.796 66.91 72.154C66.999 71.121 67.385 69.879 68.401 69.68C68.7272 69.6692 69.0516 69.628 69.37 69.557C70.187 69.242 70.108 68.081 70.3391 67.25C70.6 66.305 71.406 65.575 71.639 64.621C72.173 62.38 69.32 59.702 67.458 58.921C65.53 58.115 62.633 58.304 60.631 58.553Z" fill="#35323E"/>
<defs>
<linearGradient id="paint0_linear" x1="-385.573" y1="182.768" x2="-385.573" y2="90.3775" gradientUnits="userSpaceOnUse">
<stop stop-color="#808080" stop-opacity="0.251"/>
<stop offset="0.54" stop-color="#808080" stop-opacity="0.122"/>
<stop offset="1" stop-color="#808080" stop-opacity="0.102"/>
</linearGradient>
<linearGradient id="paint1_linear" x1="554.29" y1="191.178" x2="554.29" y2="57.6652" gradientUnits="userSpaceOnUse">
<stop stop-color="#808080" stop-opacity="0.251"/>
<stop offset="0.54" stop-color="#808080" stop-opacity="0.122"/>
<stop offset="1" stop-color="#808080" stop-opacity="0.102"/>
</linearGradient>
</defs>
</svg>
