<svg width="283" height="201" viewBox="0 0 283 201" fill="none" xmlns="http://www.w3.org/2000/svg">
<path opacity="0.1" d="M164.282 31.0353C146.254 30.4083 129.082 24.5893 112.687 18.2213C96.2916 11.8533 80.0506 4.79726 62.4546 1.42126C51.1366 -0.748741 38.1926 -1.05474 29.0746 5.00926C20.2976 10.8593 17.4616 20.9293 15.9376 30.2833C14.7896 37.3193 14.1156 44.7233 17.2576 51.3113C19.4416 55.8853 23.3136 59.7293 25.9936 64.1113C35.3166 79.3543 28.7266 98.1513 18.6256 113.034C13.8906 120.017 8.38859 126.683 4.73159 134.11C1.07459 141.537 -0.616414 150.057 2.58359 157.64C5.75359 165.161 13.3106 170.799 21.4976 174.769C38.1246 182.83 57.7106 185.14 76.8216 186.446C119.116 189.34 161.632 188.087 204.037 186.833C219.731 186.368 235.492 185.897 250.929 183.471C259.503 182.123 268.353 179.983 274.579 174.836C282.479 168.282 284.437 157.181 279.142 148.964C270.262 135.178 245.715 131.755 239.5 116.958C236.085 108.816 239.592 99.7433 244.559 92.1913C255.211 75.9913 273.059 61.7753 274.003 43.2573C274.649 30.5353 266.067 17.7973 252.796 11.7803C238.888 5.47126 219.596 6.26526 209.341 16.7083C198.767 27.4493 180.202 31.5853 164.282 31.0353Z" fill="#61961F"/>
<path d="M202.956 49.6902H83.0816C78.9836 49.6902 75.6616 53.0123 75.6616 57.1102V71.3382C75.6616 75.4362 78.9836 78.7582 83.0816 78.7582H202.956C207.054 78.7582 210.376 75.4362 210.376 71.3382V57.1102C210.376 53.0123 207.054 49.6902 202.956 49.6902Z" fill="#35323E"/>
<path d="M87.0626 14.5303C87.0626 14.5303 88.9766 66.5733 85.5836 72.6653H200.278C200.278 72.6653 195.406 32.6333 200.278 14.5303H87.0626Z" fill="white"/>
<path opacity="0.03" d="M87.0626 14.5303C87.0626 14.5303 88.9766 66.5733 85.5836 72.6653H200.278C200.278 72.6653 195.406 32.6333 200.278 14.5303H87.0626Z" fill="black"/>
<path d="M182.876 70.4482H98.8096V80.8912H182.876V70.4482Z" fill="#35323E"/>
<path d="M220.306 193.376H64.4906C63.3221 193.376 62.1669 193.13 61.1002 192.653C60.0335 192.176 59.0794 191.479 58.3003 190.609C57.5211 189.738 56.9344 188.713 56.5784 187.6C56.2225 186.487 56.1053 185.312 56.2346 184.15L59.4216 155.433C59.6316 153.524 59.7829 151.61 59.8756 149.692L60.4756 130.221C60.6129 125.821 60.9099 121.433 61.3666 117.056C61.6046 114.79 61.8832 112.525 62.2026 110.262L66.3026 81.7153C66.8243 78.1419 68.6142 74.8754 71.3452 72.5126C74.0763 70.1498 77.5663 68.8485 81.1776 68.8463H87.4006C90.5586 68.8571 93.6283 69.8899 96.1506 71.7903C102.597 76.6013 120.909 80.0723 142.498 80.0723C164.087 80.0723 182.398 76.6013 188.861 71.7793C191.383 69.879 194.453 68.8461 197.611 68.8353H207.687C209.806 68.8352 211.857 69.5819 213.48 70.9442C215.103 72.3065 216.194 74.1973 216.562 76.2843L222.062 107.484C222.619 110.656 223.092 113.841 223.48 117.039C224.126 122.356 224.531 127.696 224.697 133.059L225.254 151.151C225.37 154.924 225.697 158.688 226.232 162.424L229.188 183.124C229.371 184.398 229.279 185.696 228.917 186.931C228.555 188.166 227.932 189.308 227.089 190.281C226.246 191.253 225.204 192.033 224.034 192.568C222.863 193.102 221.591 193.379 220.305 193.378L220.306 193.376Z" fill="#464353"/>
<path opacity="0.1" d="M197.031 121.143H88.1396C77.116 121.143 68.1796 130.08 68.1796 141.103V165.148C68.1796 176.172 77.116 185.108 88.1396 185.108H197.031C208.054 185.108 216.991 176.172 216.991 165.148V141.103C216.991 130.08 208.054 121.143 197.031 121.143Z" fill="black"/>
<path d="M77.7506 132.192C80.1061 132.192 82.0156 130.595 82.0156 128.624C82.0156 126.654 80.1061 125.056 77.7506 125.056C75.3951 125.056 73.4856 126.654 73.4856 128.624C73.4856 130.595 75.3951 132.192 77.7506 132.192Z" fill="#61961F"/>
<path opacity="0.1" d="M77.7506 132.192C80.1061 132.192 82.0156 130.595 82.0156 128.624C82.0156 126.654 80.1061 125.056 77.7506 125.056C75.3951 125.056 73.4856 126.654 73.4856 128.624C73.4856 130.595 75.3951 132.192 77.7506 132.192Z" fill="black"/>
<path d="M77.7506 131.41C80.1061 131.41 82.0156 129.813 82.0156 127.842C82.0156 125.872 80.1061 124.274 77.7506 124.274C75.3951 124.274 73.4856 125.872 73.4856 127.842C73.4856 129.813 75.3951 131.41 77.7506 131.41Z" fill="#61961F"/>
<path d="M82.7986 144.638C85.1541 144.638 87.0636 143.041 87.0636 141.07C87.0636 139.1 85.1541 137.502 82.7986 137.502C80.4431 137.502 78.5336 139.1 78.5336 141.07C78.5336 143.041 80.4431 144.638 82.7986 144.638Z" fill="#35323E"/>
<path opacity="0.1" d="M82.7986 144.638C85.1541 144.638 87.0636 143.041 87.0636 141.07C87.0636 139.1 85.1541 137.502 82.7986 137.502C80.4431 137.502 78.5336 139.1 78.5336 141.07C78.5336 143.041 80.4431 144.638 82.7986 144.638Z" fill="black"/>
<path d="M82.7986 143.856C85.1541 143.856 87.0636 142.259 87.0636 140.288C87.0636 138.318 85.1541 136.72 82.7986 136.72C80.4431 136.72 78.5336 138.318 78.5336 140.288C78.5336 142.259 80.4431 143.856 82.7986 143.856Z" fill="#35323E"/>
<path d="M85.5836 157.084C87.9391 157.084 89.8486 155.487 89.8486 153.516C89.8486 151.546 87.9391 149.948 85.5836 149.948C83.2281 149.948 81.3186 151.546 81.3186 153.516C81.3186 155.487 83.2281 157.084 85.5836 157.084Z" fill="#35323E"/>
<path opacity="0.1" d="M85.5836 157.084C87.9391 157.084 89.8486 155.487 89.8486 153.516C89.8486 151.546 87.9391 149.948 85.5836 149.948C83.2281 149.948 81.3186 151.546 81.3186 153.516C81.3186 155.487 83.2281 157.084 85.5836 157.084Z" fill="black"/>
<path d="M85.5836 156.302C87.9391 156.302 89.8486 154.705 89.8486 152.734C89.8486 150.764 87.9391 149.166 85.5836 149.166C83.2281 149.166 81.3186 150.764 81.3186 152.734C81.3186 154.705 83.2281 156.302 85.5836 156.302Z" fill="#35323E"/>
<path d="M74.7926 158.563C77.1481 158.563 79.0576 156.966 79.0576 154.995C79.0576 153.025 77.1481 151.427 74.7926 151.427C72.4371 151.427 70.5276 153.025 70.5276 154.995C70.5276 156.966 72.4371 158.563 74.7926 158.563Z" fill="#35323E"/>
<path opacity="0.1" d="M74.7926 158.563C77.1481 158.563 79.0576 156.966 79.0576 154.995C79.0576 153.025 77.1481 151.427 74.7926 151.427C72.4371 151.427 70.5276 153.025 70.5276 154.995C70.5276 156.966 72.4371 158.563 74.7926 158.563Z" fill="black"/>
<path d="M74.7926 157.781C77.1481 157.781 79.0576 156.184 79.0576 154.213C79.0576 152.243 77.1481 150.645 74.7926 150.645C72.4371 150.645 70.5276 152.243 70.5276 154.213C70.5276 156.184 72.4371 157.781 74.7926 157.781Z" fill="#35323E"/>
<path d="M90.8046 169.528C93.1601 169.528 95.0696 167.931 95.0696 165.96C95.0696 163.99 93.1601 162.392 90.8046 162.392C88.4491 162.392 86.5396 163.99 86.5396 165.96C86.5396 167.931 88.4491 169.528 90.8046 169.528Z" fill="#35323E"/>
<path opacity="0.1" d="M90.8046 169.528C93.1601 169.528 95.0696 167.931 95.0696 165.96C95.0696 163.99 93.1601 162.392 90.8046 162.392C88.4491 162.392 86.5396 163.99 86.5396 165.96C86.5396 167.931 88.4491 169.528 90.8046 169.528Z" fill="black"/>
<path d="M90.8046 168.745C93.1601 168.745 95.0696 167.148 95.0696 165.177C95.0696 163.207 93.1601 161.609 90.8046 161.609C88.4491 161.609 86.5396 163.207 86.5396 165.177C86.5396 167.148 88.4491 168.745 90.8046 168.745Z" fill="#35323E"/>
<path d="M76.5336 169.965C78.8891 169.965 80.7986 168.368 80.7986 166.397C80.7986 164.427 78.8891 162.829 76.5336 162.829C74.1781 162.829 72.2686 164.427 72.2686 166.397C72.2686 168.368 74.1781 169.965 76.5336 169.965Z" fill="#35323E"/>
<path opacity="0.1" d="M76.5336 169.965C78.8891 169.965 80.7986 168.368 80.7986 166.397C80.7986 164.427 78.8891 162.829 76.5336 162.829C74.1781 162.829 72.2686 164.427 72.2686 166.397C72.2686 168.368 74.1781 169.965 76.5336 169.965Z" fill="black"/>
<path d="M76.5336 169.179C78.8891 169.179 80.7986 167.582 80.7986 165.611C80.7986 163.641 78.8891 162.043 76.5336 162.043C74.1781 162.043 72.2686 163.641 72.2686 165.611C72.2686 167.582 74.1781 169.179 76.5336 169.179Z" fill="#35323E"/>
<path d="M102.554 169.528C104.909 169.528 106.819 167.931 106.819 165.96C106.819 163.99 104.909 162.392 102.554 162.392C100.198 162.392 98.2886 163.99 98.2886 165.96C98.2886 167.931 100.198 169.528 102.554 169.528Z" fill="#35323E"/>
<path opacity="0.1" d="M102.554 169.528C104.909 169.528 106.819 167.931 106.819 165.96C106.819 163.99 104.909 162.392 102.554 162.392C100.198 162.392 98.2886 163.99 98.2886 165.96C98.2886 167.931 100.198 169.528 102.554 169.528Z" fill="black"/>
<path d="M102.554 168.745C104.909 168.745 106.819 167.148 106.819 165.177C106.819 163.207 104.909 161.609 102.554 161.609C100.198 161.609 98.2886 163.207 98.2886 165.177C98.2886 167.148 100.198 168.745 102.554 168.745Z" fill="#35323E"/>
<path d="M114.997 169.528C117.352 169.528 119.262 167.931 119.262 165.96C119.262 163.99 117.352 162.392 114.997 162.392C112.641 162.392 110.732 163.99 110.732 165.96C110.732 167.931 112.641 169.528 114.997 169.528Z" fill="#35323E"/>
<path opacity="0.1" d="M114.997 169.528C117.352 169.528 119.262 167.931 119.262 165.96C119.262 163.99 117.352 162.392 114.997 162.392C112.641 162.392 110.732 163.99 110.732 165.96C110.732 167.931 112.641 169.528 114.997 169.528Z" fill="black"/>
<path d="M114.997 168.745C117.352 168.745 119.262 167.148 119.262 165.177C119.262 163.207 117.352 161.609 114.997 161.609C112.641 161.609 110.732 163.207 110.732 165.177C110.732 167.148 112.641 168.745 114.997 168.745Z" fill="#35323E"/>
<path d="M126.485 169.528C128.84 169.528 130.75 167.931 130.75 165.96C130.75 163.99 128.84 162.392 126.485 162.392C124.129 162.392 122.22 163.99 122.22 165.96C122.22 167.931 124.129 169.528 126.485 169.528Z" fill="#35323E"/>
<path opacity="0.1" d="M126.485 169.528C128.84 169.528 130.75 167.931 130.75 165.96C130.75 163.99 128.84 162.392 126.485 162.392C124.129 162.392 122.22 163.99 122.22 165.96C122.22 167.931 124.129 169.528 126.485 169.528Z" fill="black"/>
<path d="M126.485 168.745C128.84 168.745 130.75 167.148 130.75 165.177C130.75 163.207 128.84 161.609 126.485 161.609C124.129 161.609 122.22 163.207 122.22 165.177C122.22 167.148 124.129 168.745 126.485 168.745Z" fill="#35323E"/>
<path d="M139.19 169.528C141.545 169.528 143.455 167.931 143.455 165.96C143.455 163.99 141.545 162.392 139.19 162.392C136.834 162.392 134.925 163.99 134.925 165.96C134.925 167.931 136.834 169.528 139.19 169.528Z" fill="#35323E"/>
<path opacity="0.1" d="M139.19 169.528C141.545 169.528 143.455 167.931 143.455 165.96C143.455 163.99 141.545 162.392 139.19 162.392C136.834 162.392 134.925 163.99 134.925 165.96C134.925 167.931 136.834 169.528 139.19 169.528Z" fill="black"/>
<path d="M139.19 168.745C141.545 168.745 143.455 167.148 143.455 165.177C143.455 163.207 141.545 161.609 139.19 161.609C136.834 161.609 134.925 163.207 134.925 165.177C134.925 167.148 136.834 168.745 139.19 168.745Z" fill="#35323E"/>
<path d="M150.678 169.528C153.033 169.528 154.943 167.931 154.943 165.96C154.943 163.99 153.033 162.392 150.678 162.392C148.322 162.392 146.413 163.99 146.413 165.96C146.413 167.931 148.322 169.528 150.678 169.528Z" fill="#35323E"/>
<path opacity="0.1" d="M150.678 169.528C153.033 169.528 154.943 167.931 154.943 165.96C154.943 163.99 153.033 162.392 150.678 162.392C148.322 162.392 146.413 163.99 146.413 165.96C146.413 167.931 148.322 169.528 150.678 169.528Z" fill="black"/>
<path d="M150.678 168.745C153.033 168.745 154.943 167.148 154.943 165.177C154.943 163.207 153.033 161.609 150.678 161.609C148.322 161.609 146.413 163.207 146.413 165.177C146.413 167.148 148.322 168.745 150.678 168.745Z" fill="#35323E"/>
<path d="M162.076 169.528C164.431 169.528 166.341 167.931 166.341 165.96C166.341 163.99 164.431 162.392 162.076 162.392C159.72 162.392 157.811 163.99 157.811 165.96C157.811 167.931 159.72 169.528 162.076 169.528Z" fill="#35323E"/>
<path opacity="0.1" d="M162.076 169.528C164.431 169.528 166.341 167.931 166.341 165.96C166.341 163.99 164.431 162.392 162.076 162.392C159.72 162.392 157.811 163.99 157.811 165.96C157.811 167.931 159.72 169.528 162.076 169.528Z" fill="black"/>
<path d="M162.076 168.745C164.431 168.745 166.341 167.148 166.341 165.177C166.341 163.207 164.431 161.609 162.076 161.609C159.72 161.609 157.811 163.207 157.811 165.177C157.811 167.148 159.72 168.745 162.076 168.745Z" fill="#35323E"/>
<path d="M174.436 169.528C176.791 169.528 178.701 167.931 178.701 165.96C178.701 163.99 176.791 162.392 174.436 162.392C172.08 162.392 170.171 163.99 170.171 165.96C170.171 167.931 172.08 169.528 174.436 169.528Z" fill="#35323E"/>
<path opacity="0.1" d="M174.436 169.528C176.791 169.528 178.701 167.931 178.701 165.96C178.701 163.99 176.791 162.392 174.436 162.392C172.08 162.392 170.171 163.99 170.171 165.96C170.171 167.931 172.08 169.528 174.436 169.528Z" fill="black"/>
<path d="M174.436 168.745C176.791 168.745 178.701 167.148 178.701 165.177C178.701 163.207 176.791 161.609 174.436 161.609C172.08 161.609 170.171 163.207 170.171 165.177C170.171 167.148 172.08 168.745 174.436 168.745Z" fill="#35323E"/>
<path d="M186.01 169.528C188.365 169.528 190.275 167.931 190.275 165.96C190.275 163.99 188.365 162.392 186.01 162.392C183.654 162.392 181.745 163.99 181.745 165.96C181.745 167.931 183.654 169.528 186.01 169.528Z" fill="#35323E"/>
<path opacity="0.1" d="M186.01 169.528C188.365 169.528 190.275 167.931 190.275 165.96C190.275 163.99 188.365 162.392 186.01 162.392C183.654 162.392 181.745 163.99 181.745 165.96C181.745 167.931 183.654 169.528 186.01 169.528Z" fill="black"/>
<path d="M186.01 168.745C188.365 168.745 190.275 167.148 190.275 165.177C190.275 163.207 188.365 161.609 186.01 161.609C183.654 161.609 181.745 163.207 181.745 165.177C181.745 167.148 183.654 168.745 186.01 168.745Z" fill="#35323E"/>
<path d="M198.802 169.528C201.157 169.528 203.067 167.931 203.067 165.96C203.067 163.99 201.157 162.392 198.802 162.392C196.446 162.392 194.537 163.99 194.537 165.96C194.537 167.931 196.446 169.528 198.802 169.528Z" fill="#35323E"/>
<path opacity="0.1" d="M198.802 169.528C201.157 169.528 203.067 167.931 203.067 165.96C203.067 163.99 201.157 162.392 198.802 162.392C196.446 162.392 194.537 163.99 194.537 165.96C194.537 167.931 196.446 169.528 198.802 169.528Z" fill="black"/>
<path d="M198.802 168.745C201.157 168.745 203.067 167.148 203.067 165.177C203.067 163.207 201.157 161.609 198.802 161.609C196.446 161.609 194.537 163.207 194.537 165.177C194.537 167.148 196.446 168.745 198.802 168.745Z" fill="#35323E"/>
<path d="M211.944 169.528C214.299 169.528 216.209 167.931 216.209 165.96C216.209 163.99 214.299 162.392 211.944 162.392C209.588 162.392 207.679 163.99 207.679 165.96C207.679 167.931 209.588 169.528 211.944 169.528Z" fill="#35323E"/>
<path opacity="0.1" d="M211.944 169.528C214.299 169.528 216.209 167.931 216.209 165.96C216.209 163.99 214.299 162.392 211.944 162.392C209.588 162.392 207.679 163.99 207.679 165.96C207.679 167.931 209.588 169.528 211.944 169.528Z" fill="black"/>
<path d="M211.944 168.745C214.299 168.745 216.209 167.148 216.209 165.177C216.209 163.207 214.299 161.609 211.944 161.609C209.588 161.609 207.679 163.207 207.679 165.177C207.679 167.148 209.588 168.745 211.944 168.745Z" fill="#35323E"/>
<path d="M97.4196 157.084C99.7751 157.084 101.685 155.487 101.685 153.516C101.685 151.546 99.7751 149.948 97.4196 149.948C95.0641 149.948 93.1546 151.546 93.1546 153.516C93.1546 155.487 95.0641 157.084 97.4196 157.084Z" fill="#35323E"/>
<path opacity="0.1" d="M97.4196 157.084C99.7751 157.084 101.685 155.487 101.685 153.516C101.685 151.546 99.7751 149.948 97.4196 149.948C95.0641 149.948 93.1546 151.546 93.1546 153.516C93.1546 155.487 95.0641 157.084 97.4196 157.084Z" fill="black"/>
<path d="M97.4196 156.302C99.7751 156.302 101.685 154.705 101.685 152.734C101.685 150.764 99.7751 149.166 97.4196 149.166C95.0641 149.166 93.1546 150.764 93.1546 152.734C93.1546 154.705 95.0641 156.302 97.4196 156.302Z" fill="#35323E"/>
<path d="M109.253 157.084C111.608 157.084 113.518 155.487 113.518 153.516C113.518 151.546 111.608 149.948 109.253 149.948C106.897 149.948 104.988 151.546 104.988 153.516C104.988 155.487 106.897 157.084 109.253 157.084Z" fill="#35323E"/>
<path opacity="0.1" d="M109.253 157.084C111.608 157.084 113.518 155.487 113.518 153.516C113.518 151.546 111.608 149.948 109.253 149.948C106.897 149.948 104.988 151.546 104.988 153.516C104.988 155.487 106.897 157.084 109.253 157.084Z" fill="black"/>
<path d="M109.253 156.302C111.608 156.302 113.518 154.705 113.518 152.734C113.518 150.764 111.608 149.166 109.253 149.166C106.897 149.166 104.988 150.764 104.988 152.734C104.988 154.705 106.897 156.302 109.253 156.302Z" fill="#35323E"/>
<path d="M121.438 157.084C123.793 157.084 125.703 155.487 125.703 153.516C125.703 151.546 123.793 149.948 121.438 149.948C119.082 149.948 117.173 151.546 117.173 153.516C117.173 155.487 119.082 157.084 121.438 157.084Z" fill="#35323E"/>
<path opacity="0.1" d="M121.438 157.084C123.793 157.084 125.703 155.487 125.703 153.516C125.703 151.546 123.793 149.948 121.438 149.948C119.082 149.948 117.173 151.546 117.173 153.516C117.173 155.487 119.082 157.084 121.438 157.084Z" fill="black"/>
<path d="M121.438 156.302C123.793 156.302 125.703 154.705 125.703 152.734C125.703 150.764 123.793 149.166 121.438 149.166C119.082 149.166 117.173 150.764 117.173 152.734C117.173 154.705 119.082 156.302 121.438 156.302Z" fill="#35323E"/>
<path d="M133.098 157.084C135.453 157.084 137.363 155.487 137.363 153.516C137.363 151.546 135.453 149.948 133.098 149.948C130.742 149.948 128.833 151.546 128.833 153.516C128.833 155.487 130.742 157.084 133.098 157.084Z" fill="#35323E"/>
<path opacity="0.1" d="M133.098 157.084C135.453 157.084 137.363 155.487 137.363 153.516C137.363 151.546 135.453 149.948 133.098 149.948C130.742 149.948 128.833 151.546 128.833 153.516C128.833 155.487 130.742 157.084 133.098 157.084Z" fill="black"/>
<path d="M133.098 156.302C135.453 156.302 137.363 154.705 137.363 152.734C137.363 150.764 135.453 149.166 133.098 149.166C130.742 149.166 128.833 150.764 128.833 152.734C128.833 154.705 130.742 156.302 133.098 156.302Z" fill="#35323E"/>
<path d="M145.02 157.084C147.375 157.084 149.285 155.487 149.285 153.516C149.285 151.546 147.375 149.948 145.02 149.948C142.664 149.948 140.755 151.546 140.755 153.516C140.755 155.487 142.664 157.084 145.02 157.084Z" fill="#35323E"/>
<path opacity="0.1" d="M145.02 157.084C147.375 157.084 149.285 155.487 149.285 153.516C149.285 151.546 147.375 149.948 145.02 149.948C142.664 149.948 140.755 151.546 140.755 153.516C140.755 155.487 142.664 157.084 145.02 157.084Z" fill="black"/>
<path d="M145.02 156.302C147.375 156.302 149.285 154.705 149.285 152.734C149.285 150.764 147.375 149.166 145.02 149.166C142.664 149.166 140.755 150.764 140.755 152.734C140.755 154.705 142.664 156.302 145.02 156.302Z" fill="#35323E"/>
<path d="M156.422 157.084C158.777 157.084 160.687 155.487 160.687 153.516C160.687 151.546 158.777 149.948 156.422 149.948C154.066 149.948 152.157 151.546 152.157 153.516C152.157 155.487 154.066 157.084 156.422 157.084Z" fill="#35323E"/>
<path opacity="0.1" d="M156.422 157.084C158.777 157.084 160.687 155.487 160.687 153.516C160.687 151.546 158.777 149.948 156.422 149.948C154.066 149.948 152.157 151.546 152.157 153.516C152.157 155.487 154.066 157.084 156.422 157.084Z" fill="black"/>
<path d="M156.422 156.302C158.777 156.302 160.687 154.705 160.687 152.734C160.687 150.764 158.777 149.166 156.422 149.166C154.066 149.166 152.157 150.764 152.157 152.734C152.157 154.705 154.066 156.302 156.422 156.302Z" fill="#35323E"/>
<path d="M168.779 157.084C171.134 157.084 173.044 155.487 173.044 153.516C173.044 151.546 171.134 149.948 168.779 149.948C166.423 149.948 164.514 151.546 164.514 153.516C164.514 155.487 166.423 157.084 168.779 157.084Z" fill="#35323E"/>
<path opacity="0.1" d="M168.779 157.084C171.134 157.084 173.044 155.487 173.044 153.516C173.044 151.546 171.134 149.948 168.779 149.948C166.423 149.948 164.514 151.546 164.514 153.516C164.514 155.487 166.423 157.084 168.779 157.084Z" fill="black"/>
<path d="M168.779 156.302C171.134 156.302 173.044 154.705 173.044 152.734C173.044 150.764 171.134 149.166 168.779 149.166C166.423 149.166 164.514 150.764 164.514 152.734C164.514 154.705 166.423 156.302 168.779 156.302Z" fill="#35323E"/>
<path d="M180.528 157.084C182.883 157.084 184.793 155.487 184.793 153.516C184.793 151.546 182.883 149.948 180.528 149.948C178.172 149.948 176.263 151.546 176.263 153.516C176.263 155.487 178.172 157.084 180.528 157.084Z" fill="#35323E"/>
<path opacity="0.1" d="M180.528 157.084C182.883 157.084 184.793 155.487 184.793 153.516C184.793 151.546 182.883 149.948 180.528 149.948C178.172 149.948 176.263 151.546 176.263 153.516C176.263 155.487 178.172 157.084 180.528 157.084Z" fill="black"/>
<path d="M180.528 156.302C182.883 156.302 184.793 154.705 184.793 152.734C184.793 150.764 182.883 149.166 180.528 149.166C178.172 149.166 176.263 150.764 176.263 152.734C176.263 154.705 178.172 156.302 180.528 156.302Z" fill="#35323E"/>
<path d="M192.537 157.084C194.892 157.084 196.802 155.487 196.802 153.516C196.802 151.546 194.892 149.948 192.537 149.948C190.181 149.948 188.272 151.546 188.272 153.516C188.272 155.487 190.181 157.084 192.537 157.084Z" fill="#35323E"/>
<path opacity="0.1" d="M192.537 157.084C194.892 157.084 196.802 155.487 196.802 153.516C196.802 151.546 194.892 149.948 192.537 149.948C190.181 149.948 188.272 151.546 188.272 153.516C188.272 155.487 190.181 157.084 192.537 157.084Z" fill="black"/>
<path d="M192.537 156.302C194.892 156.302 196.802 154.705 196.802 152.734C196.802 150.764 194.892 149.166 192.537 149.166C190.181 149.166 188.272 150.764 188.272 152.734C188.272 154.705 190.181 156.302 192.537 156.302Z" fill="#35323E"/>
<path d="M204.545 157.084C206.9 157.084 208.81 155.487 208.81 153.516C208.81 151.546 206.9 149.948 204.545 149.948C202.189 149.948 200.28 151.546 200.28 153.516C200.28 155.487 202.189 157.084 204.545 157.084Z" fill="#35323E"/>
<path opacity="0.1" d="M204.545 157.084C206.9 157.084 208.81 155.487 208.81 153.516C208.81 151.546 206.9 149.948 204.545 149.948C202.189 149.948 200.28 151.546 200.28 153.516C200.28 155.487 202.189 157.084 204.545 157.084Z" fill="black"/>
<path d="M204.545 156.302C206.9 156.302 208.81 154.705 208.81 152.734C208.81 150.764 206.9 149.166 204.545 149.166C202.189 149.166 200.28 150.764 200.28 152.734C200.28 154.705 202.189 156.302 204.545 156.302Z" fill="#35323E"/>
<path d="M94.8066 144.638C97.1621 144.638 99.0716 143.041 99.0716 141.07C99.0716 139.1 97.1621 137.502 94.8066 137.502C92.4511 137.502 90.5416 139.1 90.5416 141.07C90.5416 143.041 92.4511 144.638 94.8066 144.638Z" fill="#35323E"/>
<path opacity="0.1" d="M94.8066 144.638C97.1621 144.638 99.0716 143.041 99.0716 141.07C99.0716 139.1 97.1621 137.502 94.8066 137.502C92.4511 137.502 90.5416 139.1 90.5416 141.07C90.5416 143.041 92.4511 144.638 94.8066 144.638Z" fill="black"/>
<path d="M94.8066 143.856C97.1621 143.856 99.0716 142.259 99.0716 140.288C99.0716 138.318 97.1621 136.72 94.8066 136.72C92.4511 136.72 90.5416 138.318 90.5416 140.288C90.5416 142.259 92.4511 143.856 94.8066 143.856Z" fill="#35323E"/>
<path d="M106.819 144.638C109.174 144.638 111.084 143.041 111.084 141.07C111.084 139.1 109.174 137.502 106.819 137.502C104.463 137.502 102.554 139.1 102.554 141.07C102.554 143.041 104.463 144.638 106.819 144.638Z" fill="#35323E"/>
<path opacity="0.1" d="M106.819 144.638C109.174 144.638 111.084 143.041 111.084 141.07C111.084 139.1 109.174 137.502 106.819 137.502C104.463 137.502 102.554 139.1 102.554 141.07C102.554 143.041 104.463 144.638 106.819 144.638Z" fill="black"/>
<path d="M106.819 143.856C109.174 143.856 111.084 142.259 111.084 140.288C111.084 138.318 109.174 136.72 106.819 136.72C104.463 136.72 102.554 138.318 102.554 140.288C102.554 142.259 104.463 143.856 106.819 143.856Z" fill="#35323E"/>
<path d="M118.393 144.638C120.748 144.638 122.658 143.041 122.658 141.07C122.658 139.1 120.748 137.502 118.393 137.502C116.037 137.502 114.128 139.1 114.128 141.07C114.128 143.041 116.037 144.638 118.393 144.638Z" fill="#35323E"/>
<path opacity="0.1" d="M118.393 144.638C120.748 144.638 122.658 143.041 122.658 141.07C122.658 139.1 120.748 137.502 118.393 137.502C116.037 137.502 114.128 139.1 114.128 141.07C114.128 143.041 116.037 144.638 118.393 144.638Z" fill="black"/>
<path d="M118.393 143.856C120.748 143.856 122.658 142.259 122.658 140.288C122.658 138.318 120.748 136.72 118.393 136.72C116.037 136.72 114.128 138.318 114.128 140.288C114.128 142.259 116.037 143.856 118.393 143.856Z" fill="#35323E"/>
<path d="M129.967 144.638C132.322 144.638 134.232 143.041 134.232 141.07C134.232 139.1 132.322 137.502 129.967 137.502C127.611 137.502 125.702 139.1 125.702 141.07C125.702 143.041 127.611 144.638 129.967 144.638Z" fill="#35323E"/>
<path opacity="0.1" d="M129.967 144.638C132.322 144.638 134.232 143.041 134.232 141.07C134.232 139.1 132.322 137.502 129.967 137.502C127.611 137.502 125.702 139.1 125.702 141.07C125.702 143.041 127.611 144.638 129.967 144.638Z" fill="black"/>
<path d="M129.967 143.856C132.322 143.856 134.232 142.259 134.232 140.288C134.232 138.318 132.322 136.72 129.967 136.72C127.611 136.72 125.702 138.318 125.702 140.288C125.702 142.259 127.611 143.856 129.967 143.856Z" fill="#35323E"/>
<path d="M141.628 144.638C143.983 144.638 145.893 143.041 145.893 141.07C145.893 139.1 143.983 137.502 141.628 137.502C139.272 137.502 137.363 139.1 137.363 141.07C137.363 143.041 139.272 144.638 141.628 144.638Z" fill="#35323E"/>
<path opacity="0.1" d="M141.628 144.638C143.983 144.638 145.893 143.041 145.893 141.07C145.893 139.1 143.983 137.502 141.628 137.502C139.272 137.502 137.363 139.1 137.363 141.07C137.363 143.041 139.272 144.638 141.628 144.638Z" fill="black"/>
<path d="M141.628 143.856C143.983 143.856 145.893 142.259 145.893 140.288C145.893 138.318 143.983 136.72 141.628 136.72C139.272 136.72 137.363 138.318 137.363 140.288C137.363 142.259 139.272 143.856 141.628 143.856Z" fill="#35323E"/>
<path d="M153.115 144.638C155.47 144.638 157.38 143.041 157.38 141.07C157.38 139.1 155.47 137.502 153.115 137.502C150.759 137.502 148.85 139.1 148.85 141.07C148.85 143.041 150.759 144.638 153.115 144.638Z" fill="#35323E"/>
<path opacity="0.1" d="M153.115 144.638C155.47 144.638 157.38 143.041 157.38 141.07C157.38 139.1 155.47 137.502 153.115 137.502C150.759 137.502 148.85 139.1 148.85 141.07C148.85 143.041 150.759 144.638 153.115 144.638Z" fill="black"/>
<path d="M153.115 143.856C155.47 143.856 157.38 142.259 157.38 140.288C157.38 138.318 155.47 136.72 153.115 136.72C150.759 136.72 148.85 138.318 148.85 140.288C148.85 142.259 150.759 143.856 153.115 143.856Z" fill="#35323E"/>
<path d="M165.297 144.638C167.652 144.638 169.562 143.041 169.562 141.07C169.562 139.1 167.652 137.502 165.297 137.502C162.941 137.502 161.032 139.1 161.032 141.07C161.032 143.041 162.941 144.638 165.297 144.638Z" fill="#35323E"/>
<path opacity="0.1" d="M165.297 144.638C167.652 144.638 169.562 143.041 169.562 141.07C169.562 139.1 167.652 137.502 165.297 137.502C162.941 137.502 161.032 139.1 161.032 141.07C161.032 143.041 162.941 144.638 165.297 144.638Z" fill="black"/>
<path d="M165.297 143.856C167.652 143.856 169.562 142.259 169.562 140.288C169.562 138.318 167.652 136.72 165.297 136.72C162.941 136.72 161.032 138.318 161.032 140.288C161.032 142.259 162.941 143.856 165.297 143.856Z" fill="#35323E"/>
<path d="M176.784 144.638C179.139 144.638 181.049 143.041 181.049 141.07C181.049 139.1 179.139 137.502 176.784 137.502C174.428 137.502 172.519 139.1 172.519 141.07C172.519 143.041 174.428 144.638 176.784 144.638Z" fill="#35323E"/>
<path opacity="0.1" d="M176.784 144.638C179.139 144.638 181.049 143.041 181.049 141.07C181.049 139.1 179.139 137.502 176.784 137.502C174.428 137.502 172.519 139.1 172.519 141.07C172.519 143.041 174.428 144.638 176.784 144.638Z" fill="black"/>
<path d="M176.784 143.856C179.139 143.856 181.049 142.259 181.049 140.288C181.049 138.318 179.139 136.72 176.784 136.72C174.428 136.72 172.519 138.318 172.519 140.288C172.519 142.259 174.428 143.856 176.784 143.856Z" fill="#35323E"/>
<path d="M189.055 144.638C191.41 144.638 193.32 143.041 193.32 141.07C193.32 139.1 191.41 137.502 189.055 137.502C186.699 137.502 184.79 139.1 184.79 141.07C184.79 143.041 186.699 144.638 189.055 144.638Z" fill="#35323E"/>
<path opacity="0.1" d="M189.055 144.638C191.41 144.638 193.32 143.041 193.32 141.07C193.32 139.1 191.41 137.502 189.055 137.502C186.699 137.502 184.79 139.1 184.79 141.07C184.79 143.041 186.699 144.638 189.055 144.638Z" fill="black"/>
<path d="M189.055 143.856C191.41 143.856 193.32 142.259 193.32 140.288C193.32 138.318 191.41 136.72 189.055 136.72C186.699 136.72 184.79 138.318 184.79 140.288C184.79 142.259 186.699 143.856 189.055 143.856Z" fill="#35323E"/>
<path d="M201.064 144.638C203.419 144.638 205.329 143.041 205.329 141.07C205.329 139.1 203.419 137.502 201.064 137.502C198.708 137.502 196.799 139.1 196.799 141.07C196.799 143.041 198.708 144.638 201.064 144.638Z" fill="#35323E"/>
<path opacity="0.1" d="M201.064 144.638C203.419 144.638 205.329 143.041 205.329 141.07C205.329 139.1 203.419 137.502 201.064 137.502C198.708 137.502 196.799 139.1 196.799 141.07C196.799 143.041 198.708 144.638 201.064 144.638Z" fill="black"/>
<path d="M201.064 143.856C203.419 143.856 205.329 142.259 205.329 140.288C205.329 138.318 203.419 136.72 201.064 136.72C198.708 136.72 196.799 138.318 196.799 140.288C196.799 142.259 198.708 143.856 201.064 143.856Z" fill="#35323E"/>
<path d="M88.8906 132.192C91.2461 132.192 93.1556 130.595 93.1556 128.624C93.1556 126.654 91.2461 125.056 88.8906 125.056C86.5351 125.056 84.6256 126.654 84.6256 128.624C84.6256 130.595 86.5351 132.192 88.8906 132.192Z" fill="#35323E"/>
<path opacity="0.1" d="M88.8906 132.192C91.2461 132.192 93.1556 130.595 93.1556 128.624C93.1556 126.654 91.2461 125.056 88.8906 125.056C86.5351 125.056 84.6256 126.654 84.6256 128.624C84.6256 130.595 86.5351 132.192 88.8906 132.192Z" fill="black"/>
<path d="M88.8906 131.41C91.2461 131.41 93.1556 129.813 93.1556 127.842C93.1556 125.872 91.2461 124.274 88.8906 124.274C86.5351 124.274 84.6256 125.872 84.6256 127.842C84.6256 129.813 86.5351 131.41 88.8906 131.41Z" fill="#35323E"/>
<path d="M100.727 132.192C103.082 132.192 104.992 130.595 104.992 128.624C104.992 126.654 103.082 125.056 100.727 125.056C98.3711 125.056 96.4616 126.654 96.4616 128.624C96.4616 130.595 98.3711 132.192 100.727 132.192Z" fill="#35323E"/>
<path opacity="0.1" d="M100.727 132.192C103.082 132.192 104.992 130.595 104.992 128.624C104.992 126.654 103.082 125.056 100.727 125.056C98.3711 125.056 96.4616 126.654 96.4616 128.624C96.4616 130.595 98.3711 132.192 100.727 132.192Z" fill="black"/>
<path d="M100.727 131.41C103.082 131.41 104.992 129.813 104.992 127.842C104.992 125.872 103.082 124.274 100.727 124.274C98.3711 124.274 96.4616 125.872 96.4616 127.842C96.4616 129.813 98.3711 131.41 100.727 131.41Z" fill="#35323E"/>
<path d="M112.125 132.192C114.48 132.192 116.39 130.595 116.39 128.624C116.39 126.654 114.48 125.056 112.125 125.056C109.769 125.056 107.86 126.654 107.86 128.624C107.86 130.595 109.769 132.192 112.125 132.192Z" fill="#35323E"/>
<path opacity="0.1" d="M112.125 132.192C114.48 132.192 116.39 130.595 116.39 128.624C116.39 126.654 114.48 125.056 112.125 125.056C109.769 125.056 107.86 126.654 107.86 128.624C107.86 130.595 109.769 132.192 112.125 132.192Z" fill="black"/>
<path d="M112.125 131.41C114.48 131.41 116.39 129.813 116.39 127.842C116.39 125.872 114.48 124.274 112.125 124.274C109.769 124.274 107.86 125.872 107.86 127.842C107.86 129.813 109.769 131.41 112.125 131.41Z" fill="#35323E"/>
<path d="M123.875 132.192C126.23 132.192 128.14 130.595 128.14 128.624C128.14 126.654 126.23 125.056 123.875 125.056C121.519 125.056 119.61 126.654 119.61 128.624C119.61 130.595 121.519 132.192 123.875 132.192Z" fill="#35323E"/>
<path opacity="0.1" d="M123.875 132.192C126.23 132.192 128.14 130.595 128.14 128.624C128.14 126.654 126.23 125.056 123.875 125.056C121.519 125.056 119.61 126.654 119.61 128.624C119.61 130.595 121.519 132.192 123.875 132.192Z" fill="black"/>
<path d="M123.875 131.41C126.23 131.41 128.14 129.813 128.14 127.842C128.14 125.872 126.23 124.274 123.875 124.274C121.519 124.274 119.61 125.872 119.61 127.842C119.61 129.813 121.519 131.41 123.875 131.41Z" fill="#35323E"/>
<path d="M135.449 132.192C137.804 132.192 139.714 130.595 139.714 128.624C139.714 126.654 137.804 125.056 135.449 125.056C133.093 125.056 131.184 126.654 131.184 128.624C131.184 130.595 133.093 132.192 135.449 132.192Z" fill="#35323E"/>
<path opacity="0.1" d="M135.449 132.192C137.804 132.192 139.714 130.595 139.714 128.624C139.714 126.654 137.804 125.056 135.449 125.056C133.093 125.056 131.184 126.654 131.184 128.624C131.184 130.595 133.093 132.192 135.449 132.192Z" fill="black"/>
<path d="M135.449 131.41C137.804 131.41 139.714 129.813 139.714 127.842C139.714 125.872 137.804 124.274 135.449 124.274C133.093 124.274 131.184 125.872 131.184 127.842C131.184 129.813 133.093 131.41 135.449 131.41Z" fill="#35323E"/>
<path d="M147.285 132.192C149.64 132.192 151.55 130.595 151.55 128.624C151.55 126.654 149.64 125.056 147.285 125.056C144.929 125.056 143.02 126.654 143.02 128.624C143.02 130.595 144.929 132.192 147.285 132.192Z" fill="#35323E"/>
<path opacity="0.1" d="M147.285 132.192C149.64 132.192 151.55 130.595 151.55 128.624C151.55 126.654 149.64 125.056 147.285 125.056C144.929 125.056 143.02 126.654 143.02 128.624C143.02 130.595 144.929 132.192 147.285 132.192Z" fill="black"/>
<path d="M147.285 131.41C149.64 131.41 151.55 129.813 151.55 127.842C151.55 125.872 149.64 124.274 147.285 124.274C144.929 124.274 143.02 125.872 143.02 127.842C143.02 129.813 144.929 131.41 147.285 131.41Z" fill="#35323E"/>
<path d="M158.859 132.192C161.214 132.192 163.124 130.595 163.124 128.624C163.124 126.654 161.214 125.056 158.859 125.056C156.503 125.056 154.594 126.654 154.594 128.624C154.594 130.595 156.503 132.192 158.859 132.192Z" fill="#35323E"/>
<path opacity="0.1" d="M158.859 132.192C161.214 132.192 163.124 130.595 163.124 128.624C163.124 126.654 161.214 125.056 158.859 125.056C156.503 125.056 154.594 126.654 154.594 128.624C154.594 130.595 156.503 132.192 158.859 132.192Z" fill="black"/>
<path d="M158.859 131.41C161.214 131.41 163.124 129.813 163.124 127.842C163.124 125.872 161.214 124.274 158.859 124.274C156.503 124.274 154.594 125.872 154.594 127.842C154.594 129.813 156.503 131.41 158.859 131.41Z" fill="#35323E"/>
<path d="M170.606 132.192C172.961 132.192 174.871 130.595 174.871 128.624C174.871 126.654 172.961 125.056 170.606 125.056C168.25 125.056 166.341 126.654 166.341 128.624C166.341 130.595 168.25 132.192 170.606 132.192Z" fill="#35323E"/>
<path opacity="0.1" d="M170.606 132.192C172.961 132.192 174.871 130.595 174.871 128.624C174.871 126.654 172.961 125.056 170.606 125.056C168.25 125.056 166.341 126.654 166.341 128.624C166.341 130.595 168.25 132.192 170.606 132.192Z" fill="black"/>
<path d="M170.606 131.41C172.961 131.41 174.871 129.813 174.871 127.842C174.871 125.872 172.961 124.274 170.606 124.274C168.25 124.274 166.341 125.872 166.341 127.842C166.341 129.813 168.25 131.41 170.606 131.41Z" fill="#35323E"/>
<path d="M182.704 132.192C185.059 132.192 186.969 130.595 186.969 128.624C186.969 126.654 185.059 125.056 182.704 125.056C180.348 125.056 178.439 126.654 178.439 128.624C178.439 130.595 180.348 132.192 182.704 132.192Z" fill="#35323E"/>
<path opacity="0.1" d="M182.704 132.192C185.059 132.192 186.969 130.595 186.969 128.624C186.969 126.654 185.059 125.056 182.704 125.056C180.348 125.056 178.439 126.654 178.439 128.624C178.439 130.595 180.348 132.192 182.704 132.192Z" fill="black"/>
<path d="M182.704 131.41C185.059 131.41 186.969 129.813 186.969 127.842C186.969 125.872 185.059 124.274 182.704 124.274C180.348 124.274 178.439 125.872 178.439 127.842C178.439 129.813 180.348 131.41 182.704 131.41Z" fill="#35323E"/>
<path d="M194.537 132.192C196.892 132.192 198.802 130.595 198.802 128.624C198.802 126.654 196.892 125.056 194.537 125.056C192.181 125.056 190.272 126.654 190.272 128.624C190.272 130.595 192.181 132.192 194.537 132.192Z" fill="#35323E"/>
<path opacity="0.1" d="M194.537 132.192C196.892 132.192 198.802 130.595 198.802 128.624C198.802 126.654 196.892 125.056 194.537 125.056C192.181 125.056 190.272 126.654 190.272 128.624C190.272 130.595 192.181 132.192 194.537 132.192Z" fill="black"/>
<path d="M194.537 131.41C196.892 131.41 198.802 129.813 198.802 127.842C198.802 125.872 196.892 124.274 194.537 124.274C192.181 124.274 190.272 125.872 190.272 127.842C190.272 129.813 192.181 131.41 194.537 131.41Z" fill="#35323E"/>
<path d="M206.111 132.192C208.466 132.192 210.376 130.595 210.376 128.624C210.376 126.654 208.466 125.056 206.111 125.056C203.755 125.056 201.846 126.654 201.846 128.624C201.846 130.595 203.755 132.192 206.111 132.192Z" fill="#61961F"/>
<path opacity="0.1" d="M206.111 132.192C208.466 132.192 210.376 130.595 210.376 128.624C210.376 126.654 208.466 125.056 206.111 125.056C203.755 125.056 201.846 126.654 201.846 128.624C201.846 130.595 203.755 132.192 206.111 132.192Z" fill="black"/>
<path d="M206.111 131.41C208.466 131.41 210.376 129.813 210.376 127.842C210.376 125.872 208.466 124.274 206.111 124.274C203.755 124.274 201.846 125.872 201.846 127.842C201.846 129.813 203.755 131.41 206.111 131.41Z" fill="#61961F"/>
<path d="M204.59 174.317H81.1876C79.2894 174.317 77.7506 175.856 77.7506 177.754V177.755C77.7506 179.653 79.2894 181.192 81.1876 181.192H204.59C206.488 181.192 208.027 179.653 208.027 177.755V177.754C208.027 175.856 206.488 174.317 204.59 174.317Z" fill="#35323E"/>
<path opacity="0.1" d="M204.59 174.317H81.1876C79.2894 174.317 77.7506 175.856 77.7506 177.754V177.755C77.7506 179.653 79.2894 181.192 81.1876 181.192H204.59C206.488 181.192 208.027 179.653 208.027 177.755V177.754C208.027 175.856 206.488 174.317 204.59 174.317Z" fill="black"/>
<path d="M204.59 173.793H81.1876C79.2894 173.793 77.7506 175.332 77.7506 177.23V177.231C77.7506 179.129 79.2894 180.668 81.1876 180.668H204.59C206.488 180.668 208.027 179.129 208.027 177.231V177.23C208.027 175.332 206.488 173.793 204.59 173.793Z" fill="#35323E"/>
<path opacity="0.1" d="M190.275 92.3342C190.275 99.6882 166.999 107.563 140.756 107.563C114.513 107.563 95.0716 99.0832 95.0716 91.7242C95.0716 84.3652 114.518 80.9332 140.752 80.9332C166.986 80.9332 190.275 84.9832 190.275 92.3342Z" fill="black"/>
<path d="M213.334 70.7513C214.92 70.7513 216.206 67.5761 216.206 63.6593C216.206 59.7425 214.92 56.5673 213.334 56.5673C211.747 56.5673 210.462 59.7425 210.462 63.6593C210.462 67.5761 211.747 70.7513 213.334 70.7513Z" fill="#464353"/>
<path d="M72.7036 70.7513C74.2898 70.7513 75.5756 67.5761 75.5756 63.6593C75.5756 59.7425 74.2898 56.5673 72.7036 56.5673C71.1174 56.5673 69.8316 59.7425 69.8316 63.6593C69.8316 67.5761 71.1174 70.7513 72.7036 70.7513Z" fill="#464353"/>
<path opacity="0.1" d="M213.334 61.9633H74.7926V64.0523H213.334V61.9633Z" fill="black"/>
<path d="M213.334 61.6152H74.7926V63.7042H213.334V61.6152Z" fill="#464353"/>
<path d="M146.237 64.2252C145.103 63.8772 143.017 70.7523 143.017 70.7523H149.368C149.368 70.7523 147.371 64.5732 146.237 64.2252ZM146.148 65.0943C146.268 65.0937 146.387 65.1289 146.487 65.1956C146.588 65.2623 146.667 65.3573 146.713 65.4687C146.76 65.5802 146.772 65.7029 146.749 65.8214C146.726 65.9399 146.668 66.0489 146.583 66.1345C146.498 66.2201 146.389 66.2785 146.271 66.3023C146.152 66.3261 146.029 66.3142 145.918 66.2681C145.806 66.222 145.711 66.1438 145.644 66.0434C145.576 65.9431 145.541 65.825 145.541 65.7042C145.541 65.543 145.604 65.3883 145.718 65.274C145.832 65.1597 145.986 65.0951 146.148 65.0943ZM146.22 67.0612C146.964 67.2422 148.281 70.4903 148.281 70.4903H144.103C144.103 70.4903 145.479 66.8772 146.237 67.0612H146.22Z" fill="#464353"/>
<path opacity="0.03" d="M223.482 117.045H61.3606C61.5986 114.779 61.8772 112.514 62.1966 110.251L66.2966 81.7043C66.8183 78.1309 68.6082 74.8644 71.3392 72.5016C74.0703 70.1388 77.5603 68.8375 81.1716 68.8353H87.3946C90.5526 68.8461 93.6223 69.8789 96.1446 71.7793C102.591 76.5903 120.903 80.0613 142.492 80.0613C164.081 80.0613 182.401 76.6013 188.861 71.7793C191.383 69.8789 194.453 68.8461 197.611 68.8353H207.692C209.811 68.8352 211.862 69.5819 213.485 70.9442C215.108 72.3065 216.199 74.1973 216.567 76.2843L222.067 107.484C222.622 110.666 223.094 113.853 223.482 117.045Z" fill="white"/>
<path d="M137.521 152.647C137.521 152.647 134.321 146.797 134.866 145.856C135.253 145.114 135.565 144.334 135.799 143.53C135.799 143.53 136.98 142.722 136.98 142.388C136.98 142.054 137.913 141.296 138.406 140.965C138.899 140.634 138.651 139.065 138.406 138.876C138.159 138.619 137.945 138.332 137.771 138.021C137.771 138.021 138.111 137.071 137.771 136.787C137.431 136.503 137.821 136.23 137.771 135.932C137.746 135.49 137.746 135.046 137.771 134.603C137.48 134.153 137.033 133.827 136.515 133.689L136.479 133.539L136.267 132.653C136.267 132.653 137.287 130.703 135.632 129.667C135.513 129.593 135.39 129.526 135.264 129.467V129.339C135.229 128.833 135.148 128.331 135.022 127.839C134.936 127.56 134.822 127.379 134.677 127.421C134.642 127.431 134.611 127.45 134.585 127.474C134.517 127.536 134.458 127.606 134.409 127.683C134.22 128.022 134.089 128.388 134.019 128.769C133.969 128.994 133.932 129.222 133.908 129.451C133.836 129.588 133.773 129.729 133.719 129.874C133.561 130.201 133.479 130.559 133.479 130.922C133.479 131.285 133.561 131.643 133.719 131.969C134.084 132.526 134.571 133.317 134.928 133.886V133.905L134.95 133.938L134.914 133.963V134.049L134.945 134.528L135.224 138.665C135.141 138.641 135.057 138.623 134.973 138.612C134.851 138.593 134.728 138.585 134.605 138.587C134.205 137.675 133.865 136.738 133.588 135.782C133.574 135.683 133.568 135.583 133.569 135.482C133.569 134.861 133.733 134.24 133.719 133.621C133.726 133.507 133.726 133.392 133.719 133.278V133.189C133.657 132.739 133.486 132.311 133.221 131.942C132.956 131.573 132.605 131.274 132.198 131.072C131.919 130.93 131.605 130.835 131.326 130.679C130.749 130.234 130.203 129.749 129.694 129.228C129.477 129.055 129.223 128.934 128.952 128.875C128.681 128.816 128.4 128.821 128.131 128.888C127.874 128.927 127.619 128.98 127.368 129.047C126.757 129.206 126.171 129.449 125.627 129.768C125.555 129.813 125.479 129.857 125.41 129.91C125.256 130.011 125.135 130.153 125.059 130.319C125.009 130.461 124.99 130.612 125.003 130.762V131.088C124.97 132.904 123.011 134.317 122.85 136.102V136.425V136.567C122.878 137.347 123.282 138.067 123.357 138.848V139.054C123.344 139.411 123.277 139.763 123.157 140.099C122.91 140.162 122.672 140.256 122.449 140.378C121.504 140.872 120.772 141.693 120.388 142.687C120.286 143.016 120.235 143.358 120.238 143.701C120.231 144.915 120.121 146.127 119.907 147.322C119.856 147.623 119.786 147.921 119.698 148.213C119.691 148.242 119.691 148.271 119.698 148.299L119.464 151.363L119.419 151.903L119.36 152.672C119.36 152.672 119.377 152.719 119.402 152.797C119.427 152.875 119.466 153.009 119.497 153.151C119.563 153.413 119.573 153.685 119.528 153.951C119.501 154.059 119.443 154.156 119.361 154.23L119.341 154.252C119.237 154.5 119.177 154.764 119.163 155.032C119.141 155.194 119.124 155.369 119.104 155.564C118.99 156.773 118.917 158.586 118.876 160.085C118.835 161.584 118.82 162.731 118.82 162.731C119.011 162.854 119.216 162.955 119.43 163.031C119.412 163.072 119.396 163.114 119.383 163.156C119.188 163.657 119.064 164.182 119.013 164.716C118.911 165.345 119.033 165.989 119.357 166.537C119.681 167.085 120.187 167.502 120.787 167.716C120.886 167.756 120.989 167.79 121.093 167.816C121.218 167.863 121.352 167.882 121.486 167.874C121.62 167.866 121.75 167.831 121.87 167.769V167.969C121.887 168.248 121.901 168.498 121.906 168.713C121.956 170.042 122.285 172.368 122.285 172.368C122.343 172.778 122.347 173.194 122.299 173.605C122.247 174.078 122.247 174.555 122.299 175.028C122.299 175.028 122.644 175.585 122.299 175.883C121.981 176.463 121.861 177.129 121.956 177.783C121.955 177.791 121.955 177.798 121.956 177.805C122.031 178.276 121.605 185.287 121.605 185.287C121.605 185.287 121.205 186.359 120.886 187.474C120.567 188.589 120.329 189.683 120.627 189.892C120.908 190.032 121.214 190.114 121.527 190.134V190.276C121.517 190.677 121.45 191.073 121.327 191.454C121.133 192.277 121.017 193.117 120.979 193.961V194.05C120.832 194.396 120.709 194.752 120.611 195.114C120.611 195.114 119.525 197.835 119.892 198.549C119.926 198.613 119.972 198.67 120.029 198.716C120.039 198.729 120.051 198.74 120.065 198.749C120.782 199.107 121.575 199.287 122.377 199.275L122.36 199.949V199.996H122.981V199.989C122.981 199.903 122.995 199.513 123.014 198.989V198.471C123.2 197.987 123.295 197.472 123.293 196.953C123.293 196.358 123.374 195.766 123.533 195.193C123.61 194.898 123.715 194.61 123.848 194.335C123.954 193.755 123.927 193.157 123.77 192.588C123.721 192.444 123.645 192.311 123.547 192.195C123.548 192.171 123.548 192.147 123.547 192.123V191.967C123.539 191.478 123.588 190.989 123.692 190.51C123.69 190.503 123.69 190.496 123.692 190.488C123.695 190.448 123.705 190.409 123.72 190.371V190.346H123.92C124.536 190.365 124.99 190.365 124.99 190.365C125.234 189.172 125.382 187.961 125.433 186.744V186.589C125.454 185.729 125.555 184.872 125.733 184.029L126.126 180.185C126.018 179.812 126.018 179.416 126.126 179.043C126.249 178.764 126.499 178.207 126.683 177.831C126.764 177.656 126.831 177.519 126.858 177.461V177.43C126.796 177.408 126.737 177.378 126.683 177.341C126.521 177.232 126.383 177.023 126.858 176.717C127.596 176.241 127.351 175.046 127.351 175.046C127.29 174.919 127.262 174.778 127.268 174.637C127.275 174.496 127.317 174.359 127.39 174.238C127.646 173.859 127.39 172.433 127.39 172.433C127.599 172.057 127.767 171.659 127.89 171.246C128.074 170.689 128.536 167.903 128.754 166.558C128.826 166.118 128.871 165.834 128.871 165.834V165.979L128.932 166.611V166.695L129.043 167.895C129.158 169.353 129.187 170.816 129.129 172.277C129.13 172.285 129.13 172.292 129.129 172.299C129.118 172.427 129.09 172.552 129.045 172.672C128.844 173.814 128.777 174.975 128.845 176.132V176.238C128.739 176.491 128.691 176.765 128.706 177.038C128.715 177.124 128.746 177.207 128.795 177.278C128.864 177.389 128.895 177.519 128.884 177.648V177.812C128.849 178.032 128.791 178.248 128.711 178.455C128.568 178.788 128.512 179.151 128.547 179.511C128.56 179.558 128.583 179.601 128.614 179.639C128.636 179.681 128.648 179.728 128.65 179.775C128.742 180.541 128.505 183.92 128.371 185.767C128.315 186.497 128.271 186.99 128.271 186.99L127.881 191.026L127.92 191.051C127.965 191.084 128.048 191.137 128.16 191.204L128.143 191.327C128.087 191.717 128.012 192.163 127.931 192.514C127.923 192.539 127.916 192.564 127.911 192.589C127.761 192.615 127.619 192.672 127.493 192.756C126.657 194.227 127.031 195.391 127.493 195.731C127.658 195.926 127.756 196.17 127.772 196.425L127.886 197.89V198.06C127.886 198.106 127.893 198.151 127.908 198.194L127.944 198.637L127.991 199.255H128.367V198.555H128.389C128.989 198.577 129.943 198.602 130.364 198.569H130.475C130.498 198.567 130.52 198.56 130.542 198.55C130.762 198.444 131.316 196.879 130.821 196.522C130.473 196.149 130.26 195.671 130.214 195.163C130.169 195.029 130.128 194.904 130.083 194.784C130.081 194.759 130.081 194.734 130.083 194.709C130.057 194.275 130.077 193.839 130.142 193.409C130.225 192.894 130.268 192.374 130.273 191.852C130.273 191.807 130.273 191.766 130.273 191.721V191.707C130.359 191.687 130.444 191.66 130.527 191.626H130.546C130.697 191.562 130.84 191.478 130.969 191.375L132.348 185.202L132.493 184.483L133.329 180.402C133.329 180.402 133.037 178.979 133.329 178.731C133.438 178.645 133.468 178.28 133.46 177.851C133.449 177.292 133.405 176.734 133.329 176.18C133.329 176.18 133.722 175.564 133.92 175.18C134.023 174.727 134.023 174.257 133.92 173.804L134.313 171.525C134.617 169.807 135.13 168.131 135.839 166.536C136.639 164.865 136.118 160.336 135.608 157.92L135.566 157.739L136.427 157.321L136.547 157.265C136.947 157.076 137.383 156.881 137.762 156.708H137.787C138.06 156.59 138.339 156.485 138.623 156.393C138.707 156.366 138.794 156.348 138.882 156.34C139.588 156.252 137.521 152.647 137.521 152.647ZM122.139 160.374H122.339C122.314 160.419 122.292 160.463 122.269 160.51C122.254 160.536 122.241 160.563 122.23 160.591C122.154 160.744 122.087 160.902 122.03 161.062C122.052 160.892 122.08 160.708 122.111 160.505L122.139 160.374ZM121.582 163.338V163.321C121.583 163.312 121.582 163.302 121.579 163.292C121.575 163.283 121.57 163.275 121.563 163.268L121.53 163.159C121.6 163.137 121.672 163.114 121.744 163.087V163.126C121.744 163.14 121.73 163.232 121.725 163.285V163.433C121.725 163.475 121.703 163.592 121.694 163.67L121.627 163.458C121.61 163.408 121.599 163.369 121.585 163.333L121.582 163.338Z" fill="url(#paint0_linear)"/>
<path d="M136.343 134.419L135.117 134.856L134.671 134.115C134.328 133.558 133.855 132.77 133.507 132.204C132.891 131.21 133.696 129.697 133.696 129.697C133.741 128.988 133.97 128.303 134.359 127.708C134.88 127.234 135.022 129.697 135.022 129.697C137.103 130.641 135.989 132.867 135.989 132.867L136.189 133.75L136.343 134.419Z" fill="#BE6F72"/>
<path opacity="0.1" d="M136.343 134.418L135.117 134.855L134.671 134.114V134.05C135.123 133.763 135.667 133.656 136.195 133.75L136.343 134.418Z" fill="black"/>
<path d="M134.36 139.399L134.976 138.878L134.667 134.193C134.887 134.045 135.136 133.943 135.397 133.894C135.658 133.845 135.927 133.85 136.186 133.909C136.446 133.968 136.69 134.079 136.905 134.235C137.12 134.392 137.3 134.591 137.436 134.82C137.411 135.262 137.411 135.705 137.436 136.146C137.483 136.425 137.105 136.703 137.436 136.982C137.767 137.261 137.436 138.213 137.436 138.213C137.603 138.521 137.808 138.807 138.046 139.065C138.283 139.254 138.52 140.817 138.046 141.149C137.572 141.481 136.673 142.238 136.673 142.57C136.673 142.902 135.539 143.704 135.539 143.704L134.539 142.384L134.36 139.399Z" fill="#61961F"/>
<path d="M121.059 167.848C118.759 166.876 119.273 164.505 119.705 163.302C119.791 163.061 119.891 162.824 120.005 162.594L121.292 161.811C121.292 161.811 121.554 162.482 121.835 163.382C122.491 165.461 123.24 168.773 121.059 167.848Z" fill="#BE6F72"/>
<path d="M124.212 189.539C124.055 189.842 123.94 190.164 123.869 190.497C123.756 191.033 123.708 191.58 123.727 192.127C123.73 192.337 123.744 192.546 123.769 192.754L121.212 194.512C121.212 194.512 121.226 194.306 121.251 194.002C121.287 193.164 121.399 192.331 121.585 191.512C121.704 191.131 121.769 190.735 121.777 190.336C121.816 189.849 121.833 189.397 121.833 189.397C121.833 189.397 124.903 188.244 124.212 189.539Z" fill="#BE6F72"/>
<path d="M130.246 190.81C130.246 190.81 130.246 191.297 130.229 191.869C130.225 192.389 130.184 192.907 130.106 193.421C130.04 193.851 130.021 194.287 130.047 194.721C130.064 195.278 130.106 195.799 130.106 195.799C130.106 195.799 127.496 193.334 127.761 193.139C127.875 192.973 127.946 192.782 127.97 192.582C128.048 192.237 128.12 191.782 128.17 191.398C128.234 190.938 128.27 190.562 128.27 190.562L130.246 190.81Z" fill="#BE6F72"/>
<path opacity="0.1" d="M124.212 189.539C124.055 189.842 123.94 190.164 123.869 190.497C123.169 190.479 122.471 190.425 121.777 190.335C121.816 189.848 121.833 189.396 121.833 189.396C121.833 189.396 124.902 188.244 124.212 189.539Z" fill="black"/>
<path opacity="0.1" d="M130.246 190.81C130.246 190.81 130.246 191.297 130.229 191.869C129.51 191.985 128.774 191.821 128.173 191.409C128.237 190.949 128.273 190.573 128.273 190.573L130.246 190.81Z" fill="black"/>
<path d="M135.591 166.617C134.908 168.211 134.415 169.88 134.123 171.589L133.744 173.859C133.842 174.312 133.842 174.78 133.744 175.232C133.555 175.611 133.187 176.226 133.187 176.226C133.187 176.226 133.466 178.546 133.187 178.783C132.908 179.02 133.187 180.438 133.187 180.438L132.24 185.221L130.917 191.366C129.638 192.408 127.939 191.087 127.939 191.087L128.315 187.062C128.315 187.062 128.872 180.009 128.646 179.725C128.42 179.441 128.741 178.544 128.741 178.544C128.741 178.544 129.073 177.692 128.836 177.36C128.599 177.028 128.883 176.318 128.883 176.318C128.819 175.131 128.882 173.94 129.072 172.766C129.356 172.103 129.072 168.003 129.072 168.003L128.952 166.727L128.888 166.019V165.949L128.774 166.673C128.565 168.007 128.119 170.773 127.938 171.347C127.819 171.757 127.655 172.153 127.451 172.528C127.451 172.528 127.699 173.949 127.451 174.328C127.382 174.449 127.343 174.585 127.336 174.724C127.33 174.863 127.357 175.002 127.415 175.128C127.415 175.128 127.652 176.312 126.941 176.799C126.23 177.286 126.941 177.509 126.941 177.509C126.941 177.509 126.42 178.645 126.231 179.119C126.126 179.49 126.126 179.883 126.231 180.253L125.852 184.089C125.671 184.978 125.578 185.882 125.573 186.789C125.522 187.998 125.38 189.202 125.147 190.389C125.147 190.389 121.503 190.389 120.941 189.963C120.379 189.537 121.883 185.372 121.883 185.372C121.883 185.372 122.309 178.082 122.214 177.893C122.122 177.243 122.238 176.58 122.546 175.999C122.877 175.715 122.546 175.147 122.546 175.147C122.497 174.675 122.497 174.199 122.546 173.726C122.589 173.317 122.584 172.903 122.529 172.495C122.529 172.495 122.214 170.177 122.167 168.851C122.12 167.525 121.888 164.542 121.888 164.542C121.888 164.542 122.133 162.701 122.167 161.82C122.209 161.431 122.323 161.054 122.504 160.706C122.708 160.277 122.942 159.863 123.204 159.466C123.204 159.466 134.424 156.154 134.904 156.485C135.162 156.964 135.327 157.488 135.389 158.028C135.867 160.447 136.357 164.946 135.591 166.617Z" fill="#61961F"/>
<path opacity="0.15" d="M135.591 166.617C134.908 168.211 134.415 169.88 134.123 171.589L133.744 173.859C133.842 174.312 133.842 174.78 133.744 175.232C133.555 175.611 133.187 176.226 133.187 176.226C133.187 176.226 133.466 178.546 133.187 178.783C132.908 179.02 133.187 180.438 133.187 180.438L132.24 185.221L130.917 191.366C129.638 192.408 127.939 191.087 127.939 191.087L128.315 187.062C128.315 187.062 128.872 180.009 128.646 179.725C128.42 179.441 128.741 178.544 128.741 178.544C128.741 178.544 129.073 177.692 128.836 177.36C128.599 177.028 128.883 176.318 128.883 176.318C128.819 175.131 128.882 173.94 129.072 172.766C129.356 172.103 129.072 168.003 129.072 168.003L128.952 166.727L128.888 166.019V165.949L128.774 166.673C128.565 168.007 128.119 170.773 127.938 171.347C127.819 171.757 127.655 172.153 127.451 172.528C127.451 172.528 127.699 173.949 127.451 174.328C127.382 174.449 127.343 174.585 127.336 174.724C127.33 174.863 127.357 175.002 127.415 175.128C127.415 175.128 127.652 176.312 126.941 176.799C126.23 177.286 126.941 177.509 126.941 177.509C126.941 177.509 126.42 178.645 126.231 179.119C126.126 179.49 126.126 179.883 126.231 180.253L125.852 184.089C125.671 184.978 125.578 185.882 125.573 186.789C125.522 187.998 125.38 189.202 125.147 190.389C125.147 190.389 121.503 190.389 120.941 189.963C120.379 189.537 121.883 185.372 121.883 185.372C121.883 185.372 122.309 178.082 122.214 177.893C122.122 177.243 122.238 176.58 122.546 175.999C122.877 175.715 122.546 175.147 122.546 175.147C122.497 174.675 122.497 174.199 122.546 173.726C122.589 173.317 122.584 172.903 122.529 172.495C122.529 172.495 122.214 170.177 122.167 168.851C122.12 167.525 121.888 164.542 121.888 164.542C121.888 164.542 122.133 162.701 122.167 161.82C122.209 161.431 122.323 161.054 122.504 160.706C122.708 160.277 122.942 159.863 123.204 159.466C123.204 159.466 134.424 156.154 134.904 156.485C135.162 156.964 135.327 157.488 135.389 158.028C135.867 160.447 136.357 164.946 135.591 166.617Z" fill="black"/>
<path d="M128.68 137.688C130.484 137.688 131.947 136.226 131.947 134.421C131.947 132.617 130.484 131.154 128.68 131.154C126.875 131.154 125.413 132.617 125.413 134.421C125.413 136.226 126.875 137.688 128.68 137.688Z" fill="#A1616A"/>
<path opacity="0.1" d="M135.374 158.032C134.998 158.224 134.747 158.358 134.747 158.358C134.747 158.358 129.454 160.865 127.933 160.726C126.766 160.615 123.788 160.676 122.493 160.709C122.697 160.28 122.931 159.866 123.193 159.469C123.193 159.469 134.413 156.157 134.893 156.488C135.138 156.973 135.3 157.494 135.374 158.032Z" fill="black"/>
<path d="M126.407 139.636C125.129 139.809 123.875 140.127 122.669 140.583C122.051 140.897 121.529 141.369 121.154 141.951C120.78 142.533 120.567 143.204 120.538 143.895C120.545 145.411 120.371 146.922 120.017 148.395C119.828 148.952 123 153.554 123 153.554L121.864 160.518C121.864 160.518 126.413 160.376 127.925 160.518C129.437 160.66 134.739 158.15 134.739 158.15C135.951 157.479 137.217 156.91 138.525 156.45C139.188 156.403 137.199 152.804 137.199 152.804C137.199 152.804 134.135 146.982 134.645 146.035C135.018 145.293 135.32 144.516 135.545 143.715L134.988 138.888C134.726 138.81 134.45 138.791 134.18 138.832C133.909 138.873 133.652 138.973 133.425 139.125C132.715 139.646 130.3 139.362 130.3 139.362L126.407 139.636Z" fill="#61961F"/>
<path opacity="0.1" d="M121.267 148.063L120.083 148.394L119.754 152.851C119.754 152.851 120.177 154.035 119.754 154.414C119.331 154.793 119.233 162.888 119.233 162.888C119.669 163.177 120.171 163.35 120.692 163.392C121.214 163.433 121.737 163.341 122.214 163.125C122.214 163.125 121.977 162.225 122.688 158.947C123.078 157.339 123.312 155.696 123.388 154.042C123.388 154.042 123.388 149.972 123.719 149.306C123.892 148.543 123.892 147.75 123.719 146.986C123.719 146.986 123.056 146.086 123.103 145.755C123.15 145.424 121.267 148.063 121.267 148.063Z" fill="black"/>
<path opacity="0.1" d="M121.839 163.383C121.141 163.617 120.382 163.589 119.705 163.302C119.791 163.061 119.891 162.824 120.005 162.594L121.292 161.811C121.292 161.811 121.555 162.483 121.839 163.383Z" fill="black"/>
<path d="M121.2 148.063L120.016 148.394L119.685 152.851C119.685 152.851 120.111 154.035 119.685 154.414C119.259 154.793 119.164 162.888 119.164 162.888C119.6 163.176 120.103 163.349 120.625 163.39C121.146 163.432 121.67 163.341 122.147 163.125C122.147 163.125 121.91 162.225 122.621 158.947C123.012 157.339 123.249 155.696 123.329 154.042C123.329 154.042 123.329 149.972 123.66 149.306C123.833 148.543 123.833 147.75 123.66 146.986C123.66 146.986 123 146.086 123.047 145.755C123.094 145.424 121.2 148.063 121.2 148.063Z" fill="#61961F"/>
<path opacity="0.1" d="M133.318 148.773C133.318 148.773 132.702 154.066 130.903 155.073C130.917 155.068 134.928 153.932 133.318 148.773Z" fill="black"/>
<path opacity="0.1" d="M124.276 149.246C124.276 149.246 126.504 150.335 125.976 151.09C125.448 151.845 124.276 149.246 124.276 149.246Z" fill="black"/>
<path opacity="0.1" d="M124.276 151.422C124.276 151.422 125.697 152.89 125.413 153.411C125.129 153.932 124.276 151.422 124.276 151.422Z" fill="black"/>
<path opacity="0.1" d="M135.733 139.257C136.022 139.74 136.227 140.269 136.34 140.82C136.39 141.435 135.733 139.257 135.733 139.257Z" fill="black"/>
<path opacity="0.1" d="M135.733 137.979C135.733 137.979 136.012 137.742 136.725 137.979C137.438 138.216 135.733 137.979 135.733 137.979Z" fill="black"/>
<path opacity="0.1" d="M132.998 165.648C131.825 165.815 130.63 165.662 129.538 165.205L128.938 166.732L128.874 166.024C128.974 165.431 129.153 164.796 129.537 164.631C130.551 165.334 131.765 165.691 132.998 165.648Z" fill="black"/>
<path opacity="0.1" d="M123.29 167.637C124.514 167.916 125.762 168.083 127.017 168.137L123.29 167.637Z" fill="black"/>
<path opacity="0.1" d="M123.591 168.4C124.218 168.368 124.847 168.434 125.455 168.595L123.591 168.4Z" fill="black"/>
<path opacity="0.1" d="M123.733 168.912C124.299 169.035 124.875 169.112 125.454 169.143L123.733 168.912Z" fill="black"/>
<path opacity="0.1" d="M123.674 175.432C123.73 175.396 126.162 174.832 126.46 175.232L123.674 175.432Z" fill="black"/>
<path opacity="0.1" d="M123.674 176.175C123.674 176.175 125.788 175.927 125.841 176.175C125.894 176.423 123.674 176.175 123.674 176.175Z" fill="black"/>
<path opacity="0.1" d="M123.674 176.849C124.498 176.661 125.336 176.542 126.181 176.495C125.356 176.684 124.518 176.802 123.674 176.849Z" fill="black"/>
<path opacity="0.1" d="M123.769 192.76L121.212 194.513C121.212 194.513 121.226 194.307 121.251 194.003C121.555 193.218 121.999 192.495 122.56 191.867C122.758 191.79 122.975 191.773 123.183 191.82C123.391 191.866 123.58 191.974 123.727 192.129C123.73 192.34 123.744 192.551 123.769 192.76Z" fill="black"/>
<path d="M124.017 194.333C123.657 195.156 123.475 196.045 123.485 196.943C123.495 197.681 123.302 198.408 122.928 199.043C122.875 199.133 122.815 199.219 122.75 199.299C121.918 199.322 121.094 199.141 120.35 198.77C120.281 198.716 120.225 198.648 120.186 198.57C119.829 197.86 120.877 195.144 120.877 195.144C121.164 193.954 121.738 192.851 122.548 191.932C124.55 191.422 124.017 194.333 124.017 194.333Z" fill="#35323E"/>
<path opacity="0.1" d="M122.945 199.047C122.892 199.137 122.832 199.223 122.767 199.303C121.935 199.326 121.111 199.145 120.367 198.774C120.673 197.763 121.648 194.701 122.105 195.222C122.562 195.743 122.839 198.053 122.945 199.047Z" fill="black"/>
<path d="M122.697 195.412L122.574 200.003H123.174C123.182 198.468 123.303 196.936 123.536 195.418C123.8 194.855 122.697 195.412 122.697 195.412Z" fill="#35323E"/>
<path opacity="0.1" d="M130.107 195.788C130.107 195.788 127.497 193.323 127.762 193.128C127.876 192.962 127.947 192.771 127.971 192.571C128.471 192.482 129.33 192.694 130.049 194.696C130.065 195.267 130.107 195.788 130.107 195.788Z" fill="black"/>
<path d="M130.497 198.54C130.476 198.549 130.454 198.556 130.433 198.56C129.743 198.6 129.052 198.6 128.363 198.56C128.246 198.557 128.136 198.508 128.055 198.425C127.974 198.342 127.928 198.23 127.928 198.114V197.514C127.897 196.814 127.811 195.982 127.563 195.793C127.12 195.456 126.763 194.293 127.563 192.829C127.563 192.829 129.089 191.665 130.19 195.166C130.232 195.67 130.438 196.146 130.775 196.523C131.254 196.877 130.708 198.434 130.497 198.54Z" fill="#35323E"/>
<path opacity="0.1" d="M130.432 198.559C129.742 198.599 129.051 198.599 128.362 198.559C128.245 198.556 128.135 198.508 128.054 198.424C127.973 198.341 127.927 198.23 127.927 198.113V197.513C128.119 196.677 128.395 195.792 128.763 195.594C128.739 195.59 129.817 195.467 130.432 198.559Z" fill="black"/>
<path d="M127.744 195.487L128.028 199.303H128.393V195.164L127.744 195.487Z" fill="#35323E"/>
<path opacity="0.1" d="M128.635 129.215C127.603 129.291 126.604 129.612 125.721 130.151C125.478 130.27 125.282 130.466 125.164 130.708C125.107 130.93 125.091 131.161 125.119 131.388C125.15 133.338 122.966 134.828 123.035 136.788C123.063 137.565 123.453 138.288 123.522 139.061C123.484 140.367 122.998 141.621 122.146 142.61C122.9 142.657 123.643 142.41 124.221 141.922C124.99 144.499 125.086 147.231 124.5 149.855H125.547C125.65 149.849 125.754 149.862 125.853 149.894C125.945 149.937 126.028 149.999 126.095 150.075C126.612 150.536 127 151.124 127.221 151.78C127.442 152.437 127.488 153.14 127.354 153.819L129.582 152.983C130.124 152.806 130.642 152.559 131.122 152.25C131.604 151.933 131.944 151.442 132.072 150.879C132.13 150.539 132.114 150.13 132.392 149.932C132.531 149.859 132.679 149.805 132.832 149.77C133.118 149.617 133.36 149.393 133.536 149.12C133.712 148.847 133.816 148.534 133.838 148.21C133.991 147.429 134.038 146.631 133.98 145.837C133.715 144.529 133.659 143.188 133.813 141.862C134.095 141.166 134.304 140.443 134.437 139.703C134.49 138.463 133.52 137.394 133.376 136.16C133.276 135.302 133.585 134.433 133.485 133.572C133.428 133.129 133.266 132.705 133.012 132.338C132.757 131.97 132.418 131.669 132.023 131.46C131.744 131.318 131.449 131.223 131.187 131.07C130.629 130.625 130.104 130.141 129.616 129.622C129.056 129.179 128.116 129.012 127.7 129.589L128.635 129.215Z" fill="black"/>
<path d="M128.635 129.073C127.603 129.149 126.604 129.47 125.721 130.009C125.478 130.128 125.282 130.324 125.164 130.566C125.107 130.788 125.091 131.019 125.119 131.246C125.15 133.196 122.966 134.686 123.035 136.646C123.063 137.423 123.453 138.146 123.522 138.919C123.485 140.225 122.999 141.479 122.146 142.468C122.903 142.52 123.65 142.276 124.232 141.788C125.001 144.365 125.097 147.097 124.511 149.721H125.558C125.661 149.714 125.765 149.728 125.864 149.76C125.956 149.803 126.038 149.865 126.106 149.941C126.623 150.402 127.011 150.99 127.232 151.646C127.453 152.303 127.499 153.006 127.365 153.685L129.593 152.849C130.135 152.672 130.653 152.425 131.133 152.116C131.615 151.8 131.955 151.309 132.083 150.746C132.142 150.406 132.125 149.997 132.403 149.799C132.542 149.726 132.69 149.672 132.843 149.637C133.129 149.484 133.371 149.26 133.547 148.987C133.723 148.714 133.827 148.401 133.849 148.077C134.002 147.296 134.049 146.498 133.991 145.704C133.726 144.396 133.67 143.055 133.824 141.729C134.104 141.032 134.313 140.309 134.448 139.57C134.501 138.33 133.532 137.261 133.387 136.027C133.287 135.169 133.596 134.3 133.496 133.439C133.439 132.996 133.277 132.572 133.023 132.205C132.768 131.837 132.429 131.536 132.034 131.327C131.755 131.185 131.46 131.09 131.198 130.937C130.64 130.492 130.115 130.008 129.627 129.488C129.067 129.045 128.127 128.878 127.71 129.455L128.635 129.073Z" fill="#A26565"/>
<g opacity="0.1">
<path opacity="0.1" d="M125.126 130.769V130.9C125.12 130.858 125.126 130.809 125.126 130.769Z" fill="black"/>
<path opacity="0.1" d="M133.39 135.321C133.475 134.722 133.516 134.118 133.511 133.513C133.425 134.112 133.384 134.716 133.39 135.321Z" fill="black"/>
<path opacity="0.1" d="M123.53 138.318C123.466 137.618 123.137 136.95 123.059 136.251C123.043 136.38 123.038 136.509 123.042 136.638C123.07 137.407 123.451 138.123 123.527 138.889C123.547 138.7 123.548 138.508 123.53 138.318Z" fill="black"/>
<path opacity="0.1" d="M133.836 141.115C133.727 141.578 133.688 142.053 133.719 142.527C133.732 142.251 133.771 141.977 133.836 141.708C134.116 141.011 134.325 140.288 134.46 139.549C134.464 139.416 134.457 139.282 134.44 139.149C134.279 139.817 134.078 140.473 133.836 141.115Z" fill="black"/>
<path opacity="0.1" d="M124.232 141.179C123.76 141.576 123.175 141.816 122.561 141.864C122.43 142.064 122.282 142.264 122.161 142.457C122.911 142.506 123.653 142.265 124.231 141.783C124.644 143.163 124.867 144.594 124.891 146.034C124.927 144.391 124.704 142.753 124.231 141.179H124.232Z" fill="black"/>
<path opacity="0.1" d="M133.865 147.463C133.843 147.787 133.738 148.101 133.562 148.373C133.386 148.646 133.143 148.87 132.857 149.023C132.703 149.057 132.555 149.112 132.417 149.187C132.138 149.387 132.155 149.794 132.097 150.131C131.969 150.694 131.629 151.186 131.147 151.502C130.667 151.811 130.149 152.058 129.607 152.235L127.482 153.035C127.472 153.249 127.438 153.461 127.382 153.667L129.61 152.831C130.152 152.654 130.67 152.407 131.15 152.098C131.632 151.782 131.972 151.291 132.1 150.728C132.158 150.388 132.142 149.979 132.42 149.781C132.559 149.708 132.707 149.654 132.86 149.619C133.146 149.465 133.388 149.242 133.564 148.969C133.74 148.696 133.845 148.383 133.868 148.059C133.996 147.397 134.049 146.722 134.027 146.048C134.009 146.523 133.955 146.996 133.865 147.463Z" fill="black"/>
<path opacity="0.1" d="M126.117 149.326C126.049 149.251 125.966 149.189 125.875 149.145C125.776 149.113 125.672 149.099 125.569 149.106H124.641C124.605 149.306 124.566 149.506 124.521 149.697H125.568C125.671 149.691 125.775 149.704 125.874 149.736C125.966 149.779 126.049 149.841 126.116 149.917C126.856 150.624 127.333 151.563 127.467 152.577C127.49 151.97 127.382 151.365 127.149 150.804C126.916 150.242 126.563 149.738 126.117 149.326Z" fill="black"/>
</g>
<path opacity="0.1" d="M120.922 153.205C120.922 153.205 121.758 152.848 121.958 153.205C122.158 153.562 120.922 153.205 120.922 153.205Z" fill="black"/>
<path opacity="0.1" d="M121.215 153.807C121.215 153.807 122.051 153.45 122.251 153.807C122.451 154.164 121.215 153.807 121.215 153.807Z" fill="black"/>
<path d="M61.2266 16.3743L61.3016 16.9593L63.8446 17.3183C63.8446 17.3183 64.0536 17.1623 64.3796 16.9503C65.1326 16.4273 65.9702 16.0383 66.8556 15.8003C68.1846 15.5383 72.4266 13.6363 71.0556 13.5103C69.6846 13.3843 69.8326 13.6693 69.8326 13.6693C69.4318 13.2657 68.8933 13.0286 68.3251 13.0054C67.7569 12.9822 67.2009 13.1747 66.7686 13.5443C65.2401 14.6249 63.5757 15.4991 61.8186 16.1443L61.2266 16.3743Z" fill="#EFB7B9"/>
<path d="M71.3806 9.63023C71.7694 9.46889 72.1791 9.36384 72.5976 9.31824C72.8076 9.29692 73.0198 9.32039 73.2201 9.3871C73.4204 9.45381 73.6043 9.56224 73.7596 9.70524C73.9236 9.87524 74.0386 10.0922 74.1886 10.2622C74.9626 11.0982 76.4676 10.4712 77.4006 11.1172C77.9115 11.5999 78.2474 12.2387 78.3556 12.9332C78.5556 13.6022 78.9296 14.3402 79.6146 14.4822C79.9462 14.5136 80.2805 14.5005 80.6086 14.4432C80.7728 14.4176 80.9409 14.4343 81.0968 14.4919C81.2528 14.5495 81.3914 14.646 81.4996 14.7722C81.8176 15.2512 81.3796 16.0592 81.8396 16.4022C82.2486 16.7022 82.9956 16.2792 83.2826 16.7022C83.3376 16.8156 83.3575 16.9428 83.3396 17.0675C83.3218 17.1923 83.2671 17.3088 83.1826 17.4022C83.0117 17.5849 82.8552 17.7804 82.7146 17.9872C82.6394 18.1294 82.6042 18.2893 82.6128 18.4499C82.6213 18.6104 82.6732 18.7657 82.763 18.8991C82.8528 19.0325 82.9771 19.1391 83.1227 19.2074C83.2682 19.2758 83.4296 19.3033 83.5896 19.2872C83.8686 19.2592 84.1896 19.0922 84.4416 19.2372C84.5179 19.2916 84.5808 19.3628 84.6252 19.4453C84.6696 19.5279 84.6944 19.6196 84.6976 19.7132C84.718 20.0348 84.6136 20.3518 84.4061 20.5983C84.1985 20.8447 83.9039 21.0016 83.5836 21.0362C83.0867 21.0075 82.6062 20.8481 82.1906 20.5742C81.9839 20.438 81.7506 20.347 81.5063 20.3072C81.2619 20.2674 81.0119 20.2797 80.7726 20.3432C80.5627 20.4463 80.3701 20.5812 80.2016 20.7432C79.6778 21.1823 79.0861 21.5332 78.4496 21.7822C78.1793 21.9153 77.8843 21.9909 77.5833 22.0043C77.2823 22.0178 76.9817 21.9687 76.7006 21.8602C76.1006 21.5512 75.7846 20.7962 75.1436 20.5672C74.5026 20.3382 73.7706 20.7672 73.1576 21.1242C72.5446 21.4812 71.7226 21.7932 71.1686 21.3442C70.6146 20.8952 70.7566 19.8952 70.3916 19.2212C70.2451 18.9688 70.0467 18.7503 69.8096 18.5802C69.4006 18.2622 68.9346 18.0232 68.5256 17.7162C68.0926 17.4262 67.7799 16.9887 67.6456 16.4852C67.5882 15.8603 67.7665 15.2364 68.1456 14.7362C68.5221 14.2397 68.8053 13.6789 68.9816 13.0812C69.0596 12.6242 68.9816 12.1482 69.0816 11.6882C69.1565 11.4165 69.2974 11.1675 69.4917 10.9634C69.6861 10.7593 69.9278 10.6063 70.1956 10.5182C70.4956 10.4182 70.5526 10.4402 70.7026 10.1752C70.7726 10.0431 70.8689 9.92658 70.9854 9.83287C71.102 9.73916 71.2365 9.67021 71.3806 9.63023Z" fill="#F86D70"/>
<g opacity="0.1">
<path opacity="0.1" d="M81.5726 14.9623C81.6363 15.2294 81.6522 15.5056 81.6196 15.7783C81.5522 15.5117 81.5363 15.2348 81.5726 14.9623Z" fill="black"/>
<path opacity="0.1" d="M82.7256 18.0403C82.6782 18.1342 82.6481 18.2358 82.6366 18.3403C82.5871 18.2197 82.5642 18.0897 82.5695 17.9594C82.5749 17.8291 82.6083 17.7015 82.6676 17.5853C82.8083 17.3785 82.9647 17.1829 83.1356 17.0003C83.1954 16.92 83.2417 16.8305 83.2726 16.7353C83.2799 16.7431 83.2866 16.7514 83.2926 16.7603C83.3491 16.8733 83.3698 17.0008 83.352 17.1259C83.3341 17.251 83.2785 17.3676 83.1926 17.4603C83.0227 17.6438 82.8663 17.8393 82.7246 18.0453L82.7256 18.0403Z" fill="black"/>
<path opacity="0.1" d="M68.4746 17.3223C68.8836 17.6343 69.3496 17.8793 69.7586 18.1863C69.995 18.3572 70.1932 18.5755 70.3406 18.8273C70.7056 19.5013 70.5216 20.4683 71.1176 20.9503C71.7136 21.4323 72.4966 21.0983 73.1066 20.7303C73.3776 20.4992 73.6955 20.3297 74.0384 20.2335C74.3813 20.1373 74.741 20.1168 75.0926 20.1733C75.7636 20.4153 76.0456 21.1563 76.6496 21.4663C76.9304 21.5761 77.2311 21.626 77.5324 21.6125C77.8336 21.5991 78.1287 21.5227 78.3986 21.3883C79.0351 21.1393 79.6268 20.7884 80.1506 20.3493C80.3191 20.1873 80.5117 20.0523 80.7216 19.9493C80.9607 19.8842 81.2111 19.8711 81.4557 19.9109C81.7003 19.9508 81.9335 20.0426 82.1396 20.1803C82.5534 20.4578 83.035 20.6175 83.5326 20.6423C83.8173 20.611 84.0829 20.4836 84.2854 20.2811C84.4879 20.0785 84.6153 19.813 84.6466 19.5283C84.6774 19.6051 84.6973 19.6859 84.7056 19.7683C84.7268 20.09 84.6226 20.4074 84.4149 20.6541C84.2073 20.9007 83.9122 21.0574 83.5916 21.0913C83.0945 21.0634 82.6138 20.904 82.1986 20.6293C81.9913 20.4929 81.7576 20.4019 81.5128 20.362C81.2679 20.3222 81.0174 20.3346 80.7776 20.3983C80.573 20.5031 80.3852 20.6379 80.2206 20.7983C79.6965 21.2369 79.1048 21.5877 78.4686 21.8373C78.1983 21.9704 77.9033 22.046 77.6023 22.0594C77.3013 22.0728 77.0007 22.0238 76.7196 21.9153C76.1126 21.6063 75.8036 20.8513 75.1596 20.6223C74.8085 20.573 74.451 20.597 74.1097 20.6929C73.7684 20.7888 73.4507 20.9544 73.1766 21.1793C72.5666 21.5383 71.7416 21.8453 71.1876 21.3993C70.5876 20.9173 70.7726 19.9513 70.4076 19.2763C70.2619 19.0233 70.0634 18.8047 69.8256 18.6353C69.4186 18.3173 68.9536 18.0783 68.5416 17.7713C68.1087 17.4819 67.7967 17.044 67.6646 16.5403C67.6428 16.4331 67.6335 16.3237 67.6366 16.2143C67.7923 16.6626 68.0856 17.0504 68.4746 17.3223Z" fill="black"/>
</g>
<path d="M69.5636 31.2912L68.6416 31.4912C68.7499 31.6872 68.8987 31.858 69.0779 31.9922C69.2572 32.1264 69.463 32.2209 69.6816 32.2696C69.9002 32.3183 70.1266 32.32 70.3459 32.2746C70.5652 32.2292 70.7723 32.1377 70.9536 32.0062C72.3546 31.0232 69.5636 31.2912 69.5636 31.2912Z" fill="#4C4981"/>
<path opacity="0.1" d="M69.5636 31.2912L68.6416 31.4912C68.7499 31.6872 68.8987 31.858 69.0779 31.9922C69.2572 32.1264 69.463 32.2209 69.6816 32.2696C69.9002 32.3183 70.1266 32.32 70.3459 32.2746C70.5652 32.2292 70.7723 32.1377 70.9536 32.0062C72.3546 31.0232 69.5636 31.2912 69.5636 31.2912Z" fill="black"/>
<path d="M89.5926 45.2162C89.5926 45.2162 90.8716 45.8763 92.0636 46.6423C92.7992 47.0533 93.4534 47.5955 93.9936 48.2422C94.6286 49.3202 97.7126 50.4843 97.7126 50.4843L100.777 52.8163C101.47 53.158 102.06 53.6781 102.487 54.3232C102.576 54.4432 102.624 54.5233 102.624 54.5233L103.852 54.3643L104.498 53.5283C104.498 53.5283 104.662 51.6763 103.384 51.6983C103.134 51.6868 102.889 51.6242 102.665 51.5143C101.46 50.8311 100.353 49.9877 99.3746 49.0072C99.3746 49.0072 96.1126 44.9322 95.1376 44.7982C95.0333 44.7824 94.9308 44.7563 94.8316 44.7203C93.9522 44.2991 93.1395 43.7509 92.4196 43.0933L89.5926 45.2162Z" fill="#EFB7B9"/>
<path d="M76.9456 56.9903C77.4492 59.2307 78.2159 61.4038 79.2296 63.4643C79.6705 64.3815 79.9737 65.3586 80.1296 66.3643L80.3026 67.7073C80.3338 67.8967 80.3988 68.0789 80.4946 68.2453C80.5463 68.3412 80.603 68.4343 80.6646 68.5243L83.1216 67.7693C83.1216 67.7693 82.9796 67.2123 82.7646 66.5543C82.5925 65.9217 82.3094 65.3248 81.9286 64.7913C81.3286 64.2003 81.2376 62.1223 81.2376 62.1223C81.2376 62.1223 80.7376 58.1223 80.5856 57.6223C80.4387 57.142 80.3451 56.647 80.3066 56.1463C80.2846 55.8673 80.2676 55.5723 80.2646 55.2243C80.2142 54.2259 80.0848 53.2332 79.8776 52.2552L77.0116 52.7763L76.9366 55.9763C76.8585 56.3101 76.8616 56.6578 76.9456 56.9903Z" fill="#EFB7B9"/>
<path opacity="0.1" d="M102.484 54.3163C102.573 54.4363 102.621 54.5163 102.621 54.5163L103.849 54.3573L104.495 53.5213C104.495 53.5213 104.659 51.6693 103.381 51.6913C103.131 51.6798 102.886 51.6172 102.662 51.5073C102.562 52.0643 103.18 52.5213 103.18 52.5213C103.18 52.5213 103.436 52.7083 103.38 53.5803C103.356 53.7957 103.249 53.9934 103.082 54.131C102.914 54.2686 102.699 54.3351 102.484 54.3163Z" fill="black"/>
<path d="M102.351 54.4363C102.432 54.7363 103.206 55.1743 103.744 55.4473C104.009 55.5843 104.215 55.6783 104.257 55.6983C104.382 55.7593 105.031 55.0353 105.121 54.4533C105.558 53.5836 106.11 52.7765 106.762 52.0533C107.09 51.3367 107.285 50.5666 107.339 49.7803C107.398 48.9863 107.06 48.9253 106.679 49.1033C106.4 49.2507 106.15 49.4468 105.941 49.6823C105.675 49.9325 105.345 50.1033 104.988 50.1753C104.5 50.296 104.036 50.4946 103.612 50.7633C103.236 51.0053 102.871 51.3013 102.804 51.5633C102.662 52.1343 103.314 52.6193 103.314 52.6193C103.314 52.6193 103.57 52.8083 103.514 53.6783C103.458 54.5483 102.343 54.4083 102.351 54.4363Z" fill="#FF6484"/>
<path opacity="0.1" d="M103.743 55.4473C104.008 55.5843 104.214 55.6783 104.256 55.6983C104.381 55.7593 105.03 55.0353 105.12 54.4533C105.557 53.5836 106.109 52.7764 106.761 52.0533C107.089 51.3367 107.284 50.5666 107.338 49.7803C107.397 48.9863 107.059 48.9253 106.678 49.1033C106.621 49.9569 106.433 50.7968 106.121 51.5933C105.746 52.3503 104.175 54.7873 103.743 55.4473Z" fill="black"/>
<path opacity="0.1" d="M80.5226 68.1832C80.5164 68.1994 80.509 68.2151 80.5006 68.2302C80.5523 68.3262 80.609 68.4193 80.6706 68.5092L83.1276 67.7543C83.1276 67.7543 82.9856 67.1972 82.7706 66.5392C81.7986 66.2602 80.4056 67.9682 80.4056 67.9682L80.5226 68.1832Z" fill="black"/>
<path d="M80.3666 70.0133C81.3206 70.3657 82.3228 70.5705 83.3386 70.6203C84.0386 70.5363 84.0686 70.2113 84.0206 69.5423C84.0036 69.3303 83.9816 69.0823 83.9706 68.7953C83.9236 67.6113 83.4466 67.3743 83.4466 67.3743C82.6666 65.3273 80.4186 68.0743 80.4186 68.0743L80.5386 68.2973C80.3749 68.6452 80.2957 69.0269 80.3076 69.4113C80.308 69.6134 80.3278 69.8149 80.3666 70.0133Z" fill="#FF6484"/>
<path opacity="0.1" d="M80.3666 70.0142C81.3206 70.3667 82.3228 70.5714 83.3386 70.6212C84.0386 70.5372 84.0686 70.2122 84.0206 69.5432C83.7906 69.7348 83.5233 69.8765 83.2357 69.9595C82.948 70.0424 82.6463 70.0648 82.3496 70.0252C81.6405 69.9335 80.9509 69.7275 80.3076 69.4152C80.3082 69.6163 80.328 69.8169 80.3666 70.0142Z" fill="black"/>
<path d="M70.1906 20.2943L70.9906 23.8013L71.1526 24.5223L72.6376 24.7093L74.1636 24.9043L75.8346 24.3043C76.0938 23.4037 76.1216 22.4524 75.9156 21.5383C75.7959 21.1156 75.5213 20.7536 75.1466 20.5243C75.0294 20.4549 74.9218 20.3705 74.8266 20.2733C74.7116 20.1635 74.6171 20.0342 74.5476 19.8913C74.4663 19.7158 74.4172 19.5271 74.4026 19.3343C74.3987 18.6413 74.5763 17.9594 74.9176 17.3563C74.9176 17.3563 71.3906 16.1563 71.6666 16.9303C71.8446 17.4303 71.3486 18.3233 70.9786 18.8633C70.7786 19.1633 70.6136 19.3703 70.6136 19.3703L70.1906 20.2943Z" fill="#EFB7B9"/>
<path opacity="0.1" d="M73.3796 18.9473C75.0701 18.9473 76.4406 17.5768 76.4406 15.8863C76.4406 14.1957 75.0701 12.8253 73.3796 12.8253C71.6891 12.8253 70.3186 14.1957 70.3186 15.8863C70.3186 17.5768 71.6891 18.9473 73.3796 18.9473Z" fill="black"/>
<path d="M73.3626 18.8332C75.0531 18.8332 76.4236 17.4628 76.4236 15.7722C76.4236 14.0817 75.0531 12.7112 73.3626 12.7112C71.672 12.7112 70.3016 14.0817 70.3016 15.7722C70.3016 17.4628 71.672 18.8332 73.3626 18.8332Z" fill="#EFB7B9"/>
<path d="M70.4186 31.9323C70.6129 32.5432 70.8855 33.1264 71.2296 33.6672L75.5026 34.7172L78.5666 31.5302V31.5102C78.4716 31.2102 77.3046 27.4432 78.1486 26.5102C78.9926 25.5772 78.7056 22.8223 78.7056 22.8223C78.7056 22.8223 77.1786 21.0643 76.8726 20.6413C76.5666 20.2183 74.5826 19.8832 74.5826 19.8832C74.6826 20.0172 74.7716 20.1452 74.8616 20.2652C75.0746 20.5844 75.2387 20.9336 75.3486 21.3012C75.4739 21.6648 75.4589 22.0621 75.3066 22.4152C75.263 22.5042 75.2295 22.5978 75.2066 22.6942C74.8726 24.1562 73.3516 23.9532 72.7446 23.8082C72.5886 23.7692 72.4936 23.7362 72.4936 23.7362L71.0366 23.7832L70.1226 23.8142C70.1226 23.8142 70.5376 31.0142 70.4406 31.5912C70.4099 31.7022 70.4024 31.8183 70.4186 31.9323Z" fill="#FF6484"/>
<path d="M70.1006 24.1913L72.7526 23.8432H72.7026C72.6178 23.8241 72.534 23.8008 72.4516 23.7733L70.9946 23.8203L70.0806 23.8512C70.0806 23.8512 70.0896 23.9683 70.1006 24.1913Z" fill="#925978"/>
<path d="M73.0736 34.1292L74.2236 34.4102L76.0316 34.1732L76.5056 33.6802L73.0736 34.1292Z" fill="#925978"/>
<path d="M74.9846 34.5982L75.5056 34.7262L75.7196 34.5032L74.9846 34.5982Z" fill="#925978"/>
<path opacity="0.1" d="M70.4186 31.9323C71.1006 32.0023 71.7306 32.0323 71.7306 32.0323L75.2516 31.9013V28.2213C74.8324 27.8349 74.3536 27.5189 73.8336 27.2853C73.2206 27.0733 72.4966 26.4243 72.6336 24.7063C72.6375 24.6037 72.6478 24.5015 72.6646 24.4003C72.6882 24.2089 72.6986 24.0161 72.6956 23.8233C72.6974 23.3987 72.6118 22.9783 72.4441 22.5883C72.2763 22.1983 72.03 21.847 71.7206 21.5563L71.6676 21.5113L71.0936 18.8423C71.0553 18.8436 71.0171 18.8482 70.9796 18.8563C70.7796 19.1563 70.6146 19.3633 70.6146 19.3633L70.1916 20.2913L70.9916 23.7983L70.0776 23.8293C70.0776 23.8293 70.4926 31.0293 70.3956 31.6063C70.3838 31.7148 70.3933 31.8245 70.4236 31.9293L70.4186 31.9323Z" fill="black"/>
<path d="M71.6166 32.0483L75.1376 31.9173V28.2403C74.7226 27.8508 74.2466 27.5319 73.7286 27.2963C73.0796 27.0703 72.3076 26.3573 72.5586 24.4073C72.6453 23.8922 72.6046 23.3637 72.4401 22.868C72.2755 22.3722 71.9921 21.9243 71.6146 21.5633L71.5616 21.5183L70.9876 18.8503C70.8075 18.8662 70.6331 18.921 70.4763 19.011C70.3195 19.1009 70.1842 19.2239 70.0796 19.3713C70.0162 19.4763 69.9454 19.5765 69.8676 19.6713C69.7959 19.7871 69.6843 19.8726 69.5538 19.9116C69.4233 19.9507 69.2831 19.9406 69.1596 19.8833C68.7896 19.7193 67.1926 19.0473 66.8336 19.7053C66.4746 20.3633 66.4076 24.3053 66.4076 24.3053C66.9353 24.7384 67.3005 25.3377 67.4436 26.0053C67.6886 27.1193 68.0986 27.1583 68.0986 27.1583L68.5386 30.3893C68.5386 30.3893 68.9386 31.0893 68.6386 31.4783" fill="#444053"/>
<path d="M69.8676 19.6753L70.4676 21.4753L71.6156 21.5753L71.5626 21.5303L70.9886 18.8613C70.8085 18.8772 70.6341 18.932 70.4773 19.022C70.3206 19.1119 70.1852 19.2348 70.0806 19.3823C70.0166 19.4849 69.9454 19.5828 69.8676 19.6753Z" fill="#444053"/>
<path opacity="0.1" d="M61.2266 16.3742L61.3016 16.9592L63.8446 17.3182C63.8446 17.3182 64.0536 17.1622 64.3796 16.9502C64.1006 16.8892 62.8476 16.6132 62.1796 16.3932C61.9376 16.3182 61.7726 16.2542 61.7676 16.2092C61.7626 16.1642 61.7846 16.1592 61.8236 16.1252L61.2266 16.3742Z" fill="black"/>
<path d="M58.2436 20.1693C58.2436 20.1693 61.1236 22.3563 62.9096 22.7093C64.1507 23.0618 65.331 23.6013 66.4096 24.3093L67.4936 20.1613L66.8506 19.7073C66.4116 19.9774 65.8946 20.0922 65.3826 20.0333C64.7026 19.8713 63.9566 19.7773 63.9566 19.7773C63.3628 19.5593 62.7516 19.392 62.1296 19.2773C61.6446 19.2383 61.8506 18.6083 62.3246 18.2773C62.3884 18.2345 62.4553 18.1964 62.5246 18.1633C62.6132 18.2901 62.746 18.3793 62.897 18.4133C63.0479 18.4473 63.2061 18.4238 63.3406 18.3473C63.5237 18.2302 63.6842 18.0811 63.8146 17.9073C64.0153 17.6524 64.1943 17.3811 64.3496 17.0963C64.3496 17.0963 62.8496 16.7763 62.0986 16.5393C61.8566 16.4643 61.6916 16.4003 61.6866 16.3583C61.6646 16.1853 63.0266 15.6423 63.0266 15.6423C63.0266 15.6423 61.8596 15.0853 61.3856 15.4863C61.3856 15.4863 61.6856 15.7173 61.4446 15.9433C61.2036 16.1693 58.2076 18.4643 58.2076 18.4643C58.2076 18.4643 56.7226 19.1883 58.2436 20.1693Z" fill="#444053"/>
<path opacity="0.1" d="M60.7196 18.0462L62.3126 18.2742C62.3764 18.2315 62.4433 18.1934 62.5126 18.1602C62.6013 18.287 62.734 18.3762 62.885 18.4102C63.0359 18.4443 63.1941 18.4207 63.3286 18.3442C63.5117 18.2271 63.6722 18.0781 63.8026 17.9042C63.9634 17.6877 64.1094 17.4605 64.2396 17.2242C64.2396 17.2242 62.7396 16.9012 61.9886 16.6672L60.7196 18.0462Z" fill="black"/>
<path d="M60.8116 17.9172L62.5116 18.1592C62.6002 18.286 62.733 18.3752 62.884 18.4092C63.0349 18.4433 63.1931 18.4197 63.3276 18.3432C63.7451 17.9978 64.088 17.5712 64.3356 17.0892C64.3356 17.0892 62.8356 16.7692 62.0846 16.5322L60.8116 17.9172Z" fill="#444053"/>
<path opacity="0.1" d="M92.4196 43.0773L89.5926 45.2163C89.5926 45.2163 90.8716 45.8763 92.0636 46.6423C93.1056 45.9423 94.0886 45.2883 94.8326 44.6923C93.9517 44.2782 93.1383 43.7337 92.4196 43.0773Z" fill="black"/>
<path opacity="0.1" d="M76.9456 56.9912C77.6526 56.9015 78.3475 56.7338 79.0176 56.4912C79.0176 56.4912 79.5386 56.3773 80.3176 56.1183C80.2956 55.8393 80.2786 55.5443 80.2756 55.1963C80.2251 54.1979 80.0957 53.2051 79.8886 52.2272L77.0226 52.7483L76.9476 55.9482C76.8624 56.2893 76.8624 56.6461 76.9476 56.9872L76.9456 56.9912Z" fill="black"/>
<path d="M71.8396 43.9902C72.4186 44.8452 73.9926 48.4662 73.9926 48.4662C74.3471 49.1103 74.7482 49.7276 75.1926 50.3132C75.8754 51.5681 76.3924 52.9062 76.7306 54.2942C77.2066 55.7122 76.5886 55.4442 76.6586 56.1942C76.7286 56.9442 79.4166 55.9792 79.4166 55.9792C79.4166 55.9792 84.9166 54.7672 86.6006 51.4112C88.2846 48.0552 95.0006 45.0042 96.3506 43.1112C97.7006 41.2182 95.9636 41.9972 96.0326 40.9772C96.0283 40.2849 95.7764 39.617 95.3226 39.0942C94.2875 38.8356 93.2958 38.4273 92.3786 37.8822C91.6177 37.233 90.8031 36.6496 89.9436 36.1382C89.1973 35.8285 88.4787 35.4558 87.7956 35.0242C86.786 34.4484 85.7119 33.9939 84.5956 33.6702C84.0396 33.4205 83.5646 33.0201 83.2246 32.5142C83.2246 32.5142 82.7956 32.5702 82.1636 31.9572C81.5316 31.3442 78.8826 30.8182 78.8826 30.8182C74.3506 34.1382 71.2226 33.6652 71.2226 33.6652L71.1506 34.2952C68.7466 37.4272 71.2656 43.1382 71.8396 43.9902Z" fill="#FF6484"/>
<path opacity="0.1" d="M71.1576 34.2963C71.1576 34.2963 75.0576 35.5863 78.8906 30.8203C74.3586 34.1403 71.2306 33.6673 71.2306 33.6673L71.1576 34.2963Z" fill="black"/>
<path opacity="0.1" d="M77.8926 36.5253C77.8926 36.5253 83.1486 44.1103 83.4636 44.3893C83.7786 44.6683 78.1686 36.4303 77.8926 36.5253Z" fill="black"/>
<path opacity="0.1" d="M75.4636 35.9323C75.4636 35.9323 79.1046 41.5842 79.0296 42.3392C79.0336 42.3562 75.5056 36.9243 75.4636 35.9323Z" fill="black"/>
<path opacity="0.1" d="M73.3436 37.4943C73.3436 37.4943 74.0146 40.6563 73.0036 42.4443L73.3436 37.4943Z" fill="black"/>
<path opacity="0.1" d="M71.9456 37.6783C71.9534 38.788 71.8357 39.895 71.5946 40.9783L71.9456 37.6783Z" fill="black"/>
<path opacity="0.1" d="M80.8596 35.2383L85.6926 37.1323L83.9236 37.3633L80.8596 35.2383Z" fill="black"/>
<path opacity="0.1" d="M71.3446 14.0733C71.5866 14.2323 71.7876 14.4913 72.0746 14.5273C72.2821 14.5333 72.4873 14.4821 72.6676 14.3793C73.135 14.1282 73.6774 14.0551 74.1946 14.1733C74.9046 14.4103 75.2946 15.2263 76.0026 15.4733C76.1665 15.5298 76.3403 15.5515 76.5131 15.537C76.6858 15.5225 76.8536 15.4721 77.0057 15.3889C77.1579 15.3058 77.291 15.1918 77.3965 15.0543C77.502 14.9168 77.5777 14.7587 77.6186 14.5903C77.665 14.3149 77.6379 14.0321 77.5401 13.7705C77.4423 13.5089 77.2773 13.2777 77.0616 13.1003C76.6269 12.7504 76.111 12.5158 75.5616 12.4183C74.1249 12.1732 72.6601 12.1395 71.2136 12.3183C71.0942 12.3155 70.9764 12.3464 70.8736 12.4073C70.5585 12.7575 70.3754 13.2066 70.3556 13.6773C70.4696 14.0453 71.3056 13.7613 71.3446 14.0733Z" fill="black"/>
<path d="M71.3266 13.9592C71.5686 14.1182 71.7696 14.3772 72.0596 14.4132C72.267 14.4188 72.4721 14.3677 72.6526 14.2652C73.119 14.0145 73.6604 13.9413 74.1766 14.0592C74.8866 14.2962 75.2766 15.1122 75.9876 15.3592C76.162 15.4181 76.3471 15.4382 76.53 15.418C76.713 15.3978 76.8893 15.3378 77.0466 15.2422C77.1852 15.1574 77.3057 15.0461 77.4013 14.9147C77.4969 14.7832 77.5656 14.6342 77.6036 14.4762C77.6503 14.2008 77.6234 13.918 77.5255 13.6563C77.4277 13.3946 77.2625 13.1635 77.0466 12.9862C76.6119 12.6363 76.096 12.4017 75.5466 12.3042C74.1109 12.0592 72.647 12.0255 71.2016 12.2042C71.0821 12.2015 70.9643 12.2323 70.8616 12.2932C70.5453 12.6427 70.362 13.0923 70.3436 13.5632C70.4436 13.9262 71.2876 13.6472 71.3266 13.9592Z" fill="#F86D70"/>
<path d="M90.0466 16.2123L90.5086 18.0813L91.1086 17.7193L94.3676 15.7503C94.3676 15.7503 96.8356 15.6613 97.0276 13.6753C97.2196 11.6893 94.2836 13.6553 94.1276 13.8093C93.9637 13.9562 93.7925 14.0947 93.6146 14.2243L90.5786 15.9153L90.0466 16.2123Z" fill="#EFB7B9"/>
<path opacity="0.1" d="M90.0466 16.2122L90.5086 18.0813L91.1086 17.7193C91.0552 17.0882 90.8753 16.4743 90.5796 15.9142L90.0466 16.2122Z" fill="black"/>
<path opacity="0.1" d="M73.9536 28.4353L74.6166 32.3353L78.5496 31.4993C78.4546 31.1993 77.2876 27.4323 78.1316 26.4993C78.9756 25.5663 78.6886 22.8112 78.6886 22.8112C78.6886 22.8112 77.1616 21.0532 76.8556 20.6302C76.5496 20.2072 74.5656 19.8723 74.5656 19.8723C74.4843 19.6968 74.4352 19.5081 74.4206 19.3152C74.3564 19.448 74.3062 19.5871 74.2706 19.7303C74.2523 20.0691 74.3449 20.4046 74.5343 20.6861C74.7238 20.9676 74.9998 21.1797 75.3206 21.2903L75.5326 21.3822C75.6526 21.4292 75.7836 21.4742 75.9226 21.5182L75.9866 21.5383C76.3119 21.5997 76.6192 21.7335 76.8858 21.9298C77.1524 22.1261 77.3714 22.3798 77.5266 22.6723C77.9717 23.2559 78.178 23.987 78.1036 24.7173C77.9616 25.9393 73.9536 28.4353 73.9536 28.4353Z" fill="black"/>
<path d="M74.1826 28.4113L74.8456 32.3113L79.2716 31.3863C79.216 30.6791 79.0671 29.9824 78.8286 29.3143C78.6147 28.3539 78.5312 27.369 78.5806 26.3863C80.4636 24.3583 79.4746 22.7063 79.4746 22.7063C79.4746 22.7063 85.0066 21.8123 85.1016 21.6453C85.7265 21.2168 86.3778 20.828 87.0516 20.4813C87.8382 20.302 88.6018 20.0336 89.3276 19.6813C89.4289 19.5725 89.539 19.4722 89.6566 19.3813C89.6912 19.3554 89.7276 19.332 89.7656 19.3113L89.9136 20.5903H89.9696C90.2929 20.5559 90.6007 20.4346 90.8606 20.2393C91.3176 19.8883 90.7406 16.0613 90.3036 15.9193C90.2195 15.8983 90.1317 15.8983 90.0476 15.9193C89.6986 16.0267 89.3741 16.2017 89.0926 16.4343L89.0176 16.4953L88.9896 16.5173C87.9472 16.9059 86.9413 17.3862 85.9836 17.9523C85.4836 18.4033 81.5836 18.9803 81.5836 18.9803C81.5836 18.9803 79.8366 19.3923 79.6116 19.1423C79.3866 18.8923 76.7206 18.4853 76.4976 18.8633C76.2746 19.2413 75.6616 19.1863 75.6616 19.1863C75.2216 18.6863 74.9176 18.8773 74.7316 19.1663C74.6255 19.3389 74.5466 19.5267 74.4976 19.7233C74.4854 20.1019 74.6044 20.4731 74.8343 20.7741C75.0643 21.0751 75.3911 21.2875 75.7596 21.3753C75.9079 21.4358 76.0595 21.4878 76.2136 21.5313C76.5389 21.5927 76.8462 21.7265 77.1128 21.9228C77.3794 22.1191 77.5984 22.3729 77.7536 22.6653C78.1982 23.2499 78.4044 23.9815 78.3306 24.7123C78.1906 25.9013 74.1826 28.4113 74.1826 28.4113Z" fill="#444053"/>
<path opacity="0.1" d="M90.0406 15.9053C90.0875 15.8968 90.1356 15.8968 90.1826 15.9053C90.6256 16.0423 91.2026 19.8743 90.7396 20.2253C90.5115 20.3985 90.2449 20.5141 89.9626 20.5623H89.8956L89.7476 19.2833C89.7096 19.304 89.6732 19.3274 89.6386 19.3533V19.3053C89.7542 18.8152 89.7576 18.3053 89.6485 17.8137C89.5394 17.3221 89.3206 16.8615 89.0086 16.4663L90.0406 15.9053Z" fill="black"/>
<path d="M89.7536 19.3073L89.9016 20.5863C90.2488 20.5629 90.5817 20.4388 90.8596 20.2293C91.3166 19.8783 90.7396 16.0513 90.3026 15.9093C89.9516 15.8003 89.3356 16.2383 89.0906 16.4243C89.4165 16.8209 89.6459 17.2876 89.761 17.7878C89.876 18.2881 89.8735 18.8082 89.7536 19.3073Z" fill="#444053"/>
<path d="M75.7616 21.3663L76.3966 20.7663L74.7256 19.1533C74.6196 19.3259 74.5406 19.5137 74.4916 19.7103C74.4783 20.0908 74.5977 20.464 74.8294 20.7662C75.0611 21.0683 75.3907 21.2804 75.7616 21.3663Z" fill="#444053"/>
<path opacity="0.1" d="M71.3016 13.7313C71.5436 13.8903 71.7446 14.1493 72.0316 14.1853C72.2391 14.1913 72.4442 14.1401 72.6246 14.0373C73.0917 13.7866 73.6337 13.7134 74.1506 13.8313C74.8606 14.0683 75.2646 14.8843 75.9586 15.1313C76.1496 15.1992 76.3544 15.219 76.5548 15.189C76.7553 15.159 76.9453 15.08 77.108 14.9591C77.2707 14.8382 77.4011 14.6791 77.4878 14.4958C77.5744 14.3126 77.6145 14.1108 77.6046 13.9083C77.6448 14.0918 77.6448 14.2818 77.6046 14.4653C77.5514 14.6913 77.4352 14.8976 77.2696 15.0602C77.1039 15.2229 76.8955 15.3353 76.6686 15.3843C76.4438 15.434 76.2098 15.4215 75.9916 15.3483C75.2816 15.1063 74.8916 14.2893 74.1836 14.0483C73.6663 13.9316 73.1244 14.0047 72.6566 14.2543C72.4762 14.3571 72.2711 14.4083 72.0636 14.4023C71.7846 14.3663 71.5736 14.1023 71.3306 13.9483C71.2916 13.6363 70.4506 13.9203 70.3446 13.5483C70.333 13.4922 70.333 13.4344 70.3446 13.3783C70.5076 13.6723 71.2596 13.4383 71.3016 13.7313Z" fill="black"/>
<path opacity="0.1" d="M73.9126 22.5363C73.9126 22.5363 73.5586 23.5283 74.0076 23.8593C74.0076 23.8593 73.5176 22.5502 73.2306 22.5782" fill="black"/>
<path d="M95.8176 12.8953C95.8176 12.8953 93.5416 14.8623 95.1856 15.1763C96.8296 15.4903 95.8176 12.8953 95.8176 12.8953Z" fill="#EFB7B9"/>
<path d="M86.9486 14.5333L87.3856 26.0513L100.055 14.5333H86.9486Z" fill="white"/>
<path opacity="0.03" d="M86.9486 14.5333L87.3856 26.0513L100.055 14.5333H86.9486Z" fill="black"/>
<defs>
<linearGradient id="paint0_linear" x1="128.904" y1="199.996" x2="128.904" y2="127.415" gradientUnits="userSpaceOnUse">
<stop stop-color="#808080" stop-opacity="0.251"/>
<stop offset="0.54" stop-color="#808080" stop-opacity="0.122"/>
<stop offset="1" stop-color="#808080" stop-opacity="0.102"/>
</linearGradient>
</defs>
</svg>
