<?xml version="1.0" standalone="no"?>
<!DOCTYPE svg PUBLIC "-//W3C//DTD SVG 20010904//EN"
 "http://www.w3.org/TR/2001/REC-SVG-20010904/DTD/svg10.dtd">
<svg version="1.0" xmlns="http://www.w3.org/2000/svg"
 width="1104.000000pt" height="1104.000000pt" viewBox="0 0 1104.000000 1104.000000"
 preserveAspectRatio="xMidYMid meet">
<metadata>
Created by potrace 1.11, written by Peter Selinger 2001-2013
</metadata>
<g transform="translate(0.000000,1104.000000) scale(0.100000,-0.100000)"
fill="#000000" stroke="none">
<path d="M2129 10416 c-2 -2 -26 -6 -54 -10 -47 -6 -96 -13 -140 -21 -11 -2
-32 -8 -47 -14 -16 -6 -28 -9 -28 -6 0 2 -15 -2 -34 -10 -18 -8 -36 -11 -40
-8 -3 4 -6 0 -6 -7 0 -7 -3 -11 -6 -7 -4 3 -24 -3 -45 -14 -22 -11 -39 -17
-39 -14 0 2 -23 -9 -50 -25 -28 -17 -54 -30 -59 -30 -15 0 -206 -147 -248
-191 -77 -81 -94 -101 -121 -143 -15 -22 -29 -43 -32 -46 -3 -3 -18 -28 -33
-56 -56 -105 -99 -244 -112 -364 -4 -30 -7 -676 -7 -1435 0 -915 -4 -1387 -10
-1400 -12 -23 -41 -50 -110 -103 -27 -20 -48 -40 -48 -44 0 -4 -5 -8 -10 -8
-9 0 -27 -14 -75 -60 -12 -11 -26 -20 -32 -20 -6 0 -13 -4 -15 -9 -1 -5 -34
-34 -73 -65 -123 -100 -147 -120 -159 -130 -9 -9 -44 -38 -180 -146 -10 -8
-27 -22 -37 -32 -9 -9 -20 -14 -23 -11 -3 4 -6 2 -6 -4 0 -5 -42 -43 -94 -84
-134 -105 -173 -174 -147 -258 10 -36 79 -111 101 -111 5 0 10 -4 10 -8 0 -5
35 -36 78 -70 42 -33 86 -69 97 -79 11 -10 54 -45 95 -78 41 -33 80 -64 86
-70 6 -5 28 -23 49 -40 21 -16 43 -34 49 -40 6 -5 36 -30 66 -54 67 -54 79
-64 107 -91 13 -11 26 -20 29 -20 4 0 12 -6 18 -13 6 -8 56 -50 112 -95 55
-45 105 -92 111 -105 8 -16 11 -498 12 -1568 0 -849 3 -1564 5 -1589 15 -171
77 -341 180 -490 17 -25 33 -47 36 -50 3 -3 29 -31 58 -62 28 -31 52 -55 52
-53 0 2 17 -12 37 -31 103 -97 330 -219 465 -249 13 -2 49 -11 80 -19 114 -28
181 -31 708 -31 l535 0 42 23 c101 53 120 98 122 279 2 177 -7 215 -65 270
-60 57 -112 72 -245 68 -279 -9 -490 -5 -569 10 -14 3 -41 8 -60 11 -19 4 -39
7 -45 9 -38 8 -72 17 -85 22 -8 3 -21 7 -28 9 -68 14 -248 133 -278 184 -14
23 -58 114 -60 123 -1 4 -2 8 -4 10 -2 3 -10 36 -16 72 -3 17 -6 707 -8 1535
-1 828 -6 1521 -10 1540 -18 91 -56 189 -98 255 -50 77 -183 224 -205 225 -6
0 -13 4 -15 8 -2 7 -181 133 -236 167 -9 6 -21 14 -26 18 -54 41 -168 117
-176 117 -6 0 -10 3 -10 8 0 4 -13 16 -29 27 -33 21 -45 63 -33 109 6 21 30
44 85 82 42 30 82 54 88 54 5 0 7 5 4 10 -3 6 -2 10 3 10 8 0 231 146 242 159
3 3 32 24 65 45 66 43 215 190 215 213 0 3 6 14 14 22 29 34 80 142 92 194 1
4 2 8 4 10 2 2 7 25 16 72 3 17 7 635 8 1375 1 740 5 1350 9 1356 3 6 9 26 12
44 3 19 11 40 17 47 6 7 8 13 4 13 -3 0 4 19 16 43 25 49 154 181 168 172 6
-3 10 -1 10 4 0 6 6 11 14 11 8 0 16 4 18 9 2 4 41 22 88 39 185 67 349 81
805 68 124 -3 178 10 235 60 59 52 70 90 70 259 0 168 -10 204 -69 261 -65 63
-81 65 -643 64 -278 -1 -508 -3 -509 -4z"/>
<path d="M7850 10409 c-65 -20 -124 -73 -147 -133 -15 -39 -17 -298 -2 -349 9
-32 54 -88 100 -123 28 -20 105 -32 194 -29 119 5 429 5 480 0 53 -4 136 -15
155 -20 8 -2 29 -7 46 -9 86 -15 228 -74 289 -120 122 -94 175 -188 189 -340
3 -26 7 -50 10 -53 2 -3 1 -16 -5 -30 -6 -16 -6 -22 1 -18 7 4 7 -2 0 -19 -5
-14 -6 -28 -1 -30 5 -3 7 -18 4 -33 -9 -63 -9 -84 -1 -89 5 -3 4 -12 -2 -19
-8 -10 -8 -15 0 -20 8 -5 8 -10 0 -20 -8 -10 -8 -15 0 -20 6 -4 8 -15 5 -26
-4 -10 -6 -31 -6 -46 3 -94 3 -125 -3 -130 -3 -3 -1 -13 4 -22 5 -10 5 -23 0
-31 -4 -7 -4 -24 1 -37 5 -13 5 -23 0 -23 -5 0 -8 -8 -6 -17 2 -10 4 -18 5
-18 5 0 5 -58 -1 -66 -3 -6 -3 -25 1 -43 4 -17 4 -40 0 -51 -4 -11 -4 -27 1
-36 4 -8 4 -21 -1 -29 -4 -7 -4 -24 1 -37 5 -13 5 -23 0 -23 -8 0 -8 -20 -1
-40 3 -7 1 -48 -3 -88 -2 -18 0 -35 5 -38 4 -3 6 -15 3 -27 -6 -23 -6 -26 -4
-124 0 -34 -2 -67 -7 -74 -4 -8 -3 -10 4 -5 9 5 9 0 2 -18 -5 -14 -6 -28 -1
-30 5 -3 7 -18 4 -33 -9 -63 -9 -84 -1 -89 5 -3 4 -12 -2 -19 -8 -10 -8 -15 0
-20 8 -5 8 -10 0 -20 -8 -10 -8 -15 0 -20 6 -4 8 -15 5 -26 -4 -10 -6 -31 -6
-46 3 -94 3 -125 -3 -130 -3 -3 -1 -13 4 -22 5 -10 5 -23 0 -31 -4 -7 -4 -24
1 -37 5 -13 5 -23 0 -23 -5 0 -8 -8 -6 -17 2 -10 4 -18 5 -18 5 0 5 -58 -1
-66 -3 -6 -3 -25 1 -43 4 -17 4 -40 0 -51 -4 -11 -4 -27 1 -36 4 -8 4 -21 -1
-29 -4 -7 -4 -24 1 -37 5 -13 5 -23 0 -23 -8 0 -8 -20 -1 -40 3 -7 1 -48 -3
-88 -2 -18 0 -35 5 -38 4 -3 6 -15 3 -27 -12 -45 -2 -211 16 -282 16 -67 67
-180 104 -234 74 -106 219 -236 353 -316 9 -5 19 -12 22 -15 14 -16 111 -80
120 -80 6 0 10 -4 10 -8 0 -4 15 -16 33 -27 17 -10 34 -21 37 -25 3 -3 22 -16
43 -29 20 -12 37 -27 37 -32 0 -5 7 -9 15 -9 23 0 48 -57 41 -94 -9 -41 -20
-54 -90 -101 -32 -22 -86 -59 -120 -83 -33 -24 -79 -55 -101 -70 -22 -15 -44
-31 -50 -35 -5 -5 -47 -34 -92 -65 -71 -50 -212 -172 -198 -172 4 0 -22 -34
-50 -64 -24 -25 -84 -144 -99 -196 -23 -76 -30 -116 -30 -177 -1 -29 -4 -53
-8 -53 -4 0 -3 -12 1 -27 5 -16 5 -37 1 -48 -4 -11 -4 -27 1 -36 4 -8 4 -21
-1 -29 -4 -7 -4 -24 1 -37 5 -13 5 -23 0 -23 -8 0 -8 -20 -1 -40 3 -7 1 -48
-3 -88 -2 -18 0 -35 5 -38 4 -3 6 -15 3 -27 -6 -23 -6 -26 -4 -124 0 -34 -2
-67 -7 -74 -4 -8 -3 -10 4 -5 9 5 9 0 2 -18 -5 -14 -6 -28 -1 -30 5 -3 7 -18
4 -33 -9 -63 -9 -84 -1 -89 5 -3 4 -12 -2 -19 -8 -10 -8 -15 0 -20 8 -5 8 -10
0 -20 -8 -10 -8 -15 0 -20 6 -4 8 -15 5 -26 -4 -10 -6 -31 -6 -46 3 -94 3
-125 -3 -130 -3 -3 -1 -13 4 -22 5 -10 5 -23 0 -31 -4 -7 -4 -24 1 -37 5 -13
5 -23 0 -23 -5 0 -8 -8 -6 -17 2 -10 4 -18 5 -18 5 0 5 -58 -1 -66 -3 -6 -3
-25 1 -43 4 -17 4 -40 0 -51 -4 -11 -4 -27 1 -36 4 -8 4 -21 -1 -29 -4 -7 -4
-24 1 -37 5 -13 5 -23 0 -23 -8 0 -8 -20 -1 -40 3 -7 1 -48 -3 -88 -2 -18 0
-35 5 -38 4 -3 6 -15 3 -27 -6 -23 -6 -26 -4 -124 0 -34 -2 -67 -7 -74 -4 -8
-3 -10 4 -5 9 5 9 0 2 -18 -5 -14 -6 -28 -1 -30 5 -3 7 -18 4 -33 -9 -63 -9
-84 -1 -89 5 -3 4 -12 -2 -19 -8 -10 -8 -15 0 -20 8 -5 8 -10 0 -20 -8 -10 -8
-15 0 -20 6 -4 8 -15 5 -26 -4 -10 -6 -31 -6 -46 3 -94 3 -125 -3 -130 -3 -3
-1 -13 4 -22 5 -10 5 -23 0 -31 -4 -7 -4 -24 1 -37 5 -13 5 -23 0 -23 -5 0 -8
-8 -6 -18 2 -9 4 -17 5 -17 5 0 5 -58 -1 -66 -3 -6 -3 -25 1 -43 4 -17 4 -40
0 -51 -4 -11 -4 -27 1 -36 4 -8 4 -21 -1 -29 -4 -7 -4 -24 1 -37 5 -13 5 -23
0 -23 -10 0 -9 -18 0 -35 4 -5 5 -19 3 -30 -2 -11 -6 -45 -8 -75 -2 -30 -9
-75 -16 -100 -14 -52 -59 -140 -72 -140 -5 0 -7 -4 -4 -8 2 -4 -15 -26 -39
-47 -60 -55 -73 -65 -85 -65 -5 0 -10 -4 -10 -9 0 -5 -17 -15 -37 -22 -21 -6
-40 -15 -43 -19 -6 -9 -95 -37 -175 -55 -5 -2 -26 -5 -45 -9 -19 -3 -46 -9
-60 -13 -14 -3 -173 -7 -355 -8 -181 -1 -346 -5 -365 -9 -49 -12 -119 -72
-142 -123 -16 -36 -19 -65 -18 -190 2 -180 13 -213 94 -280 8 -7 36 -19 64
-28 43 -15 110 -16 578 -12 291 2 538 6 549 9 11 3 40 9 65 13 58 10 115 22
115 25 0 1 9 4 20 6 33 8 50 12 53 14 1 2 5 3 10 4 4 1 16 7 27 13 11 6 22 11
25 11 26 2 171 74 217 108 17 13 34 24 38 24 3 0 20 13 38 30 18 16 35 30 39
30 12 0 167 160 185 191 10 16 21 29 25 29 4 0 8 7 8 15 0 8 5 15 10 15 6 0
10 5 10 11 0 6 8 23 18 37 16 24 39 73 77 167 11 27 30 97 40 151 2 11 4 19 5
19 8 0 10 310 11 1652 l1 1562 43 43 c23 24 58 54 76 68 18 14 53 42 77 63 24
20 48 37 53 37 6 0 7 5 4 10 -3 6 -2 10 3 10 5 0 18 8 30 17 12 10 30 25 40
33 36 28 106 85 147 120 22 19 58 49 79 65 21 17 46 37 56 45 63 54 116 97
134 110 12 8 31 25 44 37 13 13 35 31 49 40 39 26 93 73 146 127 48 49 48 51
44 102 -7 73 -37 120 -120 186 -40 32 -85 69 -102 84 -50 42 -67 57 -145 119
-41 32 -80 64 -86 70 -7 5 -26 21 -44 35 -17 14 -41 33 -53 43 -12 10 -35 28
-50 40 -15 12 -37 29 -48 39 -11 9 -38 31 -59 48 -21 17 -49 41 -62 52 -13 11
-39 32 -58 47 -19 14 -37 28 -40 31 -3 3 -34 29 -70 59 -36 29 -70 63 -76 75
-8 15 -12 397 -12 1396 0 756 -3 1402 -7 1435 -7 66 -12 100 -15 100 -1 0 -3
7 -5 15 -19 97 -81 238 -148 338 -43 65 -197 232 -213 232 -4 0 -23 14 -43 30
-57 48 -60 50 -71 50 -5 0 -10 3 -10 8 0 4 -10 12 -23 18 -12 6 -44 22 -72 37
-114 60 -256 108 -363 122 -20 2 -48 8 -62 12 -42 11 -1091 13 -1130 2z"/>
<path d="M3132 8719 c-35 -13 -50 -32 -53 -65 -3 -33 7 -66 86 -289 31 -88 58
-167 60 -176 3 -15 99 -296 112 -329 4 -8 7 -17 7 -20 6 -28 32 -69 49 -78 19
-9 86 -26 186 -48 12 -2 53 -12 90 -21 80 -19 109 -24 139 -26 12 -1 22 -6 22
-11 0 -4 6 -6 14 -3 8 3 17 3 21 -1 4 -4 10 -7 13 -8 74 -10 112 -18 112 -23
0 -4 10 -8 23 -8 25 -2 81 -12 137 -26 55 -14 197 -46 220 -50 14 -3 75 -16
135 -30 100 -24 286 -66 310 -71 102 -22 132 -29 140 -30 6 -1 16 -5 23 -9 6
-5 12 -6 12 -4 0 3 17 1 38 -4 20 -6 51 -12 67 -15 17 -3 37 -8 45 -11 8 -3
26 -8 40 -10 14 -2 83 -17 153 -33 70 -17 142 -32 159 -35 17 -3 34 -8 38 -10
4 -2 21 -7 38 -10 18 -3 62 -12 99 -21 38 -9 77 -18 88 -21 11 -2 34 -6 50 -9
17 -3 44 -9 60 -14 17 -5 57 -14 90 -21 33 -7 67 -14 75 -16 8 -3 22 -5 30 -7
9 -1 21 -5 28 -10 6 -4 12 -5 12 -2 0 2 26 -2 58 -10 88 -21 234 -55 262 -60
13 -3 60 -14 105 -24 101 -24 137 -31 151 -32 7 -1 -9 -34 -35 -75 -25 -40
-50 -82 -56 -93 -5 -11 -13 -20 -17 -20 -5 0 -8 -6 -8 -14 0 -8 -6 -21 -13
-28 -17 -18 -77 -116 -77 -127 0 -5 -7 -11 -15 -15 -8 -3 -15 -10 -15 -16 0
-6 -13 -31 -30 -55 -16 -24 -30 -48 -30 -54 0 -6 -4 -11 -9 -11 -5 0 -14 -13
-21 -30 -7 -16 -16 -30 -21 -30 -4 0 -10 -8 -13 -18 -5 -16 -84 -144 -103
-167 -5 -5 -28 -43 -53 -83 -25 -40 -57 -92 -72 -115 -15 -23 -37 -59 -48 -79
-11 -21 -26 -38 -32 -38 -6 0 -9 -3 -5 -6 3 -3 -23 -51 -59 -105 -35 -55 -64
-102 -64 -105 0 -3 -5 -10 -10 -17 -22 -25 -209 -318 -243 -380 -20 -35 -33
-67 -30 -71 4 -3 2 -6 -4 -6 -5 0 -10 -6 -11 -12 0 -7 -10 -40 -22 -73 -28
-81 -38 -152 -38 -270 0 -104 21 -258 42 -307 4 -9 8 -22 10 -30 4 -25 69
-138 79 -138 6 0 8 -3 4 -6 -3 -3 -1 -11 4 -18 6 -6 50 -68 98 -138 48 -69 95
-134 104 -143 9 -9 17 -20 17 -25 0 -5 6 -15 13 -22 7 -7 55 -74 107 -148 52
-74 98 -139 102 -145 14 -17 231 -325 256 -361 30 -46 162 -230 171 -241 6 -7
11 -15 11 -18 0 -3 4 -11 10 -18 46 -57 60 -76 60 -85 0 -6 4 -12 8 -14 5 -1
35 -41 67 -88 32 -47 78 -111 102 -143 23 -31 43 -60 43 -63 0 -3 17 -28 38
-54 35 -46 126 -174 147 -209 6 -9 12 -18 15 -21 3 -3 23 -31 44 -62 69 -101
29 -93 443 -93 201 0 367 3 369 7 3 4 11 5 18 2 9 -3 17 4 22 18 13 37 10 51
-13 84 -13 17 -23 36 -23 42 0 7 -3 12 -8 12 -4 0 -18 18 -32 40 -14 22 -28
40 -32 40 -5 0 -8 5 -8 11 0 6 -20 39 -43 73 -24 33 -84 120 -132 191 -49 72
-91 132 -94 135 -4 3 -12 17 -20 33 -8 15 -18 27 -23 27 -4 0 -8 7 -8 15 0 8
-4 15 -8 15 -5 0 -15 12 -23 28 -8 15 -16 29 -19 32 -3 3 -46 64 -95 135 -49
72 -122 177 -162 235 -40 58 -76 112 -80 120 -4 8 -9 17 -13 20 -12 10 -100
141 -100 150 0 4 -4 10 -8 12 -5 2 -42 53 -82 113 -41 61 -77 112 -80 115 -3
3 -47 68 -99 145 -52 77 -98 142 -103 143 -4 2 -8 10 -8 18 0 8 -4 14 -9 14
-5 0 -11 8 -14 18 -4 9 -30 51 -60 92 -86 121 -237 346 -237 353 0 10 73 120
85 129 5 4 7 8 3 8 -4 0 9 24 28 53 50 75 49 74 104 162 27 44 54 85 59 92 6
6 19 27 30 46 10 19 44 73 75 121 31 48 56 91 56 96 0 6 4 10 9 10 5 0 11 8
15 18 3 9 28 51 55 92 27 41 73 113 102 160 29 47 55 87 59 90 4 3 10 15 14
28 4 12 11 22 14 22 4 0 16 17 27 38 11 20 22 39 26 42 3 3 22 33 43 68 21 34
44 69 52 77 9 8 13 15 9 15 -3 0 12 27 35 59 22 33 40 64 40 68 0 5 11 21 25
36 14 15 23 27 20 27 -5 0 43 79 55 90 5 4 55 84 103 165 7 11 14 22 17 25 3
3 13 19 23 35 73 122 81 213 31 361 -18 55 -34 107 -34 117 0 9 -4 17 -10 17
-5 0 -10 10 -10 23 0 13 -4 27 -10 33 -5 5 -11 21 -14 34 -2 14 -5 27 -6 30
-2 3 -2 8 -1 13 0 4 -3 7 -7 7 -4 0 -9 12 -10 27 -1 15 -7 30 -13 33 -5 4 -9
11 -8 16 1 5 0 16 -4 24 -26 67 -46 130 -41 130 3 0 -2 12 -10 28 -8 15 -28
70 -46 122 -17 52 -35 103 -40 112 -6 10 -10 26 -10 37 0 15 -13 21 -62 31
-35 7 -67 15 -73 16 -16 4 -56 13 -110 24 -27 5 -81 16 -120 25 -38 8 -79 17
-90 19 -11 3 -54 12 -95 21 -41 9 -84 18 -95 21 -11 2 -45 9 -75 16 -30 7 -63
12 -72 11 -10 0 -18 3 -18 6 0 4 -8 8 -17 9 -26 3 -76 11 -93 15 -8 2 -26 7
-40 10 -14 4 -36 9 -50 11 -14 2 -36 7 -50 10 -14 3 -37 8 -53 10 -15 3 -35 7
-45 10 -9 3 -28 7 -42 10 -14 3 -70 14 -125 26 -55 12 -109 24 -120 26 -11 2
-29 6 -40 8 -19 4 -231 50 -282 61 -13 3 -33 7 -45 10 -13 3 -77 16 -143 30
-66 14 -129 28 -140 30 -11 3 -31 7 -45 10 -14 3 -36 8 -50 11 -14 3 -34 7
-45 9 -11 2 -31 6 -45 9 -14 4 -38 9 -55 11 -16 3 -38 8 -47 11 -24 7 -58 14
-97 19 -18 3 -36 7 -40 10 -4 2 -21 6 -37 9 -16 3 -72 15 -124 26 -52 11 -115
25 -140 30 -25 5 -56 12 -70 15 -52 12 -126 27 -155 31 -16 3 -37 8 -45 11 -8
3 -24 8 -35 10 -11 2 -29 6 -40 8 -11 2 -20 4 -20 5 0 1 -13 3 -30 5 -31 4
-70 12 -70 15 0 1 -13 3 -30 5 -16 2 -52 10 -80 17 -59 14 -49 12 -105 22 -25
5 -52 10 -61 11 -8 2 -44 10 -80 19 -35 8 -111 25 -169 37 -58 11 -108 23
-111 25 -6 3 -61 13 -111 18 -10 1 -21 5 -24 9 -9 9 -13 8 -42 -4z"/>
<path d="M4038 5446 c-30 -17 -64 -63 -170 -231 -72 -115 -136 -213 -141 -216
-5 -3 -8 -9 -8 -13 1 -3 -6 -17 -14 -30 -21 -31 -36 -86 -25 -86 5 0 7 -6 4
-14 -3 -8 0 -17 5 -21 6 -3 9 -10 7 -14 -3 -4 3 -17 12 -27 17 -18 45 -57 158
-219 26 -38 51 -72 54 -75 4 -3 15 -20 25 -37 11 -18 23 -33 27 -33 4 0 8 -5
8 -10 0 -12 78 -120 95 -132 7 -5 7 -8 0 -8 -6 0 -6 -3 1 -8 6 -4 30 -36 54
-72 24 -36 51 -73 60 -83 9 -9 23 -29 31 -44 8 -15 21 -35 29 -44 8 -8 21 -24
27 -35 7 -10 62 -89 122 -174 61 -85 111 -159 112 -165 1 -5 7 -14 14 -20 7
-5 56 -73 111 -150 54 -77 102 -141 106 -143 5 -2 8 -8 8 -14 0 -6 14 -27 30
-48 17 -21 30 -41 30 -44 0 -4 11 -19 25 -34 14 -15 25 -32 25 -39 0 -6 4 -13
8 -15 9 -3 68 -84 119 -163 14 -22 29 -42 33 -45 4 -3 30 -39 58 -80 28 -41
67 -97 87 -125 19 -27 43 -61 52 -75 10 -14 41 -58 70 -97 29 -40 53 -75 53
-78 0 -3 11 -18 25 -33 14 -15 25 -31 25 -35 0 -5 6 -14 13 -21 6 -7 24 -29
39 -47 l27 -34 380 0 c230 1 384 5 390 10 4 6 11 22 15 37 5 23 -9 50 -91 170
-53 79 -100 145 -105 146 -4 2 -8 10 -8 18 0 8 -4 14 -10 14 -5 0 -10 5 -10
11 0 6 -10 24 -22 39 -13 15 -57 78 -98 140 -41 62 -80 118 -86 124 -6 7 -18
25 -27 41 -8 17 -25 40 -36 52 -12 12 -21 24 -21 27 0 8 -93 140 -105 148 -5
4 -6 8 -2 8 4 0 3 6 -3 13 -14 15 -101 142 -217 312 -48 72 -90 132 -93 135
-3 3 -33 46 -65 95 -33 50 -63 92 -67 93 -5 2 -8 8 -8 14 0 5 -6 16 -12 23
-27 30 -38 44 -38 50 0 3 -22 36 -50 74 -27 38 -50 72 -50 75 0 4 -11 19 -24
33 -14 15 -23 30 -20 35 3 4 2 8 -3 8 -4 0 -24 25 -43 55 -19 30 -38 55 -42
55 -5 0 -8 5 -8 11 0 6 -8 21 -17 34 -10 12 -24 31 -31 41 -7 11 -71 104 -142
207 -72 104 -130 191 -130 193 0 3 -5 10 -11 17 -13 15 -88 123 -239 344 -63
92 -118 170 -122 171 -4 2 -8 9 -8 15 -1 17 -47 48 -84 57 -23 5 -41 1 -68
-14z"/>
</g>
</svg>
