<svg xmlns="http://www.w3.org/2000/svg" xmlns:xlink="http://www.w3.org/1999/xlink" width="1326.426" height="903.91" viewBox="0 0 1326.426 903.91"><defs><linearGradient id="a" x1="0.5" y1="1" x2="0.5" gradientUnits="objectBoundingBox"><stop offset="0" stop-color="gray" stop-opacity="0.251"/><stop offset="0.535" stop-color="gray" stop-opacity="0.122"/><stop offset="1" stop-color="gray" stop-opacity="0.102"/></linearGradient></defs><g transform="translate(0 0)"><path d="M274.61,676.213c-9.537,36.317-42.955,59.013-42.955,59.013s-17.956-36.186-8.419-72.5,42.955-59.013,42.955-59.013S284.146,639.9,274.61,676.213Z" transform="translate(-75.485 58.123)" fill="#3f3d56"/><path d="M257.468,658.915c-26.711,26.39-29.7,66.676-29.7,66.676s40.319-2.5,67.03-28.891,29.7-66.675,29.7-66.675S284.179,632.524,257.468,658.915Z" transform="translate(-72.808 67.74)" fill="#61961f"/><rect width="145.985" height="62.122" rx="15.198" transform="translate(92.922 782.716)" fill="#61961f"/><g transform="translate(1110.805 720.649)" opacity="0.7"><path d="M1039.722,669.168V646.785H927.8V750.313a21.825,21.825,0,0,0,21.825,21.825H1017.9a21.825,21.825,0,0,0,21.825-21.825V727.368a29.1,29.1,0,1,0,0-58.2Zm0,47.007V680.36a17.908,17.908,0,0,1,0,35.815Z" transform="translate(-927.805 -646.785)" fill="url(#a)"/></g><path d="M1014.25,665.744a26.569,26.569,0,1,0,26.57,26.569A26.569,26.569,0,0,0,1014.25,665.744Zm0,42.92a16.35,16.35,0,1,1,16.35-16.35,16.35,16.35,0,0,1-16.35,16.35Z" transform="translate(204.881 80.792)" fill="#61961f"/><path d="M1014.25,665.744a26.569,26.569,0,1,0,26.57,26.569A26.569,26.569,0,0,0,1014.25,665.744Zm0,42.92a16.35,16.35,0,1,1,16.35-16.35,16.35,16.35,0,0,1-16.35,16.35Z" transform="translate(204.881 80.792)" opacity="0.1"/><path d="M818.016,531.776H920.205v101.14a13.313,13.313,0,0,1-13.313,13.313H831.329a13.313,13.313,0,0,1-13.313-13.313Z" transform="translate(298.921 194.323)" fill="#61961f"/><rect width="1326.426" height="44.964" transform="translate(0 840.551)" fill="#e0e0e0"/><g transform="translate(423.824 0)" opacity="0.7"><path d="M873.316,658.7C859.1,607.1,778.5,569.421,717.862,561.065c.008-.381.029-.758.029-1.141V515.752c.065-.024.131-.044.2-.067v-1.674a151.479,151.479,0,0,0,91.5-95.9,163.652,163.652,0,0,0,9.762-21.049c6.474-2.357,11.363-13.032,11.363-25.859a45.156,45.156,0,0,0-1.827-12.965,165.847,165.847,0,0,0,1.214-19.688,164.1,164.1,0,0,0-54.2-122.045,32.02,32.02,0,0,0,.512-8.025c-1.372-21.2-24.017-35.6-45.24-36.568a44.786,44.786,0,0,0,7.553-47.294c-13.533,19.716-41.316,21.812-65.229,21.967,10.318-4,14.961-18.293,8.96-27.589-24.992,33.5-73.712,39.7-103.439,69.082a87.2,87.2,0,0,0-16.084,21.938,164.18,164.18,0,0,0-61.88,128.534,165.976,165.976,0,0,0,1.191,19.511,45.015,45.015,0,0,0-1.884,13.143c0,12.886,4.935,23.594,11.453,25.885a163.694,163.694,0,0,0,9.807,21.119,151.448,151.448,0,0,0,90.857,95.559v46.154c0,.355.02.706.027,1.06-60.872,8.212-142.112,46.19-156.2,98.206-12.168,44.92-25.156,94.253-31.619,123.217,55.393,38.922,171.624,61.776,244.467,61.776,69.209,0,182.329-20.628,236.091-56.069C899.412,756.289,886.013,704.791,873.316,658.7Z" transform="translate(-424.678 -119)" fill="url(#a)"/></g><path d="M666.724,714.266c66.763,0,175.885-19.9,227.748-54.088-5.617-30.7-18.542-80.379-30.791-124.838-15.6-56.621-114.051-95.875-172.78-95.875H634.306c-58.912,0-157.505,39.481-172.909,96.344-11.738,43.333-24.267,90.922-30.5,118.863C484.332,692.218,596.456,714.266,666.724,714.266Z" transform="translate(1.419 -1.895)" fill="#61961f"/><circle cx="158.711" cy="158.711" r="158.711" transform="translate(505.985 65.897)" fill="#72351c"/><path d="M449.291,261.311h101.7v81.356a50.847,50.847,0,0,1-50.847,50.847h0a50.847,50.847,0,0,1-50.847-50.847V261.311Z" transform="translate(164.181 95.489)" opacity="0.1"/><path d="M463.878,258.553H536.4a14.587,14.587,0,0,1,14.587,14.587v66.769a50.847,50.847,0,0,1-50.847,50.847h0a50.847,50.847,0,0,1-50.847-50.847V273.14A14.587,14.587,0,0,1,463.878,258.553Z" transform="translate(164.181 94.481)" fill="#fda57d"/><path d="M563.709,411.7a146.362,146.362,0,0,0,101.695.281V399.491H563.709Z" transform="translate(49.952 -16.503)" opacity="0.1"/><circle cx="145.763" cy="145.763" r="145.763" transform="translate(518.933 110.483)" fill="#fda57d"/><path d="M525.046,219.38s61.43,124.694,234.719,52.262l-40.343-63.264-71.516-25.672Z" transform="translate(35.823 -95.721)" opacity="0.1"/><path d="M525.046,218.037s61.43,124.694,234.717,52.261l-40.341-63.264-71.515-25.673Z" transform="translate(35.823 -96.212)" fill="#72351c"/><path d="M525.461,228.972a84.2,84.2,0,0,1,20.871-33.948c28.676-28.341,75.674-34.325,99.783-66.641,5.789,8.968,1.31,22.759-8.643,26.614,23.068-.15,49.869-2.171,62.924-21.19a43.2,43.2,0,0,1-7.286,45.622c20.474.929,42.318,14.824,43.642,35.276.881,13.625-7.662,26.525-18.858,34.339s-24.743,11.4-38.076,14.341C640.9,271.966,500.063,307.934,525.461,228.972Z" transform="translate(34.863 -115.571)" fill="#72351c"/><path d="M785.838,307.6h-3.864l-75.183,66.931c-72.432-33.924-125.611,0-125.611,0l-78.851-64.18-7.951,1a145.75,145.75,0,1,0,291.477-3.75Zm-145.98,92.6c-28.357,0-51.344-5.747-51.344-12.836s22.988-12.836,51.344-12.836S691.2,380.281,691.2,387.37,668.215,400.206,639.858,400.206Z" transform="translate(24.617 -50.081)" fill="#72351c"/><ellipse cx="13.559" cy="25.424" rx="13.559" ry="25.424" transform="translate(505.316 230.683)" fill="#fda57d"/><ellipse cx="13.559" cy="25.424" rx="13.559" ry="25.424" transform="translate(796.88 230.683)" fill="#fda57d"/><g transform="translate(381.169 515.725)" opacity="0.7"><rect width="564.089" height="324.826" rx="14.5" fill="url(#a)"/></g><rect width="543.651" height="318.833" rx="26.835" transform="translate(391.387 521.718)" fill="#535461"/><circle cx="18.394" cy="18.394" r="18.394" transform="translate(644.819 662.741)" fill="#fff"/><rect width="1214.017" height="18.394" transform="translate(56.204 885.516)" fill="#e0e0e0"/><rect width="1214.017" height="6.131" transform="translate(56.204 885.516)" opacity="0.1"/><path d="M999,650.776V745.3a19.927,19.927,0,0,1-19.927,19.927H989.29a19.927,19.927,0,0,0,19.927-19.927V650.776Z" transform="translate(201.734 75.323)" opacity="0.1"/><path d="M948.374,595.679c-1.723.3-3.668.76-4.513,2.291-1.34,2.43,1.089,5.17,3.305,6.84,4.1,3.085,8.411,6.115,11.2,10.421s3.658,10.314.615,14.441c-3.973,5.388-13.453,6.547-14.37,13.178-.589,4.257,3.092,7.89,6.821,10.026,9.2,5.273,21.071,6.679,27.739,14.93,2.758-5.672,8.927-8.95,15.077-10.35s12.539-1.3,18.773-2.245c2.012-.307,4.28-.922,5.18-2.748,1.743-3.537-3.224-7.779-1.51-11.33,1.3-2.7,5.138-2.493,7.937-3.575,4.558-1.762,6.438-7.628,5.144-12.341s-4.948-8.4-8.79-11.415c-10.355-8.137-22.807-12.923-35.4-16.365-5.858-1.6-12.734-4.112-18.817-4.354C960.886,592.85,954.188,594.685,948.374,595.679Z" transform="translate(188.728 54.233)" fill="#eee"/></g></svg>