<svg width="259" height="171" viewBox="0 0 259 171" fill="none" xmlns="http://www.w3.org/2000/svg">
<path d="M48.1298 49.745C48.1298 49.745 44.8819 57.029 29.9019 54.481" stroke="#535461" stroke-width="2" stroke-miterlimit="10"/>
<path d="M27.5419 76.721C27.5419 76.721 39.0689 65.191 35.5419 61.003" stroke="#535461" stroke-width="2" stroke-miterlimit="10"/>
<path opacity="0.1" d="M139.816 165.63C204.922 165.63 257.701 151.497 257.701 134.062C257.701 116.627 204.922 102.494 139.816 102.494C74.7098 102.494 21.9309 116.627 21.9309 134.062C21.9309 151.497 74.7098 165.63 139.816 165.63Z" fill="#61961F"/>
<path d="M208.889 0H78.0899C65.2437 0 54.8299 10.4139 54.8299 23.26V86.865C54.8299 99.7111 65.2437 110.125 78.0899 110.125H208.889C221.735 110.125 232.149 99.7111 232.149 86.865V23.26C232.149 10.4139 221.735 0 208.889 0Z" fill="#535461"/>
<path d="M228.045 16.052H58.5639V106.017H228.045V16.052Z" fill="#F1F1F4"/>
<path d="M143.305 9.70402C144.129 9.70402 144.798 9.03558 144.798 8.21102C144.798 7.38646 144.129 6.71802 143.305 6.71802C142.48 6.71802 141.812 7.38646 141.812 8.21102C141.812 9.03558 142.48 9.70402 143.305 9.70402Z" fill="white"/>
<path d="M169.473 106.203L163.642 112.176H122.572L117.309 106.203H33.7379C33.243 106.203 32.7683 106.4 32.4184 106.75C32.0685 107.099 31.8719 107.574 31.8719 108.069V109.575C31.8719 110.947 32.1423 112.306 32.6677 113.573C33.1931 114.84 33.9632 115.992 34.9339 116.961C35.9046 117.931 37.0569 118.7 38.325 119.224C39.593 119.748 40.9518 120.017 42.3238 120.015H243.924C246.693 120.015 249.348 118.915 251.306 116.957C253.264 114.999 254.364 112.344 254.364 109.575V108.069C254.364 107.574 254.167 107.099 253.817 106.75C253.467 106.4 252.993 106.203 252.498 106.203H169.473Z" fill="#535461"/>
<path d="M115.25 22.907H68.9149V57.826H115.25V22.907Z" fill="white"/>
<path opacity="0.2" d="M88.8919 25.929H73.4479V34.658H88.8919V25.929Z" fill="#61961F"/>
<path d="M110.717 25.929H92.5859V27.944H110.717V25.929Z" fill="#E6E8EC"/>
<path d="M105.345 29.286H92.5859V31.301H105.345V29.286Z" fill="#E6E8EC"/>
<path d="M110.717 32.642H92.5859V34.657H110.717V32.642Z" fill="#E6E8EC"/>
<path d="M110.717 36.002H73.4479V38.017H110.717V36.002Z" fill="#E6E8EC"/>
<path d="M110.717 39.358H73.4479V41.373H110.717V39.358Z" fill="#E6E8EC"/>
<path d="M110.717 42.717H73.4479V44.732H110.717V42.717Z" fill="#E6E8EC"/>
<path d="M107.696 46.074H73.4479V48.089H107.696V46.074Z" fill="#E6E8EC"/>
<path d="M110.717 49.43H73.4479V51.445H110.717V49.43Z" fill="#E6E8EC"/>
<path d="M110.717 52.789H73.4479V54.804H110.717V52.789Z" fill="#E6E8EC"/>
<path d="M166.286 22.907H119.951V57.826H166.286V22.907Z" fill="white"/>
<path opacity="0.2" d="M139.925 25.929H124.481V34.658H139.925V25.929Z" fill="#61961F"/>
<path d="M161.753 25.929H143.622V27.944H161.753V25.929Z" fill="#E6E8EC"/>
<path d="M156.381 29.286H143.622V31.301H156.381V29.286Z" fill="#E6E8EC"/>
<path d="M161.753 32.642H143.622V34.657H161.753V32.642Z" fill="#E6E8EC"/>
<path d="M161.75 36.002H124.481V38.017H161.75V36.002Z" fill="#E6E8EC"/>
<path d="M161.75 39.358H124.481V41.373H161.75V39.358Z" fill="#E6E8EC"/>
<path d="M161.75 42.717H124.481V44.732H161.75V42.717Z" fill="#E6E8EC"/>
<path d="M158.729 46.074H124.481V48.089H158.729V46.074Z" fill="#E6E8EC"/>
<path d="M161.75 49.43H124.481V51.445H161.75V49.43Z" fill="#E6E8EC"/>
<path d="M161.75 52.789H124.481V54.804H161.75V52.789Z" fill="#E6E8EC"/>
<path d="M217.319 22.907H170.984V57.826H217.319V22.907Z" fill="white"/>
<path opacity="0.2" d="M190.961 25.929H175.517V34.658H190.961V25.929Z" fill="#61961F"/>
<path d="M212.786 25.929H194.655V27.944H212.786V25.929Z" fill="#E6E8EC"/>
<path d="M207.414 29.286H194.655V31.301H207.414V29.286Z" fill="#E6E8EC"/>
<path d="M212.786 32.642H194.655V34.657H212.786V32.642Z" fill="#E6E8EC"/>
<path d="M212.786 36.002H175.517V38.017H212.786V36.002Z" fill="#E6E8EC"/>
<path d="M212.786 39.358H175.517V41.373H212.786V39.358Z" fill="#E6E8EC"/>
<path d="M212.786 42.717H175.517V44.732H212.786V42.717Z" fill="#E6E8EC"/>
<path d="M209.765 46.074H175.517V48.089H209.765V46.074Z" fill="#E6E8EC"/>
<path d="M212.786 49.43H175.517V51.445H212.786V49.43Z" fill="#E6E8EC"/>
<path d="M212.786 52.789H175.517V54.804H212.786V52.789Z" fill="#E6E8EC"/>
<path d="M115.25 62.19H68.9149V97.109H115.25V62.19Z" fill="white"/>
<path opacity="0.2" d="M88.8919 65.212H73.4479V73.941H88.8919V65.212Z" fill="#61961F"/>
<path d="M110.717 65.212H92.5859V67.227H110.717V65.212Z" fill="#E6E8EC"/>
<path d="M105.345 68.571H92.5859V70.586H105.345V68.571Z" fill="#E6E8EC"/>
<path d="M110.717 71.927H92.5859V73.942H110.717V71.927Z" fill="#E6E8EC"/>
<path d="M110.717 75.284H73.4479V77.299H110.717V75.284Z" fill="#E6E8EC"/>
<path d="M110.717 78.643H73.4479V80.658H110.717V78.643Z" fill="#E6E8EC"/>
<path d="M110.717 82H73.4479V84.015H110.717V82Z" fill="#E6E8EC"/>
<path d="M107.696 85.359H73.4479V87.374H107.696V85.359Z" fill="#E6E8EC"/>
<path d="M110.717 88.715H73.4479V90.73H110.717V88.715Z" fill="#E6E8EC"/>
<path d="M110.717 92.072H73.4479V94.087H110.717V92.072Z" fill="#E6E8EC"/>
<path d="M166.286 62.19H119.951V97.109H166.286V62.19Z" fill="white"/>
<path opacity="0.2" d="M139.925 65.212H124.481V73.941H139.925V65.212Z" fill="#61961F"/>
<path d="M161.753 65.212H143.622V67.227H161.753V65.212Z" fill="#E6E8EC"/>
<path d="M156.381 68.571H143.622V70.586H156.381V68.571Z" fill="#E6E8EC"/>
<path d="M161.753 71.927H143.622V73.942H161.753V71.927Z" fill="#E6E8EC"/>
<path d="M161.75 75.284H124.481V77.299H161.75V75.284Z" fill="#E6E8EC"/>
<path d="M161.75 78.643H124.481V80.658H161.75V78.643Z" fill="#E6E8EC"/>
<path d="M161.75 82H124.481V84.015H161.75V82Z" fill="#E6E8EC"/>
<path d="M158.729 85.359H124.481V87.374H158.729V85.359Z" fill="#E6E8EC"/>
<path d="M161.75 88.715H124.481V90.73H161.75V88.715Z" fill="#E6E8EC"/>
<path d="M161.75 92.072H124.481V94.087H161.75V92.072Z" fill="#E6E8EC"/>
<path opacity="0.1" d="M217.319 62.19H170.984V97.109H217.319V62.19Z" fill="black"/>
<path d="M95.2229 34.658H23.7309C22.87 34.6563 22.0173 34.8244 21.2215 35.1525C20.4257 35.4807 19.7024 35.9626 19.093 36.5706C18.4836 37.1786 18.0001 37.9008 17.6701 38.6958C17.3401 39.4909 17.1701 40.3432 17.1699 41.2041V140.263C17.1708 141.123 17.3412 141.975 17.6713 142.769C18.0014 143.563 18.4847 144.285 19.0937 144.892C19.7027 145.5 20.4255 145.981 21.2206 146.309C22.0157 146.637 22.8677 146.805 23.7279 146.804H95.2198C96.08 146.805 96.932 146.637 97.7271 146.309C98.5223 145.981 99.245 145.5 99.854 144.892C100.463 144.285 100.946 143.563 101.276 142.769C101.607 141.975 101.777 141.123 101.778 140.263V41.2041C101.778 40.3437 101.608 39.4917 101.278 38.697C100.948 37.9023 100.465 37.1803 99.8565 36.5724C99.2476 35.9644 98.5249 35.4824 97.7297 35.154C96.9344 34.8255 96.0823 34.657 95.2219 34.658H95.2229Z" fill="url(#paint0_linear)"/>
<path d="M80.7749 36.002H38.1789C27.1332 36.002 18.1789 44.9563 18.1789 56.002V125.795C18.1789 136.841 27.1332 145.795 38.1789 145.795H80.7749C91.8205 145.795 100.775 136.841 100.775 125.795V56.002C100.775 44.9563 91.8205 36.002 80.7749 36.002Z" fill="#535461"/>
<path d="M96.5769 46.388H22.3749V135.41H96.5769V46.388Z" fill="#F1F1F4"/>
<path d="M59.1389 42.044C59.6944 42.044 60.1449 41.5936 60.1449 41.038C60.1449 40.4824 59.6944 40.032 59.1389 40.032C58.5833 40.032 58.1329 40.4824 58.1329 41.038C58.1329 41.5936 58.5833 42.044 59.1389 42.044Z" fill="white"/>
<path d="M59.1399 143.445C60.8089 143.445 62.1619 142.092 62.1619 140.423C62.1619 138.754 60.8089 137.401 59.1399 137.401C57.4708 137.401 56.1179 138.754 56.1179 140.423C56.1179 142.092 57.4708 143.445 59.1399 143.445Z" fill="white"/>
<path d="M46.7459 55.484H25.5819V71.435H46.7459V55.484Z" fill="white"/>
<path opacity="0.2" d="M34.7079 56.866H27.6529V60.854H34.7079V56.866Z" fill="#61961F"/>
<path d="M44.6759 56.866H36.3939V57.786H44.6759V56.866Z" fill="#E6E8EC"/>
<path d="M42.2219 58.4H36.3939V59.32H42.2219V58.4Z" fill="#E6E8EC"/>
<path d="M44.6759 59.934H36.3939V60.854H44.6759V59.934Z" fill="#E6E8EC"/>
<path d="M44.6769 61.467H27.6529V62.387H44.6769V61.467Z" fill="#E6E8EC"/>
<path d="M44.6769 63.001H27.6529V63.921H44.6769V63.001Z" fill="#E6E8EC"/>
<path d="M44.6769 64.535H27.6529V65.455H44.6769V64.535Z" fill="#E6E8EC"/>
<path d="M43.2969 66.069H27.6529V66.989H43.2969V66.069Z" fill="#E6E8EC"/>
<path d="M44.6769 67.602H27.6529V68.522H44.6769V67.602Z" fill="#E6E8EC"/>
<path d="M44.6769 69.136H27.6529V70.056H44.6769V69.136Z" fill="#E6E8EC"/>
<path d="M70.0589 55.484H48.8949V71.435H70.0589V55.484Z" fill="white"/>
<path opacity="0.2" d="M58.0189 56.866H50.9639V60.854H58.0189V56.866Z" fill="#61961F"/>
<path d="M67.9899 56.866H59.7079V57.786H67.9899V56.866Z" fill="#E6E8EC"/>
<path d="M65.5359 58.4H59.7079V59.32H65.5359V58.4Z" fill="#E6E8EC"/>
<path d="M67.9899 59.934H59.7079V60.854H67.9899V59.934Z" fill="#E6E8EC"/>
<path d="M67.9879 61.467H50.9639V62.387H67.9879V61.467Z" fill="#E6E8EC"/>
<path d="M67.9879 63.001H50.9639V63.921H67.9879V63.001Z" fill="#E6E8EC"/>
<path d="M67.9879 64.535H50.9639V65.455H67.9879V64.535Z" fill="#E6E8EC"/>
<path d="M66.6079 66.069H50.9639V66.989H66.6079V66.069Z" fill="#E6E8EC"/>
<path d="M67.9879 67.602H50.9639V68.522H67.9879V67.602Z" fill="#E6E8EC"/>
<path d="M67.9879 69.136H50.9639V70.056H67.9879V69.136Z" fill="#E6E8EC"/>
<path d="M93.3699 55.484H72.2059V71.435H93.3699V55.484Z" fill="white"/>
<path opacity="0.2" d="M81.3319 56.866H74.2769V60.854H81.3319V56.866Z" fill="#61961F"/>
<path d="M91.3009 56.866H83.0189V57.786H91.3009V56.866Z" fill="#E6E8EC"/>
<path d="M88.8469 58.4H83.0189V59.32H88.8469V58.4Z" fill="#E6E8EC"/>
<path d="M91.3009 59.934H83.0189V60.854H91.3009V59.934Z" fill="#E6E8EC"/>
<path d="M91.3009 61.467H74.2769V62.387H91.3009V61.467Z" fill="#E6E8EC"/>
<path d="M91.3009 63.001H74.2769V63.921H91.3009V63.001Z" fill="#E6E8EC"/>
<path d="M91.3009 64.535H74.2769V65.455H91.3009V64.535Z" fill="#E6E8EC"/>
<path d="M89.9209 66.069H74.2769V66.989H89.9209V66.069Z" fill="#E6E8EC"/>
<path d="M91.3009 67.602H74.2769V68.522H91.3009V67.602Z" fill="#E6E8EC"/>
<path d="M91.3009 69.136H74.2769V70.056H91.3009V69.136Z" fill="#E6E8EC"/>
<path d="M46.7459 73.428H25.5819V89.379H46.7459V73.428Z" fill="white"/>
<path opacity="0.2" d="M34.7079 74.81H27.6529V78.798H34.7079V74.81Z" fill="#61961F"/>
<path d="M44.6759 74.81H36.3939V75.73H44.6759V74.81Z" fill="#E6E8EC"/>
<path d="M42.2219 76.344H36.3939V77.264H42.2219V76.344Z" fill="#E6E8EC"/>
<path d="M44.6759 77.877H36.3939V78.797H44.6759V77.877Z" fill="#E6E8EC"/>
<path d="M44.6769 79.411H27.6529V80.331H44.6769V79.411Z" fill="#E6E8EC"/>
<path d="M44.6769 80.945H27.6529V81.865H44.6769V80.945Z" fill="#E6E8EC"/>
<path d="M44.6769 82.479H27.6529V83.399H44.6769V82.479Z" fill="#E6E8EC"/>
<path d="M43.2969 84.013H27.6529V84.933H43.2969V84.013Z" fill="#E6E8EC"/>
<path d="M44.6769 85.546H27.6529V86.466H44.6769V85.546Z" fill="#E6E8EC"/>
<path d="M44.6769 87.08H27.6529V88H44.6769V87.08Z" fill="#E6E8EC"/>
<path d="M70.0589 73.428H48.8949V89.379H70.0589V73.428Z" fill="white"/>
<path opacity="0.2" d="M58.0189 74.81H50.9639V78.798H58.0189V74.81Z" fill="#61961F"/>
<path d="M67.9899 74.81H59.7079V75.73H67.9899V74.81Z" fill="#E6E8EC"/>
<path d="M65.5359 76.344H59.7079V77.264H65.5359V76.344Z" fill="#E6E8EC"/>
<path d="M67.9899 77.877H59.7079V78.797H67.9899V77.877Z" fill="#E6E8EC"/>
<path d="M67.9879 79.411H50.9639V80.331H67.9879V79.411Z" fill="#E6E8EC"/>
<path d="M67.9879 80.945H50.9639V81.865H67.9879V80.945Z" fill="#E6E8EC"/>
<path d="M67.9879 82.479H50.9639V83.399H67.9879V82.479Z" fill="#E6E8EC"/>
<path d="M66.6079 84.013H50.9639V84.933H66.6079V84.013Z" fill="#E6E8EC"/>
<path d="M67.9879 85.546H50.9639V86.466H67.9879V85.546Z" fill="#E6E8EC"/>
<path d="M67.9879 87.08H50.9639V88H67.9879V87.08Z" fill="#E6E8EC"/>
<path d="M93.3699 73.428H72.2059V89.379H93.3699V73.428Z" fill="white"/>
<path opacity="0.2" d="M81.3319 74.81H74.2769V78.798H81.3319V74.81Z" fill="#61961F"/>
<path d="M91.3009 74.81H83.0189V75.73H91.3009V74.81Z" fill="#E6E8EC"/>
<path d="M88.8469 76.344H83.0189V77.264H88.8469V76.344Z" fill="#E6E8EC"/>
<path d="M91.3009 77.877H83.0189V78.797H91.3009V77.877Z" fill="#E6E8EC"/>
<path d="M91.3009 79.411H74.2769V80.331H91.3009V79.411Z" fill="#E6E8EC"/>
<path d="M91.3009 80.945H74.2769V81.865H91.3009V80.945Z" fill="#E6E8EC"/>
<path d="M91.3009 82.479H74.2769V83.399H91.3009V82.479Z" fill="#E6E8EC"/>
<path d="M89.9209 84.013H74.2769V84.933H89.9209V84.013Z" fill="#E6E8EC"/>
<path d="M91.3009 85.546H74.2769V86.466H91.3009V85.546Z" fill="#E6E8EC"/>
<path d="M91.3009 87.08H74.2769V88H91.3009V87.08Z" fill="#E6E8EC"/>
<path d="M46.7459 92.082H25.5819V108.033H46.7459V92.082Z" fill="white"/>
<path opacity="0.2" d="M34.7079 93.464H27.6529V97.452H34.7079V93.464Z" fill="#61961F"/>
<path d="M44.6759 93.464H36.3939V94.384H44.6759V93.464Z" fill="#E6E8EC"/>
<path d="M42.2219 94.997H36.3939V95.917H42.2219V94.997Z" fill="#E6E8EC"/>
<path d="M44.6759 96.531H36.3939V97.451H44.6759V96.531Z" fill="#E6E8EC"/>
<path d="M44.6769 98.065H27.6529V98.985H44.6769V98.065Z" fill="#E6E8EC"/>
<path d="M44.6769 99.599H27.6529V100.519H44.6769V99.599Z" fill="#E6E8EC"/>
<path d="M44.6769 101.132H27.6529V102.052H44.6769V101.132Z" fill="#E6E8EC"/>
<path d="M43.2969 102.666H27.6529V103.586H43.2969V102.666Z" fill="#E6E8EC"/>
<path d="M44.6769 104.2H27.6529V105.12H44.6769V104.2Z" fill="#E6E8EC"/>
<path d="M44.6769 105.734H27.6529V106.654H44.6769V105.734Z" fill="#E6E8EC"/>
<path d="M70.0589 92.082H48.8949V108.033H70.0589V92.082Z" fill="white"/>
<path opacity="0.2" d="M58.0189 93.464H50.9639V97.452H58.0189V93.464Z" fill="#61961F"/>
<path d="M67.9899 93.464H59.7079V94.384H67.9899V93.464Z" fill="#E6E8EC"/>
<path d="M65.5359 94.997H59.7079V95.917H65.5359V94.997Z" fill="#E6E8EC"/>
<path d="M67.9899 96.531H59.7079V97.451H67.9899V96.531Z" fill="#E6E8EC"/>
<path d="M67.9879 98.065H50.9639V98.985H67.9879V98.065Z" fill="#E6E8EC"/>
<path d="M67.9879 99.599H50.9639V100.519H67.9879V99.599Z" fill="#E6E8EC"/>
<path d="M67.9879 101.132H50.9639V102.052H67.9879V101.132Z" fill="#E6E8EC"/>
<path d="M66.6079 102.666H50.9639V103.586H66.6079V102.666Z" fill="#E6E8EC"/>
<path d="M67.9879 104.2H50.9639V105.12H67.9879V104.2Z" fill="#E6E8EC"/>
<path d="M67.9879 105.734H50.9639V106.654H67.9879V105.734Z" fill="#E6E8EC"/>
<path d="M93.3699 92.082H72.2059V108.033H93.3699V92.082Z" fill="white"/>
<path opacity="0.2" d="M81.3319 93.464H74.2769V97.452H81.3319V93.464Z" fill="#61961F"/>
<path d="M91.3009 93.464H83.0189V94.384H91.3009V93.464Z" fill="#E6E8EC"/>
<path d="M88.8469 94.997H83.0189V95.917H88.8469V94.997Z" fill="#E6E8EC"/>
<path d="M91.3009 96.531H83.0189V97.451H91.3009V96.531Z" fill="#E6E8EC"/>
<path d="M91.3009 98.065H74.2769V98.985H91.3009V98.065Z" fill="#E6E8EC"/>
<path d="M91.3009 99.599H74.2769V100.519H91.3009V99.599Z" fill="#E6E8EC"/>
<path d="M91.3009 101.132H74.2769V102.052H91.3009V101.132Z" fill="#E6E8EC"/>
<path d="M89.9209 102.666H74.2769V103.586H89.9209V102.666Z" fill="#E6E8EC"/>
<path d="M91.3009 104.2H74.2769V105.12H91.3009V104.2Z" fill="#E6E8EC"/>
<path d="M91.3009 105.734H74.2769V106.654H91.3009V105.734Z" fill="#E6E8EC"/>
<path d="M46.7459 110.026H25.5819V125.977H46.7459V110.026Z" fill="white"/>
<path opacity="0.2" d="M34.7079 111.407H27.6529V115.395H34.7079V111.407Z" fill="#61961F"/>
<path d="M44.6759 111.407H36.3939V112.327H44.6759V111.407Z" fill="#E6E8EC"/>
<path d="M42.2219 112.941H36.3939V113.861H42.2219V112.941Z" fill="#E6E8EC"/>
<path d="M44.6759 114.475H36.3939V115.395H44.6759V114.475Z" fill="#E6E8EC"/>
<path d="M44.6769 116.009H27.6529V116.929H44.6769V116.009Z" fill="#E6E8EC"/>
<path d="M44.6769 117.543H27.6529V118.463H44.6769V117.543Z" fill="#E6E8EC"/>
<path d="M44.6769 119.076H27.6529V119.996H44.6769V119.076Z" fill="#E6E8EC"/>
<path d="M43.2969 120.61H27.6529V121.53H43.2969V120.61Z" fill="#E6E8EC"/>
<path d="M44.6769 122.144H27.6529V123.064H44.6769V122.144Z" fill="#E6E8EC"/>
<path d="M44.6769 123.678H27.6529V124.598H44.6769V123.678Z" fill="#E6E8EC"/>
<path d="M70.0589 110.026H48.8949V125.977H70.0589V110.026Z" fill="white"/>
<path opacity="0.2" d="M58.0189 111.407H50.9639V115.395H58.0189V111.407Z" fill="#61961F"/>
<path d="M67.9899 111.407H59.7079V112.327H67.9899V111.407Z" fill="#E6E8EC"/>
<path d="M65.5359 112.941H59.7079V113.861H65.5359V112.941Z" fill="#E6E8EC"/>
<path d="M67.9899 114.475H59.7079V115.395H67.9899V114.475Z" fill="#E6E8EC"/>
<path d="M67.9879 116.009H50.9639V116.929H67.9879V116.009Z" fill="#E6E8EC"/>
<path d="M67.9879 117.543H50.9639V118.463H67.9879V117.543Z" fill="#E6E8EC"/>
<path d="M67.9879 119.076H50.9639V119.996H67.9879V119.076Z" fill="#E6E8EC"/>
<path d="M66.6079 120.61H50.9639V121.53H66.6079V120.61Z" fill="#E6E8EC"/>
<path d="M67.9879 122.144H50.9639V123.064H67.9879V122.144Z" fill="#E6E8EC"/>
<path d="M67.9879 123.678H50.9639V124.598H67.9879V123.678Z" fill="#E6E8EC"/>
<path opacity="0.1" d="M93.3699 110.026H72.2059V125.977H93.3699V110.026Z" fill="black"/>
<path d="M40.7289 68.234H4.02185C3.54507 68.233 3.07275 68.3259 2.63187 68.5074C2.19099 68.6889 1.79019 68.9555 1.45235 69.2919C1.11452 69.6284 0.846277 70.0281 0.662941 70.4682C0.479605 70.9083 0.384768 71.3803 0.38385 71.857V152.244C0.384768 152.721 0.479605 153.193 0.662941 153.633C0.846277 154.073 1.11452 154.473 1.45235 154.809C1.79019 155.146 2.19099 155.412 2.63187 155.594C3.07275 155.775 3.54507 155.868 4.02185 155.867H40.7309C41.2076 155.868 41.68 155.775 42.1208 155.594C42.5617 155.412 42.9625 155.146 43.3004 154.809C43.6382 154.473 43.9064 154.073 44.0898 153.633C44.2731 153.193 44.3679 152.721 44.3689 152.244V71.859C44.3682 71.3819 44.2735 70.9096 44.0901 70.4691C43.9068 70.0286 43.6384 69.6286 43.3004 69.2919C42.9623 68.9552 42.5611 68.6885 42.1199 68.507C41.6787 68.3255 41.206 68.2327 40.7289 68.234Z" fill="url(#paint1_linear)"/>
<path d="M33.0329 68.908H11.7199C5.64472 68.908 0.719852 73.8329 0.719852 79.908V144.535C0.719852 150.61 5.64472 155.535 11.7199 155.535H33.0329C39.108 155.535 44.0329 150.61 44.0329 144.535V79.908C44.0329 73.8329 39.108 68.908 33.0329 68.908Z" fill="#535461"/>
<path d="M40.8409 76.965H3.90885V147.473H40.8409V76.965Z" fill="#F1F1F4"/>
<path d="M18.0099 73.272C18.1949 73.272 18.3449 73.122 18.3449 72.937C18.3449 72.752 18.1949 72.602 18.0099 72.602C17.8248 72.602 17.6749 72.752 17.6749 72.937C17.6749 73.122 17.8248 73.272 18.0099 73.272Z" fill="white"/>
<path d="M26.7409 72.599H20.0259C19.8403 72.599 19.6899 72.7494 19.6899 72.935C19.6899 73.1206 19.8403 73.271 20.0259 73.271H26.7409C26.9264 73.271 27.0769 73.1206 27.0769 72.935C27.0769 72.7494 26.9264 72.599 26.7409 72.599Z" fill="white"/>
<path d="M22.2069 153.182C23.5047 153.182 24.5569 152.13 24.5569 150.832C24.5569 149.534 23.5047 148.482 22.2069 148.482C20.909 148.482 19.8569 149.534 19.8569 150.832C19.8569 152.13 20.909 153.182 22.2069 153.182Z" fill="white"/>
<path opacity="0.1" d="M34.9669 81.186H9.78285V100.167H34.9669V81.186Z" fill="black"/>
<path d="M34.9669 102.539H9.78285V121.52H34.9669V102.539Z" fill="white"/>
<path opacity="0.2" d="M20.6409 104.182H12.2469V108.928H20.6409V104.182Z" fill="#61961F"/>
<path d="M32.5029 104.182H22.6489V105.277H32.5029V104.182Z" fill="#E6E8EC"/>
<path d="M29.5849 106.008H22.6489V107.103H29.5849V106.008Z" fill="#E6E8EC"/>
<path d="M32.5029 107.83H22.6489V108.925H32.5029V107.83Z" fill="#E6E8EC"/>
<path d="M32.5049 109.656H12.2469V110.751H32.5049V109.656Z" fill="#E6E8EC"/>
<path d="M32.5049 111.481H12.2469V112.576H32.5049V111.481Z" fill="#E6E8EC"/>
<path d="M32.5049 113.306H12.2469V114.401H32.5049V113.306Z" fill="#E6E8EC"/>
<path d="M30.8629 115.132H12.2469V116.227H30.8629V115.132Z" fill="#E6E8EC"/>
<path d="M32.5049 116.957H12.2469V118.052H32.5049V116.957Z" fill="#E6E8EC"/>
<path d="M32.5049 118.782H12.2469V119.877H32.5049V118.782Z" fill="#E6E8EC"/>
<path d="M34.9669 123.936H9.78285V142.917H34.9669V123.936Z" fill="white"/>
<path opacity="0.2" d="M20.6409 125.579H12.2469V130.325H20.6409V125.579Z" fill="#61961F"/>
<path d="M32.5029 125.579H22.6489V126.674H32.5029V125.579Z" fill="#E6E8EC"/>
<path d="M29.5849 127.404H22.6489V128.499H29.5849V127.404Z" fill="#E6E8EC"/>
<path d="M32.5029 129.23H22.6489V130.325H32.5029V129.23Z" fill="#E6E8EC"/>
<path d="M32.5049 131.055H12.2469V132.15H32.5049V131.055Z" fill="#E6E8EC"/>
<path d="M32.5049 132.88H12.2469V133.975H32.5049V132.88Z" fill="#E6E8EC"/>
<path d="M32.5049 134.706H12.2469V135.801H32.5049V134.706Z" fill="#E6E8EC"/>
<path d="M30.8629 136.531H12.2469V137.626H30.8629V136.531Z" fill="#E6E8EC"/>
<path d="M32.5049 138.354H12.2469V139.449H32.5049V138.354Z" fill="#E6E8EC"/>
<path d="M32.5049 140.179H12.2469V141.274H32.5049V140.179Z" fill="#E6E8EC"/>
<path d="M120.978 132.903C119.278 130.837 117.211 128.461 117.5 125.711C117.733 123.483 117.173 121.424 117.285 119.191C117.442 116.017 116.801 113.53 114.514 111.491C113.178 110.302 110.944 109.367 110.28 109.605C108.962 110.077 107.524 109.897 106.168 110.213C105.365 110.354 104.62 110.728 104.028 111.288C103.646 111.675 103.395 112.172 103.309 112.708C103.223 113.245 103.307 113.795 103.549 114.282C103.208 114.905 103.001 115.593 102.944 116.3C102.886 117.008 102.978 117.72 103.214 118.39C103.45 119.06 103.824 119.673 104.313 120.188C104.801 120.704 105.393 121.11 106.049 121.382C105.098 121.782 104.274 122.693 103.958 124.548C103.732 125.823 103.393 127.075 102.944 128.29C102.742 128.386 102.536 128.47 102.325 128.543C102.371 128.561 102.419 128.573 102.467 128.591C102.367 128.629 102.267 128.667 102.167 128.703C102.349 128.774 102.538 128.828 102.73 128.865C102.038 130.66 101.109 132.354 99.9669 133.902C99.9669 133.902 97.0969 134.536 95.9819 133.428C95.9819 133.428 96.1649 133.641 96.4099 133.96C95.3169 133.506 93.5279 132.768 91.9959 132.16C90.8859 131.719 90.5959 132.16 90.6139 132.774C90.3408 132.806 90.0769 132.892 89.8379 133.028C89.5098 132.817 89.1657 132.632 88.8089 132.475C88.1699 132.318 86.0989 131.207 84.0249 135.01C81.9999 138.23 79.7685 141.316 77.3449 144.248C72.7179 146.375 66.6969 149.065 64.4609 149.748H63.0309C62.8429 149.441 62.7119 149.241 62.7119 149.241L62.5999 149.314L62.5519 149.241C60.8614 150.375 58.9059 151.052 56.8759 151.206C56.4689 151.199 56.064 151.147 55.6689 151.049C54.7253 150.774 53.7511 150.617 52.7689 150.583C52.4953 150.542 52.2159 150.569 51.9547 150.659C51.6934 150.75 51.4581 150.903 51.2689 151.105C51.2325 151.151 51.1991 151.199 51.1689 151.249C51.1381 151.301 51.11 151.354 51.0849 151.409C51.0599 151.465 51.0369 151.523 51.0139 151.584C51.005 151.637 51.0084 151.692 51.0239 151.744C51.0393 151.796 51.0663 151.844 51.1029 151.884C51.1409 151.939 51.1823 151.991 51.2269 152.041L51.3059 152.127C51.8723 152.654 52.4859 153.129 53.1389 153.544C53.3749 153.704 53.6229 153.866 53.8839 154.033L54.3779 154.347L54.8189 154.623L54.9959 154.732L55.1959 154.854L55.5479 155.07L55.7579 155.197L56.1579 155.433L56.4769 155.623C57.3139 156.13 58.1499 156.597 58.9009 157.023L59.4279 157.323L59.4789 157.351L59.8159 157.539L60.4019 157.864L60.8019 158.085L60.9899 158.185L61.1899 158.294L61.2309 158.317L61.5809 158.507C61.6529 158.519 61.7267 158.515 61.7971 158.496C61.8675 158.476 61.9329 158.442 61.9889 158.395C62.0889 157.964 62.3389 157.041 62.6029 156.97C63.421 155.962 64.0149 154.792 64.3449 153.537H67.4559C68.0674 153.486 68.6747 153.394 69.2739 153.261C68.9751 153.533 68.6248 153.741 68.2438 153.875C67.8628 154.009 67.4588 154.064 67.0559 154.039C66.5327 153.874 65.9664 153.913 65.4707 154.148C64.975 154.383 64.5868 154.797 64.3839 155.307L64.3689 155.355V155.72C64.3672 155.742 64.3724 155.764 64.3839 155.783C64.3989 155.803 64.3839 155.811 64.3839 155.824C64.3933 155.852 64.4043 155.879 64.4169 155.905V155.925C64.4339 155.96 64.4532 155.993 64.4749 156.025L64.4999 156.058L64.5509 156.121L64.5859 156.157L64.6439 156.213L64.6869 156.249L64.7549 156.3L64.8059 156.333L64.8899 156.381L64.9459 156.411L65.0459 156.459L65.0989 156.482C65.1549 156.505 65.2129 156.528 65.2759 156.548C65.3389 156.568 65.4939 156.614 65.6279 156.648L65.7619 156.681L65.9619 156.727L66.0619 156.75L66.4879 156.836L66.6959 156.874L66.8659 156.904L67.2559 156.972L68.0169 157.096L68.6889 157.196L69.5639 157.32L69.7569 157.345L70.0709 157.388L70.5219 157.449L70.8309 157.49L71.6309 157.59L71.8849 157.62L72.3919 157.681C73.0539 157.76 73.6919 157.836 74.2829 157.902L74.9649 157.978L75.3099 158.016L75.4569 158.031L75.8699 158.077L76.1009 158.102L76.3819 158.132L76.7819 158.173H76.8249L77.0789 158.198C77.1106 158.201 77.1428 158.198 77.1732 158.188C77.2035 158.178 77.2316 158.162 77.2555 158.141C77.2793 158.119 77.2985 158.094 77.3119 158.064C77.3252 158.035 77.3323 158.004 77.3329 157.972V157.947C77.357 157.911 77.3702 157.868 77.3709 157.825C77.3773 157.446 77.4249 157.068 77.5129 156.699C77.5309 156.636 77.5509 156.57 77.5709 156.506L77.5958 156.432C77.6238 156.353 77.6519 156.275 77.6849 156.194C77.7074 156.137 77.7267 156.078 77.7429 156.019L77.7579 155.963C77.7619 155.929 77.7697 155.895 77.7809 155.863C77.9458 154.55 77.886 153.219 77.6039 151.926C77.5688 151.668 77.5102 151.413 77.4289 151.166C77.4491 151.168 77.4696 151.168 77.4899 151.166C77.6551 151.104 77.8104 151.019 77.9509 150.912C80.3009 150.073 82.2859 149.112 82.9119 148.154C83.9304 147.883 85.013 147.996 85.9538 148.471C87.1708 149.077 96.3809 152.081 100.671 153.471C101.432 154.135 102.045 154.523 102.377 154.485C102.377 154.485 107.835 155.367 110.031 153.643C110.231 153.777 110.348 153.851 110.348 153.851C110.348 153.851 113.537 152.267 114.016 150.208C114.171 149.541 114.31 148.555 114.452 147.465C115.192 146.72 115.608 145.714 115.611 144.665C115.711 141.204 117.051 137.252 118.045 133.731C119.024 133.824 120.007 133.585 120.834 133.052L120.786 132.989L120.978 132.903ZM102.694 138.085L102.086 137.88C102.292 137.605 102.47 137.309 102.616 136.998L102.694 138.085ZM99.2609 139.54L102.961 141.758L102.994 142.209C102.949 142.552 102.959 142.901 103.024 143.241C101.66 142.127 100.402 140.888 99.2669 139.541L99.2609 139.54ZM97.7489 136.31C97.3489 136.143 97.0109 135.993 96.7829 135.869L97.6399 135.922C97.6908 136.047 97.7283 136.177 97.7519 136.31H97.7489ZM87.8619 139.923C87.8619 139.923 88.5009 138.498 89.9359 140.874C90.1589 141.244 90.5699 141.83 91.1119 142.56L86.9389 142C87.3724 141.372 87.6838 140.667 87.8569 139.924L87.8619 139.923Z" fill="url(#paint2_linear)"/>
<path d="M97.0459 134.196C97.0459 134.196 94.1199 132.964 91.8129 132.041C89.5059 131.118 90.8898 134.196 90.8898 134.196C92.194 134.536 93.4786 134.948 94.7378 135.428C95.8065 135.607 96.8866 135.709 97.9699 135.735L97.0459 134.196Z" fill="#F7C4A7"/>
<path opacity="0.05" d="M97.0459 134.196C97.0459 134.196 94.1199 132.964 91.8129 132.041C89.5059 131.118 90.8898 134.196 90.8898 134.196C92.194 134.536 93.4786 134.948 94.7378 135.428C95.8065 135.607 96.8866 135.709 97.9699 135.735L97.0459 134.196Z" fill="black"/>
<path d="M109.506 122.037C109.506 122.037 104.273 119.266 103.348 124.653C102.772 127.932 101.458 131.038 99.5069 133.736C99.5069 133.736 96.7359 134.352 95.6589 133.275C95.6589 133.275 98.2749 136.353 97.0429 136.662C97.0429 136.662 99.8139 138.662 101.043 138.046C102.272 137.43 103.198 133.275 103.659 132.197C104.12 131.119 105.817 121.728 109.506 122.037Z" fill="#575988"/>
<path opacity="0.1" d="M109.506 122.037C109.506 122.037 104.273 119.266 103.348 124.653C102.772 127.932 101.458 131.038 99.5069 133.736C99.5069 133.736 96.7359 134.352 95.6589 133.275C95.6589 133.275 98.2749 136.353 97.0429 136.662C97.0429 136.662 99.8139 138.662 101.043 138.046C102.272 137.43 103.198 133.275 103.659 132.197C104.12 131.119 105.817 121.728 109.506 122.037Z" fill="black"/>
<path d="M106.588 120.189C106.588 120.189 109.82 123.883 109.975 126.96C110.13 130.037 113.669 123.728 113.975 123.573C114.281 123.418 110.895 118.188 110.585 116.497C110.275 114.806 106.588 120.189 106.588 120.189Z" fill="#F7C4A7"/>
<path d="M108.821 121.769L106.783 123.615L107.744 127.501L110.36 125.039L110.053 122.577L108.821 121.769Z" fill="#F7C4A7"/>
<path d="M66.2608 149.128H62.7218L64.1059 152.512L67.4928 151.589L66.2608 149.128Z" fill="#F7C4A7"/>
<path opacity="0.1" d="M63.5389 148.639C63.5389 148.639 59.8779 151.192 56.7389 150.396C53.5999 149.6 52.7559 149.889 52.3909 150.926C52.0539 151.869 61.1399 156.861 62.5909 157.649C62.6137 157.664 62.64 157.673 62.6673 157.676C62.6947 157.678 62.7222 157.674 62.7474 157.663C62.7726 157.652 62.7947 157.636 62.8117 157.614C62.8288 157.592 62.8402 157.567 62.8449 157.54C62.9449 157.122 63.1819 156.224 63.4359 156.156C64.3835 154.996 64.9972 153.6 65.2109 152.117C65.1329 150.999 63.5389 148.639 63.5389 148.639Z" fill="black"/>
<path d="M63.3869 148.639C63.3869 148.639 59.7259 151.192 56.5869 150.396C53.4479 149.6 52.6039 149.889 52.2389 150.926C51.9019 151.869 60.9879 156.861 62.4389 157.649C62.4617 157.664 62.488 157.673 62.5153 157.676C62.5427 157.678 62.5702 157.674 62.5954 157.663C62.6206 157.652 62.6427 157.636 62.6598 157.614C62.6768 157.592 62.6882 157.567 62.6929 157.54C62.7929 157.122 63.0299 156.224 63.2839 156.156C64.2316 154.996 64.8452 153.6 65.0589 152.117C64.9809 150.999 63.3869 148.639 63.3869 148.639Z" fill="#F3B5B7"/>
<path d="M93.6588 142.509L83.3459 141.125C83.3459 141.125 66.5678 149.125 64.5678 149.283L65.0288 152.832H68.1068C69.3388 152.832 81.3429 150.216 83.0369 147.599C84.0168 147.338 85.0585 147.447 85.9629 147.906C87.5019 148.667 102.279 153.448 102.279 153.448L93.6588 142.509Z" fill="#575988"/>
<path opacity="0.1" d="M93.6588 142.509L83.3459 141.125C83.3459 141.125 66.5678 149.125 64.5678 149.283L65.0288 152.832H68.1068C69.3388 152.832 81.3429 150.216 83.0369 147.599C84.0168 147.338 85.0585 147.447 85.9629 147.906C87.5019 148.667 102.279 153.448 102.279 153.448L93.6588 142.509Z" fill="black"/>
<path d="M75.3419 147.28L73.6489 149.435L75.3419 150.358L77.8059 148.512L75.3419 147.28Z" fill="#F7C4A7"/>
<path d="M104.74 144.816C104.74 144.816 99.2028 140.075 98.8148 139.216C98.4268 138.357 89.3488 132.508 88.7328 132.353C88.1168 132.198 86.1169 131.121 84.1159 134.815C82.1149 138.509 74.7359 147.435 74.7359 147.435C74.7359 147.435 77.0459 150.667 77.8139 150.513C78.5819 150.359 87.1939 143.126 87.8139 139.584C87.8139 139.584 88.4299 138.2 89.8139 140.507C91.1979 142.814 100.127 153.898 101.821 153.743C101.821 153.743 108.44 154.82 109.821 152.204C111.202 149.588 104.74 144.816 104.74 144.816Z" fill="#575988"/>
<path d="M103.186 119.966H80.1389V137.334H103.186V119.966Z" fill="url(#paint3_linear)"/>
<path d="M102.243 120.674H81.0788V136.625H102.243V120.674Z" fill="white"/>
<path opacity="0.2" d="M90.2049 122.055H83.1499V126.043H90.2049V122.055Z" fill="#61961F"/>
<path d="M100.174 122.055H91.8919V122.975H100.174V122.055Z" fill="#E6E8EC"/>
<path d="M97.7199 123.589H91.8919V124.509H97.7199V123.589Z" fill="#E6E8EC"/>
<path d="M100.174 125.123H91.8919V126.043H100.174V125.123Z" fill="#E6E8EC"/>
<path d="M100.174 126.657H83.1499V127.577H100.174V126.657Z" fill="#E6E8EC"/>
<path d="M100.174 128.19H83.1499V129.11H100.174V128.19Z" fill="#E6E8EC"/>
<path d="M100.174 129.724H83.1499V130.644H100.174V129.724Z" fill="#E6E8EC"/>
<path d="M98.7939 131.258H83.1499V132.178H98.7939V131.258Z" fill="#E6E8EC"/>
<path d="M100.174 132.792H83.1499V133.712H100.174V132.792Z" fill="#E6E8EC"/>
<path d="M100.174 134.325H83.1499V135.245H100.174V134.325Z" fill="#E6E8EC"/>
<path d="M107.896 122.268C107.896 122.268 105.972 123.115 105.817 126.654C105.662 130.193 102.268 136.196 102.268 136.196L102.575 143.277C102.575 143.277 106.269 146.971 106.575 149.277C106.881 151.583 109.503 153.125 109.503 153.125C109.503 153.125 112.581 151.586 113.052 149.576C113.523 147.566 113.812 142.65 114.591 140.802C115.37 138.954 114.898 127.411 114.898 127.411L112.588 123.411L111.356 122.027L108.124 125.721C108.124 125.721 106.357 123.343 107.896 122.268Z" fill="#F3B5B7"/>
<path opacity="0.1" d="M103.356 140.967C103.356 140.967 102.895 135.425 104.279 134.196L107.05 126.337C107.437 125.001 107.72 123.637 107.897 122.258C107.742 121.949 104.279 125.258 104.279 125.258L101.969 133.416L102.585 142.036L103.356 140.967Z" fill="black"/>
<path d="M103.201 140.968C103.201 140.968 102.74 135.426 104.124 134.197L106.895 126.338C107.308 124.979 107.617 123.59 107.818 122.183C107.663 121.876 104.124 125.261 104.124 125.261L101.814 133.419L102.43 142.039L103.201 140.968Z" fill="#575988"/>
<path d="M104.278 138.506C104.278 138.506 96.5778 136.044 96.1198 135.428C95.6618 134.812 90.7328 130.811 89.0388 133.58C87.3448 136.349 95.3488 137.129 95.3488 137.129L103.507 142.055L104.278 138.506Z" fill="#F7C4A7"/>
<path opacity="0.1" d="M75.6758 149.42L73.3938 149.009C73.3938 149.009 69.6618 153.788 67.7198 153.304C65.7778 152.82 63.9878 154.911 66.0418 155.586C67.8978 156.192 75.9058 157.041 77.4418 157.198C77.4732 157.202 77.5051 157.2 77.5355 157.191C77.5659 157.182 77.5941 157.167 77.6181 157.146C77.6421 157.126 77.6615 157.1 77.6749 157.072C77.6883 157.043 77.6954 157.012 77.6958 156.98C77.7031 156.386 77.8184 155.799 78.0358 155.246C78.4468 154.232 78.0358 152.072 77.9218 151.246C77.8584 150.762 77.7062 150.293 77.4728 149.864L75.6758 149.42Z" fill="black"/>
<path d="M75.6389 149.57L73.3568 149.159C73.3568 149.159 69.6298 153.94 67.6758 153.454C65.7218 152.968 63.9438 155.061 65.9978 155.736C67.8538 156.342 75.8619 157.191 77.3979 157.348C77.4292 157.352 77.4612 157.35 77.4916 157.341C77.5219 157.332 77.5501 157.317 77.5741 157.296C77.5981 157.276 77.6175 157.25 77.6309 157.222C77.6443 157.193 77.6515 157.162 77.6519 157.13C77.6592 156.536 77.7744 155.949 77.9919 155.396C78.4029 154.382 77.9918 152.222 77.8778 151.396C77.8144 150.912 77.6622 150.443 77.4288 150.014L75.6389 149.57Z" fill="#F3B5B7"/>
<path opacity="0.1" d="M107.742 121.962C110.462 121.962 112.668 119.757 112.668 117.036C112.668 114.315 110.462 112.11 107.742 112.11C105.021 112.11 102.816 114.315 102.816 117.036C102.816 119.757 105.021 121.962 107.742 121.962Z" fill="black"/>
<path d="M107.28 121.962C110 121.962 112.206 119.757 112.206 117.036C112.206 114.315 110 112.11 107.28 112.11C104.559 112.11 102.354 114.315 102.354 117.036C102.354 119.757 104.559 121.962 107.28 121.962Z" fill="#F7C4A7"/>
<path d="M112.132 121.883C112.132 121.883 117.981 123.883 117.981 128.041C117.981 132.199 114.749 138.815 114.594 144.203C114.439 149.591 105.974 148.82 105.974 148.82C105.974 148.82 104.742 130.658 105.974 129.271C107.206 127.884 112.744 122.499 112.132 121.883Z" fill="#575988"/>
<path opacity="0.1" d="M111.049 130.502C111.049 130.502 108.894 140.044 103.814 138.361C103.814 138.361 101.198 142.209 103.053 143.903C103.053 143.903 107.517 144.98 110.441 142.055C113.365 139.13 115.514 138.047 115.975 134.498C116.436 130.949 116.736 126.033 115.215 126.498C113.694 126.963 111.049 130.502 111.049 130.502Z" fill="black"/>
<path d="M111.207 130.348C111.207 130.348 109.052 139.89 103.972 138.207C103.972 138.207 101.356 142.055 103.211 143.749C103.211 143.749 107.675 144.826 110.598 141.901C113.521 138.976 115.668 137.901 116.14 134.359C116.612 130.817 116.901 125.894 115.379 126.359C113.857 126.824 111.207 130.348 111.207 130.348Z" fill="#575988"/>
<path d="M78.1189 154.901C78.12 154.909 78.1193 154.917 78.1167 154.924C78.114 154.932 78.1097 154.939 78.1039 154.944C77.9937 155.207 77.9086 155.479 77.8499 155.758C77.8849 155.633 77.928 155.51 77.9789 155.39C78.044 155.233 78.091 155.069 78.1189 154.901Z" fill="#DDDBE2"/>
<path d="M66.1218 155.286C65.4878 155.078 65.2219 154.736 65.2119 154.376C64.9579 154.883 65.1119 155.441 66.0119 155.735C67.8679 156.341 75.8788 157.19 77.4118 157.347C77.4435 157.351 77.4756 157.349 77.5062 157.34C77.5368 157.331 77.5651 157.315 77.5892 157.294C77.6133 157.273 77.6326 157.248 77.6458 157.219C77.659 157.189 77.6659 157.158 77.6658 157.126C77.6667 157.07 77.6467 157.016 77.6098 156.973C77.5728 156.931 77.5215 156.904 77.4659 156.898C75.7729 156.716 67.9528 155.882 66.1218 155.286Z" fill="#DDDBE2"/>
<path d="M52.4559 150.654C52.4954 150.541 52.5456 150.431 52.6059 150.327C52.4392 150.496 52.3148 150.701 52.2429 150.927C51.9059 151.87 60.9919 156.859 62.4429 157.65C62.4658 157.665 62.492 157.674 62.5192 157.676C62.5464 157.678 62.5737 157.674 62.5987 157.663C62.6238 157.652 62.6458 157.635 62.6629 157.614C62.6801 157.593 62.6917 157.568 62.6969 157.541C62.7054 157.506 62.7021 157.468 62.6875 157.435C62.6729 157.401 62.6477 157.374 62.6159 157.356C61.0009 156.477 52.1169 151.587 52.4559 150.654Z" fill="#DDDBE2"/>
<path d="M63.4828 155.884C63.4018 155.907 63.3208 156.013 63.2468 156.165H63.2718C63.3378 156.147 63.4549 156.015 63.5969 155.81C63.5649 155.843 63.5259 155.868 63.4828 155.883V155.884Z" fill="#DDDBE2"/>
<path opacity="0.1" d="M106.592 121.371C106.25 122.367 105.969 123.383 105.748 124.413C105.437 125.395 104.903 126.291 104.188 127.032C103.474 127.774 102.597 128.34 101.628 128.687C102.469 128.931 103.364 128.926 104.203 128.671C105.041 128.416 105.787 127.923 106.351 127.252C107.515 125.865 108.415 124.277 109.005 122.565C110.8 123.772 110.582 126.545 111.183 128.705C111.442 129.645 111.899 130.518 112.525 131.265C113.15 132.013 113.929 132.617 114.808 133.038C115.684 133.431 116.636 133.625 117.596 133.606C118.557 133.586 119.5 133.354 120.36 132.926C118.715 130.918 116.372 128.165 116.651 125.493C116.877 123.328 115.323 121.675 115.432 119.505C115.584 116.422 114.418 114.863 112.2 112.886C110.91 111.73 112.94 110.097 111.277 110.576C110.623 110.764 109.933 110.069 109.292 110.295C108.024 110.751 106.633 110.579 105.324 110.886C98.5259 112.477 107.225 119.974 106.592 121.371Z" fill="black"/>
<path d="M106.75 121.216C106.408 122.212 106.126 123.228 105.906 124.258C105.595 125.24 105.061 126.136 104.346 126.877C103.632 127.619 102.755 128.185 101.786 128.532C102.627 128.776 103.522 128.771 104.361 128.516C105.199 128.261 105.945 127.768 106.509 127.097C107.673 125.71 108.573 124.122 109.163 122.41C110.958 123.617 110.74 126.39 111.341 128.55C111.6 129.49 112.057 130.363 112.683 131.11C113.308 131.858 114.087 132.462 114.966 132.883C115.842 133.276 116.794 133.47 117.754 133.451C118.714 133.431 119.658 133.199 120.518 132.771C118.873 130.763 116.685 128.461 116.969 125.799C117.195 123.634 116.857 121.411 116.969 119.241C116.999 117.723 116.696 116.218 116.08 114.83C115.464 113.443 114.551 112.207 113.405 111.212C112.865 110.756 112.232 110.424 111.55 110.239C110.868 110.054 110.154 110.02 109.458 110.14C108.19 110.596 106.799 110.424 105.49 110.731C98.6799 112.325 107.384 119.819 106.75 121.216Z" fill="#B96B6B"/>
<path d="M24.6848 168.087C33.5578 165.357 38.7959 165.587 38.7959 165.587L38.0678 161.462C38.295 161.31 38.5011 161.128 38.6808 160.922C38.6808 160.922 37.7708 155.915 38.6808 154.663C39.5908 153.411 42.0958 142.033 42.0958 142.033V138.162C46.6588 136.57 51.9959 127.352 51.9959 127.352L58.7118 144.644C58.7118 144.644 65.4248 157.959 66.3348 158.412C67.0628 158.774 67.4248 161.753 67.5438 162.937L67.4878 162.955C67.5158 163.241 67.5288 163.419 67.5288 163.419L67.5818 163.384V163.419C67.6945 163.34 67.8132 163.271 67.9368 163.211C66.4056 165.008 64.7673 166.711 63.0308 168.311C62.1308 169.099 63.7458 169.711 64.5008 169.695C64.9307 169.681 65.3598 169.742 65.7688 169.875C69.5948 171.196 75.8838 166.375 75.8838 166.375L74.3099 161.984C74.7209 161.951 74.9738 161.936 74.9738 161.936C74.9738 161.936 69.8528 143.957 67.4618 142.248C66.7062 141.697 66.0246 141.051 65.4338 140.326C64.2988 138.944 63.7274 137.184 63.8338 135.398L64.6729 120.646C66.0219 120.446 66.8908 120.283 66.8908 120.283C66.8908 120.283 67.2048 116.252 67.1908 113.159C67.2623 111.959 67.1612 110.755 66.8908 109.584C66.5895 108.52 66.4629 107.414 66.5158 106.309C66.5158 104.534 66.6628 102.871 66.6628 102.871C68.3596 100.4 69.8083 97.7676 70.9878 95.012C71.863 93.2471 72.3292 91.3078 72.3519 89.338C72.3687 88.7025 72.3073 88.0674 72.1688 87.447C72.098 87.1402 71.9667 86.8506 71.7826 86.5951C71.5985 86.3396 71.3654 86.1234 71.0968 85.959C69.6568 85.077 66.3788 82.899 65.4128 80.79C64.1858 78.113 62.4128 77.733 62.3428 77.717L62.2338 77.245C62.9135 76.6831 63.4097 75.9309 63.6588 75.085C64.0288 73.944 64.1048 72.727 64.4198 71.569C64.5718 71.011 64.7828 70.469 64.9268 69.914C65.0711 69.3526 65.14 68.7745 65.1319 68.195C65.1592 67.351 64.9854 66.5126 64.6248 65.749C64.3395 65.1383 63.908 64.6073 63.3685 64.2032C62.829 63.799 62.1981 63.5342 61.5318 63.432C60.7935 63.4819 60.0543 63.3486 59.3799 63.044C58.9639 62.744 58.7458 62.244 58.3658 61.891C57.9673 61.5913 57.4963 61.4028 57.001 61.3448C56.5057 61.2869 56.0039 61.3614 55.5468 61.561C54.2804 61.995 53.1953 62.8397 52.4639 63.961C52.0941 64.6775 51.656 65.3566 51.1558 65.989C50.6388 66.4252 50.0991 66.8338 49.5389 67.213C49.1525 67.5148 48.8382 67.8989 48.6188 68.3374C48.3995 68.7759 48.2806 69.2578 48.2708 69.748V69.976C48.2768 70.4668 48.4428 70.9423 48.7434 71.3303C49.0441 71.7183 49.4631 71.9976 49.9368 72.126C50.1879 72.1721 50.4447 72.1789 50.6978 72.146C50.481 72.9449 50.4279 73.7793 50.5415 74.5993C50.6552 75.4193 50.9333 76.2078 51.3593 76.9176C51.7853 77.6274 52.3503 78.2438 53.0204 78.7298C53.6905 79.2159 54.4519 79.5615 55.2589 79.746C55.2439 79.827 55.2258 79.908 55.2078 80H55.2608C55.151 80.3944 55.0136 80.7807 54.8498 81.156H54.7758L54.9608 80.826L52.3498 80.646C51.5894 80.5886 50.8273 80.731 50.1388 81.059C49.5759 81.3021 49.0909 81.6957 48.7371 82.1965C48.3834 82.6974 48.1747 83.2861 48.1339 83.898C47.9059 86.844 42.3279 91.28 42.3279 91.28C40.3939 94.353 27.7609 94.92 27.7609 94.92C27.7609 94.92 27.8168 94.991 27.8418 95.029L27.5878 94.981L26.6319 94.806C26.6319 94.806 23.6728 86.044 20.8318 87.637C17.9908 89.23 25.7248 97.879 25.7248 97.879L27.9608 98.029L28.1868 98.044C28.1049 98.6111 27.9873 99.1726 27.8348 99.725C27.8048 99.837 27.7818 99.908 27.7768 99.925C31.3888 99.5255 35.0209 99.3352 38.6548 99.355H39.1059L39.4249 99.34C39.6789 102.086 43.5929 107.666 43.5929 107.666L46.0089 108.173L46.1919 108.211C45.4132 109.821 44.4242 111.32 43.2508 112.67L42.4509 117.109L42.5138 117.094L42.4509 117.451C42.5875 117.418 42.7138 117.351 42.8188 117.258C41.2598 121.395 38.6738 127.835 36.8768 130.081C34.1468 133.496 34.4858 138.954 34.4858 138.954C34.4858 138.954 31.7558 153.293 31.8698 155.909C31.883 157.172 31.5414 158.413 30.8839 159.491C30.3496 160.108 29.8804 160.778 29.4838 161.491C28.9778 162.476 28.212 163.305 27.2692 163.886C26.3264 164.468 25.2426 164.781 24.1348 164.791C21.2828 166.606 24.6848 168.087 24.6848 168.087ZM42.2609 98.677L42.5548 98.56L42.6229 98.532L42.9038 98.41L42.9518 98.387L43.2058 98.27L43.2618 98.245L43.5308 98.111L43.5938 98.078L43.8478 97.944H43.8678L44.1218 97.797L44.1828 97.761L44.4368 97.614L44.4778 97.589L44.6989 97.455L44.7498 97.425L44.9858 97.275L45.0389 97.24L45.2569 97.095L45.2768 97.082L45.4998 96.927L45.5508 96.891L45.7638 96.739L45.7968 96.716L45.9848 96.579L46.0259 96.549L46.2258 96.399L46.2668 96.369L46.4438 96.23H46.4588L46.6388 96.086L46.6769 96.056L46.8468 95.917L46.8618 95.904L47.0138 95.775L47.0389 95.752L47.1888 95.623L47.2118 95.603L47.3488 95.479L47.4809 95.36L47.4988 95.342L47.7528 95.088L48.1229 95.058C48.4623 95.6529 48.6192 96.3345 48.5739 97.018C48.4956 98.6199 48.2682 100.211 47.8949 101.771C47.8401 103.074 47.6134 104.365 47.2208 105.609C46.9442 105.592 46.673 105.524 46.4209 105.409C46.4209 105.409 46.4058 105.49 46.3828 105.627L46.1648 105.571L45.0568 105.295C45.0568 105.295 44.1239 100.613 42.2609 98.676V98.677Z" fill="url(#paint4_linear)"/>
<path d="M73.1209 159.289L75.2329 165.173C75.2329 165.173 69.4498 169.61 65.6928 168.692C65.1269 168.551 64.5503 168.458 63.9688 168.413C63.1908 168.355 61.8518 167.789 62.6788 167.067C64.8932 164.981 66.9712 162.755 68.8998 160.402L73.1209 159.289Z" fill="#4F4D59"/>
<path d="M38.0149 158.734L39.0149 164.4C39.0149 164.4 33.9038 164.177 25.2388 166.844C25.2388 166.844 21.9049 165.399 24.6839 163.622C25.7651 163.611 26.8227 163.305 27.7429 162.737C28.6631 162.169 29.411 161.361 29.9059 160.4C31.9059 156.955 33.1279 157.4 33.1279 157.4L38.0149 158.734Z" fill="#4F4D59"/>
<path d="M64.4599 117.627L63.4809 134.866C63.3759 136.703 63.985 138.51 65.1808 139.908C65.7216 140.55 66.3377 141.124 67.0159 141.619C69.3479 143.285 74.3479 160.838 74.3479 160.838C74.3479 160.838 68.6819 161.17 67.1279 162.283C67.1279 162.283 66.7958 157.839 65.9058 157.395C65.0159 156.951 58.4599 143.96 58.4599 143.96L51.9019 127.071C51.9019 127.071 46.6799 136.071 42.2349 137.625V141.402C42.2349 141.402 39.7909 152.511 38.9009 153.733C38.0109 154.955 38.9009 159.843 38.9009 159.843C38.9009 159.843 36.3459 163.065 30.4589 159.62C31.5724 158.316 32.1997 156.667 32.2339 154.953C32.1199 152.398 34.7949 138.403 34.7949 138.403C34.7949 138.403 34.4629 133.079 37.1269 129.738C39.7909 126.397 44.2269 113.63 44.2269 113.63L47.2838 107.051L64.4599 117.627Z" fill="#787C9C"/>
<g opacity="0.1">
<path opacity="0.1" d="M73.2879 160.844C73.2879 160.844 68.2879 143.29 65.9559 141.625C65.2389 141.101 64.5908 140.488 64.0268 139.802C62.8873 138.422 62.3153 136.66 62.4268 134.874L63.4058 117.635L47.0209 107.535L47.2439 107.056L64.4048 117.633L63.4259 134.872C63.3144 136.658 63.8863 138.42 65.0258 139.8C65.5898 140.486 66.2379 141.099 66.9549 141.623C69.2869 143.289 74.2869 160.842 74.2869 160.842C74.2869 160.842 68.6209 161.174 67.0669 162.287C67.0669 162.287 67.0538 162.115 67.0258 161.833C69.0743 161.292 71.1724 160.961 73.2879 160.844Z" fill="black"/>
<path opacity="0.1" d="M37.8489 159.848C37.8489 159.848 36.9589 154.96 37.8489 153.738C38.7389 152.516 41.1829 141.407 41.1829 141.407V137.63C45.6269 136.073 50.8499 127.076 50.8499 127.076L51.2379 128.076C49.7319 130.464 45.7138 136.394 42.1848 137.628V141.405C42.1848 141.405 39.7409 152.514 38.8509 153.736C37.9609 154.958 38.8509 159.846 38.8509 159.846C38.3404 160.368 37.7142 160.762 37.0231 160.996C36.3319 161.23 35.5953 161.299 34.8728 161.195C36.0015 161.147 37.0679 160.664 37.8489 159.848Z" fill="black"/>
</g>
<path d="M26.2389 98.296L28.4219 98.441L29.5729 98.517V95.73L28.0519 95.456L27.1169 95.286C27.1169 95.286 24.2289 86.732 21.4509 88.286C18.6729 89.84 26.2389 98.296 26.2389 98.296Z" fill="#714B4F"/>
<path d="M61.2338 75.411C61.2338 75.411 62.6789 80.966 63.1229 84.411C63.5669 87.856 52.7919 85.078 52.7919 85.078C52.7919 85.078 56.9009 80.078 54.5669 77.412L61.2338 75.411Z" fill="#714B4F"/>
<path d="M49.5688 98.518L49.3459 100.63L52.7888 100.407L56.2318 97.407L59.6749 87.74L61.9008 84.3L63.5669 82.188L62.8998 79.633C62.8998 79.633 62.5998 79.887 62.0808 80.292C60.3898 81.592 56.4199 84.277 53.5199 83.534C53.3842 83.5008 53.2505 83.4594 53.1198 83.41L48.7869 90.853L49.5688 98.518Z" fill="#E6E6F0"/>
<path opacity="0.1" d="M62.0119 78.978C62.0119 78.978 63.7869 79.31 65.0119 81.978C65.9529 84.029 69.1239 86.143 70.5409 87.013C70.8112 87.1785 71.0457 87.3964 71.2303 87.6541C71.415 87.9117 71.5461 88.2038 71.6158 88.513C71.9018 89.781 72.0159 92.138 70.4549 95.535C69.3006 98.2216 67.8869 100.789 66.2339 103.201C66.2339 103.201 65.7898 108.525 66.4568 110.089C67.1238 111.653 66.4568 120.199 66.4568 120.199C66.4568 120.199 54.7949 122.42 50.9039 120.199C47.0129 117.978 47.5699 109.399 47.5699 109.399C47.5699 109.399 43.9039 117.182 42.5779 117.405L43.3388 113.072C43.3388 113.072 47.6719 108.405 47.9019 102.407C47.9019 102.407 49.2359 96.964 48.1249 95.519C48.1249 95.519 29.3499 97.076 28.2389 95.742C28.2389 95.742 40.5699 95.187 42.4589 92.193C42.4589 92.193 47.9019 87.86 48.1249 84.973C48.1575 84.4314 48.3275 83.907 48.619 83.4492C48.9105 82.9915 49.3138 82.6156 49.7909 82.357C50.5467 81.9273 51.414 81.734 52.2808 81.802L54.7909 81.974C54.7909 81.974 50.4609 89.625 50.6909 90.639C50.9209 91.653 50.4679 99.748 50.4679 99.748C50.4679 99.748 55.4679 88.971 57.6879 87.748C59.9079 86.525 62.4568 81.511 62.4568 81.511L62.0119 78.978Z" fill="black"/>
<path opacity="0.1" d="M49.5688 98.518L49.3459 100.63L52.7888 100.407L56.2318 97.407L59.6749 87.74L61.9008 84.3L63.5669 82.188L62.8998 79.633C62.8998 79.633 62.5998 79.887 62.0808 80.292L62.2328 81.169C62.2328 81.169 59.6778 86.186 57.4568 87.408C55.2358 88.63 50.2368 99.408 50.2368 99.408C50.2368 99.408 50.6808 91.295 50.4598 90.299C50.3078 89.62 52.2549 85.875 53.5199 83.535C53.3842 83.5018 53.2505 83.4604 53.1198 83.411L48.7869 90.854L49.5688 98.518Z" fill="black"/>
<path opacity="0.1" d="M28.4209 98.442L29.5718 98.518V95.729L28.0508 95.456C28.5277 96.3749 28.659 97.4345 28.4209 98.442Z" fill="black"/>
<path d="M62.0119 78.633C62.0119 78.633 63.7869 78.965 65.0119 81.633C65.9529 83.684 69.1239 85.798 70.5409 86.668C70.8112 86.8334 71.0457 87.0514 71.2303 87.3091C71.415 87.5667 71.5461 87.8588 71.6158 88.168C71.9018 89.436 72.0159 91.793 70.4549 95.19C69.3006 97.8765 67.8869 100.444 66.2339 102.856C66.2339 102.856 65.7898 108.18 66.4568 109.744C67.1238 111.308 66.4568 119.854 66.4568 119.854C66.4568 119.854 54.7949 122.075 50.9039 119.854C47.0129 117.633 47.5699 109.077 47.5699 109.077C47.5699 109.077 43.9039 116.852 42.5779 117.077L43.3388 112.744C43.3388 112.744 47.6719 108.077 47.9019 102.079C47.9019 102.079 49.2359 96.636 48.1249 95.191C48.1249 95.191 43.7919 99.858 38.9049 99.754C35.3422 99.7364 31.7814 99.9217 28.2398 100.309C28.2398 100.309 29.3498 96.76 28.2398 95.421C28.2398 95.421 40.5709 94.866 42.4599 91.872C42.4599 91.872 47.9029 87.539 48.1259 84.652C48.157 84.1084 48.3266 83.5818 48.6185 83.1222C48.9105 82.6626 49.315 82.2852 49.7938 82.026C50.5497 81.5963 51.417 81.403 52.2838 81.471L54.7938 81.643C54.7938 81.643 50.4608 89.304 50.6938 90.303C50.9268 91.302 50.4709 99.412 50.4709 99.412C50.4709 99.412 55.4709 88.635 57.6909 87.412C59.9109 86.189 62.4669 81.173 62.4669 81.173L62.0229 78.638" fill="#67647E"/>
<path opacity="0.1" d="M64.4559 90.297C64.4559 90.297 61.7888 99.297 60.2348 100.407C58.6808 101.517 49.2348 107.183 46.4588 105.85C46.4588 105.85 45.7918 109.184 46.7908 109.959C46.7908 109.959 57.1498 109.553 57.2328 109.515C57.2328 109.515 64.0089 108.625 65.1199 105.294C66.2309 101.963 67.5639 96.2939 67.5639 96.2939L64.4559 90.297Z" fill="black"/>
<path d="M50.2359 100.463C50.4501 100.463 50.6239 100.215 50.6239 99.908C50.6239 99.6015 50.4501 99.353 50.2359 99.353C50.0216 99.353 49.8479 99.6015 49.8479 99.908C49.8479 100.215 50.0216 100.463 50.2359 100.463Z" fill="#BA7855"/>
<path d="M49.1259 104.352C49.3401 104.352 49.5139 104.104 49.5139 103.797C49.5139 103.49 49.3401 103.242 49.1259 103.242C48.9116 103.242 48.7379 103.49 48.7379 103.797C48.7379 104.104 48.9116 104.352 49.1259 104.352Z" fill="#BA7855"/>
<g opacity="0.1">
<path opacity="0.1" d="M65.6788 119.738C65.6788 119.738 66.3458 111.184 65.6788 109.628C65.0118 108.072 65.4558 102.74 65.4558 102.74C67.1107 100.329 68.5245 97.7615 69.6769 95.074C71.2339 91.674 71.1219 89.319 70.8379 88.052C70.7679 87.7427 70.6365 87.4505 70.4515 87.1928C70.2665 86.9352 70.0316 86.7173 69.7608 86.552C68.3438 85.682 65.1719 83.568 64.2339 81.517C63.7917 80.4353 63.0315 79.5133 62.0538 78.873L62.0108 78.619C62.0108 78.619 63.7858 78.951 65.0108 81.619C65.9518 83.67 69.1228 85.784 70.5378 86.654C70.8086 86.8193 71.0435 87.0372 71.2285 87.2948C71.4135 87.5525 71.5448 87.8446 71.6148 88.154C71.9008 89.422 72.0149 91.779 70.4539 95.176C69.2996 97.8626 67.8859 100.43 66.2329 102.842C66.2329 102.842 65.7888 108.166 66.4558 109.73C67.1228 111.294 66.4558 119.84 66.4558 119.84C66.4558 119.84 58.1229 121.427 53.1949 120.578C58.1719 121.168 65.6788 119.738 65.6788 119.738Z" fill="black"/>
<path opacity="0.1" d="M50.6908 90.2971C50.7767 92.6892 50.7353 95.0843 50.5669 97.472C50.0299 98.572 49.6919 99.2951 49.6919 99.2951C49.6919 99.2951 50.1358 91.182 49.9148 90.186C49.7048 89.235 53.6059 82.264 53.9939 81.566L54.8028 81.622C54.8028 81.622 50.4598 89.2981 50.6908 90.2971Z" fill="black"/>
<path opacity="0.1" d="M38.1259 99.629C43.0139 99.741 47.3459 95.066 47.3459 95.066C47.4763 95.2466 47.5717 95.4502 47.6269 95.666C46.3589 96.86 42.8099 99.819 38.9039 99.722C35.3411 99.7002 31.7801 99.8855 28.2389 100.277C28.2389 100.277 28.2619 100.203 28.2969 100.077C31.5623 99.7454 34.8437 99.5958 38.1259 99.629Z" fill="black"/>
<path opacity="0.1" d="M46.7909 108.961C46.7909 108.961 46.7448 109.656 46.7708 110.698C45.6148 112.98 43.5109 116.914 42.5709 117.071L42.7358 116.158C44.2751 113.87 45.631 111.463 46.7909 108.961Z" fill="black"/>
</g>
<path d="M48.0769 80.925H21.5209V100.938H48.0769V80.925Z" fill="url(#paint5_linear)"/>
<path d="M47.3889 81.439H22.2049V100.42H47.3889V81.439Z" fill="white"/>
<path opacity="0.2" d="M33.0629 83.082H24.6689V87.828H33.0629V83.082Z" fill="#61961F"/>
<path d="M44.9249 83.082H35.0709V84.177H44.9249V83.082Z" fill="#E6E8EC"/>
<path d="M42.0069 84.907H35.0709V86.002H42.0069V84.907Z" fill="#E6E8EC"/>
<path d="M44.9249 86.733H35.0709V87.828H44.9249V86.733Z" fill="#E6E8EC"/>
<path d="M44.9269 88.558H24.6689V89.653H44.9269V88.558Z" fill="#E6E8EC"/>
<path d="M44.9269 90.383H24.6689V91.478H44.9269V90.383Z" fill="#E6E8EC"/>
<path d="M44.9269 92.206H24.6689V93.301H44.9269V92.206Z" fill="#E6E8EC"/>
<path d="M43.2849 94.031H24.6689V95.126H43.2849V94.031Z" fill="#E6E8EC"/>
<path d="M44.9269 95.857H24.6689V96.952H44.9269V95.857Z" fill="#E6E8EC"/>
<path d="M44.9269 97.682H24.6689V98.777H44.9269V97.682Z" fill="#E6E8EC"/>
<path d="M43.6799 107.851L46.0399 108.358L47.9008 108.741L46.9008 105.952L46.2059 105.777L45.1229 105.508C45.1229 105.508 43.5689 97.738 40.4579 98.295C37.3469 98.852 43.6799 107.851 43.6799 107.851Z" fill="#714B4F"/>
<path opacity="0.1" d="M46.0409 108.348L47.9019 108.741L46.9019 105.952L46.2069 105.777C46.0516 106.625 45.9955 107.487 46.0399 108.348H46.0409Z" fill="black"/>
<path d="M64.4559 90.077C64.4559 90.077 61.7888 99.077 60.2348 100.187C58.6808 101.297 49.2348 106.963 46.4588 105.63C46.4588 105.63 45.7918 108.964 46.7908 109.739C46.7908 109.739 57.1498 109.333 57.2328 109.295C57.2328 109.295 64.0089 108.405 65.1199 105.074C66.2309 101.743 67.5639 96.074 67.5639 96.074L64.4559 90.077Z" fill="#67647E"/>
<path opacity="0.1" d="M61.1218 75.634C61.1218 75.634 61.3479 76.504 61.6489 77.769C61.0319 78.9326 60.0493 79.8608 58.8526 80.4105C57.6558 80.9603 56.3115 81.101 55.0268 80.811C55.1985 80.2734 55.2361 79.7019 55.1362 79.1464C55.0363 78.5909 54.8021 78.0682 54.4538 77.624L61.1218 75.634Z" fill="black"/>
<path d="M56.4569 80.744C59.7695 80.744 62.4549 78.0586 62.4549 74.746C62.4549 71.4334 59.7695 68.748 56.4569 68.748C53.1443 68.748 50.4589 71.4334 50.4589 74.746C50.4589 78.0586 53.1443 80.744 56.4569 80.744Z" fill="#714B4F"/>
<path opacity="0.1" d="M51.2479 73.094C50.8122 73.2149 50.3559 73.2425 49.9089 73.175C49.4462 73.0497 49.0371 72.7769 48.7438 72.3978C48.4505 72.0187 48.289 71.5542 48.2839 71.075C48.2932 70.5962 48.409 70.1254 48.623 69.697C48.837 69.2685 49.1437 68.8931 49.5209 68.598C50.0279 68.175 50.6358 67.873 51.0998 67.398C51.5905 66.7859 52.0155 66.1239 52.3679 65.423C53.0827 64.3284 54.1428 63.5041 55.3798 63.081C55.8261 62.886 56.3162 62.8131 56.7999 62.8696C57.2836 62.9262 57.7436 63.1103 58.1329 63.403C58.4959 63.745 58.7079 64.24 59.1139 64.529C59.772 64.8262 60.4934 64.9561 61.2139 64.907C61.864 65.007 62.4796 65.2656 63.0061 65.6599C63.5326 66.0543 63.954 66.5722 64.2329 67.168C64.7776 68.3751 64.8816 69.7351 64.5268 71.011C64.3878 71.556 64.1848 72.086 64.0348 72.628C63.7228 73.759 63.6498 74.945 63.2898 76.061C63.148 76.6305 62.8719 77.1577 62.4846 77.5988C62.0974 78.0398 61.6102 78.3817 61.0639 78.596C61.1526 77.3455 60.9058 76.0941 60.3489 74.971C60.2567 74.7262 60.0756 74.5252 59.8419 74.408C59.6414 74.3566 59.4313 74.3566 59.2309 74.408C57.8245 74.6167 56.3894 74.3262 55.1749 73.587C54.7489 73.333 54.0849 72.444 53.6289 72.355C53.0549 72.255 51.8559 72.957 51.2479 73.094Z" fill="black"/>
<path d="M51.2479 72.871C50.8122 72.992 50.3559 73.0196 49.9089 72.952C49.4462 72.8268 49.0371 72.5539 48.7438 72.1748C48.4505 71.7958 48.289 71.3313 48.2839 70.852C48.2932 70.3732 48.409 69.9025 48.623 69.474C48.837 69.0456 49.1437 68.6702 49.5209 68.375C50.0279 67.952 50.6358 67.65 51.0998 67.175C51.5905 66.5629 52.0155 65.901 52.3679 65.2C53.0827 64.1054 54.1428 63.2811 55.3798 62.858C55.8261 62.663 56.3162 62.5901 56.7999 62.6467C57.2836 62.7032 57.7436 62.8873 58.1329 63.18C58.4959 63.522 58.7079 64.017 59.1139 64.306C59.772 64.6033 60.4934 64.7331 61.2139 64.684C61.864 64.784 62.4796 65.0426 63.0061 65.437C63.5326 65.8313 63.954 66.3493 64.2329 66.945C64.7775 68.1522 64.8815 69.5121 64.5268 70.788C64.3878 71.333 64.1848 71.863 64.0348 72.405C63.7228 73.536 63.6498 74.722 63.2898 75.838C63.148 76.4075 62.8719 76.9348 62.4846 77.3758C62.0974 77.8168 61.6102 78.1588 61.0639 78.373C61.1526 77.1226 60.9058 75.8711 60.3489 74.748C60.2567 74.5033 60.0756 74.3023 59.8419 74.185C59.6414 74.1336 59.4313 74.1336 59.2309 74.185C57.8245 74.3937 56.3894 74.1032 55.1749 73.364C54.7489 73.11 54.0849 72.221 53.6289 72.132C53.0549 72.032 51.8559 72.737 51.2479 72.871Z" fill="#503F43"/>
<path d="M258.254 51.296C257.729 49.76 256.971 47.813 256.373 47.354C256.336 47.3245 256.296 47.2996 256.254 47.28H256.181V45.38L254.766 45.606C254.541 44.9207 254.372 44.2185 254.259 43.5061C254.395 43.6425 254.569 43.7355 254.758 43.7734C254.947 43.8113 255.143 43.7924 255.321 43.719C255.298 43.681 255.278 43.64 255.258 43.6L255.321 43.572C255.098 43.1792 254.98 42.7356 254.979 42.284C254.992 41.8713 255.059 41.4621 255.179 41.067C255.433 40.192 255.861 39.376 256.099 38.496C256.251 37.9299 256.323 37.3452 256.312 36.759C256.32 35.7656 256.094 34.7842 255.653 33.894C255.541 33.637 255.367 33.4121 255.146 33.24C254.947 33.1293 254.742 33.0292 254.532 32.94C254.18 32.7032 253.877 32.401 253.64 32.05C252.635 30.826 251.29 29.9278 249.774 29.469C249.379 29.3211 248.95 29.2865 248.537 29.369C247.586 29.623 247.237 30.801 246.471 31.42C245.72 31.8675 244.875 32.1355 244.004 32.203C243.13 32.3499 242.324 32.77 241.704 33.403C241.302 33.8626 241.083 34.4536 241.088 35.064C241.064 35.3491 241.115 35.6355 241.233 35.8957C241.352 36.1559 241.536 36.3812 241.767 36.55C242.03 36.7222 242.327 36.8343 242.638 36.8782C242.95 36.9221 243.267 36.8968 243.567 36.804C243.332 37.6155 243.267 38.4668 243.377 39.3045C243.486 40.1422 243.768 40.9481 244.204 41.6718C244.64 42.3955 245.221 43.0212 245.91 43.5098C246.599 43.9984 247.382 44.3393 248.209 44.511L248.374 44.811C248.883 45.7583 249.27 46.7663 249.525 47.811C248.427 48.518 247.214 49.0258 245.94 49.311C245.905 49.6471 245.842 49.9795 245.752 50.305C245.551 51.1211 245.165 51.88 244.624 52.5231C243.455 53.8361 238.2 63.764 238.2 63.764C238.2 63.764 238.035 64.164 237.764 64.834C234.501 65.234 229.175 65.813 227.689 65.516L221.858 59.969C221.858 59.969 219.972 61.409 220.137 63.158L219.085 62.158C219.085 62.158 213.538 66.3921 222.297 69.1651L235.624 70.711C234.356 74.542 233.17 79.001 233.538 81.427H233.647C233.902 81.427 234.156 81.4076 234.408 81.369L234.385 81.8L233.102 104.784C233.057 106.049 233.378 107.299 234.025 108.386C234.673 109.473 235.62 110.351 236.753 110.914C236.753 110.914 241.57 125.073 239.674 126.68C239.674 126.68 239.9 126.799 240.28 126.964L236.317 130.475C234.838 130.855 233.318 131.051 231.792 131.058C231.51 131.019 231.223 131.086 230.987 131.245C230.751 131.404 230.582 131.644 230.512 131.92C230.514 131.951 230.509 131.982 230.497 132.011V132.292C230.496 132.324 230.502 132.356 230.515 132.386V132.421C230.524 132.455 230.535 132.488 230.548 132.521L230.561 132.551C230.574 132.585 230.589 132.619 230.607 132.651V132.674C230.625 132.707 230.645 132.737 230.665 132.774L230.683 132.802C230.706 132.836 230.733 132.869 230.762 132.902L230.785 132.927C230.815 132.963 230.848 132.995 230.885 133.027L230.9 133.04L231.009 133.134L231.032 133.152C231.073 133.185 231.118 133.215 231.164 133.246L231.194 133.266C231.242 133.296 231.294 133.327 231.346 133.355H231.369L231.534 133.436H231.557L231.75 133.512L231.791 133.527L232.001 133.595H232.036L232.267 133.656H232.285L232.538 133.707H232.589L232.863 133.748H232.916L233.225 133.778C233.825 133.824 234.635 133.841 235.57 133.836V133.986C235.567 134.018 235.573 134.051 235.588 134.08V134.116C235.597 134.15 235.608 134.184 235.621 134.216L235.634 134.246C235.647 134.28 235.662 134.314 235.68 134.346V134.369C235.698 134.402 235.718 134.432 235.738 134.469L235.756 134.497C235.78 134.531 235.806 134.564 235.835 134.597L235.858 134.622C235.888 134.657 235.921 134.69 235.958 134.722L235.973 134.735L236.082 134.829L236.105 134.847C236.146 134.88 236.191 134.91 236.237 134.941L236.27 134.961C236.318 134.991 236.37 135.022 236.422 135.05H236.445L236.61 135.131H236.633L236.826 135.207L236.867 135.222L237.077 135.29H237.112L237.343 135.351H237.361L237.614 135.402H237.665L237.939 135.443H237.992L238.301 135.473C242.101 135.765 254.212 134.89 254.212 134.89V134.857V134.814C254.449 133.731 254.449 132.609 254.214 131.525C253.978 130.441 253.511 129.421 252.846 128.534C252.907 128.471 252.968 128.402 253.023 128.334C253.023 128.334 251.423 125.561 252.293 124.683C253.163 123.805 247.915 108.625 247.915 108.625C247.102 107.227 246.579 105.678 246.378 104.073C246.177 102.468 246.302 100.839 246.746 99.283C248.346 94.319 246.599 88.919 246.599 88.919C247.785 88.4821 248.802 87.6804 249.504 86.6292C250.206 85.5779 250.557 84.3311 250.506 83.068V82.629C250.59 82.641 250.675 82.646 250.76 82.644C250.814 82.6479 250.868 82.6479 250.922 82.644C250.517 81.1549 250.569 79.5787 251.069 78.119C251.946 76.219 253.842 77.972 255.594 70.237C256.862 64.637 257.977 58.2 258.494 55.067C258.717 53.8089 258.634 52.5157 258.254 51.296ZM224.939 67.716L223.608 66.448C224.049 66.631 224.538 66.811 225.086 66.983L230.106 67.5661C228.393 67.7908 226.662 67.8417 224.939 67.718V67.716Z" fill="url(#paint6_linear)"/>
<path d="M237.642 66.974C237.642 66.974 227.316 68.409 225.164 67.988L219.427 62.537C219.427 62.537 213.976 66.697 222.583 69.42L238.646 71.283L237.642 66.974Z" fill="#FDC2CC"/>
<path opacity="0.05" d="M237.642 66.974C237.642 66.974 227.316 68.409 225.164 67.988L219.427 62.537C219.427 62.537 213.976 66.697 222.583 69.42L238.646 71.283L237.642 66.974Z" fill="black"/>
<path d="M241.375 125.201L236.355 129.648C234.902 130.022 233.408 130.214 231.908 130.221C230.329 130.076 229.614 132.66 233.343 132.946C237.072 133.232 248.975 132.373 248.975 132.373C248.975 132.373 250.123 127.784 246.681 125.201H241.375Z" fill="#47465A"/>
<path opacity="0.05" d="M241.375 125.201L236.355 129.648C234.902 130.022 233.408 130.214 231.908 130.221C230.329 130.076 229.614 132.66 233.343 132.946C237.072 133.232 248.975 132.373 248.975 132.373C248.975 132.373 250.123 127.784 246.681 125.201H241.375Z" fill="black"/>
<path opacity="0.3" d="M249.156 130.386C249.147 130.909 249.087 131.429 248.976 131.94C248.976 131.94 237.061 132.799 233.344 132.513C231.552 132.376 230.788 131.707 230.652 131.065C230.49 131.8 231.139 132.774 233.344 132.944C237.073 133.23 248.976 132.371 248.976 132.371C249.115 131.719 249.176 131.053 249.156 130.386Z" fill="white"/>
<path d="M247.254 43.884C247.254 43.884 250.41 48.331 249.262 51.342C248.114 54.353 255.278 48.186 255.278 48.186C253.925 45.6359 253.518 42.6893 254.13 39.868L247.254 43.884Z" fill="#FDC2CC"/>
<path d="M246.405 126.92L241.385 131.367C239.932 131.741 238.438 131.933 236.938 131.94C235.359 131.795 234.644 134.379 238.373 134.665C242.102 134.951 254.005 134.092 254.005 134.092C254.005 134.092 255.153 129.503 251.711 126.92H246.405Z" fill="#47465A"/>
<path d="M247.829 125.916C247.469 126.334 247.023 126.669 246.522 126.898C246.02 127.128 245.475 127.247 244.924 127.247C243.09 127.206 241.289 126.751 239.656 125.916C241.519 124.339 236.789 110.426 236.789 110.426C235.676 109.872 234.746 109.01 234.11 107.941C233.474 106.873 233.16 105.644 233.204 104.402L234.472 81.821L234.789 76.15L238.805 73.711L241.971 76.14L244.971 78.44C245.166 79.1729 245.292 79.9225 245.346 80.679C245.693 85.95 241.528 87.189 241.528 87.189C241.528 87.189 243.249 92.495 241.673 97.37C241.237 98.8982 241.114 100.499 241.312 102.076C241.509 103.652 242.022 105.173 242.821 106.547C242.821 106.547 247.985 121.461 247.131 122.323C246.277 123.185 247.829 125.916 247.829 125.916Z" fill="#565171"/>
<path opacity="0.05" d="M247.829 125.916C247.469 126.334 247.023 126.669 246.522 126.898C246.02 127.128 245.475 127.247 244.924 127.247C243.09 127.206 241.289 126.751 239.656 125.916C241.519 124.339 236.789 110.426 236.789 110.426C235.676 109.872 234.746 109.01 234.11 107.941C233.474 106.873 233.16 105.644 233.204 104.402L234.472 81.821L234.789 76.15L238.805 73.711L241.971 76.14L244.971 78.44C245.166 79.1729 245.292 79.9225 245.346 80.679C245.693 85.95 241.528 87.189 241.528 87.189C241.528 87.189 243.249 92.495 241.673 97.37C241.237 98.8982 241.114 100.499 241.312 102.076C241.509 103.652 242.022 105.173 242.821 106.547C242.821 106.547 247.985 121.461 247.131 122.323C246.277 123.185 247.829 125.916 247.829 125.916Z" fill="black"/>
<path d="M252.849 127.638C250.41 130.65 244.676 127.638 244.676 127.638C244.793 127.532 244.88 127.398 244.93 127.248C245.982 124.388 241.381 110.716 241.381 110.716C237.51 108.853 237.071 104.406 237.071 104.406L236.057 81.425L235.925 78.449L241.959 76.149L243.812 75.442L249.98 80.175C250.248 81.1523 250.383 82.1615 250.38 83.175C250.43 84.4161 250.086 85.6412 249.396 86.6743C248.707 87.7074 247.707 88.4954 246.542 88.925C246.542 88.925 248.263 94.231 246.687 99.106C246.251 100.634 246.128 102.235 246.326 103.812C246.523 105.388 247.036 106.909 247.835 108.283C247.835 108.283 252.999 123.197 252.145 124.059C251.291 124.921 252.849 127.638 252.849 127.638Z" fill="#565171"/>
<path opacity="0.1" d="M250.379 83.165C249.139 82.988 246.629 81.494 245.339 80.683L244.533 80.176C244.533 80.176 243.243 76.591 239.8 79.317C238.681 80.2259 237.417 80.9405 236.061 81.431C235.541 81.6144 235.006 81.7483 234.461 81.831L234.778 76.16L238.794 73.721L241.961 76.15L243.814 75.443L249.982 80.176C250.248 81.1498 250.382 82.1553 250.379 83.165Z" fill="black"/>
<path d="M258.137 55.654C257.63 58.732 256.53 65.054 255.285 70.554C253.564 78.159 251.7 76.433 250.838 78.299C250.346 79.7335 250.295 81.2826 250.693 82.746C249.258 82.891 244.525 79.734 244.525 79.734C244.525 79.734 243.235 76.149 239.792 78.875C236.349 81.601 233.624 81.456 233.624 81.456C232.907 76.723 238.213 64.103 238.213 64.103C238.213 64.103 243.377 54.35 244.523 53.06C245.055 52.428 245.434 51.6821 245.631 50.88C245.719 50.5603 245.78 50.2339 245.813 49.904C247.676 49.759 252.268 46.604 252.268 46.604L255.853 46.031V47.894C255.895 47.9127 255.934 47.9366 255.97 47.965C256.561 48.416 257.303 50.33 257.818 51.839C258.237 53.065 258.347 54.3755 258.137 55.654Z" fill="#F68080"/>
<path opacity="0.1" d="M255.278 49.765C255.278 49.765 251.549 46.753 245.956 56.506C240.363 66.259 239.073 64.679 239.073 64.679C239.073 64.679 240.221 68.989 239.646 69.843C241.411 69.6936 243.186 69.6936 244.952 69.843C246.387 70.129 255.278 58.949 255.278 58.949C255.278 58.949 259.877 52.632 255.278 49.765Z" fill="black"/>
<path opacity="0.1" d="M255.144 49.189C255.144 49.189 251.415 46.177 245.822 55.93C240.229 65.683 238.939 64.103 238.939 64.103C238.939 64.103 243.386 68.978 244.818 69.267C246.25 69.556 255.144 58.367 255.144 58.367C255.144 58.367 259.732 52.059 255.144 49.189Z" fill="black"/>
<path opacity="0.1" d="M239.522 68.91C239.48 67.5924 239.288 66.284 238.949 65.01C239.821 64.896 240.371 64.82 240.371 64.82L241.385 69.13L239.522 68.91Z" fill="black"/>
<path opacity="0.1" d="M254.279 40.157L247.396 44.173C247.685 44.5964 247.952 45.0347 248.196 45.486C248.593 45.567 248.997 45.6079 249.403 45.608C251.241 45.608 252.098 43.679 253.203 42.381C253.131 41.338 253.979 41.31 254.279 40.157Z" fill="black"/>
<path d="M249.265 45.319C252.592 45.319 255.289 42.622 255.289 39.295C255.289 35.968 252.592 33.271 249.265 33.271C245.938 33.271 243.241 35.968 243.241 39.295C243.241 42.622 245.938 45.319 249.265 45.319Z" fill="#FDC2CC"/>
<path d="M239.955 46.16H191.445V82.717H239.955V46.16Z" fill="url(#paint7_linear)"/>
<path d="M238.868 46.979H192.533V81.898H238.868V46.979Z" fill="white"/>
<path opacity="0.2" d="M212.509 50.001H197.065V58.73H212.509V50.001Z" fill="#61961F"/>
<path d="M234.334 50.001H216.203V52.016H234.334V50.001Z" fill="#E6E8EC"/>
<path d="M228.962 53.36H216.203V55.375H228.962V53.36Z" fill="#E6E8EC"/>
<path d="M234.334 56.716H216.203V58.731H234.334V56.716Z" fill="#E6E8EC"/>
<path d="M234.334 60.073H197.065V62.088H234.334V60.073Z" fill="#E6E8EC"/>
<path d="M234.334 63.432H197.065V65.447H234.334V63.432Z" fill="#E6E8EC"/>
<path d="M234.334 66.789H197.065V68.804H234.334V66.789Z" fill="#E6E8EC"/>
<path d="M231.313 70.148H197.065V72.163H231.313V70.148Z" fill="#E6E8EC"/>
<path d="M234.334 73.504H197.065V75.519H234.334V73.504Z" fill="#E6E8EC"/>
<path d="M234.334 76.861H197.065V78.876H234.334V76.861Z" fill="#E6E8EC"/>
<path opacity="0.1" d="M241.644 34.422C242.252 33.7987 243.042 33.3842 243.9 33.238C244.754 33.1685 245.583 32.9084 246.324 32.477C247.084 31.871 247.424 30.72 248.352 30.464C248.758 30.3837 249.178 30.4183 249.566 30.564C251.056 31.0141 252.378 31.8964 253.366 33.099C253.599 33.4439 253.896 33.7409 254.241 33.974C254.446 34.0614 254.646 34.1595 254.841 34.268C255.056 34.4374 255.225 34.6577 255.333 34.909C256.005 36.2668 256.16 37.8232 255.769 39.287C255.536 40.151 255.115 40.953 254.869 41.822C254.717 42.2429 254.652 42.6901 254.676 43.1368C254.701 43.5835 254.816 44.0206 255.014 44.422C254.781 44.5057 254.526 44.5045 254.294 44.4187C254.062 44.3329 253.868 44.168 253.746 43.953C253.514 43.5145 253.343 43.0461 253.239 42.561C252.952 41.6285 252.414 40.7928 251.685 40.145C251.234 39.745 250.417 39.476 250.111 39.993C249.989 40.193 249.997 40.447 249.893 40.655C249.767 40.8452 249.572 40.9785 249.349 41.026C249.126 41.0735 248.893 41.0315 248.701 40.909C248.322 40.6475 248.056 40.253 247.956 39.804C247.365 37.804 246.356 36.549 244.222 37.404C243.839 37.6154 243.408 37.7251 242.97 37.7228C242.533 37.7206 242.103 37.6063 241.722 37.391C241.513 37.2065 241.344 36.9811 241.226 36.7286C241.109 36.4761 241.044 36.202 241.037 35.9235C241.029 35.6449 241.079 35.3679 241.184 35.1095C241.288 34.8512 241.445 34.6172 241.644 34.422Z" fill="black"/>
<path d="M241.644 34.279C242.252 33.6557 243.042 33.2411 243.9 33.095C244.754 33.0255 245.583 32.7654 246.324 32.334C247.084 31.728 247.424 30.577 248.352 30.321C248.758 30.2407 249.178 30.2753 249.566 30.421C251.056 30.8711 252.378 31.7534 253.366 32.956C253.599 33.3009 253.896 33.5979 254.241 33.831C254.446 33.9184 254.646 34.0165 254.841 34.125C255.056 34.2944 255.225 34.5147 255.333 34.766C256.005 36.1238 256.16 37.6802 255.769 39.144C255.536 40.009 255.115 40.81 254.869 41.679C254.717 42.0999 254.652 42.547 254.676 42.9938C254.701 43.4405 254.816 43.8776 255.014 44.279C254.781 44.3627 254.526 44.3615 254.294 44.2757C254.062 44.1899 253.868 44.025 253.746 43.81C253.514 43.3715 253.343 42.9031 253.239 42.418C252.952 41.4855 252.414 40.6498 251.685 40.002C251.234 39.602 250.417 39.333 250.111 39.85C249.989 40.05 249.997 40.304 249.893 40.512C249.767 40.7022 249.572 40.8355 249.349 40.883C249.126 40.9305 248.893 40.8885 248.701 40.766C248.322 40.5045 248.056 40.11 247.956 39.661C247.365 37.661 246.356 36.406 244.222 37.261C243.839 37.4723 243.408 37.5821 242.97 37.5798C242.533 37.5776 242.103 37.4633 241.722 37.248C241.513 37.0635 241.344 36.8381 241.226 36.5856C241.109 36.3331 241.044 36.059 241.037 35.7805C241.029 35.5019 241.079 35.2249 241.184 34.9665C241.288 34.7082 241.445 34.4742 241.644 34.279Z" fill="#B96B6B"/>
<path opacity="0.05" d="M255.978 47.973H253.067C253.067 47.973 247.33 50.84 247.188 50.698C246.665 50.6773 246.143 50.7408 245.641 50.886C245.729 50.5663 245.79 50.2399 245.823 49.91C247.686 49.765 252.278 46.61 252.278 46.61L255.863 46.037V47.9C255.904 47.9195 255.943 47.944 255.978 47.973Z" fill="black"/>
<path opacity="0.3" d="M254.175 132.107C254.166 132.63 254.106 133.15 253.995 133.661C253.995 133.661 242.08 134.52 238.363 134.234C236.571 134.097 235.808 133.428 235.671 132.786C235.509 133.521 236.158 134.495 238.363 134.665C242.092 134.951 253.995 134.092 253.995 134.092C254.135 133.44 254.195 132.773 254.175 132.107Z" fill="white"/>
<g opacity="0.05">
<path opacity="0.05" d="M238.435 78.724C237.043 79.8708 235.414 80.6942 233.666 81.135C233.67 81.2404 233.682 81.3453 233.702 81.449C233.702 81.449 236.427 81.593 239.87 78.868C240.403 78.4111 241.033 78.0818 241.713 77.905C240.962 77.558 239.89 77.581 238.435 78.724Z" fill="black"/>
<path opacity="0.05" d="M257.899 51.852C257.392 50.331 256.631 48.43 256.051 47.978C256.015 47.9495 255.976 47.9257 255.934 47.907C255.934 47.907 254.748 47.948 254.786 47.978C255.377 48.429 255.95 50.199 256.464 51.707C256.878 52.9288 256.985 54.2339 256.776 55.507C256.269 58.585 255.169 64.907 253.924 70.407C252.203 78.012 250.339 76.286 249.477 78.152C248.994 79.5048 248.925 80.9705 249.277 82.363C249.741 82.5941 250.25 82.723 250.768 82.741C250.37 81.2775 250.421 79.7285 250.913 78.294C251.775 76.428 253.638 78.149 255.36 70.549C256.605 65.049 257.7 58.722 258.212 55.649C258.421 54.3768 258.313 53.0728 257.899 51.852Z" fill="black"/>
</g>
<path d="M241.377 69.126L239.524 68.911L225.324 67.261C216.724 64.536 222.168 60.378 222.168 60.378L227.905 65.829C229.56 66.161 236.05 65.388 238.958 65.015C239.83 64.901 240.38 64.825 240.38 64.825L241.377 69.126Z" fill="#FDC2CC"/>
<path d="M255.278 49.478C255.278 49.478 251.549 46.466 245.956 56.219C240.363 65.972 239.073 64.392 239.073 64.392C239.073 64.392 240.221 68.702 239.646 69.556C241.411 69.4066 243.186 69.4066 244.952 69.556C246.387 69.842 255.278 58.656 255.278 58.656C255.278 58.656 259.877 52.345 255.278 49.478Z" fill="#F68080"/>
<defs>
<linearGradient id="paint0_linear" x1="59.4739" y1="146.804" x2="59.4739" y2="34.658" gradientUnits="userSpaceOnUse">
<stop stop-color="#808080" stop-opacity="0.251"/>
<stop offset="0.54" stop-color="#808080" stop-opacity="0.122"/>
<stop offset="1" stop-color="#808080" stop-opacity="0.102"/>
</linearGradient>
<linearGradient id="paint1_linear" x1="22.3764" y1="155.867" x2="22.3764" y2="68.234" gradientUnits="userSpaceOnUse">
<stop stop-color="#808080" stop-opacity="0.251"/>
<stop offset="0.54" stop-color="#808080" stop-opacity="0.122"/>
<stop offset="1" stop-color="#808080" stop-opacity="0.102"/>
</linearGradient>
<linearGradient id="paint2_linear" x1="85.9935" y1="158.563" x2="85.9935" y2="109.568" gradientUnits="userSpaceOnUse">
<stop stop-color="#808080" stop-opacity="0.251"/>
<stop offset="0.54" stop-color="#808080" stop-opacity="0.122"/>
<stop offset="1" stop-color="#808080" stop-opacity="0.102"/>
</linearGradient>
<linearGradient id="paint3_linear" x1="80.1389" y1="128.65" x2="103.186" y2="128.65" gradientUnits="userSpaceOnUse">
<stop stop-color="#808080" stop-opacity="0.251"/>
<stop offset="0.54" stop-color="#808080" stop-opacity="0.122"/>
<stop offset="1" stop-color="#808080" stop-opacity="0.102"/>
</linearGradient>
<linearGradient id="paint4_linear" x1="98.935" y1="170.104" x2="98.935" y2="61.3257" gradientUnits="userSpaceOnUse">
<stop stop-color="#808080" stop-opacity="0.251"/>
<stop offset="0.54" stop-color="#808080" stop-opacity="0.122"/>
<stop offset="1" stop-color="#808080" stop-opacity="0.102"/>
</linearGradient>
<linearGradient id="paint5_linear" x1="34.7989" y1="100.938" x2="34.7989" y2="80.925" gradientUnits="userSpaceOnUse">
<stop stop-color="#808080" stop-opacity="0.251"/>
<stop offset="0.54" stop-color="#808080" stop-opacity="0.122"/>
<stop offset="1" stop-color="#808080" stop-opacity="0.102"/>
</linearGradient>
<linearGradient id="paint6_linear" x1="238.026" y1="135.639" x2="238.026" y2="29.3253" gradientUnits="userSpaceOnUse">
<stop stop-color="#808080" stop-opacity="0.251"/>
<stop offset="0.54" stop-color="#808080" stop-opacity="0.122"/>
<stop offset="1" stop-color="#808080" stop-opacity="0.102"/>
</linearGradient>
<linearGradient id="paint7_linear" x1="215.7" y1="82.717" x2="215.7" y2="46.16" gradientUnits="userSpaceOnUse">
<stop stop-color="#808080" stop-opacity="0.251"/>
<stop offset="0.54" stop-color="#808080" stop-opacity="0.122"/>
<stop offset="1" stop-color="#808080" stop-opacity="0.102"/>
</linearGradient>
</defs>
</svg>
